<svg width="25" height="24" viewBox="0 0 25 24" fill="none" xmlns="http://www.w3.org/2000/svg">
<path d="M22.4691 9.4168C22.9103 8.9868 23.066 8.3557 22.8757 7.76981C22.6853 7.18392 22.1883 6.76495 21.5787 6.67639L16.248 5.90179C16.1433 5.88661 16.0529 5.8209 16.0061 5.72602L13.6221 0.89561C13.3495 0.34317 12.7974 0 12.1814 0C11.5653 0 11.0132 0.34317 10.7406 0.89561L8.35668 5.72606C8.30981 5.8209 8.2194 5.88661 8.11472 5.90184L2.78407 6.67639C2.17443 6.76495 1.67752 7.18392 1.4871 7.76981C1.29667 8.3557 1.45245 8.9868 1.89365 9.4168L5.75098 13.1768C5.82668 13.2506 5.86127 13.357 5.84338 13.4612L4.93278 18.7704C4.82867 19.3776 5.07353 19.9796 5.57192 20.3418C6.07031 20.704 6.71877 20.7507 7.26398 20.4641L12.0319 17.9575C12.1255 17.9083 12.2373 17.9083 12.331 17.9575L17.0989 20.4641C17.3361 20.5888 17.5927 20.6504 17.848 20.6504C18.1797 20.6504 18.5093 20.5465 18.7908 20.3417C19.2892 19.9796 19.5341 19.3774 19.4299 18.7703L18.5193 13.4612C18.5015 13.3569 18.5361 13.2506 18.6118 13.1767L22.4691 9.4168ZM17.2526 13.6785L18.1632 18.9878C18.1937 19.1655 18.084 19.2668 18.0354 19.302C17.9868 19.3372 17.8565 19.4104 17.697 19.3264L12.9291 16.8198C12.695 16.6968 12.4383 16.6352 12.1815 16.6352C11.9247 16.6352 11.6678 16.6968 11.4338 16.8197L6.66595 19.3263C6.50636 19.4102 6.37612 19.3372 6.32754 19.3019C6.27896 19.2667 6.16923 19.1654 6.19973 18.9877L7.11033 13.6785C7.19974 13.1573 7.02706 12.6257 6.64825 12.2565L2.79092 8.4965C2.66183 8.37059 2.69104 8.22418 2.70965 8.16708C2.72816 8.10993 2.79064 7.97427 2.96903 7.94839L8.29962 7.17378C8.82299 7.09774 9.27527 6.76923 9.50938 6.29487L11.8933 1.46442C11.9731 1.30278 12.1214 1.28532 12.1815 1.28532C12.2415 1.28532 12.3898 1.30273 12.4696 1.46442V1.46447L14.8536 6.29492C15.0877 6.76928 15.5399 7.09779 16.0632 7.17383L21.3939 7.94843C21.5723 7.97432 21.6348 8.10998 21.6533 8.16713C21.6719 8.22427 21.7011 8.37074 21.572 8.49654L17.7147 12.2565C17.3359 12.6257 17.1632 13.1573 17.2526 13.6785Z" fill="#F9D16F"/>
<path d="M19.6891 0.895227C19.4019 0.686622 19 0.750288 18.7914 1.03741L18.1092 1.97632C17.9006 2.26343 17.9642 2.66537 18.2514 2.87397C18.3656 2.95682 18.4977 2.99674 18.6286 2.99674C18.8274 2.99674 19.0233 2.90485 19.1491 2.73184L19.8313 1.79293C20.0399 1.50577 19.9763 1.10383 19.6891 0.895227Z" fill="#F9D16F"/>
<path d="M6.25056 1.97234L5.56836 1.03343C5.35981 0.746409 4.95792 0.682743 4.67071 0.891252C4.38359 1.09986 4.31992 1.50179 4.52853 1.78891L5.21073 2.72782C5.33649 2.90097 5.53244 2.99281 5.73124 2.99281C5.86224 2.99281 5.99442 2.95289 6.10843 2.87C6.39555 2.66144 6.45921 2.25951 6.25056 1.97234Z" fill="#F9D16F"/>
<path d="M2.35783 14.4188C2.24815 14.0813 1.88562 13.8966 1.54801 14.0062L0.444227 14.3649C0.106624 14.4746 -0.078046 14.8372 0.0316332 15.1747C0.119852 15.4464 0.371805 15.619 0.642696 15.619C0.708504 15.619 0.775453 15.6088 0.841451 15.5873L1.94524 15.2286C2.28279 15.119 2.46751 14.7564 2.35783 14.4188Z" fill="#F9D16F"/>
<path d="M12.1815 21.5542C11.8266 21.5542 11.5388 21.8419 11.5388 22.1969V23.3575C11.5388 23.7124 11.8266 24.0002 12.1815 24.0002C12.5364 24.0002 12.8241 23.7124 12.8241 23.3575V22.1969C12.8241 21.8419 12.5364 21.5542 12.1815 21.5542Z" fill="#F9D16F"/>
<path d="M23.9184 14.3659L22.8146 14.0072C22.4771 13.8976 22.1145 14.0822 22.0048 14.4198C21.8951 14.7574 22.0798 15.12 22.4174 15.2296L23.5212 15.5883C23.5872 15.6097 23.6541 15.6199 23.7199 15.6199C23.9908 15.6199 24.2428 15.4472 24.331 15.1756C24.4407 14.8381 24.2559 14.4755 23.9184 14.3659Z" fill="#F9D16F"/>
</svg>
