<?xml version="1.0" standalone="no"?>
<!DOCTYPE svg PUBLIC "-//W3C//DTD SVG 20010904//EN"
 "http://www.w3.org/TR/2001/REC-SVG-20010904/DTD/svg10.dtd">
<svg version="1.0" xmlns="http://www.w3.org/2000/svg"
 width="2500.000000pt" height="3500.000000pt" viewBox="0 0 2500.000000 3500.000000"
 preserveAspectRatio="xMidYMid meet">

<g transform="translate(0.000000,3500.000000) scale(0.100000,-0.100000)"
fill="#000000" stroke="none">
<path d="M0 21708 c0 -11947 2 -13290 15 -13264 9 17 69 176 134 355 166 455
237 635 413 1046 160 372 408 889 568 1180 40 72 119 222 177 335 58 113 128
243 156 290 111 187 270 373 419 489 47 36 69 61 73 81 7 34 40 68 157 167
108 91 163 127 256 170 42 20 95 48 117 63 22 15 65 40 95 55 30 15 102 60
160 100 126 86 150 99 254 135 294 102 843 337 1546 660 275 126 404 195 600
320 124 79 191 119 475 285 55 32 165 102 245 155 182 121 612 394 705 447
159 91 333 176 416 203 148 49 269 116 441 245 59 44 140 97 180 117 117 59
377 178 448 205 184 71 456 154 565 173 66 12 131 28 145 35 31 16 136 148
173 218 15 29 39 90 53 137 15 47 58 158 96 247 38 89 89 222 114 295 49 143
115 276 200 404 l54 80 3 245 c3 277 -14 622 -32 659 -29 61 -49 93 -74 123
-54 64 -107 137 -107 145 0 5 -9 17 -20 27 -11 10 -20 22 -20 27 0 4 -14 27
-30 50 -16 22 -30 45 -30 49 0 9 -47 80 -58 89 -4 3 -12 16 -18 30 -40 89 -86
187 -94 200 -23 38 -51 103 -85 190 -19 52 -42 110 -50 128 -8 18 -15 41 -15
51 0 10 -7 24 -16 32 -8 7 -13 21 -10 32 3 11 -2 30 -11 43 -13 20 -70 225
-90 324 -2 14 -7 32 -10 40 -4 8 -5 20 -4 27 1 7 -7 21 -18 32 -10 10 -23 27
-29 36 -9 17 -17 17 -118 5 -288 -34 -464 25 -542 182 -30 59 -33 75 -33 151
0 72 5 98 32 168 32 82 32 84 20 159 -7 41 -21 109 -31 150 -10 41 -21 122
-24 180 -4 58 -11 132 -16 165 -5 33 -16 114 -25 180 -16 124 -69 318 -112
414 -14 31 -31 70 -38 86 -8 17 -29 65 -48 107 -76 166 -80 185 -81 383 -1
183 18 346 59 495 8 30 19 80 25 111 11 58 50 168 69 191 84 104 96 112 166
113 28 1 58 5 67 9 23 10 24 -12 2 -28 -9 -7 -16 -30 -17 -61 -2 -47 -1 -50
21 -47 24 4 24 -2 5 -70 -6 -26 10 -22 22 4 12 26 35 36 35 14 0 -9 -4 -16
-10 -16 -5 0 -10 -5 -10 -11 0 -6 7 -8 15 -5 20 7 30 -17 16 -41 -11 -21 1
-49 17 -39 18 11 24 -13 8 -30 -20 -20 -20 -28 -1 -20 23 8 19 -31 -4 -44 -16
-8 -21 -6 -26 8 -9 28 -109 130 -138 141 -20 8 -30 6 -46 -7 -37 -31 -101
-116 -101 -134 0 -9 -6 -21 -14 -25 -8 -5 -17 -32 -20 -68 -3 -33 -16 -123
-27 -200 -21 -136 -21 -144 -5 -270 13 -106 24 -152 61 -248 25 -65 59 -137
76 -160 16 -22 37 -66 46 -96 9 -31 19 -63 24 -71 7 -15 30 -130 35 -185 2
-16 10 -59 18 -95 8 -35 12 -68 10 -72 -3 -4 0 -8 5 -8 6 0 11 -12 11 -27 1
-22 39 -192 54 -238 5 -16 17 -48 27 -73 5 -13 9 -30 9 -39 0 -8 18 -42 40
-74 22 -32 40 -65 40 -72 0 -24 61 -100 71 -90 16 16 29 123 18 145 -9 17 -33
41 -114 113 -43 38 -85 130 -111 241 -70 305 -89 530 -59 703 27 149 55 227
81 217 17 -7 18 -2 2 24 -10 15 -9 22 6 39 16 18 17 21 3 27 -13 5 -14 10 -2
38 8 19 12 36 8 39 -3 3 4 21 15 39 22 36 23 110 4 198 -5 25 -9 59 -7 75 1
17 3 45 3 63 2 25 7 35 22 39 15 4 18 11 14 29 -6 24 3 29 46 25 12 -2 13 0 1
7 -7 6 -10 15 -6 22 5 8 12 6 27 -6 16 -16 21 -16 28 -4 7 11 10 8 10 -13 0
-23 7 -43 28 -76 1 -3 8 4 16 14 12 16 14 14 19 -25 7 -55 21 -69 45 -47 23
21 33 22 26 3 -3 -8 -1 -17 5 -21 22 -13 11 -27 -16 -20 -26 6 -27 6 -10 -13
23 -25 22 -65 -3 -87 -11 -10 -20 -26 -20 -37 0 -11 -7 -18 -20 -18 -11 0 -20
-4 -20 -10 0 -5 5 -10 11 -10 20 0 49 21 49 35 0 8 5 15 10 15 6 0 9 -14 6
-32 -6 -54 -18 -88 -29 -88 -8 0 -7 -4 1 -12 8 -8 15 -8 25 0 19 16 27 5 27
-39 0 -33 -4 -40 -25 -45 -34 -8 -32 -21 5 -29 17 -4 28 -10 25 -15 -3 -5 -1
-12 5 -15 6 -4 10 -3 8 2 -3 12 34 83 44 83 7 0 38 52 38 64 0 3 -7 3 -15 0
-19 -8 -19 3 0 22 8 9 18 33 21 54 4 21 12 41 19 44 11 4 26 65 30 121 3 36
47 143 66 161 18 16 21 15 57 -18 39 -35 39 -35 163 -41 68 -4 141 -9 162 -13
37 -7 37 -7 37 -53 0 -61 25 -253 44 -334 25 -107 85 -277 136 -384 27 -57 51
-103 54 -103 7 0 -4 29 -20 55 -19 31 -83 193 -100 255 -35 125 -46 181 -59
290 -21 171 -19 261 6 321 12 27 25 46 30 43 5 -3 6 -29 3 -58 -7 -57 10 -273
27 -349 7 -31 19 -53 35 -63 21 -14 23 -21 17 -62 -4 -29 -3 -43 4 -39 6 4 17
48 26 99 9 51 26 149 38 218 11 69 23 159 26 200 2 41 8 84 14 95 11 24 66
282 80 375 5 36 17 83 25 105 20 49 28 105 15 105 -15 0 -97 -66 -138 -111
-80 -87 -110 -164 -141 -354 -10 -60 -22 -109 -28 -108 -5 0 -18 25 -30 55
l-21 53 23 85 c36 136 77 213 158 298 100 105 228 173 433 231 340 96 723 132
1058 101 495 -47 847 -197 982 -419 12 -20 31 -52 42 -72 23 -42 59 -172 65
-239 3 -25 9 -85 15 -135 26 -215 1 -475 -49 -525 -11 -11 -24 -46 -30 -82
-10 -54 -33 -124 -60 -178 -85 -174 -281 -476 -364 -561 -66 -68 -115 -97
-230 -133 -48 -16 -86 -30 -84 -31 2 -2 37 4 78 14 99 23 186 64 233 109 59
56 185 223 270 357 42 66 102 147 133 180 32 34 73 94 96 140 22 44 52 103 67
130 75 140 101 197 101 225 0 11 5 20 10 20 6 0 10 5 10 12 0 20 -24 -11 -61
-77 -48 -88 -69 -121 -69 -109 0 6 15 40 34 75 19 35 42 90 51 122 9 31 21 57
25 57 17 0 -12 55 -46 85 -33 31 -33 31 -36 140 -3 102 -1 114 23 166 31 65
28 64 230 93 57 9 132 20 165 26 77 13 159 13 204 0 19 -5 115 -21 213 -35 98
-14 191 -32 207 -40 21 -11 32 -27 40 -58 6 -23 15 -55 20 -71 6 -16 10 -64
10 -107 0 -77 -1 -79 -30 -94 -16 -8 -36 -28 -44 -44 -13 -24 -13 -33 1 -72 9
-24 19 -61 23 -82 6 -31 5 -35 -6 -26 -8 6 -14 17 -14 24 0 7 -9 23 -21 36
l-20 24 6 -25 c4 -14 22 -63 40 -110 18 -47 43 -116 55 -155 38 -118 76 -192
128 -247 58 -63 142 -167 142 -176 0 -4 16 -25 36 -47 19 -22 46 -52 59 -68
14 -15 24 -30 24 -33 -2 -8 90 -162 102 -169 5 -4 9 -14 9 -23 0 -10 9 -25 20
-35 11 -10 17 -23 13 -32 -4 -11 1 -18 16 -22 12 -3 20 -11 18 -17 -8 -21 85
-112 121 -119 19 -4 41 -15 50 -26 9 -10 31 -23 47 -29 17 -5 38 -13 48 -17
13 -6 16 -3 11 9 -5 12 0 16 20 16 15 0 56 9 92 21 35 11 72 18 80 15 9 -3 24
-1 36 5 17 9 53 15 128 21 8 0 23 -2 33 -7 10 -4 17 -3 17 3 0 5 -33 19 -72
30 l-73 21 140 0 c272 -1 575 15 575 30 0 4 -35 3 -77 -1 -105 -12 -745 -3
-808 11 -48 11 -69 19 -165 65 -99 47 -307 280 -429 481 -56 92 -124 235 -149
311 -20 61 -38 98 -57 120 -46 50 -67 534 -32 729 47 262 196 422 522 560 88
37 309 94 490 126 147 26 514 36 680 20 198 -21 446 -67 552 -105 247 -87 405
-246 468 -473 14 -51 15 -67 5 -100 -7 -21 -17 -44 -22 -50 -19 -24 -10 -84
21 -145 31 -60 32 -65 32 -197 0 -232 -51 -505 -123 -659 -11 -24 -18 -46 -14
-49 7 -8 61 112 92 207 52 157 74 293 83 505 l6 150 70 23 c39 13 104 26 145
29 83 6 107 16 163 67 21 20 53 38 70 40 65 10 183 13 212 6 17 -4 23 -8 15
-9 -8 0 -21 -10 -28 -21 -7 -11 -20 -20 -30 -20 -23 0 -42 -19 -42 -42 0 -10
-6 -18 -14 -18 -18 0 -49 -48 -42 -65 2 -7 -3 -15 -12 -17 -22 -6 -27 -54 -7
-62 8 -3 15 -13 15 -21 0 -10 7 -16 18 -14 31 3 43 -1 37 -11 -12 -19 26 -23
39 -4 11 15 17 16 28 6 10 -8 31 -10 59 -6 34 5 48 2 58 -10 7 -9 22 -16 32
-16 11 0 18 -3 17 -7 -2 -5 4 -23 11 -42 11 -26 12 -38 3 -52 -10 -15 -8 -20
9 -29 14 -8 20 -20 18 -38 -1 -15 0 -40 4 -57 4 -16 9 -77 12 -134 3 -72 10
-112 21 -129 9 -13 11 -21 5 -18 -14 9 -14 0 -1 -24 7 -13 6 -19 -6 -24 -8 -3
-12 -10 -9 -16 16 -26 20 -115 10 -214 -3 -34 -1 -52 7 -58 10 -6 10 -12 0
-29 -12 -18 -12 -23 0 -30 24 -16 48 -10 48 11 0 11 6 20 14 20 8 0 16 6 19
13 3 9 7 9 19 0 8 -7 18 -10 21 -7 4 4 17 7 29 8 13 1 22 7 20 14 -5 28 -2
121 6 169 5 29 6 55 3 59 -3 3 -6 9 -6 13 0 3 -10 19 -22 35 -16 20 -28 26
-43 21 -24 -8 -27 10 -5 31 11 11 12 20 5 34 -6 10 -7 21 -2 24 13 8 13 65 1
89 -9 18 -9 20 2 10 20 -20 29 -15 20 10 -4 12 -11 40 -15 62 -6 35 -5 38 7
23 17 -22 27 -23 27 -3 0 8 4 15 10 15 5 0 7 7 4 15 -4 9 0 15 10 15 20 0 20
3 -4 50 -32 63 -23 124 11 78 24 -31 34 -17 14 21 -14 28 -14 31 0 31 14 0 14
2 0 23 -8 13 -17 47 -20 75 -2 29 -7 57 -10 62 -3 6 -1 10 6 10 14 0 59 47 59
61 0 5 8 19 19 30 10 11 21 34 25 50 5 27 8 30 38 24 30 -5 35 -1 57 32 13 21
24 48 25 61 1 16 6 22 21 20 14 -2 20 2 19 15 -1 10 3 16 10 14 6 -3 26 7 44
20 20 15 41 23 53 20 10 -3 22 -1 25 4 8 14 33 11 76 -8 33 -15 38 -21 38 -50
0 -25 -11 -43 -52 -85 -146 -149 -338 -435 -325 -486 4 -16 5 -16 6 1 0 9 6
17 11 17 6 0 10 7 10 15 0 8 3 15 8 15 4 0 13 14 21 31 7 16 16 28 19 25 3 -4
15 0 27 8 32 21 90 25 90 6 0 -8 8 -26 18 -40 9 -13 17 -39 17 -57 0 -17 4
-34 9 -37 4 -3 14 -39 20 -81 7 -42 20 -82 29 -91 15 -15 17 -15 25 9 4 14 22
32 38 39 16 7 29 16 29 20 0 19 38 5 48 -17 12 -27 32 -34 32 -11 0 7 9 25 20
39 11 14 20 32 20 41 0 9 5 16 10 16 6 0 10 16 10 35 0 23 6 37 18 44 28 15
41 0 48 -55 3 -27 17 -78 31 -114 41 -103 44 -121 43 -195 -1 -86 -22 -189
-59 -297 -149 -428 -194 -602 -227 -872 -3 -22 -9 -61 -14 -86 -5 -25 -14 -76
-20 -115 -7 -38 -25 -113 -40 -166 -28 -96 -28 -97 -14 -190 15 -101 11 -158
-16 -230 -54 -146 -208 -221 -450 -221 -119 0 -173 12 -280 61 -25 11 -55 21
-67 21 -23 0 -31 14 -14 24 12 8 10 79 -3 88 -7 5 -7 8 2 8 6 0 12 5 12 11 0
6 -7 8 -16 5 -8 -3 -12 -2 -9 4 3 6 13 10 21 10 15 0 19 16 6 24 -12 7 -53 -5
-47 -13 6 -11 -17 -81 -27 -81 -4 0 -8 -4 -8 -10 0 -5 6 -10 13 -10 6 0 18 -4
26 -9 12 -8 8 -17 -22 -47 -20 -21 -37 -44 -37 -50 0 -7 -6 -14 -12 -17 -10
-4 -10 -7 0 -18 10 -11 12 -10 12 4 0 9 5 17 11 17 6 0 9 -9 6 -20 -3 -10 -2
-21 2 -23 3 -2 0 -2 -7 0 -8 1 -23 -4 -35 -12 -12 -8 -16 -15 -9 -15 6 0 12
-12 12 -26 0 -19 -4 -25 -15 -20 -11 4 -15 -2 -15 -24 0 -16 5 -32 10 -35 15
-9 12 -25 -5 -25 -8 0 -15 -3 -14 -7 2 -16 -14 -53 -23 -53 -5 0 -6 -9 -3 -20
5 -14 2 -20 -9 -20 -18 0 -21 -15 -7 -25 10 -5 -17 -67 -32 -73 -4 -2 -7 -15
-7 -28 0 -13 -4 -24 -10 -24 -5 0 -10 -7 -10 -15 0 -8 5 -15 10 -15 16 0 11
-19 -11 -43 -15 -16 -19 -30 -16 -54 4 -24 2 -31 -8 -27 -15 6 -21 -9 -31 -78
-3 -26 -10 -45 -15 -42 -9 5 -13 -9 -9 -35 1 -7 -9 -25 -23 -40 -13 -14 -24
-37 -25 -50 0 -13 -11 -34 -23 -47 -12 -13 -18 -24 -11 -24 12 0 -31 -84 -61
-117 -10 -12 -16 -26 -13 -31 3 -5 -2 -20 -12 -33 -18 -23 -27 -40 -73 -130
-10 -19 -25 -41 -33 -49 -9 -7 -16 -21 -16 -31 0 -10 -4 -20 -10 -24 -5 -3 -7
-12 -3 -20 3 -8 0 -15 -6 -15 -6 0 -11 -5 -11 -11 0 -7 -11 -22 -25 -35 -14
-13 -25 -29 -25 -36 0 -7 -9 -19 -21 -26 -13 -9 -19 -20 -16 -32 5 -20 -29
-99 -47 -112 -6 -4 -17 -6 -23 -3 -7 2 -13 0 -13 -5 0 -6 5 -10 11 -10 5 0 7
-5 4 -10 -4 -6 -12 -10 -18 -9 -31 4 -41 -1 -29 -13 16 -16 15 -28 -3 -28 -8
0 -15 -5 -15 -11 0 -10 -14 -29 -60 -86 -6 -7 -18 -9 -28 -6 -15 6 -15 5 -4
-10 14 -17 7 -42 -9 -32 -5 4 -9 1 -9 -5 0 -13 -57 -87 -107 -139 -18 -19 -35
-41 -38 -50 -3 -9 -15 -21 -27 -26 -12 -6 -26 -18 -32 -28 -6 -11 -45 -54 -86
-97 -142 -147 -180 -189 -180 -199 0 -6 -3 -10 -7 -9 -11 3 -53 -25 -53 -35 0
-4 9 -3 20 3 19 10 24 6 21 -14 -1 -5 9 -6 23 -4 21 4 24 2 16 -12 -6 -12 -17
-16 -35 -13 -17 4 -27 0 -31 -11 -3 -9 -14 -16 -23 -16 -14 0 -14 -2 -1 -10
13 -8 13 -10 -2 -10 -11 0 -15 -6 -11 -19 5 -21 -26 -39 -37 -21 -5 8 -9 6
-14 -5 -10 -27 -7 -34 22 -49 24 -13 25 -15 9 -22 -10 -3 -23 -2 -30 5 -6 6
-15 11 -19 11 -12 0 -9 -35 4 -48 9 -9 4 -12 -22 -12 -26 0 -31 -3 -22 -12 9
-9 8 -16 -5 -30 -25 -28 -8 -33 20 -7 30 29 67 52 74 45 3 -2 -12 -20 -32 -39
-27 -26 -35 -40 -31 -55 5 -14 13 -18 31 -14 14 2 25 8 25 13 0 15 28 10 34
-7 10 -26 -4 -36 -48 -32 -29 2 -49 10 -69 31 -27 28 -47 29 -47 1 0 -8 8 -14
18 -14 19 0 44 -44 35 -66 -8 -20 13 -17 23 4 4 9 6 20 6 25 -1 4 25 7 57 7
54 0 60 2 63 23 3 22 24 22 22 0 -1 -7 2 -13 7 -13 5 0 9 6 9 14 0 8 7 16 15
20 18 7 20 33 3 39 -10 4 -10 7 -1 17 10 11 15 11 28 0 8 -7 15 -19 15 -26 0
-26 25 -14 27 13 1 20 -1 23 -9 12 -8 -12 -9 -12 -5 1 2 8 12 15 23 15 10 1
24 4 31 8 6 4 19 4 29 0 14 -5 16 -2 11 19 -5 17 -3 26 6 25 33 -1 47 4 47 19
0 11 -6 14 -20 9 -28 -9 -25 2 8 30 18 15 31 20 38 14 8 -6 17 -5 26 4 21 21
41 25 56 10 8 -7 18 -11 23 -8 14 9 11 25 -6 25 -8 0 -15 9 -15 20 0 16 7 20
35 20 24 0 35 -5 35 -15 0 -36 33 -2 35 35 0 10 11 15 33 15 19 0 39 7 45 16
8 11 19 14 32 9 18 -7 20 -4 17 34 l-4 41 41 0 c23 0 41 -4 41 -9 0 -4 9 -6
19 -3 17 4 19 0 15 -37 -2 -22 -6 -53 -9 -68 -8 -37 11 -44 32 -12 15 24 18
25 24 8 10 -26 11 -94 1 -94 -4 0 -13 5 -19 11 -8 8 -13 8 -17 0 -4 -6 0 -11
10 -11 14 0 16 -7 11 -37 -4 -20 -12 -40 -19 -45 -10 -6 -8 -8 5 -8 21 0 32
-24 20 -42 -22 -35 -3 -145 21 -121 3 4 6 -4 6 -18 1 -137 9 -331 14 -336 3
-4 6 61 6 143 0 146 5 194 19 194 25 0 143 -234 187 -371 14 -46 66 -203 115
-349 48 -146 102 -328 119 -405 39 -176 62 -247 105 -311 l33 -51 154 -52
c225 -76 323 -117 402 -168 39 -25 91 -57 116 -71 25 -13 74 -41 110 -62 36
-21 124 -71 195 -112 202 -115 434 -259 615 -380 216 -146 259 -178 344 -257
154 -144 353 -289 521 -381 246 -133 289 -165 505 -369 83 -79 110 -98 300
-213 207 -125 262 -153 586 -298 554 -249 1419 -710 1810 -966 44 -29 139 -83
210 -120 71 -37 183 -105 249 -150 129 -88 181 -116 290 -159 138 -54 266
-158 281 -229 4 -18 59 -98 138 -196 224 -280 347 -458 519 -752 102 -174 243
-481 456 -996 67 -161 101 -245 216 -537 37 -93 121 -313 207 -545 11 -30 26
-69 34 -86 7 -17 70 -201 140 -410 69 -208 130 -386 135 -394 5 -8 9 6176 9
13743 l0 13757 -12500 0 -12500 0 0 -13292z m9659 7689 c-2 -2 -20 -14 -39
-26 l-35 -23 30 26 c17 14 34 26 39 26 5 0 7 -1 5 -3z m115 -12 c-10 -8 -26
-14 -34 -14 -9 0 -4 6 10 14 33 19 49 19 24 0z m-79 -35 c-3 -5 -12 -10 -18
-10 -7 0 -6 4 3 10 19 12 23 12 15 0z m3405 -20 c18 -12 2 -12 -25 0 -13 6
-15 9 -5 9 8 0 22 -4 30 -9z m-407 -47 c-7 -2 -19 -2 -25 0 -7 3 -2 5 12 5 14
0 19 -2 13 -5z m-3546 -39 c-15 -14 -27 -22 -27 -18 0 12 43 54 49 49 3 -3 -7
-17 -22 -31z m-107 -124 c-6 -11 -15 -20 -20 -20 -6 0 -5 9 2 20 7 11 16 20
21 20 4 0 3 -9 -3 -20z m4475 0 c23 -26 4 -26 -26 0 -18 15 -20 19 -8 20 9 0
24 -9 34 -20z m-2395 -20 c0 -5 -2 -10 -4 -10 -3 0 -8 5 -11 10 -3 6 -1 10 4
10 6 0 11 -4 11 -10z m19 -50 c11 -24 11 -24 -3 -6 -9 11 -16 24 -16 30 0 12
5 7 19 -24z m104 -180 c14 -22 22 -40 18 -40 -5 0 -20 18 -35 40 -14 22 -23
40 -18 40 5 0 20 -18 35 -40z m1642 15 c40 -18 16 -19 -26 0 -19 8 -27 14 -19
14 8 0 29 -6 45 -14z m1210 -55 c10 -11 16 -20 13 -20 -3 0 -13 9 -23 20 -10
11 -16 20 -13 20 3 0 13 -9 23 -20z m-1040 -22 c7 -7 2 -8 -15 -3 -14 4 -29
12 -35 17 -7 7 -2 8 15 3 14 -4 30 -12 35 -17z m-3710 -198 c-3 -5 -11 -10
-16 -10 -6 0 -7 5 -4 10 3 6 11 10 16 10 6 0 7 -4 4 -10z m2906 -27 c13 -16
12 -17 -3 -4 -17 13 -22 21 -14 21 2 0 10 -8 17 -17z m-3160 -107 c-6 -8 -22
-16 -34 -19 -22 -6 -22 -6 2 14 27 22 49 26 32 5z m-571 -480 c0 -3 -4 -8 -10
-11 -5 -3 -10 -1 -10 4 0 6 5 11 10 11 6 0 10 -2 10 -4z m5809 -713 c-6 -15
-8 -42 -4 -60 5 -26 0 -38 -26 -67 -22 -26 -27 -36 -16 -36 9 0 19 5 22 10 4
6 10 8 15 5 4 -3 18 21 30 53 22 55 54 101 64 91 3 -3 -1 -17 -8 -31 -8 -15
-12 -29 -8 -32 3 -3 -7 -28 -21 -55 -32 -58 -33 -65 -7 -51 11 6 23 22 26 35
3 13 12 29 20 36 8 6 14 24 14 38 0 15 7 36 16 47 14 18 15 18 4 -3 -12 -25
-2 -31 18 -11 9 9 12 9 12 0 0 -22 -29 -70 -52 -86 -12 -9 -18 -19 -14 -23 4
-4 11 -1 16 7 5 8 12 11 16 7 4 -4 2 -13 -4 -19 -14 -14 -16 -28 -4 -28 4 0
13 15 21 33 15 36 49 77 64 77 5 0 7 -7 3 -15 -3 -8 0 -15 7 -16 9 0 9 -2 0
-6 -19 -7 -16 -33 3 -33 9 0 14 -5 12 -11 -6 -18 -90 -59 -119 -59 -15 0 -37
-9 -50 -21 -21 -18 -22 -20 -4 -14 11 4 38 8 59 11 22 2 42 7 45 11 17 23 55
33 101 27 42 -6 50 -4 50 10 0 11 9 16 26 16 31 0 28 -23 -4 -28 -12 -2 -22
-7 -22 -12 0 -8 -70 -20 -118 -20 -24 0 -59 -26 -48 -37 3 -3 29 -1 58 5 45 9
55 8 66 -6 18 -24 15 -42 -8 -42 -22 0 -27 15 -7 23 6 3 2 6 -10 6 -12 1 -26
-5 -30 -13 -18 -32 -176 -10 -225 32 -9 8 -45 16 -80 18 -125 7 -163 23 -114
45 19 9 29 9 40 0 12 -10 19 -5 42 28 15 23 30 41 33 41 11 0 35 72 36 107 1
18 5 37 11 43 6 6 8 -7 6 -36 -3 -37 -2 -43 12 -38 9 3 16 11 15 18 -2 6 1 28
6 50 6 29 10 35 16 23 6 -9 5 -27 -2 -44z m-109 -3 c-18 -33 -25 -15 -9 22 9
23 15 28 17 16 2 -9 -2 -27 -8 -38z m-39 -16 c-9 -28 -9 -29 -10 -3 -1 14 2
29 6 32 11 12 13 2 4 -29z m-41 -60 c-7 -24 -17 -44 -21 -44 -12 0 -11 23 0
52 5 13 13 37 17 53 7 28 8 29 12 6 2 -13 -2 -44 -8 -67z m-70 59 c-1 -20 -16
-30 -35 -22 -17 6 -17 8 -2 8 9 1 17 6 17 11 0 6 5 10 10 10 6 0 10 -3 10 -7z
m154 -51 c-4 -12 -12 -22 -19 -22 -8 0 -20 -3 -29 -6 -11 -4 -16 -1 -16 10 0
10 9 16 25 16 19 0 25 5 25 22 0 14 3 19 10 12 5 -5 7 -19 4 -32z m-225 -19
c0 -16 -3 -22 -6 -16 -3 8 -15 11 -31 7 l-27 -6 30 21 c17 11 31 21 33 21 1 0
2 -12 1 -27z m581 -44 c-7 -11 -14 -18 -17 -15 -8 8 5 36 17 36 7 0 7 -6 0
-21z m-937 -19 c21 -34 52 -42 42 -10 -9 27 16 26 33 -1 9 -14 17 -18 24 -11
12 12 48 4 49 -12 1 -6 1 -18 0 -26 -1 -8 6 -3 14 13 17 30 33 35 41 12 4 -8
11 -15 18 -15 12 0 40 38 41 55 0 6 12 11 28 13 31 4 82 -31 82 -56 0 -12 10
-18 33 -20 17 -2 32 -7 32 -12 0 -4 12 -11 27 -15 15 -3 48 -16 73 -27 25 -12
68 -28 95 -37 28 -9 68 -31 90 -48 43 -36 43 -55 -1 -26 -15 9 -38 16 -50 15
-12 -2 -39 4 -59 12 -41 17 -65 20 -65 8 0 -4 28 -16 63 -26 34 -11 74 -28 89
-38 14 -10 31 -18 37 -18 6 0 11 -8 11 -18 0 -11 9 -29 20 -42 11 -13 20 -18
20 -13 0 6 -7 16 -15 23 -11 9 -13 16 -6 23 7 7 17 5 31 -8 22 -20 26 -41 9
-47 -13 -4 3 -48 27 -73 10 -10 19 -27 20 -39 2 -32 15 -66 25 -66 12 0 11 17
-1 25 -19 12 -10 23 18 21 30 -2 52 -13 52 -27 0 -16 -28 -9 -33 9 -2 9 -4 0
-4 -20 0 -33 3 -38 23 -38 15 0 29 -10 38 -27 8 -16 24 -35 35 -43 12 -8 21
-21 21 -28 0 -8 13 -42 29 -76 15 -33 32 -70 37 -81 7 -18 8 -17 12 9 2 19 -2
32 -11 38 -9 4 -18 21 -22 38 -4 16 -20 57 -36 90 -31 65 -33 70 -21 70 9 0
36 -57 60 -125 11 -31 24 -50 34 -50 26 0 48 -26 79 -94 66 -143 83 -172 91
-151 9 25 -5 65 -29 79 -14 8 -15 13 -5 19 10 7 10 15 2 36 -22 58 -7 37 35
-49 25 -49 45 -96 45 -102 0 -7 5 -13 10 -13 12 0 13 -5 -5 54 -8 27 -13 52
-10 54 3 3 5 1 5 -5 0 -6 7 -13 14 -16 10 -4 13 -1 10 7 -3 8 -1 17 5 21 7 4
11 -4 11 -21 0 -19 13 -39 43 -67 49 -47 147 -175 147 -193 0 -6 6 -17 14 -23
12 -10 13 -8 9 11 -3 13 -11 29 -17 37 -6 7 -11 30 -12 50 -1 20 -5 46 -9 59
-5 14 -3 22 4 22 6 0 11 -6 11 -14 0 -8 5 -18 12 -22 8 -5 9 4 4 35 -7 48 8
48 18 0 4 -19 13 -33 26 -36 10 -3 22 -14 25 -24 4 -10 11 -19 16 -19 5 0 9
-11 9 -24 0 -14 5 -37 11 -53 6 -15 19 -70 30 -122 11 -52 21 -97 24 -99 6 -6
-1 118 -8 138 -40 121 -33 148 13 49 18 -41 37 -77 42 -80 5 -3 12 -25 15 -48
3 -24 9 -37 13 -31 8 13 -12 103 -28 123 -14 18 -24 67 -14 67 14 0 76 -141
79 -177 1 -18 9 -45 18 -60 l16 -28 -6 36 c-3 19 -2 38 1 42 3 3 33 -35 66
-85 32 -49 57 -93 54 -95 -3 -3 1 -15 9 -27 8 -11 15 -28 15 -37 0 -10 4 -19
8 -21 5 -1 12 -15 16 -30 5 -22 3 -26 -9 -22 -8 4 -15 10 -15 15 0 5 -5 9 -11
9 -6 0 3 -16 20 -35 16 -19 35 -54 41 -77 17 -66 19 -67 16 -13 -2 28 -6 57
-9 65 -3 8 -8 32 -11 53 -4 33 -3 37 9 27 8 -7 15 -19 15 -27 0 -7 7 -16 15
-19 10 -4 14 -14 10 -28 -4 -13 -3 -17 2 -8 7 9 15 4 32 -19 28 -38 22 -46
-19 -25 -30 14 -31 14 -19 -1 8 -10 36 -39 62 -66 27 -27 46 -51 43 -54 -3 -4
-1 -12 5 -19 8 -10 2 -17 -27 -29 -41 -17 -42 -31 0 -16 39 15 54 4 70 -53 14
-46 36 -200 36 -249 0 -10 11 -22 25 -27 14 -5 25 -14 25 -19 0 -5 3 -16 6
-25 11 -28 -16 -17 -28 12 -9 21 -12 23 -15 10 -3 -10 -7 -18 -10 -18 -11 0
-73 42 -73 50 0 4 -21 30 -48 58 -42 44 -63 80 -100 172 -8 20 -9 17 -5 -20 3
-25 15 -65 26 -90 12 -25 20 -48 19 -52 -1 -4 4 -5 11 -2 12 4 49 -37 72 -80
6 -10 19 -24 30 -30 11 -6 34 -21 52 -33 17 -13 38 -23 47 -23 17 0 73 -56 82
-82 3 -10 12 -18 20 -18 8 0 14 -5 14 -10 0 -7 -6 -7 -19 0 -11 5 -24 10 -30
10 -17 0 -13 -31 6 -52 23 -25 10 -33 -21 -13 -14 10 -26 13 -26 7 0 -5 18
-21 40 -36 44 -29 51 -41 20 -33 -15 4 -20 0 -20 -14 0 -11 7 -22 16 -26 10
-4 14 -15 12 -34 -2 -22 5 -36 30 -59 18 -16 39 -30 47 -30 18 0 45 -28 45
-46 0 -8 -10 -15 -22 -15 l-23 -2 23 -4 c12 -2 34 -21 49 -41 15 -20 33 -42
40 -48 8 -7 16 -22 18 -34 2 -13 16 -40 30 -60 14 -20 25 -43 25 -51 0 -12 -2
-12 -10 1 -5 8 -10 10 -10 4 0 -6 11 -20 25 -30 16 -12 25 -29 25 -47 0 -16 4
-26 10 -22 5 3 15 -5 22 -20 12 -27 15 -22 -58 -97 -21 -21 -31 -38 -25 -38 7
0 32 20 54 44 36 37 44 42 55 29 11 -11 11 -17 2 -28 -9 -11 -6 -19 14 -36 17
-14 26 -33 26 -51 0 -31 1 -33 55 -125 24 -41 34 -70 30 -82 -3 -11 -2 -28 3
-38 5 -10 21 -42 36 -70 14 -29 26 -68 26 -87 0 -19 5 -47 11 -63 19 -46 28
-93 18 -93 -13 0 -11 -34 3 -48 9 -9 9 -12 0 -12 -9 0 -10 -12 -6 -42 7 -38 6
-41 -14 -36 -19 5 -20 3 -11 -13 5 -10 16 -19 24 -19 20 0 19 -17 0 -28 -16
-8 -16 -36 -1 -60 4 -7 3 -19 -4 -26 -8 -11 -8 -15 2 -19 10 -4 10 -8 -1 -15
-22 -15 -136 -24 -304 -24 -84 0 -164 -2 -179 -5 -30 -5 -39 -23 -13 -23 23 0
57 -36 53 -56 -7 -38 -48 -52 -183 -62 -71 -5 -134 -6 -139 -1 -5 4 -5 16 -1
26 5 10 9 23 9 28 1 6 50 12 116 15 112 5 113 5 57 14 -33 5 -84 6 -114 2 -54
-6 -55 -6 -49 16 3 13 6 29 6 37 0 11 4 11 18 -2 14 -12 35 -16 78 -15 l59 2
-52 3 c-56 4 -56 4 -79 90 -7 29 -31 88 -53 130 -68 133 -164 232 -299 307
-72 40 -301 121 -367 130 -38 5 -37 5 10 -10 174 -53 212 -66 225 -75 19 -13
0 -10 -136 25 -237 61 -545 91 -859 83 -207 -5 -226 -4 -190 9 l40 14 -65 -5
c-102 -9 -352 -62 -474 -102 -126 -40 -291 -115 -363 -164 -72 -49 -161 -137
-199 -197 -32 -49 -94 -195 -109 -255 -10 -40 -20 -41 -78 -13 -74 37 -172 55
-317 61 -106 4 -120 3 -93 -8 52 -20 50 -27 -8 -28 l-54 -1 43 -11 c23 -5 42
-14 42 -18 0 -11 -1 -11 -80 1 -87 14 -103 21 -65 30 28 7 29 8 8 15 -31 10
-29 25 4 25 18 0 24 3 17 10 -22 22 -73 26 -184 14 -139 -14 -182 -23 -174
-35 3 -6 -10 -7 -34 -3 -30 5 -54 0 -103 -21 -108 -46 -102 -47 -139 42 -39
94 -81 160 -146 232 -53 59 -139 131 -156 131 -6 0 7 -13 28 -28 79 -58 88
-96 9 -42 -144 99 -324 163 -670 236 l-160 34 125 -4 c98 -3 112 -2 65 5 -294
42 -654 40 -955 -6 -52 -8 -111 -16 -130 -19 -19 -3 -84 -19 -145 -35 -60 -17
-124 -30 -141 -31 -16 0 -45 -11 -64 -25 -19 -14 -37 -25 -41 -25 -15 0 -186
-119 -237 -165 -92 -83 -178 -232 -207 -357 -22 -92 -18 -90 -187 -93 -88 -2
-123 -7 -140 -19 -25 -18 -48 -21 -48 -7 0 5 6 12 13 14 9 4 9 8 -1 15 -11 7
-13 32 -8 108 9 167 19 248 32 261 18 19 27 16 21 -7 -3 -11 -1 -18 4 -14 5 3
9 24 9 47 0 33 -3 39 -11 27 -9 -12 -10 -12 -5 3 3 10 6 23 6 28 0 5 7 9 15 9
11 0 14 7 9 25 -5 20 -3 24 10 19 21 -8 20 5 -1 28 -16 18 -16 18 0 12 10 -3
24 -1 31 5 11 9 15 9 20 -1 3 -7 3 -3 0 10 -3 13 0 30 8 39 10 13 10 17 1 20
-24 8 -13 23 15 23 30 0 72 29 72 49 0 6 9 11 21 11 l20 0 -20 26 c-25 32 -27
50 -6 58 8 3 15 12 15 20 0 19 32 119 41 130 5 5 4 17 -2 28 -8 14 -6 18 7 18
13 0 15 -7 10 -38 -6 -45 8 -76 24 -52 5 8 8 21 5 28 -3 7 1 22 7 32 10 16 9
22 -6 33 -20 15 -14 40 7 32 8 -4 13 8 14 34 3 44 37 109 48 91 4 -6 4 -17 1
-25 -3 -8 -1 -15 4 -15 6 0 10 5 10 10 0 6 16 20 35 31 19 12 32 25 29 30 -8
13 -42 11 -47 -3 -4 -10 -6 -10 -6 0 -1 14 41 33 76 35 28 2 30 13 3 20 -27 7
-25 35 3 40 l22 4 -22 8 c-25 8 -29 20 -12 30 7 5 4 13 -7 26 -16 18 -15 19
10 29 15 5 32 9 38 7 6 -1 13 4 16 12 3 10 -1 13 -17 8 -14 -3 -21 0 -21 9 0
8 10 14 23 14 18 0 19 2 7 11 -11 8 -12 12 -2 16 6 2 12 13 12 23 0 10 -6 20
-12 23 -10 3 -10 8 1 21 17 21 20 76 5 76 -18 0 -24 25 -24 92 0 47 6 71 25
104 l25 43 -22 22 -23 21 23 -7 c24 -7 28 4 12 35 -7 13 -5 21 6 31 10 8 13
21 9 41 -5 19 -1 33 9 44 18 18 21 34 6 34 -21 0 -8 24 35 64 41 39 60 66 35
51 -18 -11 -31 5 -20 25 7 13 7 21 -1 25 -6 4 -13 -2 -16 -14 -5 -22 -14 -26
-27 -14 -3 4 10 24 31 45 42 43 37 61 -9 33 -29 -17 -31 -17 -25 -1 4 10 7 22
7 27 0 5 7 9 16 9 10 0 14 6 11 14 -3 8 0 20 8 26 21 17 8 42 -15 30 -37 -20
-32 -9 19 44 28 30 51 57 51 60 0 3 -11 1 -25 -4 -16 -6 -25 -6 -25 0 0 6 7
10 15 10 18 0 20 17 4 22 -20 7 13 50 34 44 9 -2 15 0 11 5 -3 5 2 9 10 9 9 0
16 4 16 10 0 5 -14 7 -32 3 l-33 -6 28 32 c33 40 34 51 5 51 -20 1 -21 2 -8
13 8 7 22 21 30 31 14 18 13 19 -25 13 -22 -3 -32 -3 -22 -1 9 3 17 10 17 16
0 18 32 48 51 48 10 0 23 9 29 19 5 11 26 25 45 31 46 15 55 31 13 24 l-33 -6
33 29 c18 15 32 34 32 41 0 7 7 15 15 19 9 3 22 18 31 34 8 16 22 29 30 29 14
0 14 3 4 15 -10 12 -10 15 0 15 19 0 89 76 96 105 3 14 15 30 25 36 11 5 19
18 19 28 0 11 7 21 15 25 20 7 19 0 -15 -64 -16 -30 -36 -71 -46 -90 -20 -39
-65 -100 -106 -143 -44 -44 -33 -56 12 -12 45 44 131 170 181 265 19 36 40 69
47 73 6 4 12 15 12 24 0 9 6 13 15 9 18 -7 45 3 45 16 0 5 -10 6 -21 3 -16 -5
-20 -4 -15 6 3 8 9 22 12 32 4 9 12 17 18 17 7 0 32 26 55 58 40 55 45 59 109
76 37 9 78 19 92 21 14 2 43 12 65 21 22 9 81 31 130 49 84 30 557 217 725
287 41 17 118 47 170 68 143 55 394 162 404 171 6 5 18 9 27 9 9 0 27 9 40 21
l24 20 -23 -11 c-52 -25 -153 -60 -147 -50 21 34 417 193 434 174 3 -4 0 -9
-6 -11 -18 -7 -16 -33 3 -33 8 0 13 4 10 9 -4 5 3 7 14 4 11 -3 38 4 60 16 22
11 50 21 61 21 l20 0 -20 -29 c-18 -25 -62 -47 -83 -43 -5 1 -8 -2 -8 -7 0 -5
-3 -16 -6 -25 -5 -12 6 -9 40 10 35 19 45 22 40 10 -3 -9 -11 -16 -17 -16 -6
0 -8 -2 -5 -5 7 -7 88 17 88 26 0 3 -12 4 -27 1 l-28 -5 25 20 c28 22 116 41
105 23 -9 -14 67 -2 76 12 3 5 22 6 42 3 23 -4 37 -2 37 4 0 6 -6 11 -14 11
-8 0 -17 4 -20 9 -4 5 3 7 15 4 12 -4 25 0 30 8 7 11 12 12 29 2 27 -18 37
-16 43 6 4 16 17 20 78 25 41 3 81 6 89 7 8 1 23 -1 33 -6 12 -5 17 -3 17 9 0
21 18 20 65 -4 45 -23 56 -19 29 12 -19 21 -19 21 1 13 42 -17 74 -16 141 4
54 17 88 21 152 18 45 -2 82 -3 82 -1 0 2 -11 9 -25 16 -21 12 -16 13 54 13
44 0 77 -3 74 -7 -2 -5 6 -8 17 -8 16 0 20 -5 16 -15 -7 -19 -1 -19 30 2 19
12 22 18 12 24 -10 7 -9 9 3 9 9 0 22 7 29 15 15 18 51 20 68 3 10 -10 14 -10
21 0 5 9 11 5 21 -13 17 -33 30 -32 24 1 -4 21 -2 25 11 20 8 -3 22 -9 30 -12
18 -8 21 26 3 44 -9 9 -9 12 3 12 8 0 23 -13 32 -30z m217 -4 c0 -3 -7 -3 -15
0 -8 4 -15 13 -15 21 0 12 2 12 15 -1 8 -8 15 -17 15 -20z m280 15 c0 -10 -89
-56 -95 -49 -2 2 -2 14 2 26 4 18 11 21 34 17 15 -3 31 -1 34 5 8 12 25 13 25
1z m-760 -28 c0 -20 -24 -11 -28 10 -2 12 1 15 12 11 9 -3 16 -13 16 -21z
m-119 -11 c-16 -5 -41 5 -41 17 0 7 10 6 26 -1 15 -7 21 -14 15 -16z m914 18
c-3 -5 -10 -10 -16 -10 -5 0 -9 5 -9 10 0 6 7 10 16 10 8 0 12 -4 9 -10z
m-850 -10 c3 -5 -1 -10 -10 -10 -9 0 -13 5 -10 10 3 6 8 10 10 10 2 0 7 -4 10
-10z m-4485 -24 c0 -2 -8 -10 -17 -17 -16 -13 -17 -12 -4 4 13 16 21 21 21 13z
m3084 -36 c-5 -5 -32 -12 -59 -15 l-50 -6 55 19 c56 19 71 19 54 2z m107 -4
c-7 -8 -22 -11 -38 -8 -25 5 -25 6 -8 13 11 4 28 8 39 8 14 1 16 -2 7 -13z
m2257 -28 c19 -16 10 -19 -31 -7 -43 12 -52 35 -10 24 16 -4 34 -11 41 -17z
m-2308 -7 c0 -9 -74 -22 -119 -20 l-26 1 30 13 c33 16 115 20 115 6z m-219
-27 c-30 -13 -56 -22 -59 -19 -7 6 -5 8 38 28 19 9 44 16 55 16 11 0 -4 -11
-34 -25z m2903 5 c-3 -5 -17 -9 -32 -9 -25 1 -26 2 -9 15 20 14 51 10 41 -6z
m-2834 -23 c-8 -7 -46 -24 -85 -36 -38 -12 -94 -33 -124 -46 -53 -25 -86 -28
-83 -9 1 6 10 11 22 13 11 2 20 7 20 11 0 10 78 44 87 38 5 -3 40 6 78 18 86
29 106 31 85 11z m382 -8 c-7 -7 -12 -8 -12 -2 0 14 12 26 19 19 2 -3 -1 -11
-7 -17z m2218 -6 c0 -4 -5 -14 -10 -22 -9 -13 -13 -11 -30 10 -27 35 -25 41
10 29 17 -6 30 -14 30 -17z m-2346 10 c2 -4 -4 -8 -14 -8 -10 0 -16 4 -14 8 3
4 9 8 14 8 5 0 11 -4 14 -8z m2413 -8 c-3 -3 -12 -4 -19 -1 -8 3 -5 6 6 6 11
1 17 -2 13 -5z m143 -4 c-19 -5 -45 -11 -57 -15 -14 -5 -23 -3 -23 3 0 13 24
20 75 20 l40 0 -35 -8z m-2317 -7 c-7 -2 -19 -2 -25 0 -7 3 -2 5 12 5 14 0 19
-2 13 -5z m-488 -23 c-16 -11 -39 -20 -50 -20 -11 0 -38 -11 -60 -24 -45 -27
-443 -226 -451 -226 -3 0 -24 -8 -47 -19 -83 -37 -229 -92 -234 -88 -2 3 22
17 54 32 129 59 177 84 160 85 -17 0 -296 -134 -307 -148 -3 -4 -9 -8 -15 -9
-45 -10 -202 -71 -250 -98 -85 -47 -432 -176 -470 -175 -12 1 104 50 117 50 5
0 37 13 71 29 34 16 80 37 102 46 22 10 94 44 160 75 66 31 147 66 180 79 33
12 80 31 105 41 25 10 81 33 125 50 44 18 87 38 95 45 8 7 38 20 65 30 28 10
55 22 61 27 6 4 53 22 105 38 92 30 239 89 249 100 12 14 226 97 255 99 6 1
-3 -8 -20 -19z m2705 10 c0 -5 -7 -10 -15 -10 -8 0 -15 5 -15 10 0 6 7 10 15
10 8 0 15 -4 15 -10z m190 -10 c0 -5 -7 -6 -17 -3 -12 5 -14 3 -8 -7 6 -10 0
-12 -33 -6 -23 3 -42 2 -42 -3 0 -12 25 -21 63 -22 29 0 30 -1 10 -9 -28 -11
-75 2 -101 28 -19 19 -19 21 -4 25 33 9 132 7 132 -3z m-6866 -80 c-8 -7 -34
31 -34 49 0 10 8 4 20 -14 10 -16 17 -32 14 -35z m3475 57 c-2 -1 -13 -9 -24
-17 -19 -14 -19 -14 -6 3 7 9 18 17 24 17 6 0 8 -1 6 -3z m3131 -32 c13 -14
19 -25 14 -25 -11 1 -54 36 -54 44 0 13 18 5 40 -19z m373 18 c-7 -2 -21 -2
-30 0 -10 3 -4 5 12 5 17 0 24 -2 18 -5z m-3673 -38 c0 -3 -28 -19 -61 -37
-74 -40 -68 -36 -201 -120 -58 -38 -108 -68 -112 -68 -3 0 -23 -11 -44 -23
-20 -13 -50 -27 -66 -31 -17 -4 -41 -15 -55 -25 -14 -10 -71 -35 -126 -55 -55
-20 -117 -44 -139 -52 -21 -8 -40 -13 -42 -11 -7 7 79 63 149 97 38 18 90 35
117 38 65 6 73 27 11 26 -60 -1 -75 4 -58 19 36 33 148 89 164 83 7 -3 19 1
26 8 8 8 26 12 43 9 24 -3 26 -2 12 7 -21 13 -24 30 -5 30 7 0 29 11 49 25 20
14 39 25 42 25 12 0 6 -28 -6 -33 -7 -2 -10 -8 -6 -12 10 -10 38 13 38 31 0 8
9 14 19 14 11 0 22 4 25 9 3 5 16 7 28 3 13 -3 19 -1 15 5 -4 7 8 14 29 17 19
4 42 10 50 13 28 11 13 -15 -18 -31 -39 -19 -68 -41 -68 -50 0 -4 14 2 30 14
33 23 140 80 153 80 4 0 7 -2 7 -5z m300 -21 c-36 -14 -81 -30 -100 -36 -19
-6 -57 -21 -85 -35 -92 -46 -171 -68 -92 -26 95 50 282 122 317 122 16 0 2 -9
-40 -25z m3323 19 c-13 -2 -33 -2 -45 0 -13 2 -3 4 22 4 25 0 35 -2 23 -4z
m-3595 -26 c-36 -29 -279 -155 -253 -131 11 11 43 31 70 45 28 14 84 45 125
67 85 47 96 51 58 19z m3497 3 c3 -5 -3 -10 -14 -10 -12 0 -21 5 -21 10 0 6 6
10 14 10 8 0 18 -4 21 -10z m-185 -92 c0 -15 -18 -8 -24 10 -3 9 -9 24 -12 32
-3 8 4 4 15 -10 11 -14 21 -28 21 -32z m-3331 28 c-28 -26 -429 -234 -516
-267 -50 -19 -17 3 95 62 214 115 444 227 421 205z m3601 -28 c39 -29 15 -32
-29 -4 -23 15 -41 28 -41 30 0 8 46 -9 70 -26z m-246 -34 c4 -10 1 -14 -6 -12
-15 5 -23 28 -10 28 5 0 13 -7 16 -16z m-6704 -24 c0 -12 -8 -12 -35 0 -18 8
-17 9 8 9 15 1 27 -3 27 -9z m6868 -15 c-3 -3 -9 2 -12 12 -6 14 -5 15 5 6 7
-7 10 -15 7 -18z m-3617 -9 c-14 -17 -105 -50 -95 -35 6 11 80 47 98 48 5 1 3
-5 -3 -13z m3719 -36 c7 -13 7 -20 1 -20 -6 0 -15 9 -21 20 -7 13 -7 20 -1 20
6 0 15 -9 21 -20z m-4293 -46 c-3 -3 -12 -4 -19 -1 -8 3 -5 6 6 6 11 1 17 -2
13 -5z m4283 -99 c0 -5 -5 -3 -10 5 -5 8 -10 20 -10 25 0 6 5 3 10 -5 5 -8 10
-19 10 -25z m56 -7 c14 -28 15 -31 2 -20 -14 11 -31 52 -22 52 2 0 11 -15 20
-32z m-16 -70 c0 -4 11 -32 25 -62 28 -61 29 -66 15 -66 -5 0 -15 19 -22 43
-6 23 -20 56 -30 72 -22 37 -25 68 -3 39 8 -10 15 -22 15 -26z m117 36 c-3 -3
-12 -4 -19 -1 -8 3 -5 6 6 6 11 1 17 -2 13 -5z m-7 -67 c0 -5 -4 -5 -10 -2 -5
3 -10 14 -10 23 0 15 2 15 10 2 5 -8 10 -19 10 -23z m-7280 13 c0 -5 -7 -7
-15 -4 -8 4 -15 8 -15 10 0 2 7 4 15 4 8 0 15 -4 15 -10z m2640 -4 c-27 -14
-89 -31 -79 -22 7 7 81 34 94 35 6 0 -1 -6 -15 -13z m4815 -86 c3 -5 1 -10 -4
-10 -6 0 -11 5 -11 10 0 6 2 10 4 10 3 0 8 -4 11 -10z m-65 -20 c0 -11 -4 -20
-10 -20 -5 0 -10 9 -10 20 0 11 5 20 10 20 6 0 10 -9 10 -20z m54 -52 c4 7 10
12 14 12 8 0 34 -61 28 -67 -1 -2 -17 4 -33 12 -33 16 -47 40 -36 58 4 7 9 4
13 -8 5 -13 9 -15 14 -7z m23 -73 c36 -17 43 -25 43 -50 0 -17 5 -36 12 -43 9
-9 9 -12 0 -12 -7 0 -16 10 -21 23 -5 13 -24 37 -43 53 -36 31 -58 60 -42 53
5 -2 28 -13 51 -24z m-7463 -204 c-6 -6 -74 61 -74 73 0 5 18 -8 39 -30 22
-21 38 -41 35 -43z m7829 -6 c4 -8 2 -17 -3 -20 -6 -4 -10 3 -10 14 0 25 6 27
13 6z m47 -80 c0 -8 -7 -15 -15 -15 -16 0 -20 12 -8 23 11 12 23 8 23 -8z
m-7950 -67 c0 -6 -6 -5 -15 2 -8 7 -15 14 -15 16 0 2 7 1 15 -2 8 -4 15 -11
15 -16z m38 -61 c6 3 12 0 12 -6 0 -6 7 -11 15 -11 9 0 18 -7 21 -15 4 -8 12
-15 19 -15 7 0 19 -7 26 -16 12 -15 10 -16 -21 -9 -46 10 -78 32 -96 66 -17
34 -18 53 -1 23 7 -12 18 -19 25 -17z m8002 -44 c-1 -11 -40 37 -40 49 0 6 9
-1 20 -15 11 -14 20 -29 20 -34z m-7883 -69 c-3 -3 -12 -4 -19 -1 -8 3 -5 6 6
6 11 1 17 -2 13 -5z m8223 -484 c6 -11 7 -20 2 -20 -10 0 -32 21 -32 32 0 16
19 8 30 -12z m-12 -57 c1 -22 0 -24 -8 -13 -12 18 -13 40 -2 40 4 0 9 -12 10
-27z m43 -20 c13 -15 12 -15 -8 -4 -24 12 -29 21 -14 21 5 0 15 -7 22 -17z
m-26 -93 c4 -17 10 -30 15 -30 14 0 20 -29 9 -52 -8 -20 -9 -19 -4 7 5 24 4
28 -6 18 -10 -10 -15 -5 -26 25 -7 20 -13 45 -13 55 0 27 18 11 25 -23z m190
-548 c-8 -8 -56 29 -50 38 4 6 1 10 -4 10 -6 0 -11 5 -11 12 0 7 16 -3 35 -22
19 -18 33 -36 30 -38z m-8135 -92 c0 -5 -5 -10 -11 -10 -5 0 -7 5 -4 10 3 6 8
10 11 10 2 0 4 -4 4 -10z m1180 -150 c0 -5 -4 -10 -10 -10 -5 0 -10 5 -10 10
0 6 5 10 10 10 6 0 10 -4 10 -10z m2940 -1330 c0 -5 -11 -10 -24 -10 -13 0
-31 -3 -40 -6 -9 -3 -16 -1 -16 4 0 11 21 19 58 21 12 0 22 -3 22 -9z m-230
-60 c0 -5 -4 -10 -10 -10 -5 0 -10 5 -10 10 0 6 5 10 10 10 6 0 10 -4 10 -10z
m-2850 -116 c0 -18 -14 -18 -30 1 -16 19 -3 40 16 24 8 -6 14 -18 14 -25z
m7060 16 c0 -5 -10 -12 -22 -14 -13 -3 -62 -14 -110 -25 -95 -23 -118 -25
-118 -13 0 8 193 58 233 61 9 0 17 -3 17 -9z m-7392 -70 c3 -30 2 -32 -12 -21
-19 16 -22 65 -3 59 6 -3 13 -20 15 -38z m72 25 c10 -12 10 -15 -3 -15 -8 0
-17 7 -21 15 -3 8 -2 15 3 15 5 0 14 -7 21 -15z m-647 -15 c-3 -11 -9 -20 -15
-20 -5 0 -4 9 2 20 6 11 12 20 14 20 2 0 2 -9 -1 -20z m920 -15 c7 -16 -8 -29
-23 -20 -15 9 -12 35 4 35 8 0 16 -7 19 -15z m-265 -14 c3 -8 -1 -12 -9 -9 -7
2 -15 10 -17 17 -3 8 1 12 9 9 7 -2 15 -10 17 -17z m-703 -31 c3 -5 1 -10 -4
-10 -6 0 -11 5 -11 10 0 6 2 10 4 10 3 0 8 -4 11 -10z m45 -10 c0 -5 -5 -10
-11 -10 -5 0 -7 5 -4 10 3 6 8 10 11 10 2 0 4 -4 4 -10z m176 -110 c-1 -16 -4
-30 -8 -30 -10 0 -10 22 -2 44 9 23 11 20 10 -14z m5135 -1016 c54 -74 108
-143 119 -154 11 -11 15 -20 9 -20 -11 0 -43 31 -124 121 -41 46 -57 66 -100
131 -26 38 -34 75 -14 62 6 -3 55 -66 110 -140z m3086 -1526 c-3 -8 -6 -5 -6
6 -1 11 2 17 5 13 3 -3 4 -12 1 -19z m-107 -398 c0 -5 -2 -10 -4 -10 -3 0 -8
5 -11 10 -3 6 -1 10 4 10 6 0 11 -4 11 -10z m-1255 -2110 c3 -5 2 -10 -4 -10
-5 0 -13 5 -16 10 -3 6 -2 10 4 10 5 0 13 -4 16 -10z m-35 -30 c0 -5 -4 -10
-9 -10 -6 0 -13 5 -16 10 -3 6 1 10 9 10 9 0 16 -4 16 -10z m465 -30 c-3 -5
-12 -10 -18 -10 -7 0 -6 4 3 10 19 12 23 12 15 0z m-395 -240 c0 -5 -5 -10
-11 -10 -5 0 -7 5 -4 10 3 6 8 10 11 10 2 0 4 -4 4 -10z m-107 -87 c-7 -2 -19
-2 -25 0 -7 3 -2 5 12 5 14 0 19 -2 13 -5z"/>
<path d="M14270 27183 c-14 -20 -30 -44 -35 -53 -6 -10 -17 -25 -24 -34 -12
-14 -10 -16 9 -16 15 0 20 4 16 15 -3 9 12 32 39 60 25 25 45 50 45 55 0 22
-26 8 -50 -27z"/>
<path d="M14315 27060 c-3 -5 3 -10 15 -10 12 0 18 5 15 10 -3 6 -10 10 -15
10 -5 0 -12 -4 -15 -10z"/>
<path d="M14390 27020 c0 -5 7 -10 15 -10 8 0 15 5 15 10 0 6 -7 10 -15 10 -8
0 -15 -4 -15 -10z"/>
<path d="M13920 27121 c0 -11 40 -22 54 -14 5 4 1 10 -10 14 -27 11 -44 11
-44 0z"/>
<path d="M13420 27083 c0 -11 83 -83 89 -77 3 4 -4 13 -16 21 -13 9 -23 21
-23 29 0 7 -9 18 -19 24 -23 12 -31 13 -31 3z"/>
<path d="M13910 27061 c0 -6 4 -13 10 -16 6 -3 7 1 4 9 -7 18 -14 21 -14 7z"/>
<path d="M13990 27033 c0 -42 9 -39 16 6 3 18 1 31 -5 31 -6 0 -11 -16 -11
-37z"/>
<path d="M14008 26993 c-20 -5 -22 -12 -8 -33 5 -8 10 -10 10 -4 0 18 42 25
60 10 13 -11 92 -46 105 -46 3 0 5 6 5 14 0 8 -16 16 -39 20 -22 3 -46 13 -54
21 -17 16 -54 25 -79 18z"/>
<path d="M14150 26991 c-17 -5 -21 -9 -13 -14 12 -7 53 7 53 18 0 6 -7 5 -40
-4z"/>
<path d="M12621 26964 c-24 -23 -19 -30 13 -18 9 3 16 12 16 19 0 7 6 16 13
18 8 4 7 5 -3 5 -8 0 -26 -11 -39 -24z"/>
<path d="M11965 26920 c-13 -6 -15 -9 -5 -9 8 0 22 4 30 9 18 12 2 12 -25 0z"/>
<path d="M11890 26897 c-23 -7 -29 -12 -18 -14 9 -2 29 3 45 11 32 18 23 19
-27 3z"/>
<path d="M12015 26860 c-8 -13 5 -13 25 0 13 8 13 10 -2 10 -9 0 -20 -4 -23
-10z"/>
<path d="M14015 26860 c3 -5 8 -10 11 -10 2 0 4 5 4 10 0 6 -5 10 -11 10 -5 0
-7 -4 -4 -10z"/>
<path d="M11780 26850 c-8 -5 -10 -10 -5 -10 6 0 17 5 25 10 8 5 11 10 5 10
-5 0 -17 -5 -25 -10z"/>
<path d="M14133 26853 c9 -2 23 -2 30 0 6 3 -1 5 -18 5 -16 0 -22 -2 -12 -5z"/>
<path d="M14395 26680 c3 -5 8 -10 11 -10 2 0 4 5 4 10 0 6 -5 10 -11 10 -5 0
-7 -4 -4 -10z"/>
<path d="M11528 26603 c7 -3 16 -2 19 1 4 3 -2 6 -13 5 -11 0 -14 -3 -6 -6z"/>
<path d="M14380 26550 c0 -5 7 -10 16 -10 8 0 12 5 9 10 -3 6 -10 10 -16 10
-5 0 -9 -4 -9 -10z"/>
<path d="M14520 26534 c0 -7 9 -22 20 -35 10 -13 19 -19 20 -13 0 7 -9 22 -20
35 -10 13 -19 19 -20 13z"/>
<path d="M14646 26425 c15 -152 43 -308 58 -322 9 -8 8 -1 -19 142 -8 44 -15
96 -16 115 0 19 -7 53 -15 75 l-14 40 6 -50z"/>
<path d="M14770 26347 c0 -7 6 -21 13 -32 19 -25 32 -3 15 25 -15 23 -28 26
-28 7z"/>
<path d="M14746 26276 c3 -9 11 -16 16 -16 13 0 5 23 -10 28 -7 2 -10 -2 -6
-12z"/>
<path d="M14801 26277 c-1 -9 8 -34 19 -54 25 -48 26 -21 1 32 -11 22 -20 32
-20 22z"/>
<path d="M14782 26110 c0 -19 2 -27 5 -17 2 9 2 25 0 35 -3 9 -5 1 -5 -18z"/>
<path d="M15227 26030 c3 -11 11 -25 19 -31 8 -6 14 -24 14 -40 0 -16 4 -29 9
-29 6 0 14 -19 19 -42 6 -24 10 -33 11 -21 2 35 -20 126 -36 150 -19 29 -42
37 -36 13z"/>
<path d="M15456 25715 c4 -8 10 -12 15 -9 11 6 2 24 -11 24 -5 0 -7 -7 -4 -15z"/>
<path d="M15130 25694 c0 -5 7 -19 15 -30 8 -10 15 -14 15 -8 0 5 -7 19 -15
30 -8 10 -15 14 -15 8z"/>
<path d="M15170 25614 c0 -15 31 -76 37 -71 2 3 -5 22 -16 44 -11 21 -20 33
-21 27z"/>
<path d="M15371 25550 c0 -8 4 -22 9 -30 12 -18 12 -2 0 25 -6 13 -9 15 -9 5z"/>
<path d="M15570 25521 c0 -5 5 -13 10 -16 6 -3 10 -2 10 4 0 5 -4 13 -10 16
-5 3 -10 2 -10 -4z"/>
<path d="M15400 25453 c0 -12 5 -25 10 -28 13 -8 13 15 0 35 -8 12 -10 11 -10
-7z"/>
<path d="M15596 25431 c7 -39 33 -104 33 -81 0 8 -9 38 -20 65 -15 39 -17 42
-13 16z"/>
<path d="M15266 25437 c3 -10 9 -15 12 -12 3 3 0 11 -7 18 -10 9 -11 8 -5 -6z"/>
<path d="M9420 25424 c0 -9 5 -14 12 -12 18 6 21 28 4 28 -9 0 -16 -7 -16 -16z"/>
<path d="M15631 25320 c0 -14 28 -72 29 -59 0 4 -7 22 -15 40 -8 19 -14 27
-14 19z"/>
<path d="M15525 25260 c3 -19 10 -53 14 -75 l8 -40 2 41 c0 23 -6 57 -14 75
l-16 34 6 -35z"/>
<path d="M15742 25240 c0 -14 2 -19 5 -12 2 6 2 18 0 25 -3 6 -5 1 -5 -13z"/>
<path d="M15671 25204 c0 -11 3 -14 6 -6 3 7 2 16 -1 19 -3 4 -6 -2 -5 -13z"/>
<path d="M15752 25180 c-1 -19 5 -46 13 -60 l14 -25 1 31 c0 16 -4 34 -9 40
-5 5 -11 18 -14 29 -3 12 -5 6 -5 -15z"/>
<path d="M15690 25143 c0 -4 5 -15 10 -23 8 -13 10 -13 10 2 0 9 -4 20 -10 23
-5 3 -10 3 -10 -2z"/>
<path d="M15440 25105 c0 -8 4 -15 10 -15 5 0 7 7 4 15 -4 8 -8 15 -10 15 -2
0 -4 -7 -4 -15z"/>
<path d="M15780 25069 c0 -8 7 -24 15 -35 18 -24 19 -7 0 26 -9 16 -14 19 -15
9z"/>
<path d="M15610 25061 c0 -5 5 -13 10 -16 6 -3 10 -2 10 4 0 5 -4 13 -10 16
-5 3 -10 2 -10 -4z"/>
<path d="M9378 25003 c-10 -2 -18 -9 -18 -14 0 -6 8 -5 20 1 11 6 20 13 20 15
0 3 -1 4 -2 4 -2 -1 -11 -3 -20 -6z"/>
<path d="M15640 24992 c0 -4 8 -18 18 -32 9 -13 35 -57 57 -97 106 -192 129
-232 133 -228 8 7 -110 232 -179 343 -14 22 -29 29 -29 14z"/>
<path d="M9348 24913 c7 -3 16 -2 19 1 4 3 -2 6 -13 5 -11 0 -14 -3 -6 -6z"/>
<path d="M15770 24885 c0 -27 19 -45 45 -44 13 1 15 3 5 5 -9 3 -23 17 -33 32
-15 24 -16 25 -17 7z"/>
<path d="M15558 24873 c5 -10 19 -40 32 -68 48 -107 60 -129 60 -115 0 22 -82
200 -92 200 -5 0 -5 -8 0 -17z"/>
<path d="M15880 24770 c6 -11 13 -20 16 -20 2 0 0 9 -6 20 -6 11 -13 20 -16
20 -2 0 0 -9 6 -20z"/>
<path d="M15960 24711 c0 -5 5 -13 10 -16 6 -3 10 -2 10 4 0 5 -4 13 -10 16
-5 3 -10 2 -10 -4z"/>
<path d="M15670 24685 c0 -5 5 -17 10 -25 5 -8 10 -10 10 -5 0 6 -5 17 -10 25
-5 8 -10 11 -10 5z"/>
<path d="M15715 24580 c9 -16 18 -30 21 -30 2 0 -2 14 -11 30 -9 17 -18 30
-21 30 -2 0 2 -13 11 -30z"/>
<path d="M15870 24576 c0 -8 4 -17 9 -20 5 -4 7 3 4 14 -6 23 -13 26 -13 6z"/>
<path d="M15740 24534 c0 -5 7 -18 15 -28 8 -11 15 -16 15 -10 0 5 -7 18 -15
28 -8 11 -15 16 -15 10z"/>
<path d="M15890 24527 c0 -4 4 -15 9 -25 5 -9 14 -28 19 -42 9 -21 11 -22 11
-5 1 11 -8 34 -19 50 -11 17 -20 27 -20 22z"/>
<path d="M9231 24400 c0 -29 1 -32 10 -17 7 11 7 23 0 35 -9 14 -10 11 -10
-18z"/>
<path d="M15407 24213 c4 -10 19 -43 35 -73 46 -89 100 -241 104 -293 3 -46 2
-48 -19 -41 -12 4 -25 12 -29 18 -6 8 -8 8 -8 -1 0 -6 16 -21 36 -32 72 -42
26 -29 -83 25 -62 29 -118 54 -125 54 -8 0 -40 14 -72 30 -32 17 -60 29 -63
27 -11 -12 130 -96 192 -115 73 -23 111 -42 87 -42 -7 0 -22 5 -33 11 -11 5
-28 9 -37 6 -22 -4 51 -37 83 -37 30 0 95 -28 95 -40 0 -6 8 -10 19 -10 24 0
37 -17 46 -57 3 -18 10 -33 14 -33 8 0 10 -3 67 -125 71 -153 199 -326 266
-361 51 -26 157 -12 205 28 11 9 10 14 -8 31 -13 12 -19 27 -16 39 4 12 1 18
-6 15 -20 -6 -20 -38 0 -53 17 -13 17 -15 -6 -34 -28 -24 -117 -28 -159 -6
-54 28 -166 162 -201 241 -7 17 -17 37 -22 45 -19 32 -79 163 -79 171 0 15 20
10 26 -6 4 -8 13 -15 22 -15 12 0 10 6 -8 25 -13 13 -30 27 -39 30 -17 5 -44
55 -35 64 3 3 9 0 13 -8 5 -7 11 -12 15 -12 3 1 29 -10 57 -25 28 -14 54 -23
57 -20 3 3 1 6 -5 6 -19 0 -164 101 -170 118 -3 9 -13 35 -23 57 -9 22 -20 51
-24 65 -7 26 -29 83 -52 137 -8 17 -14 38 -14 47 0 9 -5 16 -11 16 -6 0 -8 9
-4 23 5 17 4 18 -4 7 -12 -18 -12 -18 -50 58 -29 58 -48 83 -34 45z m173 -424
c0 -6 -4 -7 -10 -4 -5 3 -10 11 -10 16 0 6 5 7 10 4 6 -3 10 -11 10 -16z m20
-46 c0 -13 -3 -13 -15 -3 -8 7 -12 16 -9 21 8 13 24 1 24 -18z"/>
<path d="M16070 24107 c0 -7 7 -22 15 -33 13 -17 14 -16 4 14 -11 33 -19 41
-19 19z"/>
<path d="M14474 24095 c11 -8 27 -15 35 -15 10 1 7 6 -9 15 -33 19 -50 18 -26
0z"/>
<path d="M14720 24056 c0 -3 25 -12 57 -21 31 -9 72 -27 92 -41 20 -13 43 -24
53 -24 9 0 40 -13 68 -30 57 -33 60 -34 60 -19 0 5 -4 8 -9 5 -5 -3 -14 1 -21
9 -7 8 -17 15 -22 15 -6 0 -22 9 -38 20 -15 11 -30 17 -33 14 -3 -4 -18 3 -34
14 -15 10 -39 23 -53 27 -14 4 -34 14 -45 21 -18 13 -75 20 -75 10z"/>
<path d="M14293 24043 c9 -2 23 -2 30 0 6 3 -1 5 -18 5 -16 0 -22 -2 -12 -5z"/>
<path d="M16100 24043 c0 -4 5 -15 10 -23 8 -13 10 -13 10 2 0 9 -4 20 -10 23
-5 3 -10 3 -10 -2z"/>
<path d="M14585 24020 c3 -6 22 -18 42 -29 31 -15 33 -19 17 -25 -10 -4 -15
-4 -11 0 10 10 -68 43 -101 43 -15 0 -85 1 -155 2 -86 1 -132 -2 -139 -9 -9
-9 10 -10 75 -6 49 3 87 1 87 -4 0 -9 -165 -25 -232 -23 -20 1 -39 -3 -43 -9
-3 -6 4 -10 17 -11 23 0 23 0 -2 -11 -14 -6 -47 -12 -75 -14 -27 -1 -61 -5
-75 -9 -24 -6 -24 -6 -6 9 29 23 13 29 -29 12 -21 -9 -49 -16 -64 -16 -25 -1
-25 -1 -7 -15 18 -14 17 -15 -21 -13 -23 0 -54 -4 -70 -10 -15 -6 -39 -13 -53
-16 -14 -4 -43 -30 -65 -59 -50 -65 -54 -73 -21 -52 14 10 26 22 26 27 0 17
63 70 89 75 14 2 31 9 37 14 7 6 15 6 18 1 3 -5 -11 -18 -31 -28 -20 -10 -46
-28 -57 -39 -40 -38 -71 -77 -61 -75 29 6 25 -4 -15 -45 -27 -27 -38 -45 -29
-45 8 0 20 5 26 11 8 8 16 8 30 -1 12 -7 13 -10 2 -7 -10 3 -21 -8 -33 -35 -9
-22 -15 -43 -12 -45 3 -3 20 9 38 26 37 35 94 65 107 56 5 -3 23 9 41 26 39
40 54 29 15 -11 -33 -35 -24 -39 23 -10 18 11 39 20 46 20 7 0 19 7 26 16 20
23 100 67 108 60 4 -4 -4 -16 -18 -26 -23 -18 -23 -20 -5 -20 18 0 18 -1 -3
-16 -12 -8 -22 -19 -22 -24 0 -13 59 14 131 59 35 22 67 37 72 34 5 -3 -2 -13
-17 -22 -27 -16 -36 -34 -13 -25 21 8 107 11 107 4 0 -3 -6 -12 -12 -19 -11
-11 -7 -12 22 -6 19 4 40 12 45 18 7 7 4 8 -9 3 -15 -5 -17 -2 -13 14 4 17 2
20 -16 15 -21 -5 -21 -5 1 6 12 7 22 19 23 28 0 9 5 4 11 -11 11 -31 33 -36
57 -14 9 8 50 19 91 25 41 7 85 14 98 18 13 3 22 1 22 -6 0 -6 -18 -14 -40
-17 -22 -4 -37 -11 -34 -16 7 -11 72 1 99 18 43 27 121 42 195 37 109 -6 69
13 -85 41 -11 2 -33 10 -50 17 -16 6 -50 15 -75 19 l-45 7 52 2 c28 0 54 -3
57 -8 7 -11 66 -20 66 -10 0 8 -15 14 -67 24 -18 4 -35 10 -38 14 -2 5 16 4
41 0 26 -5 50 -6 56 -3 5 3 15 1 23 -6 9 -7 15 -8 20 0 3 5 11 10 17 10 7 0 7
-5 -1 -14 -13 -16 5 -26 42 -25 l22 0 -22 16 c-28 19 -30 37 -3 30 11 -3 20
-1 20 3 0 12 -50 50 -65 50 -6 0 -20 9 -30 20 -10 11 -23 20 -29 20 -6 0 4
-14 23 -30 45 -40 27 -38 -73 10 -87 42 -101 47 -91 30z m-25 -70 c0 -5 -12
-10 -27 -10 -22 0 -25 2 -13 10 20 13 40 13 40 0z m-553 -56 c-3 -3 -12 -4
-19 -1 -8 3 -5 6 6 6 11 1 17 -2 13 -5z m-65 -35 c-18 -12 -35 -19 -38 -16 -3
3 4 8 15 12 12 3 21 11 21 16 0 5 8 9 18 9 11 0 6 -7 -16 -21z m-62 7 c0 -2
-9 -6 -20 -9 -11 -3 -18 -1 -14 4 5 9 34 13 34 5z m196 -31 c-11 -8 -25 -15
-30 -15 -6 1 0 7 14 15 32 19 40 18 16 0z m583 6 c9 -6 -7 -7 -45 -4 -32 3
-61 7 -63 9 -9 8 95 3 108 -5z m-853 -26 c-11 -8 -26 -15 -33 -15 -7 0 -13 -4
-13 -10 0 -5 -4 -10 -10 -10 -21 0 -9 17 23 33 40 20 58 21 33 2z m934 -1 c0
-2 -9 -4 -21 -4 -11 0 -18 4 -14 10 5 8 35 3 35 -6z m-824 -13 c-3 -5 -16 -11
-28 -14 -22 -6 -22 -5 -4 8 22 17 40 20 32 6z m672 2 c-10 -2 -26 -2 -35 0
-10 3 -2 5 17 5 19 0 27 -2 18 -5z m-574 -18 c-4 -8 -13 -15 -21 -15 -13 0
-13 3 -3 15 7 8 16 15 21 15 5 0 6 -7 3 -15z m407 0 c-18 -8 -41 -15 -50 -15
-22 1 39 28 64 29 13 0 9 -5 -14 -14z m-131 -4 c0 -5 -8 -11 -17 -14 -10 -2
-26 -8 -35 -12 -11 -4 -18 -3 -18 5 0 6 4 9 9 6 4 -3 17 1 27 9 22 17 34 19
34 6z m-480 -79 c-13 -9 -33 -25 -42 -34 -10 -10 -18 -14 -18 -8 0 16 50 60
68 59 13 0 11 -4 -8 -17z"/>
<path d="M14860 23966 c0 -2 15 -9 33 -15 29 -10 30 -9 13 4 -18 14 -46 20
-46 11z"/>
<path d="M15140 23930 c0 -5 7 -10 16 -10 8 0 12 5 9 10 -3 6 -10 10 -16 10
-5 0 -9 -4 -9 -10z"/>
<path d="M15342 23932 l-23 -3 23 -18 c34 -26 100 -62 104 -58 2 2 -15 21 -38
43 -30 27 -50 38 -66 36z"/>
<path d="M14870 23896 c0 -12 33 -35 41 -30 6 3 2 12 -8 20 -18 13 -33 18 -33
10z"/>
<path d="M10633 23867 c-29 -6 -53 -15 -53 -20 0 -10 45 -3 111 17 52 17 20
18 -58 3z"/>
<path d="M10918 23873 c7 -3 16 -2 19 1 4 3 -2 6 -13 5 -11 0 -14 -3 -6 -6z"/>
<path d="M15030 23872 c0 -6 19 -13 43 -17 23 -4 50 -12 60 -17 28 -14 31 -3
5 14 -29 19 -108 34 -108 20z"/>
<path d="M10849 23861 c-1 -3 -1 -9 0 -13 0 -5 -11 -8 -25 -8 -17 0 -23 4 -18
13 6 8 3 8 -9 -2 -9 -7 -23 -11 -32 -8 -17 7 -147 -24 -167 -39 -7 -6 -46 -16
-87 -23 -80 -13 -91 -17 -91 -33 0 -6 9 -8 23 -3 57 18 194 33 227 25 l35 -8
-35 -1 c-19 -1 -87 -9 -150 -20 -122 -20 -190 -24 -190 -12 0 5 -15 3 -34 -3
-57 -17 -31 -26 82 -26 75 -1 112 -5 125 -14 10 -8 14 -17 9 -20 -12 -7 -217
-19 -325 -19 -43 1 -76 -1 -74 -4 3 -2 58 -8 123 -13 74 -7 121 -15 126 -23 8
-13 169 -28 178 -16 24 30 89 37 141 15 27 -11 30 -16 17 -21 -9 -4 -25 -2
-37 4 -24 13 -64 15 -57 2 3 -4 23 -11 43 -14 21 -4 54 -15 73 -25 28 -15 66
-20 99 -13 2 1 -2 7 -8 15 -6 7 -21 11 -34 9 -14 -3 -29 2 -36 11 -12 14 -9
16 20 16 19 -1 45 -7 59 -15 14 -8 33 -14 44 -15 15 0 16 3 6 15 -16 19 -1 19
24 0 11 -8 30 -15 43 -15 13 0 23 -4 23 -8 0 -10 65 -42 85 -42 7 0 15 6 18
13 3 9 9 8 23 -4 35 -29 98 -61 102 -51 2 6 17 5 40 -3 99 -34 104 -35 98 -19
-7 18 -2 18 33 0 25 -13 31 -13 51 1 22 16 24 15 38 -5 15 -22 52 -31 52 -12
0 6 -4 10 -8 10 -5 0 -15 11 -22 25 -7 13 -16 22 -20 20 -4 -2 -7 1 -8 8 0 7
-4 23 -8 37 -7 25 -7 25 27 -5 18 -16 41 -39 51 -49 15 -16 18 -17 18 -3 0 9
-17 32 -37 51 -21 19 -35 38 -31 41 6 6 36 -16 75 -54 8 -7 16 -11 18 -9 3 3
-22 33 -55 68 -56 59 -70 80 -53 80 4 0 17 -10 30 -22 13 -12 26 -19 29 -15 8
8 -14 37 -28 37 -13 0 -44 32 -51 53 -4 9 -16 17 -27 17 -11 0 -20 6 -20 14 0
8 -8 14 -17 13 -24 -1 -113 26 -113 34 0 4 6 10 13 12 6 3 -17 5 -53 5 -36 -1
-53 -3 -37 -5 25 -4 40 -23 17 -23 -8 0 -98 31 -145 50 -11 4 -33 8 -49 9 -39
1 -47 11 -10 11 20 0 25 3 15 9 -7 5 -21 7 -30 4 -10 -2 -41 0 -69 5 -29 5
-53 7 -53 3z m36 -51 c14 -6 0 -9 -45 -9 -45 0 -59 3 -45 9 11 5 31 9 45 9 14
0 34 -4 45 -9z m91 -5 c16 -8 36 -15 45 -15 9 0 22 -7 29 -15 11 -13 7 -15
-28 -15 -34 0 -40 3 -35 16 5 14 3 15 -17 4 -15 -8 -20 -8 -16 -1 4 6 0 11
-11 12 -11 0 -13 3 -5 6 6 2 10 9 6 14 -7 13 -1 11 32 -6z m-309 -81 c-3 -3
-12 -4 -19 -1 -8 3 -5 6 6 6 11 1 17 -2 13 -5z m633 -4 c0 -5 -4 -10 -9 -10
-6 0 -13 5 -16 10 -3 6 1 10 9 10 9 0 16 -4 16 -10z m-480 -50 c13 -9 13 -10
0 -10 -8 0 -22 5 -30 10 -13 9 -13 10 0 10 8 0 22 -5 30 -10z m540 1 c0 -5 -9
-7 -20 -4 -11 3 -20 7 -20 9 0 2 9 4 20 4 11 0 20 -4 20 -9z m-624 -10 c-5 -8
-56 -3 -56 5 0 2 14 4 31 4 16 0 28 -4 25 -9z m161 -37 c-6 -6 -47 9 -47 17 0
5 11 3 25 -3 14 -6 24 -13 22 -14z m503 6 c0 -5 -2 -10 -4 -10 -3 0 -8 5 -11
10 -3 6 -1 10 4 10 6 0 11 -4 11 -10z m-897 -7 c-13 -2 -33 -2 -45 0 -13 2 -3
4 22 4 25 0 35 -2 23 -4z m867 -134 c7 -11 9 -23 6 -26 -7 -7 -36 22 -36 36 0
18 19 12 30 -10z"/>
<path d="M14937 23850 c3 -12 12 -20 22 -18 24 5 19 33 -6 36 -17 3 -20 -1
-16 -18z"/>
<path d="M15223 23846 c21 -16 23 -41 2 -32 -8 3 -22 9 -32 13 -10 4 -14 3
-10 -5 4 -6 22 -13 40 -17 17 -4 51 -18 74 -31 23 -13 52 -24 65 -23 l23 1
-25 11 c-39 19 -104 63 -119 81 -7 9 -19 16 -25 16 -6 0 -3 -7 7 -14z"/>
<path d="M10435 23821 c-27 -10 -83 -28 -122 -41 -40 -12 -73 -26 -73 -30 0
-10 73 6 109 23 14 8 61 21 104 31 42 10 77 22 77 27 0 14 -40 10 -95 -10z"/>
<path d="M15030 23819 c0 -6 -9 -8 -21 -4 -15 5 -19 4 -15 -4 11 -17 56 -14
56 4 0 8 -4 15 -10 15 -5 0 -10 -5 -10 -11z"/>
<path d="M10263 23805 c-18 -8 -33 -16 -33 -19 0 -8 59 15 66 25 7 11 6 11
-33 -6z"/>
<path d="M15110 23810 c0 -5 5 -10 11 -10 5 0 7 5 4 10 -3 6 -8 10 -11 10 -2
0 -4 -4 -4 -10z"/>
<path d="M9916 23765 c4 -8 11 -15 16 -15 6 0 5 6 -2 15 -7 8 -14 15 -16 15
-2 0 -1 -7 2 -15z"/>
<path d="M14915 23770 c-4 -6 19 -10 62 -9 52 1 61 3 38 9 -45 11 -93 11 -100
0z"/>
<path d="M15185 23760 c3 -5 11 -10 16 -10 6 0 7 5 4 10 -3 6 -11 10 -16 10
-6 0 -7 -4 -4 -10z"/>
<path d="M9840 23753 c-19 -2 -44 -8 -55 -13 -11 -5 -38 -14 -60 -21 -53 -16
-95 -40 -95 -56 0 -7 -7 -13 -16 -13 -9 0 -27 -9 -41 -20 -32 -25 -17 -25 46
0 29 11 99 24 162 30 61 6 138 19 170 30 32 11 64 20 71 20 17 0 82 40 75 46
-3 3 -18 -1 -34 -9 -16 -9 -47 -18 -68 -22 -22 -4 -58 -13 -80 -20 -22 -8 -71
-16 -110 -18 l-70 -5 40 18 c22 10 47 19 56 19 30 2 79 23 73 32 -3 5 -11 8
-17 7 -7 0 -28 -3 -47 -5z"/>
<path d="M10138 23743 c6 -2 18 -2 25 0 6 3 1 5 -13 5 -14 0 -19 -2 -12 -5z"/>
<path d="M14458 23733 c7 -3 16 -2 19 1 4 3 -2 6 -13 5 -11 0 -14 -3 -6 -6z"/>
<path d="M13625 23717 c-6 -7 -19 -25 -29 -42 l-19 -30 37 34 c34 33 45 51 29
51 -5 -1 -13 -6 -18 -13z"/>
<path d="M15318 23723 c6 -2 18 -2 25 0 6 3 1 5 -13 5 -14 0 -19 -2 -12 -5z"/>
<path d="M10145 23703 c-26 -6 -44 -23 -24 -23 8 0 24 7 35 15 10 8 17 14 14
14 -3 -1 -14 -3 -25 -6z"/>
<path d="M13961 23681 c-18 -17 -41 -31 -51 -31 -19 0 -50 -30 -50 -49 0 -8
16 -3 42 13 57 34 101 73 96 87 -2 6 -18 -3 -37 -20z"/>
<path d="M15250 23706 c0 -2 9 -6 20 -9 11 -3 20 -1 20 4 0 5 -9 9 -20 9 -11
0 -20 -2 -20 -4z"/>
<path d="M13527 23683 c-4 -3 -7 -11 -7 -17 0 -6 5 -5 12 2 6 6 9 14 7 17 -3
3 -9 2 -12 -2z"/>
<path d="M15510 23681 c8 -6 27 -11 43 -11 15 0 27 -4 27 -10 0 -5 -12 -10
-27 -11 -26 0 -25 -2 12 -18 22 -10 41 -18 42 -17 1 0 -1 13 -4 28 -5 28 -12
32 -73 43 -26 5 -31 3 -20 -4z"/>
<path d="M9070 23670 c0 -5 5 -10 10 -10 6 0 10 5 10 10 0 6 -4 10 -10 10 -5
0 -10 -4 -10 -10z"/>
<path d="M11520 23677 c0 -3 12 -12 26 -22 15 -9 23 -12 20 -6 -7 11 -46 35
-46 28z"/>
<path d="M9877 23626 c-10 -8 -37 -17 -60 -20 -63 -10 -167 -45 -137 -46 22
-1 20 -4 -15 -20 -22 -10 -50 -19 -62 -19 -12 -1 -29 -11 -37 -22 -10 -14 -21
-19 -32 -15 -9 4 -27 -1 -40 -9 -30 -19 -33 -40 -3 -25 11 6 45 18 75 26 30 8
69 22 87 31 18 10 55 22 82 28 31 6 49 15 47 23 -1 7 3 14 10 16 7 2 31 9 53
15 22 6 46 20 53 31 14 23 5 26 -21 6z"/>
<path d="M10068 23633 c6 -2 18 -2 25 0 6 3 1 5 -13 5 -14 0 -19 -2 -12 -5z"/>
<path d="M13787 23629 c7 -7 15 -10 18 -7 3 3 -2 9 -12 12 -14 6 -15 5 -6 -5z"/>
<path d="M13587 23613 c-4 -3 -7 -11 -7 -17 0 -6 5 -5 12 2 6 6 9 14 7 17 -3
3 -9 2 -12 -2z"/>
<path d="M11600 23588 c0 -15 5 -30 10 -33 13 -8 13 25 0 45 -8 12 -10 9 -10
-12z"/>
<path d="M9615 23590 c-8 -13 15 -13 35 0 12 8 11 10 -7 10 -12 0 -25 -4 -28
-10z"/>
<path d="M10155 23590 c11 -5 34 -9 50 -9 23 -1 26 2 15 9 -8 5 -31 9 -50 9
-29 0 -31 -2 -15 -9z"/>
<path d="M10265 23590 c3 -5 -2 -10 -12 -10 -46 -1 18 -19 95 -27 93 -10 97 0
7 16 -33 6 -61 16 -63 21 -2 6 -10 10 -18 10 -9 0 -12 -4 -9 -10z"/>
<path d="M10550 23572 c0 -12 19 -26 26 -19 2 2 -2 10 -11 17 -9 8 -15 8 -15
2z"/>
<path d="M9590 23550 c-8 -5 -10 -10 -5 -10 6 0 17 5 25 10 8 5 11 10 5 10 -5
0 -17 -5 -25 -10z"/>
<path d="M14308 23553 c12 -2 30 -2 40 0 9 3 -1 5 -23 4 -22 0 -30 -2 -17 -4z"/>
<path d="M15610 23538 c0 -9 5 -20 11 -23 17 -11 20 0 4 21 -13 17 -14 17 -15
2z"/>
<path d="M16068 23532 c-7 -26 12 -45 32 -32 11 7 11 10 2 10 -7 0 -16 10 -21
22 l-8 22 -5 -22z"/>
<path d="M11621 23524 c0 -11 3 -14 6 -6 3 7 2 16 -1 19 -3 4 -6 -2 -5 -13z"/>
<path d="M14963 23533 c9 -2 23 -2 30 0 6 3 -1 5 -18 5 -16 0 -22 -2 -12 -5z"/>
<path d="M15065 23520 c11 -5 31 -9 45 -9 23 0 23 1 5 9 -11 5 -31 9 -45 9
-23 0 -23 -1 -5 -9z"/>
<path d="M15655 23520 c-3 -5 1 -13 10 -16 22 -9 29 1 11 15 -10 8 -16 9 -21
1z"/>
<path d="M9708 23463 c7 -3 16 -2 19 1 4 3 -2 6 -13 5 -11 0 -14 -3 -6 -6z"/>
<path d="M9565 23436 c-16 -12 -13 -13 28 -6 26 4 50 10 54 13 13 13 -64 7
-82 -7z"/>
<path d="M11425 23440 c3 -5 8 -10 11 -10 2 0 4 5 4 10 0 6 -5 10 -11 10 -5 0
-7 -4 -4 -10z"/>
<path d="M9475 23405 l-40 -14 40 6 c22 3 44 9 50 14 12 12 -1 10 -50 -6z"/>
<path d="M9490 23340 c0 -5 5 -10 10 -10 6 0 10 5 10 10 0 6 -4 10 -10 10 -5
0 -10 -4 -10 -10z"/>
<path d="M16183 23284 c-3 -8 -1 -20 6 -27 8 -8 11 -4 11 16 0 30 -7 35 -17
11z"/>
<path d="M11240 26680 c-9 -6 -10 -10 -3 -10 6 0 15 5 18 10 8 12 4 12 -15 0z"/>
<path d="M10920 26730 c-33 -25 -19 -25 22 0 18 11 26 20 18 20 -8 0 -26 -9
-40 -20z"/>
<path d="M14509 22949 c-183 -15 -289 -44 -441 -120 -126 -63 -285 -200 -346
-298 -23 -38 -47 -110 -38 -118 11 -12 46 10 46 29 0 26 24 18 28 -10 2 -15
10 -22 25 -22 30 0 53 15 38 24 -6 4 -8 13 -4 19 4 7 6 24 4 39 -1 14 2 29 8
33 6 3 11 16 11 28 0 13 13 36 29 52 42 44 103 95 114 95 5 0 23 10 40 23 42
29 77 32 77 6 0 -25 24 -24 62 2 16 12 32 19 35 15 9 -8 -18 -66 -28 -60 -5 3
-18 3 -28 -1 -45 -14 6 -157 84 -238 72 -74 93 -82 216 -82 97 0 109 2 145 26
132 88 187 225 145 359 -25 79 -26 106 -4 118 19 11 73 -1 124 -28 20 -11 39
-17 42 -14 9 9 47 -20 48 -36 0 -9 2 -11 5 -3 6 12 64 -36 64 -53 1 -11 36
-54 45 -54 15 0 44 -47 45 -72 0 -30 9 -35 28 -16 8 8 15 8 26 -1 8 -7 20 -10
26 -6 13 8 13 -6 0 -41 -7 -18 -7 -30 0 -39 12 -15 -3 -30 -20 -20 -5 3 -22
-1 -37 -9 l-28 -14 30 -8 c17 -5 36 -7 44 -5 7 1 10 -2 6 -8 -3 -6 1 -11 9
-11 9 0 16 5 16 11 0 7 10 9 26 5 24 -6 25 -5 21 26 -3 18 -6 35 -6 37 -1 3
-8 -4 -16 -15 -8 -10 -15 -14 -15 -7 0 15 28 43 44 43 7 0 22 9 34 21 15 13
29 18 42 14 16 -5 20 -2 20 19 0 21 4 25 22 23 15 -1 26 6 35 23 11 23 10 27
-25 58 -50 46 -178 135 -229 161 -36 18 -43 19 -43 6 0 -24 -19 -18 -26 9 -14
58 -333 105 -575 85z m-9 -168 c5 -11 10 -31 10 -45 0 -24 -4 -26 -40 -26 -32
0 -43 5 -57 26 -16 26 -16 27 6 45 30 25 68 24 81 0z m-260 -97 c0 -8 -5 -12
-10 -9 -6 4 -8 11 -5 16 9 14 15 11 15 -7z"/>
<path d="M10460 22825 c-205 -17 -324 -44 -441 -101 -49 -24 -95 -44 -101 -44
-6 0 -18 -8 -27 -18 -9 -10 -36 -29 -61 -43 -25 -13 -48 -29 -53 -36 -4 -6
-21 -14 -37 -18 -17 -4 -30 -10 -30 -15 0 -5 -7 -16 -16 -24 -8 -9 -11 -16 -5
-16 5 0 16 -6 23 -13 7 -7 28 -17 46 -22 19 -6 34 -14 35 -20 1 -5 8 -18 17
-28 14 -16 15 -16 22 0 3 10 7 12 7 6 1 -7 8 -13 17 -13 10 0 14 -6 11 -15 -9
-21 7 -27 38 -15 26 10 27 9 21 -16 -6 -23 -4 -25 11 -19 10 4 36 9 58 10 22
1 53 7 68 13 19 8 34 9 47 2 10 -6 21 -6 24 -1 3 4 -6 13 -21 20 -21 10 -28 9
-36 -1 -7 -10 -8 -9 -4 3 3 9 1 21 -4 26 -6 6 -3 21 8 41 20 36 26 38 43 17
18 -21 40 -19 40 5 0 11 14 42 30 68 17 27 30 52 30 56 0 15 63 85 72 80 4 -3
5 -11 1 -17 -4 -7 10 3 30 21 40 34 57 38 89 21 14 -8 23 -8 31 0 20 20 22 12
19 -63 -7 -145 74 -284 195 -338 40 -17 57 -19 132 -13 72 6 93 12 136 40 93
59 155 169 155 276 0 68 0 68 120 15 27 -12 50 -31 50 -41 0 -4 14 -25 32 -47
19 -24 31 -52 31 -69 0 -21 5 -29 19 -29 18 0 23 -17 18 -67 -1 -21 3 -23 45
-23 55 0 63 12 45 76 -13 47 -86 150 -139 197 -75 66 -227 144 -333 171 -51
13 -117 20 -283 30 -33 2 -134 -2 -225 -9z m395 -114 c10 -33 -5 -51 -41 -51
-31 0 -34 3 -34 29 0 30 10 39 47 40 13 1 24 -7 28 -18z m-252 -67 c-4 -10 -9
-12 -15 -6 -12 12 -1 35 12 27 5 -3 6 -13 3 -21z m-432 -70 c-25 -47 -28 -19
-3 32 10 22 18 31 20 21 2 -8 -6 -32 -17 -53z"/>
<path d="M14977 22729 c16 -25 29 -36 32 -28 2 7 -1 15 -7 17 -7 2 -12 9 -12
15 0 7 -9 18 -20 25 -18 11 -17 6 7 -29z"/>
<path d="M10403 22675 c-9 -24 1 -27 15 -5 8 13 8 20 2 20 -6 0 -13 -7 -17
-15z"/>
<path d="M15006 22630 c3 -14 11 -26 15 -28 5 -2 10 -16 10 -30 1 -22 2 -23 6
-6 2 12 -6 37 -17 55 -18 28 -20 29 -14 9z"/>
<path d="M16390 22474 c0 -13 18 -39 24 -34 2 3 -2 14 -10 24 -8 11 -14 16
-14 10z"/>
<path d="M13155 22333 c19 -164 51 -293 100 -395 30 -64 33 -67 49 -50 9 10
16 31 16 45 0 15 3 27 8 27 4 0 7 40 7 89 0 75 -3 92 -20 111 -28 31 -64 43
-82 29 -10 -9 -17 -9 -25 -1 -9 9 -8 12 5 12 9 0 17 3 17 8 0 17 -66 182 -73
182 -5 0 -6 -26 -2 -57z m109 -189 c22 -8 20 -34 -1 -34 -26 0 -47 16 -39 29
8 12 17 14 40 5z"/>
<path d="M11791 22348 c-6 -13 -19 -35 -29 -49 -9 -15 -28 -45 -41 -68 -14
-22 -33 -43 -43 -46 -34 -11 -60 -63 -62 -121 -1 -45 2 -54 17 -54 9 0 17 -4
17 -10 0 -5 -7 -10 -15 -10 -20 0 -19 -6 4 -39 14 -20 19 -40 17 -79 -3 -48
-1 -52 19 -52 13 0 25 6 28 13 45 105 55 137 41 137 -8 0 -14 7 -14 15 0 8 5
15 10 15 6 0 10 8 10 19 0 10 8 21 18 23 23 6 39 80 48 226 7 103 0 126 -25
80z m-16 -119 c-8 -12 -35 -12 -35 0 0 11 22 20 33 14 4 -2 5 -9 2 -14z m-25
-114 c0 -15 -43 -12 -48 3 -3 10 4 13 22 10 15 -2 26 -7 26 -13z"/>
<path d="M12032 22260 c0 -14 2 -19 5 -12 2 6 2 18 0 25 -3 6 -5 1 -5 -13z"/>
<path d="M8350 22039 c0 -5 5 -7 10 -4 6 3 10 8 10 11 0 2 -4 4 -10 4 -5 0
-10 -5 -10 -11z"/>
<path d="M8360 21959 c0 -5 5 -7 10 -4 6 3 10 8 10 11 0 2 -4 4 -10 4 -5 0
-10 -5 -10 -11z"/>
<path d="M8397 21923 c-4 -3 -7 -18 -6 -32 l0 -26 10 25 c6 13 15 28 22 32 8
5 7 8 -4 8 -9 0 -19 -3 -22 -7z"/>
<path d="M8410 21859 c0 -11 5 -17 10 -14 6 3 10 13 10 21 0 8 -4 14 -10 14
-5 0 -10 -9 -10 -21z"/>
<path d="M13300 21856 c0 -8 5 -18 10 -21 6 -3 10 1 10 9 0 8 -4 18 -10 21 -5
3 -10 -1 -10 -9z"/>
<path d="M13347 21794 c-4 -21 -2 -43 3 -48 6 -6 10 -6 11 0 0 5 2 20 4 34 5
43 -11 56 -18 14z"/>
<path d="M8392 21792 c-6 -14 -12 -31 -12 -37 0 -23 -26 -64 -42 -69 -25 -6
-22 -22 5 -31 22 -8 22 -8 1 -12 -16 -3 -21 -10 -18 -26 2 -12 2 -16 -2 -9 -3
6 -13 12 -22 11 -11 0 -12 -2 -4 -6 18 -7 15 -21 -8 -28 -11 -3 -20 -13 -20
-20 0 -8 -14 -24 -30 -37 -20 -15 -28 -28 -25 -39 4 -11 -1 -22 -14 -29 -26
-13 -49 -85 -34 -108 6 -10 7 -41 3 -77 -4 -33 -6 -73 -4 -90 2 -30 4 -41 23
-120 6 -22 15 -62 20 -90 12 -54 49 -135 63 -135 4 0 8 -6 8 -14 0 -8 8 -17
18 -21 9 -3 28 -21 42 -40 29 -41 38 -42 92 -14 40 20 40 21 34 62 -9 52 -24
184 -31 257 -2 30 -7 172 -10 315 -5 270 -11 425 -17 430 -2 2 -9 -8 -16 -23z
m8 -192 c-14 -25 -26 -19 -15 7 5 10 7 23 6 28 -1 6 3 5 9 -1 9 -9 9 -17 0
-34z"/>
<path d="M13395 21760 c3 -5 8 -10 11 -10 2 0 4 5 4 10 0 6 -5 10 -11 10 -5 0
-7 -4 -4 -10z"/>
<path d="M13404 21725 c7 -18 -15 -20 -32 -3 -7 7 -12 8 -12 2 0 -18 22 -33
39 -26 20 7 31 23 25 34 -9 14 -26 8 -20 -7z"/>
<path d="M11547 21693 c-24 -23 8 -30 37 -8 19 14 19 15 -5 15 -14 0 -29 -3
-32 -7z"/>
<path d="M13435 21680 c-5 -15 -12 -19 -27 -14 -17 5 -18 4 -8 -15 9 -18 13
-19 24 -9 20 21 38 58 27 58 -5 0 -13 -9 -16 -20z"/>
<path d="M11520 21630 c11 -21 35 -27 45 -10 3 6 -3 10 -14 10 -12 0 -21 5
-21 10 0 6 -5 10 -10 10 -7 0 -7 -6 0 -20z"/>
<path d="M11596 21635 c-11 -8 -15 -15 -9 -15 6 0 16 7 23 15 16 19 11 19 -14
0z"/>
<path d="M16804 21467 c3 -10 6 -24 6 -30 0 -8 4 -7 12 1 10 10 8 16 -6 30
-18 16 -19 16 -12 -1z"/>
<path d="M16795 21407 c-4 -9 -4 -34 0 -55 7 -35 8 -35 16 -14 11 30 -4 97
-16 69z"/>
<path d="M16780 21273 c0 -56 17 -74 18 -19 0 25 -4 48 -9 52 -5 3 -9 -12 -9
-33z"/>
<path d="M15351 21189 c-56 -37 -58 -39 -38 -39 15 0 101 69 87 70 -3 0 -25
-14 -49 -31z"/>
<path d="M9546 21178 c3 -7 20 -24 37 -37 l32 -25 -34 37 c-38 40 -43 44 -35
25z"/>
<path d="M16767 21164 c-4 -4 -7 -36 -7 -70 0 -35 -4 -65 -8 -68 -10 -6 -3
-76 7 -76 4 0 12 46 18 103 10 94 7 128 -10 111z"/>
<path d="M15233 21113 c-7 -2 -90 -15 -185 -28 -107 -15 -139 -21 -83 -17 50
4 129 7 178 7 48 0 87 3 87 7 0 3 9 4 20 1 11 -3 20 0 20 6 0 6 9 11 20 11 11
0 20 5 20 10 0 10 -55 13 -77 3z"/>
<path d="M16735 20898 c-2 -7 -7 -37 -10 -66 -3 -30 -8 -58 -11 -63 -3 -5 -1
-9 4 -9 15 0 24 29 29 93 5 52 -2 75 -12 45z"/>
<path d="M16595 20800 c-3 -5 1 -10 9 -10 9 0 16 5 16 10 0 6 -4 10 -9 10 -6
0 -13 -4 -16 -10z"/>
<path d="M16570 20730 c19 -13 30 -13 30 0 0 6 -10 10 -22 10 -19 0 -20 -2 -8
-10z"/>
<path d="M17240 20713 c-85 -64 -122 -113 -87 -113 31 0 141 119 125 135 -2 2
-19 -8 -38 -22z"/>
<path d="M16710 20715 c7 -8 16 -12 21 -9 13 8 1 24 -18 24 -13 0 -13 -3 -3
-15z"/>
<path d="M16585 20691 c-3 -6 -1 -11 5 -11 6 0 9 -4 5 -9 -8 -13 15 -25 26
-14 6 6 2 16 -10 27 -12 11 -21 14 -26 7z"/>
<path d="M16290 20635 c0 -14 5 -25 10 -25 6 0 10 11 10 25 0 14 -4 25 -10 25
-5 0 -10 -11 -10 -25z"/>
<path d="M16700 20630 c0 -5 5 -10 10 -10 6 0 10 5 10 10 0 6 -4 10 -10 10 -5
0 -10 -4 -10 -10z"/>
<path d="M16560 20613 c0 -5 9 -19 20 -33 l20 -25 0 23 c0 12 -5 22 -11 22 -5
0 -7 5 -4 10 3 6 -1 10 -9 10 -9 0 -16 -3 -16 -7z"/>
<path d="M16690 20579 c0 -11 5 -17 10 -14 6 3 10 13 10 21 0 8 -4 14 -10 14
-5 0 -10 -9 -10 -21z"/>
<path d="M16691 20512 c0 -13 -4 -22 -8 -20 -5 2 -21 10 -36 18 -24 12 -30 12
-45 -3 -15 -16 -15 -17 10 -17 28 0 53 -23 43 -40 -3 -5 -1 -10 4 -10 20 0 11
-32 -9 -37 -24 -6 -26 -19 -5 -27 8 -3 15 -9 15 -14 0 -12 -46 -13 -75 -2 -16
6 -25 6 -25 0 0 -6 5 -10 10 -10 6 0 10 -7 10 -15 0 -8 -7 -15 -15 -15 -9 0
-14 -8 -13 -23 2 -19 8 -23 40 -23 37 -1 38 -1 22 17 -16 18 -16 19 2 19 43 0
61 25 63 91 1 34 6 70 12 81 6 10 8 27 6 36 -3 12 -5 10 -6 -6z"/>
<path d="M16450 20489 c0 -17 4 -28 10 -24 6 3 10 17 10 31 0 13 -4 24 -10 24
-5 0 -10 -14 -10 -31z"/>
<path d="M16536 20492 c-3 -5 1 -18 9 -28 14 -18 14 -18 15 3 0 23 -15 39 -24
25z"/>
<path d="M16556 20404 c-9 -22 -8 -23 14 -17 11 3 20 12 20 19 0 19 -26 18
-34 -2z"/>
<path d="M11301 20268 c0 -49 22 -159 37 -183 4 -5 7 -14 7 -20 0 -18 19 -41
49 -60 21 -14 44 -18 89 -17 34 2 66 7 72 12 14 12 50 14 89 4 18 -4 31 -2 36
6 6 9 12 9 29 1 29 -16 102 -24 199 -22 58 1 93 -3 114 -14 17 -8 46 -15 65
-15 19 0 41 -7 49 -15 9 -8 26 -15 39 -15 36 0 55 -10 55 -31 0 -20 15 -26 25
-9 10 15 35 12 35 -5 0 -15 11 -16 200 -21 76 -2 194 22 211 42 6 8 21 14 32
14 11 0 28 6 36 13 9 8 43 24 76 37 33 13 62 26 65 30 25 29 64 39 147 39 143
0 223 -4 223 -10 0 -4 54 -6 120 -6 66 1 120 5 120 9 0 4 11 8 25 8 14 0 25 4
25 9 0 4 20 16 43 25 24 9 54 28 66 42 26 30 84 125 79 130 -2 1 -35 -7 -74
-18 l-71 -21 -59 35 c-97 59 -152 73 -289 73 -129 0 -163 -8 -292 -66 -37 -17
-82 -37 -99 -45 -18 -8 -56 -30 -85 -49 -29 -20 -57 -34 -64 -32 -6 3 -19 -1
-30 -9 -25 -19 -39 -18 -31 2 5 12 2 15 -11 9 -37 -15 -53 -17 -53 -6 0 6 -9
11 -21 11 -11 0 -17 -4 -14 -10 4 -7 -3 -7 -19 0 -14 5 -26 6 -26 3 0 -4 -5
-2 -12 5 -7 7 -31 12 -54 12 -25 0 -44 5 -47 13 -2 7 -8 8 -13 3 -5 -5 -4 -11
4 -13 6 -3 12 -9 12 -14 0 -15 -27 -10 -41 8 -8 9 -29 23 -48 30 -27 11 -31
17 -20 24 11 7 9 9 -7 9 -12 0 -27 7 -34 15 -7 9 -15 13 -18 11 -2 -3 -16 1
-31 8 -44 23 -212 65 -286 72 -86 8 -182 -14 -240 -54 -21 -15 -57 -53 -79
-85 l-39 -58 -46 7 c-25 4 -58 12 -72 20 -37 19 -98 90 -121 140 -10 24 -21
44 -23 44 -1 0 -3 -24 -4 -52z m1334 -178 c-3 -5 -10 -10 -16 -10 -5 0 -9 5
-9 10 0 6 7 10 16 10 8 0 12 -4 9 -10z"/>
<path d="M14440 20300 c0 -24 35 -28 44 -4 3 8 2 12 -3 9 -5 -3 -12 -1 -16 5
-10 17 -25 11 -25 -10z"/>
<path d="M16640 20268 c0 -28 -4 -38 -16 -38 -9 0 -14 -6 -11 -12 2 -7 10 -13
18 -13 16 0 30 68 18 87 -6 8 -9 -1 -9 -24z"/>
<path d="M14480 20270 c0 -5 -6 -10 -14 -10 -15 0 -26 -21 -26 -51 0 -11 21
-35 49 -56 26 -21 61 -57 76 -81 15 -23 35 -47 45 -52 48 -25 180 -229 180
-277 0 -11 14 -45 31 -77 17 -31 31 -73 32 -93 1 -20 3 -31 5 -24 2 6 17 11
34 11 29 0 30 1 24 38 -4 20 -8 51 -9 68 -1 17 -8 38 -16 47 -12 15 -11 17 3
17 24 0 20 37 -5 51 -15 7 -18 14 -10 18 8 5 2 20 -18 48 -16 23 -27 43 -24
46 2 3 -13 22 -35 41 -22 20 -47 52 -56 71 -10 19 -20 35 -24 35 -4 0 -18 17
-32 38 -14 20 -27 39 -30 42 -3 3 -10 14 -16 24 -6 11 -19 24 -29 30 -34 20
-55 40 -55 53 0 7 -6 13 -14 13 -8 0 -18 9 -21 20 -6 20 -45 29 -45 10z"/>
<path d="M16585 20143 c10 -82 26 -103 21 -28 -3 33 -5 66 -5 73 -1 6 -6 12
-12 12 -7 0 -8 -19 -4 -57z"/>
<path d="M16540 20031 c0 -5 7 -11 14 -14 10 -4 13 -1 9 9 -6 15 -23 19 -23 5z"/>
<path d="M16580 20024 c0 -8 5 -12 10 -9 6 3 10 10 10 16 0 5 -4 9 -10 9 -5 0
-10 -7 -10 -16z"/>
<path d="M13985 19361 c-22 -4 -56 -12 -75 -19 -19 -6 -52 -14 -73 -17 -32 -5
-36 -9 -27 -21 10 -11 9 -14 -4 -14 -9 0 -16 5 -16 10 0 6 -4 10 -10 10 -5 0
-7 -7 -4 -15 5 -12 -5 -15 -55 -15 -36 0 -74 -6 -92 -15 -28 -15 -49 -13 -49
4 0 5 15 12 34 15 19 4 40 13 47 22 11 13 9 14 -17 8 -16 -4 -53 -15 -83 -26
-30 -10 -62 -18 -71 -18 -10 0 -23 -6 -29 -14 -9 -11 -18 -12 -42 -3 -25 10
-36 8 -72 -11 -23 -12 -51 -22 -62 -22 -11 0 -45 -9 -75 -20 -30 -11 -71 -20
-92 -20 -27 0 -41 -6 -52 -22 -12 -17 -18 -20 -28 -10 -7 7 -9 12 -4 12 4 0 0
7 -9 16 -15 15 -19 15 -51 -2 -25 -13 -37 -16 -42 -8 -8 13 -102 -4 -102 -18
0 -13 -54 -9 -116 7 -31 8 -61 12 -66 9 -6 -4 -28 -6 -51 -6 -23 1 -47 -4 -53
-9 -7 -6 -49 -12 -93 -15 -92 -5 -122 5 -164 56 -14 16 -28 27 -30 23 -9 -14
-10 -58 -3 -75 13 -29 -15 -47 -63 -41 -33 5 -45 12 -57 34 -17 34 -54 58 -54
36 0 -12 -13 -14 -67 -9 -38 2 -69 9 -71 13 -2 5 -11 9 -19 9 -9 0 -13 -6 -10
-15 7 -16 -12 -32 -22 -19 -16 23 -54 30 -148 28 -60 -1 -100 3 -97 8 4 5 -20
7 -57 5 -35 -2 -65 -9 -67 -15 -2 -8 -13 -8 -37 2 -41 18 -86 23 -103 12 -7
-4 -49 -9 -95 -12 -45 -3 -100 -7 -122 -10 -22 -3 -87 -7 -145 -8 -58 -1 -113
-5 -123 -10 -14 -6 -18 -5 -15 5 1 8 -2 14 -7 14 -6 0 -9 -8 -8 -17 2 -12 -4
-18 -18 -18 -18 0 -19 2 -9 15 10 12 10 15 -4 15 -28 0 -20 -52 14 -83 17 -16
30 -24 30 -18 0 17 19 13 42 -9 12 -11 53 -31 92 -46 79 -29 94 -35 151 -57
22 -9 59 -18 83 -21 24 -4 62 -15 85 -26 27 -13 59 -19 90 -18 44 2 61 12 36
20 -5 2 -11 10 -12 18 -2 8 -6 20 -10 27 -4 6 -3 14 2 18 6 3 8 13 5 23 -4 11
-3 13 3 5 5 -7 14 -9 22 -4 9 6 10 11 2 15 -19 12 -1 26 34 26 24 0 38 -6 45
-20 8 -15 17 -19 31 -15 11 4 19 2 19 -4 0 -6 17 -19 37 -29 66 -30 95 -75 56
-85 -10 -3 -5 -5 12 -6 39 -1 50 7 64 49 6 19 25 50 40 68 25 29 32 32 49 23
15 -8 21 -8 24 1 5 14 129 -45 155 -74 15 -17 17 -16 41 19 14 21 30 41 36 45
17 12 106 9 171 -6 281 -63 261 -60 359 -47 135 19 136 30 1 24 -73 -3 -141 0
-175 7 -30 6 -64 13 -75 16 -13 2 -21 12 -23 28 -2 31 17 44 33 23 7 -10 22
-17 34 -17 13 0 25 -9 30 -22 l8 -22 12 22 c9 17 21 22 51 22 22 0 49 6 60 12
16 10 25 9 48 -4 16 -10 33 -13 38 -9 5 5 51 11 102 15 78 5 92 3 92 -9 0 -17
21 -20 37 -4 8 8 13 8 18 0 7 -12 2 -14 -67 -37 l-43 -14 50 5 c28 3 73 11
101 17 43 9 56 8 88 -7 37 -18 37 -18 92 10 48 24 62 27 111 21 40 -5 61 -12
71 -27 13 -19 14 -19 50 11 20 17 49 42 63 56 14 13 35 24 45 24 11 0 24 4 30
9 5 5 26 14 47 19 76 21 132 -27 125 -106 l-3 -37 40 1 c65 1 143 22 204 53
101 53 253 111 289 111 36 0 180 59 220 91 l23 18 -36 16 c-19 10 -35 21 -35
26 0 5 -24 8 -52 8 -29 -1 -73 6 -98 15 -122 45 -197 59 -265 47z m-2392 -218
c-7 -2 -21 -2 -30 0 -10 3 -4 5 12 5 17 0 24 -2 18 -5z m758 -36 c-1 -12 -15
-9 -19 4 -3 6 1 10 8 8 6 -3 11 -8 11 -12z m-141 -57 c0 -5 -10 -10 -22 -10
-19 0 -20 2 -8 10 19 13 30 13 30 0z"/>
<path d="M12175 19130 c3 -5 13 -10 21 -10 8 0 14 5 14 10 0 6 -9 10 -21 10
-11 0 -17 -4 -14 -10z"/>
<path d="M13578 18933 c7 -3 16 -2 19 1 4 3 -2 6 -13 5 -11 0 -14 -3 -6 -6z"/>
<path d="M13350 18920 c0 -6 -11 -8 -25 -4 -15 4 -25 2 -25 -5 0 -6 14 -11 30
-11 20 0 30 5 30 15 0 8 -2 15 -5 15 -3 0 -5 -5 -5 -10z"/>
<path d="M13378 18923 c7 -3 16 -2 19 1 4 3 -2 6 -13 5 -11 0 -14 -3 -6 -6z"/>
<path d="M12857 18038 c-7 -4 -20 -5 -31 -2 -10 4 -22 0 -27 -7 -6 -11 -11
-11 -20 -2 -9 9 -16 9 -31 0 -15 -10 -21 -9 -28 3 -5 8 -10 10 -10 4 0 -7 -66
-11 -196 -12 -124 -1 -202 -6 -210 -13 -7 -6 -18 -8 -24 -4 -22 14 -75 -5 -87
-30 -13 -28 -8 -33 59 -54 56 -18 234 -27 294 -15 29 5 32 3 44 -28 11 -31 12
-32 20 -12 10 24 30 41 30 25 0 -15 33 -14 48 1 10 10 14 10 21 0 6 -10 14 -6
32 16 20 22 28 26 41 18 18 -11 48 7 48 29 0 7 10 15 23 19 33 9 35 8 42 -14
8 -26 23 -25 35 3 7 17 9 18 9 5 1 -22 17 -24 25 -3 3 9 19 15 41 15 33 0 36
2 33 28 -3 23 0 27 21 24 14 -1 21 1 17 5 -10 10 -204 10 -219 1z"/>
<path d="M12856 17941 c-3 -5 1 -11 9 -15 9 -3 15 0 15 9 0 16 -16 20 -24 6z"/>
<path d="M15703 17309 c-2 -20 -1 -20 18 -4 24 22 24 25 1 25 -11 0 -18 -8
-19 -21z"/>
<path d="M15035 17300 c-4 -6 3 -10 14 -10 25 0 27 6 6 13 -8 4 -17 2 -20 -3z"/>
<path d="M15820 17210 c0 -11 5 -20 10 -20 6 0 10 9 10 20 0 11 -4 20 -10 20
-5 0 -10 -9 -10 -20z"/>
<path d="M14940 17165 c0 -8 5 -15 10 -15 6 0 10 7 10 15 0 8 -4 15 -10 15 -5
0 -10 -7 -10 -15z"/>
<path d="M15401 17161 c-8 -5 -9 -11 -3 -15 13 -8 42 3 42 15 0 11 -21 11 -39
0z"/>
<path d="M14880 16939 c0 -8 5 -20 11 -26 8 -8 8 -13 0 -17 -6 -4 -11 -2 -11
3 0 14 -23 14 -54 0 -29 -14 -41 -38 -26 -53 8 -8 9 -6 5 7 -5 12 -2 17 8 17
9 0 20 6 24 14 10 17 53 3 53 -18 0 -18 47 -27 61 -10 8 10 5 11 -10 7 -15 -4
-21 0 -23 13 0 11 -2 25 -2 31 -1 7 -9 20 -19 30 -14 14 -17 15 -17 2z"/>
<path d="M14800 16920 c0 -5 7 -10 16 -10 8 0 12 5 9 10 -3 6 -10 10 -16 10
-5 0 -9 -4 -9 -10z"/>
<path d="M15105 16910 c3 -5 12 -7 20 -3 21 7 19 13 -6 13 -11 0 -18 -4 -14
-10z"/>
<path d="M15055 16880 c-3 -5 1 -10 9 -10 9 0 16 5 16 10 0 6 -4 10 -9 10 -6
0 -13 -4 -16 -10z"/>
<path d="M14740 16870 c0 -5 5 -10 11 -10 5 0 7 5 4 10 -3 6 -8 10 -11 10 -2
0 -4 -4 -4 -10z"/>
<path d="M14850 16849 c0 -5 5 -7 10 -4 6 3 10 8 10 11 0 2 -4 4 -10 4 -5 0
-10 -5 -10 -11z"/>
<path d="M14895 16820 c-3 -5 -2 -10 4 -10 5 0 13 5 16 10 3 6 2 10 -4 10 -5
0 -13 -4 -16 -10z"/>
<path d="M14702 16799 c2 -6 7 -10 11 -10 4 1 14 1 22 1 8 0 15 5 15 10 0 6
-12 10 -26 10 -14 0 -24 -5 -22 -11z"/>
<path d="M14880 16775 c0 -8 5 -15 10 -15 6 0 10 7 10 15 0 8 -4 15 -10 15 -5
0 -10 -7 -10 -15z"/>
<path d="M14640 16759 c0 -5 5 -7 10 -4 6 3 10 8 10 11 0 2 -4 4 -10 4 -5 0
-10 -5 -10 -11z"/>
<path d="M14717 16738 c-9 -31 -2 -33 17 -3 13 20 14 25 2 25 -7 0 -16 -10
-19 -22z"/>
<path d="M9386 16649 c-7 -23 -24 -242 -21 -269 1 -14 6 -59 10 -100 3 -41 11
-91 16 -110 5 -19 18 -75 30 -125 36 -148 143 -383 242 -530 44 -65 131 -183
230 -310 65 -84 365 -395 381 -395 5 0 -38 48 -97 108 -58 59 -118 123 -134
143 -16 20 -46 57 -67 83 -116 138 -298 401 -394 568 -58 103 -123 272 -154
401 -18 77 -22 128 -25 316 -3 210 -6 254 -17 220z"/>
<path d="M10322 14764 c21 -21 40 -36 43 -33 3 3 -14 21 -38 39 l-42 33 37
-39z"/>
<path d="M10460 14645 c7 -9 15 -13 17 -11 7 7 -7 26 -19 26 -6 0 -6 -6 2 -15z"/>
<path d="M3946 4743 c5 -44 28 -126 75 -263 10 -30 20 -64 22 -75 5 -30 19
222 15 285 -2 43 -7 55 -20 55 -9 0 -20 3 -23 7 -4 3 -18 4 -31 2 -19 -3 -24
0 -24 16 0 11 -4 20 -10 20 -6 0 -7 -19 -4 -47z"/>
<path d="M4053 3368 c3 -86 9 -164 14 -172 5 -10 7 51 5 147 -2 92 -8 166 -14
172 -7 7 -9 -40 -5 -147z"/>
<path d="M21304 2592 c4 -37 2 -41 -9 -26 -12 17 -13 16 -19 -4 -9 -28 -34
-18 -38 16 -2 15 -7 -9 -12 -53 -4 -44 -12 -99 -17 -123 -26 -122 -60 -613
-40 -581 15 23 77 220 96 304 44 188 66 443 44 490 -7 15 -8 9 -5 -23z m-54
-92 c0 -11 -4 -20 -9 -20 -5 0 -7 9 -4 20 3 11 7 20 9 20 2 0 4 -9 4 -20z"/>
<path d="M4292 1860 c0 -19 2 -27 5 -17 2 9 2 25 0 35 -3 9 -5 1 -5 -18z"/>
</g>
</svg>
