<svg width="741" height="140" viewBox="0 0 741 140" fill="none" xmlns="http://www.w3.org/2000/svg">
<g clip-path="url(#clip0_530_528)">
<path d="M8.07541 94.6909L0 52.3855L9.35181 50.5985L12.5911 67.5818L31.9507 63.8807L28.7114 46.8975L38.1243 45.0953L46.1997 87.4007L36.7919 89.2029L33.4356 71.6189L14.076 75.32L17.4323 92.904L8.08049 94.6909H8.07541ZM54.4327 86.0516L47.8829 43.4865L67.4866 40.4625C72.1498 39.7447 75.9027 40.1724 78.7352 41.7556C81.5728 43.3389 83.256 45.8385 83.7798 49.2596C84.1714 51.7949 83.7493 54.0655 82.5136 56.0713C81.2779 58.0771 79.4014 59.5789 76.8791 60.5869L76.7316 59.6196C79.8692 59.6705 82.4068 60.4647 84.3544 61.9971C86.297 63.5295 87.4921 65.7287 87.9294 68.5847C88.5142 72.3673 87.6294 75.5236 85.28 78.0487C82.9306 80.5738 79.4065 82.1978 74.7026 82.9258L54.4378 86.0516H54.4327ZM59.5638 59.6095L68.4884 58.2349C70.9395 57.8582 72.6838 57.1353 73.711 56.0713C74.7382 55.0073 75.1196 53.5869 74.845 51.8153C74.5806 50.0844 73.7923 48.8676 72.4905 48.16C71.1887 47.4575 69.3122 47.2895 66.856 47.6713L57.9314 49.0509L59.5587 59.6145L59.5638 59.6095ZM62.3454 77.6618L72.4753 76.0989C74.8043 75.7374 76.5282 75.0196 77.6368 73.9404C78.7454 72.8611 79.1522 71.3593 78.8573 69.4247C78.5522 67.4545 77.7131 66.1309 76.335 65.4589C74.9569 64.7869 73.1007 64.6291 70.7666 64.9905L60.6317 66.5535L62.3403 77.6618H62.3454ZM131.546 76.0989C125.281 76.8116 120.434 75.7884 117.007 73.024C113.579 70.2596 111.515 65.8 110.818 59.6502L107.986 34.7658L117.444 33.6865L120.282 58.632C120.673 62.0735 121.706 64.5985 123.389 66.2073C125.067 67.8211 127.483 68.4473 130.635 68.0858C133.707 67.7346 135.899 66.584 137.211 64.6291C138.523 62.6742 138.986 59.9811 138.594 56.5396L135.751 31.5942L145.088 30.5302L147.92 55.4145C148.622 61.5644 147.6 66.3753 144.864 69.8422C142.128 73.3091 137.684 75.3964 131.541 76.0989H131.546ZM145.098 34.9542L139.321 32.2305L139.204 31.1971C140.491 31.0087 141.523 30.7084 142.296 30.2909C143.069 29.8735 143.593 29.2015 143.878 28.2647C144.162 27.3331 144.208 26.0349 144.02 24.3753L143.862 22.9804L151.744 22.0793L152.034 24.6298C152.228 26.3302 152.065 27.8829 151.551 29.2982C151.038 30.7135 150.234 31.92 149.141 32.9229C148.047 33.9309 146.7 34.608 145.103 34.9542H145.098ZM154.907 51.128C154.516 46.6633 155.014 42.7076 156.408 39.2509C157.796 35.7942 159.993 33.0145 162.993 30.912C165.993 28.8095 169.66 27.5622 173.998 27.1804C178.335 26.7985 182.165 27.3789 185.485 28.9265C188.806 30.4742 191.476 32.8262 193.489 35.9775C195.503 39.1338 196.703 42.9215 197.09 47.3404C197.486 51.8458 196.968 55.8269 195.534 59.2836C194.1 62.7404 191.888 65.5353 188.887 67.6582C185.887 69.7811 182.22 71.0335 177.883 71.4153C173.545 71.7971 169.726 71.2065 166.426 69.6335C163.12 68.0655 160.476 65.6931 158.477 62.5164C156.484 59.3396 155.289 55.5418 154.902 51.1178L154.907 51.128ZM164.814 50.2575C165.2 54.6815 166.426 58.0567 168.49 60.3884C170.555 62.72 173.448 63.7229 177.176 63.392C180.822 63.0713 183.487 61.5796 185.175 58.9171C186.858 56.2545 187.509 52.7113 187.123 48.2873C186.731 43.8225 185.485 40.4473 183.385 38.1615C181.285 35.8756 178.391 34.8931 174.704 35.2138C170.977 35.5396 168.297 37.016 166.67 39.6327C165.042 42.2495 164.422 45.7876 164.814 50.2524V50.2575ZM181.127 31.6502L178.29 27.2415C179.103 27.2109 179.805 27.2007 180.4 27.2109C180.995 27.2211 181.575 27.2007 182.139 27.1498C183.436 27.0378 184.473 26.7833 185.256 26.3862C186.039 25.9891 186.589 25.3171 186.919 24.3702C187.245 23.4233 187.331 22.1149 187.189 20.4502L187.067 19.0502L194.969 18.3527L195.193 20.9084C195.34 22.6138 195.107 24.2073 194.481 25.6938C193.856 27.1804 192.935 28.4175 191.715 29.4051C190.494 30.3927 189.055 30.9578 187.392 31.1055L181.132 31.6553L181.127 31.6502ZM206.213 68.3455L203.518 25.3629L211.862 24.8385L228.888 57.4356L226.94 57.5578L239.76 23.0873L248.044 22.568L250.739 65.5505L242.089 66.0953L240.259 36.8887L242.694 36.736L231.187 66.7775L225.705 67.1236L210.474 38.7622L213.032 38.5993L214.863 67.8058L206.213 68.3505V68.3455ZM276.486 64.3542L275.154 21.3055L283.509 21.0458L299.492 54.1673L297.539 54.2284L311.442 20.1804L319.736 19.9207L321.069 62.9695L312.408 63.2393L311.503 33.992L313.944 33.9156L301.49 63.5804L296.003 63.7484L281.678 34.9185L284.241 34.8371L285.146 64.0844L276.486 64.3542ZM324.639 62.8829L343.983 19.6204L351.855 19.544L372.298 62.4145L362.656 62.5113L357.352 50.5884L361.1 53.1796L335.531 53.4342L339.289 50.7716L334.219 62.7964L324.639 62.8931V62.8829ZM337.296 16.0211L343.968 5.87491L351.779 5.79855L358.654 15.8124L352.979 15.8684L347.924 10.6044L342.971 15.9702L337.296 16.0262V16.0211ZM347.99 29.5985L340.301 48.3687L338.628 46.0625L357.85 45.8691L356.472 48.2058L348.234 29.5935H347.99V29.5985ZM357.428 9.16364L350.014 0.0712727L357.337 0L362.493 9.11273L357.428 9.16364ZM375.878 62.4298L376.335 19.3607L384.696 19.4524L399.285 53.2102L397.332 53.1898L412.639 19.7527L420.938 19.8393L420.481 62.9084L411.815 62.8167L412.125 33.5542L414.566 33.5796L400.892 62.6996L395.4 62.6385L382.29 33.2335L384.853 33.2589L384.543 62.5215L375.878 62.4298ZM456.194 63.9927L457.517 28.7076L443.858 28.1935L444.147 20.44L480.98 21.8247L480.69 29.5782L467.031 29.064L465.709 64.3491L456.194 63.9927ZM474.496 64.5935L496.571 22.6596L504.433 23.0873L522.084 67.1796L512.458 66.6553L507.927 54.4167L511.502 57.2422L485.969 55.8524L489.889 53.4342L484.062 65.1076L474.496 64.5884V64.5935ZM497.563 19.0451L488.028 7.81964L497.35 8.32873L504.021 19.3964L497.563 19.0451ZM499.928 32.8771L491.054 51.1178L489.533 48.7098L508.725 49.7535L507.2 51.9935L500.167 32.8924L499.923 32.8771H499.928ZM525.634 67.5462L528.619 24.5789L538.113 25.2407L535.128 68.208L525.634 67.5462ZM560.742 70.1222L564.795 27.2465L571.844 27.9135L592.312 59.7367L590.674 59.5789L593.476 29.96L602.284 30.7949L598.231 73.6705L591.183 73.0036L570.776 41.1855L572.357 41.3331L569.555 70.952L560.747 70.1171L560.742 70.1222ZM601.603 73.9607L626.404 33.5847L634.22 34.5316L648.916 79.6982L639.345 78.5375L635.633 66.024L639.015 69.0785L613.629 65.9985L617.703 63.8451L611.112 75.1062L601.603 73.9505V73.9607ZM629.073 44.0007L619.015 61.6102L617.657 59.1055L636.742 61.4218L635.069 63.5549L629.317 44.0262L629.073 43.9956V44.0007ZM630.802 30.7338C627.492 30.3316 624.908 29.064 623.057 26.9309C621.206 24.7978 620.347 22.1404 620.489 18.9585L625.6 18.9025C625.58 20.7455 626.078 22.2422 627.085 23.3876C628.092 24.5382 629.526 25.2204 631.387 25.4495C633.284 25.6785 634.881 25.3578 636.172 24.4924C637.464 23.6218 638.303 22.288 638.684 20.4909L643.632 21.7687C643.007 24.8945 641.542 27.2669 639.234 28.896C636.925 30.5251 634.118 31.136 630.807 30.7338H630.802ZM652.287 80.2175L658.751 37.6371L665.748 38.7011L684.391 71.6291L682.763 71.3796L687.228 41.9644L695.975 43.2931L689.512 85.8735L682.514 84.8094L663.933 51.8916L665.499 52.1309L661.034 81.5462L652.287 80.2175ZM718.554 91.8909C713.718 90.9745 709.817 89.3149 706.857 86.9069C703.898 84.504 701.884 81.5105 700.821 77.9316C699.758 74.3527 699.641 70.3818 700.465 66.0189C701.315 61.5389 702.957 57.8276 705.393 54.8902C707.834 51.9527 710.941 49.9113 714.719 48.7607C718.498 47.6102 722.785 47.488 727.58 48.3993C730.657 48.9796 733.291 49.8858 735.482 51.1076C737.674 52.3295 739.51 53.8313 741 55.6029L736.632 62.2975C735.528 61.1367 734.465 60.1745 733.448 59.4262C732.431 58.6727 731.343 58.072 730.184 57.624C729.024 57.176 727.666 56.8044 726.11 56.5091C721.712 55.6742 718.182 56.2393 715.513 58.1993C712.843 60.1593 711.083 63.4022 710.229 67.9229C709.38 72.4029 709.776 76.0022 711.419 78.7207C713.056 81.4342 716.097 83.2109 720.532 84.0509C722.012 84.3309 723.558 84.4785 725.17 84.4938C726.782 84.5091 728.399 84.3818 730.026 84.1069L727.666 87.3905L729.823 75.9869L720.527 74.2255L721.788 67.5615L738.818 70.7891L734.893 91.56C732.579 92.2015 729.975 92.5476 727.087 92.5985C724.198 92.6495 721.356 92.4153 718.559 91.8858L718.554 91.8909ZM120.267 133.463L124.02 109.821H127.503L124.218 130.475H135.772L135.334 133.458H120.262L120.267 133.463ZM138.757 133.463L142.51 109.821H157.984L157.547 112.606H145.423L144.254 120.049H155.609L155.172 122.864H143.816L142.576 130.643H154.668L154.231 133.458H138.757V133.463ZM145.256 107.81L149.98 102.007H152.995L156.514 107.81H154.104L151.322 104.053L147.671 107.81H145.261H145.256ZM158.554 133.463L162.307 109.821H164.986L176.342 129.034L175.64 128.866L178.656 109.821H181.905L178.152 133.463H175.508L164.122 114.25L164.824 114.418L161.808 133.463H158.559H158.554ZM191.481 122.762L191.882 120.181H204.779L204.341 122.762H191.481ZM192.62 133.463L196.373 109.821H204.209C207.021 109.821 209.284 110.315 210.993 111.297C212.702 112.28 213.886 113.685 214.542 115.508C215.198 117.33 215.331 119.524 214.929 122.095C214.324 125.898 212.824 128.739 210.423 130.628C208.023 132.516 204.855 133.463 200.929 133.463H192.625H192.62ZM196.571 130.546H201.026C204.087 130.546 206.472 129.823 208.196 128.383C209.915 126.942 210.998 124.743 211.445 121.795C211.934 118.71 211.552 116.429 210.291 114.953C209.03 113.476 206.869 112.738 203.807 112.738H199.383L196.571 130.546ZM217.873 133.463L221.626 109.821H237.101L236.663 112.606H224.54L223.365 120.049H234.721L234.283 122.864H222.928L221.687 130.643H233.78L233.343 133.458H217.868L217.873 133.463ZM224.906 107.81L229.091 102.343H232.137L235.351 107.81H233.139L230.459 104.323L227.108 107.81H224.896H224.906ZM233.816 104.287L237.065 99.2575H240.111L235.855 104.287H233.811H233.816ZM237.67 133.463L241.423 109.821H244.103L255.458 129.034L254.757 128.866L257.772 109.821H261.022L257.269 133.463H254.625L243.234 114.25L243.935 114.418L240.92 133.463H237.67ZM279.1 133.764C277.493 133.764 275.988 133.524 274.594 133.041C273.201 132.562 272.077 131.875 271.228 130.979L272.565 128.332C273.501 129.182 274.523 129.808 275.632 130.21C276.735 130.612 277.925 130.816 279.197 130.816C280.783 130.816 282.054 130.511 283.016 129.895C283.977 129.279 284.556 128.291 284.755 126.927C285.156 124.244 283.707 122.905 280.402 122.905H276.649L277.086 120.089H280.468C281.897 120.089 283.097 119.748 284.068 119.066C285.039 118.384 285.614 117.417 285.792 116.164C285.99 114.978 285.741 114.067 285.04 113.431C284.338 112.794 283.26 112.473 281.805 112.473C280.509 112.473 279.303 112.677 278.19 113.079C277.071 113.481 275.978 114.118 274.905 114.988L273.765 112.341C274.859 111.425 276.15 110.727 277.635 110.244C279.12 109.765 280.646 109.521 282.207 109.521C284.709 109.521 286.58 110.091 287.816 111.231C289.057 112.372 289.52 113.96 289.204 115.991C289.001 117.31 288.416 118.471 287.445 119.479C286.474 120.487 285.253 121.169 283.778 121.525L283.814 121.123C285.375 121.393 286.545 122.08 287.313 123.185C288.081 124.289 288.335 125.684 288.065 127.359C287.73 129.462 286.763 131.055 285.167 132.14C283.57 133.224 281.546 133.764 279.085 133.764H279.1ZM299.4 133.764C296.497 133.764 294.478 132.669 293.339 130.475C292.2 128.286 291.94 125.175 292.571 121.153C293.217 117.152 294.386 114.215 296.069 112.336C297.753 110.457 299.914 109.521 302.553 109.521C305.411 109.521 307.425 110.585 308.6 112.708C309.769 114.831 310.034 117.941 309.388 122.029C308.762 126.01 307.583 128.958 305.854 130.882C304.125 132.807 301.973 133.764 299.405 133.764H299.4ZM299.599 130.847C301.251 130.847 302.614 130.134 303.687 128.703C304.76 127.273 305.553 124.936 306.067 121.693C306.403 119.479 306.489 117.692 306.337 116.327C306.179 114.963 305.767 113.97 305.096 113.344C304.425 112.718 303.509 112.407 302.35 112.407C300.677 112.407 299.314 113.11 298.261 114.52C297.214 115.93 296.431 118.241 295.917 121.459C295.561 123.648 295.464 125.44 295.632 126.825C295.8 128.209 296.217 129.228 296.888 129.874C297.559 130.521 298.465 130.847 299.604 130.847H299.599ZM318.46 123.974C316.563 123.974 315.149 123.307 314.224 121.978C313.298 120.649 313.014 118.786 313.37 116.393C313.725 114.225 314.504 112.54 315.699 111.328C316.894 110.121 318.373 109.516 320.138 109.516C322.06 109.516 323.469 110.172 324.374 111.496C325.279 112.82 325.539 114.673 325.162 117.06C324.827 119.204 324.074 120.894 322.899 122.126C321.725 123.358 320.25 123.969 318.46 123.969V123.974ZM318.557 121.693C319.538 121.693 320.352 121.291 321.003 120.487C321.648 119.682 322.106 118.465 322.376 116.831C322.62 115.111 322.528 113.843 322.091 113.023C321.653 112.209 320.947 111.801 319.965 111.801C318.984 111.801 318.211 112.193 317.585 112.972C316.96 113.756 316.512 114.963 316.248 116.592C315.978 118.313 316.06 119.596 316.482 120.431C316.904 121.271 317.6 121.688 318.557 121.688V121.693ZM319.599 133.463H316.482L334.031 109.821H337.179L319.594 133.463H319.599ZM333.533 133.764C331.61 133.764 330.197 133.097 329.276 131.768C328.361 130.439 328.091 128.576 328.473 126.183C328.829 124.015 329.597 122.324 330.766 121.118C331.936 119.911 333.405 119.305 335.17 119.305C337.092 119.305 338.516 119.972 339.442 121.301C340.367 122.63 340.642 124.483 340.26 126.85C339.904 128.999 339.137 130.684 337.967 131.916C336.797 133.148 335.318 133.759 333.528 133.759L333.533 133.764ZM333.665 131.483C334.646 131.483 335.455 131.081 336.096 130.276C336.731 129.472 337.174 128.255 337.418 126.621C337.708 124.921 337.631 123.658 337.184 122.833C336.736 122.009 336.024 121.591 335.043 121.591C334.061 121.591 333.283 121.983 332.648 122.767C332.012 123.551 331.56 124.758 331.29 126.387C331.046 128.128 331.137 129.416 331.575 130.241C332.012 131.065 332.709 131.483 333.67 131.483H333.665ZM363.943 133.764C361.171 133.764 358.959 133.249 357.291 132.221C355.623 131.193 354.494 129.737 353.889 127.843C353.284 125.949 353.187 123.745 353.589 121.22C353.991 118.715 354.789 116.597 355.984 114.866C357.179 113.135 358.715 111.812 360.591 110.89C362.468 109.974 364.609 109.516 367.024 109.516C368.743 109.516 370.208 109.729 371.413 110.152C372.618 110.575 373.645 111.17 374.494 111.929L373.121 114.713C372.226 113.955 371.321 113.405 370.406 113.069C369.491 112.733 368.306 112.565 366.856 112.565C364.176 112.565 362.005 113.349 360.342 114.912C358.679 116.475 357.622 118.7 357.179 121.586C356.732 124.473 357.062 126.718 358.166 128.327C359.269 129.935 361.288 130.74 364.212 130.74C365.331 130.74 366.373 130.643 367.345 130.455C368.316 130.266 369.292 129.966 370.274 129.564L369.201 131.239L370.406 123.495H364.614L365.051 120.879H373.793L372.018 131.946C371.326 132.328 370.523 132.649 369.608 132.919C368.692 133.188 367.741 133.392 366.76 133.54C365.778 133.687 364.838 133.759 363.948 133.759L363.943 133.764ZM377.073 133.463L380.826 109.821H384.309L380.556 133.463H377.073ZM383.673 133.463L397.943 109.821H400.923L407.854 133.463H404.437L402.56 126.759L403.898 127.695H389.593L391.266 126.759L387.345 133.463H383.658H383.673ZM398.944 113.644L391.942 125.684L391.24 124.911H403.13L402.326 125.684L399.041 113.644H398.939H398.944ZM398.543 107.81L402.931 102.007H406.649L401.019 107.81H398.543ZM425.576 133.463L428.861 112.738H420.791L421.259 109.821H440.888L440.42 112.738H432.35L429.065 133.463H425.581H425.576ZM440.379 133.463L444.132 109.821H453.779C456.459 109.821 458.412 110.447 459.642 111.7C460.873 112.952 461.295 114.708 460.914 116.964C460.715 118.303 460.227 119.453 459.454 120.4C458.686 121.352 457.695 122.075 456.489 122.579C455.284 123.083 453.931 123.332 452.436 123.332L452.635 122.798H453.438C454.354 122.798 455.132 123.037 455.767 123.521C456.403 124.004 456.891 124.743 457.227 125.751L459.703 133.463H456.052L453.606 125.715C453.336 124.799 452.879 124.208 452.233 123.938C451.587 123.668 450.748 123.536 449.721 123.536H445.434L443.858 133.463H440.374H440.379ZM445.841 120.889H452.07C453.657 120.889 454.913 120.537 455.838 119.835C456.764 119.132 457.328 118.14 457.532 116.867C457.735 115.457 457.461 114.398 456.713 113.68C455.966 112.962 454.765 112.606 453.113 112.606H447.153L445.846 120.889H445.841ZM462.653 140L463.222 136.615H466.741L466.172 140H462.653ZM463.726 133.463L467.479 109.821H470.962L467.209 133.463H463.726ZM481.712 133.463L485.465 109.821H488.949L487.342 120.013H500.604L502.211 109.821H505.694L501.941 133.463H498.458L500.131 122.935H486.869L485.196 133.463H481.712ZM508.644 121.153C509.046 118.674 509.803 116.567 510.922 114.831C512.041 113.1 513.475 111.781 515.224 110.875C516.979 109.969 518.957 109.516 521.169 109.516C523.605 109.516 525.583 110.045 527.114 111.109C528.644 112.173 529.707 113.655 530.312 115.553C530.917 117.452 531.014 119.631 530.612 122.09C530.231 124.575 529.478 126.677 528.349 128.413C527.22 130.144 525.786 131.473 524.047 132.389C522.308 133.305 520.32 133.764 518.087 133.764C515.677 133.764 513.699 133.234 512.158 132.17C510.617 131.111 509.549 129.63 508.959 127.726C508.369 125.827 508.262 123.633 508.639 121.153H508.644ZM512.224 121.489C511.934 123.434 511.975 125.094 512.341 126.468C512.707 127.843 513.399 128.902 514.416 129.635C515.433 130.373 516.745 130.74 518.352 130.74C520.762 130.74 522.705 129.94 524.179 128.342C525.654 126.743 526.6 124.549 527.027 121.754C527.337 119.83 527.302 118.185 526.91 116.811C526.519 115.436 525.822 114.377 524.815 113.644C523.808 112.906 522.506 112.54 520.894 112.54C518.484 112.54 516.551 113.329 515.102 114.902C513.648 116.48 512.692 118.674 512.219 121.489H512.224ZM514.939 140L515.509 136.615H519.028L518.458 140H514.939ZM544.785 133.764C542.171 133.764 540.051 133.234 538.423 132.17C536.791 131.111 535.672 129.63 535.057 127.726C534.441 125.827 534.324 123.633 534.706 121.153C535.108 118.674 535.886 116.567 537.035 114.831C538.184 113.1 539.664 111.776 541.474 110.86C543.285 109.943 545.36 109.495 547.704 109.521C549.29 109.521 550.694 109.745 551.925 110.193C553.155 110.641 554.203 111.287 555.072 112.137L553.765 114.922C552.804 114.072 551.848 113.476 550.902 113.13C549.951 112.784 548.823 112.611 547.5 112.611C545.024 112.611 542.99 113.385 541.403 114.922C539.817 116.465 538.789 118.644 538.321 121.459C538.052 123.317 538.108 124.936 538.489 126.321C538.871 127.705 539.618 128.78 540.732 129.538C541.851 130.297 543.32 130.679 545.151 130.679C546.336 130.679 547.5 130.475 548.65 130.073C549.799 129.671 550.897 129.014 551.95 128.092L553.054 130.841C551.981 131.778 550.719 132.501 549.27 133.005C547.816 133.509 546.321 133.759 544.78 133.759L544.785 133.764ZM565.482 133.463L569.235 109.821H578.917C581.551 109.821 583.474 110.478 584.679 111.781C585.884 113.089 586.296 114.871 585.92 117.132C585.721 118.496 585.243 119.657 584.496 120.619C583.748 121.581 582.772 122.319 581.567 122.833C580.361 123.348 578.932 123.607 577.28 123.607H570.547L568.97 133.468H565.487L565.482 133.463ZM570.974 120.817H577.102C578.709 120.817 579.965 120.487 580.87 119.83C581.775 119.173 582.329 118.191 582.528 116.897C582.752 115.487 582.513 114.423 581.806 113.695C581.099 112.967 579.96 112.606 578.373 112.606H572.245L570.974 120.823V120.817ZM587.521 133.463L591.274 109.821H594.758L593.151 120.013H606.413L608.02 109.821H611.504L607.751 133.463H604.267L605.94 122.935H592.678L591.005 133.463H587.521ZM613.314 133.463L617.067 109.821H620.55L616.797 133.463H613.314ZM617.901 107.81L622.289 102.007H626.007L620.377 107.81H617.901Z" fill="url(#paint0_linear_530_528)"/>
</g>
<defs>
<linearGradient id="paint0_linear_530_528" x1="0" y1="70" x2="741" y2="70" gradientUnits="userSpaceOnUse">
<stop stop-color="#F9D16F"/>
<stop offset="0.07" stop-color="#EEBE5C"/>
<stop offset="0.18" stop-color="#E0A341"/>
<stop offset="0.25" stop-color="#DB9A38"/>
<stop offset="0.3" stop-color="#DDA044"/>
<stop offset="0.4" stop-color="#E5B365"/>
<stop offset="0.52" stop-color="#F1D19B"/>
<stop offset="0.64" stop-color="#FFF1D5"/>
<stop offset="0.66" stop-color="#FEEBC4"/>
<stop offset="0.68" stop-color="#FCE3AA"/>
<stop offset="0.71" stop-color="#FBDC94"/>
<stop offset="0.74" stop-color="#FAD783"/>
<stop offset="0.78" stop-color="#F9D377"/>
<stop offset="0.84" stop-color="#F9D170"/>
<stop offset="1" stop-color="#F9D16F"/>
</linearGradient>
<clipPath id="clip0_530_528">
<rect width="741" height="140" fill="white"/>
</clipPath>
</defs>
</svg>
