<svg width="379" height="61" viewBox="0 0 379 61" fill="none" xmlns="http://www.w3.org/2000/svg">
<path d="M4.54796 48.2821L0.430969 26.7109L5.1987 25.7998L6.8502 34.4594L16.7202 32.5723L15.0687 23.9126L19.8675 22.9937L23.9845 44.5649L19.1882 45.4838L17.4772 36.5179L7.60721 38.405L9.31834 47.371L4.55055 48.2821H4.54796ZM28.1845 43.877L24.8453 22.1734L34.8397 20.6315C37.2171 20.2655 39.1304 20.4836 40.5745 21.2909C42.0212 22.0982 42.8793 23.3727 43.1463 25.1171C43.3459 26.4098 43.1308 27.5675 42.5008 28.5903C41.8708 29.613 40.9141 30.3788 39.6282 30.8928L39.553 30.3996C41.1526 30.4255 42.4463 30.8305 43.4392 31.6118C44.4296 32.3931 45.0389 33.5145 45.2618 34.9708C45.56 36.8995 45.1089 38.5089 43.9111 39.7964C42.7133 41.0839 40.9167 41.912 38.5185 42.2832L28.1871 43.877H28.1845ZM30.8004 30.3944L35.3504 29.6909C36.6 29.4988 37.4893 29.1302 38.013 28.5877C38.5367 28.0452 38.7311 27.3209 38.5911 26.4176C38.4563 25.535 38.0545 24.9146 37.3908 24.5538C36.7271 24.1956 35.7704 24.1099 34.5182 24.3046L29.9682 25.0055L30.7978 30.3918L30.8004 30.3944ZM32.216 39.5991L37.3804 38.8022C38.5678 38.6179 39.4467 38.2519 40.0119 37.7016C40.577 37.1513 40.7845 36.3855 40.6341 35.3991C40.4786 34.3945 40.0507 33.7196 39.3481 33.377C38.6456 33.0343 37.6993 32.9538 36.5093 33.1381L31.3423 33.9351L32.2134 39.5991H32.216ZM67.4958 38.8022C64.3017 39.1656 61.8311 38.6439 60.0837 37.2343C58.3363 35.8248 57.2836 33.5509 56.9284 30.4151L55.4844 17.7268L60.3066 17.1765L61.7533 29.896C61.9529 31.6507 62.4792 32.9383 63.3373 33.7585C64.1928 34.5814 65.4243 34.9007 67.0317 34.7164C68.5976 34.5373 69.7151 33.9506 70.384 32.9538C71.0529 31.957 71.2888 30.5839 71.0891 28.8291L69.6399 16.1096L74.3999 15.5671L75.8439 28.2554C76.2017 31.3912 75.6806 33.8442 74.2858 35.6119C72.8909 37.3823 70.625 38.444 67.4932 38.8022H67.4958ZM74.4077 17.8228L71.4625 16.4341L71.4028 15.9071C72.0588 15.8111 72.5851 15.6579 72.9791 15.4451C73.3732 15.2322 73.6402 14.8896 73.7854 14.412C73.9306 13.9369 73.9539 13.275 73.858 12.4288L73.7776 11.7175L77.7961 11.258L77.9439 12.5585C78.0424 13.4255 77.9595 14.2173 77.6976 14.9389C77.4358 15.6579 77.0262 16.2757 76.4688 16.7871C75.9113 17.3011 75.2243 17.6463 74.4102 17.8228H74.4077ZM79.4061 26.0697C79.2065 23.7932 79.4606 21.7763 80.171 20.0137C80.8787 18.2512 81.9987 16.8338 83.5283 15.7618C85.058 14.6897 86.9272 14.0563 89.1387 13.8616C91.3501 13.667 93.3024 13.9629 94.9953 14.752C96.6883 15.5411 98.0494 16.7404 99.076 18.3472C100.103 19.9566 100.715 21.8879 100.912 24.1411C101.114 26.4383 100.849 28.4683 100.118 30.2308C99.3871 31.9934 98.2594 33.4185 96.7297 34.5009C95.2001 35.5834 93.3309 36.222 91.1194 36.4192C88.908 36.6139 86.9609 36.3102 85.2783 35.5107C83.5932 34.7112 82.245 33.5016 81.2261 31.8818C80.2098 30.262 79.6005 28.3255 79.4035 26.0697H79.4061ZM84.459 25.6259C84.6561 27.8816 85.2809 29.6026 86.3335 30.7915C87.3861 31.9804 88.8613 32.4918 90.7616 32.3257C92.6205 32.1621 93.979 31.4015 94.8397 30.0439C95.6979 28.6863 96.0297 26.8796 95.8327 24.6239C95.6331 22.3473 94.9979 20.6263 93.9271 19.4608C92.8564 18.2927 91.3813 17.7943 89.5017 17.9578C87.6013 18.1266 86.235 18.8767 85.4054 20.211C84.5757 21.5452 84.2594 23.3493 84.459 25.6259ZM92.7761 16.1356L91.3294 13.8876C91.7442 13.872 92.102 13.8668 92.4053 13.872C92.7087 13.8772 93.0042 13.8668 93.292 13.8409C93.9531 13.7838 94.482 13.654 94.8813 13.4515C95.2805 13.249 95.5605 12.9064 95.729 12.4236C95.895 11.9407 95.939 11.2736 95.8664 10.4248L95.8042 9.71093L99.833 9.35531L99.9471 10.6584C100.022 11.528 99.9031 12.3405 99.5842 13.0985C99.2653 13.8564 98.796 14.4872 98.1738 14.9908C97.5516 15.4944 96.8179 15.7825 95.9701 15.8578L92.7786 16.1382L92.7761 16.1356ZM105.563 34.8488L104.189 12.9323L108.443 12.665L117.123 29.286L116.13 29.3483L122.666 11.772L126.889 11.5072L128.263 33.4237L123.853 33.7014L122.92 18.8093L124.162 18.7314L118.295 34.0493L115.5 34.2258L107.735 19.7645L109.039 19.684L109.973 34.5762L105.563 34.854V34.8488ZM141.392 32.8137L140.713 10.8635L144.972 10.7311L153.121 27.6194L152.125 27.6506L159.214 10.2898L163.442 10.1574L164.121 32.1076L159.706 32.2452L159.245 17.3322L160.489 17.2933L154.14 32.4191L151.342 32.5048L144.039 17.8047L145.346 17.7631L145.807 32.6761L141.392 32.8137ZM165.941 32.0635L175.803 10.0043L179.817 9.96532L190.239 31.8247L185.323 31.874L182.619 25.7946L184.53 27.1159L171.495 27.2456L173.41 25.888L170.826 32.0193L165.941 32.0687V32.0635ZM172.392 8.16902L175.793 2.99557L179.775 2.95663L183.28 8.06259L180.387 8.09115L177.81 5.40708L175.285 8.14306L172.392 8.17162V8.16902ZM177.844 15.0921L173.924 24.6628L173.071 23.4869L182.871 23.3883L182.168 24.5797L177.968 15.0895H177.844V15.0921ZM182.656 4.67246L178.876 0.0363414L182.609 0L185.238 4.6465L182.656 4.67246ZM192.061 31.8324L192.295 9.87447L196.557 9.9186L203.995 27.1314L203 27.121L210.803 10.0718L215.034 10.1159L214.801 32.0765L210.383 32.0297L210.541 17.109L211.786 17.122L204.814 31.97L202.014 31.9389L195.331 16.9455L196.637 16.9584L196.479 31.8792L192.061 31.8324ZM233.009 32.6294L233.683 14.6378L226.719 14.3756L226.867 10.4222L245.645 11.1282L245.497 15.0817L238.533 14.8195L237.859 32.8111L233.009 32.6294ZM242.339 32.9357L253.594 11.554L257.602 11.772L266.601 34.2543L261.693 33.987L259.383 27.7466L261.206 29.1873L248.188 28.4787L250.187 27.2456L247.216 33.1978L242.339 32.9331V32.9357ZM254.099 9.71093L249.238 3.98717L253.99 4.24675L257.392 9.89005L254.099 9.71093ZM255.307 16.7638L250.783 26.0646L250.008 24.8367L259.793 25.3689L259.015 26.511L255.429 16.7689L255.305 16.7612L255.307 16.7638ZM268.413 34.4412L269.935 12.5326L274.775 12.87L273.253 34.7787L268.413 34.4412ZM286.31 35.7547L288.376 13.8928L291.969 14.2328L302.404 30.4593L301.569 30.3814L302.998 15.279L307.488 15.7047L305.422 37.5666L301.829 37.2265L291.425 21.0027L292.231 21.078L290.802 36.1804L286.312 35.7547H286.31ZM307.141 37.712L319.785 17.1246L323.77 17.6074L331.262 40.6374L326.383 40.0456L324.49 33.6651L326.215 35.2226L313.272 33.6521L315.349 32.5541L311.989 38.296L307.141 37.7068V37.712ZM321.149 22.4356L316.021 31.4145L315.328 30.1374L325.058 31.3185L324.205 32.4061L321.273 22.4486L321.149 22.433V22.4356ZM322.03 15.6709C320.342 15.4658 319.025 14.8195 318.082 13.7344C317.138 12.6468 316.7 11.2918 316.772 9.6694L319.378 9.64085C319.368 10.5805 319.622 11.3437 320.135 11.9304C320.648 12.5144 321.379 12.8648 322.328 12.9817C323.295 13.0985 324.109 12.9375 324.768 12.4936C325.426 12.0498 325.854 11.3697 326.049 10.4533L328.571 11.1049C328.252 12.6987 327.506 13.9084 326.329 14.739C325.152 15.5697 323.72 15.8812 322.033 15.6761L322.03 15.6709ZM332.984 40.9022L336.279 19.1908L339.846 19.7334L349.351 36.5231L348.521 36.3959L350.797 21.3973L355.257 22.0748L351.961 43.7862L348.394 43.2436L338.921 26.4591L339.719 26.5811L337.443 41.5797L332.984 40.9022ZM366.765 46.8518C364.3 46.3846 362.311 45.5383 360.802 44.3105C359.293 43.0853 358.267 41.559 357.725 39.7341C357.183 37.9092 357.123 35.8845 357.543 33.6599C357.976 31.3756 358.814 29.4832 360.055 27.9855C361.3 26.4877 362.884 25.4467 364.81 24.8601C366.737 24.2734 368.922 24.2137 371.367 24.6758C372.935 24.9743 374.278 25.4338 375.396 26.0568C376.513 26.6798 377.449 27.4455 378.209 28.3489L375.982 31.7624C375.419 31.1705 374.877 30.6825 374.359 30.2983C373.84 29.9141 373.285 29.6078 372.694 29.382C372.103 29.1536 371.411 28.9641 370.618 28.8135C368.375 28.3878 366.576 28.6759 365.215 29.6753C363.854 30.6747 362.957 32.3282 362.521 34.6333C362.088 36.9176 362.29 38.7529 363.128 40.139C363.962 41.5226 365.513 42.4286 367.774 42.8569C368.528 42.9996 369.316 43.0749 370.138 43.0827C370.96 43.0905 371.784 43.0256 372.614 42.8854L371.411 44.5597L372.51 38.7451L367.771 37.8469L368.414 34.449L377.096 36.0948L375.095 46.6857C373.915 47.0128 372.588 47.1893 371.115 47.2152C369.643 47.2412 368.194 47.1218 366.768 46.8518H366.765ZM104.113 57.8139C103.294 57.8139 102.527 57.6919 101.816 57.4453C101.106 57.2013 100.533 56.8509 100.1 56.394L100.782 55.0442C101.259 55.4777 101.78 55.797 102.345 56.0021C102.908 56.2071 103.514 56.311 104.163 56.311C104.972 56.311 105.62 56.1552 106.11 55.8411C106.6 55.527 106.895 55.0234 106.996 54.3278C107.201 52.9598 106.462 52.2771 104.777 52.2771H102.864L103.087 50.8416H104.811C105.539 50.8416 106.151 50.6677 106.646 50.3198C107.142 49.972 107.435 49.4788 107.525 48.8402C107.626 48.2354 107.499 47.7707 107.142 47.4463C106.784 47.1218 106.234 46.9582 105.493 46.9582C104.832 46.9582 104.217 47.0621 103.649 47.2671C103.079 47.4722 102.522 47.7967 101.975 48.2406L101.394 46.8908C101.951 46.4235 102.61 46.0679 103.367 45.8213C104.124 45.5773 104.902 45.4527 105.697 45.4527C106.973 45.4527 107.927 45.7434 108.557 46.3249C109.19 46.9063 109.426 47.7162 109.265 48.752C109.161 49.4243 108.863 50.0161 108.368 50.5301C107.873 51.0441 107.25 51.3919 106.499 51.5736L106.517 51.3685C107.313 51.5061 107.909 51.8565 108.3 52.4198C108.692 52.9831 108.822 53.6944 108.684 54.5484C108.513 55.6205 108.02 56.433 107.206 56.9859C106.392 57.5388 105.36 57.8139 104.106 57.8139H104.113ZM114.463 57.8139C112.983 57.8139 111.953 57.2558 111.373 56.137C110.792 55.0208 110.66 53.4348 110.981 51.3841C111.31 49.3438 111.907 47.846 112.765 46.8882C113.623 45.9303 114.725 45.4527 116.07 45.4527C117.527 45.4527 118.554 45.9952 119.153 47.0777C119.749 48.1601 119.884 49.7461 119.555 51.8306C119.236 53.8605 118.634 55.3635 117.753 56.3447C116.872 57.3259 115.775 57.8139 114.466 57.8139H114.463ZM114.564 56.3265C115.407 56.3265 116.102 55.9631 116.649 55.2337C117.196 54.5043 117.6 53.3128 117.862 51.6593C118.033 50.5301 118.077 49.619 117.999 48.9233C117.919 48.2276 117.709 47.7214 117.367 47.4021C117.024 47.0828 116.558 46.9245 115.967 46.9245C115.114 46.9245 114.419 47.2827 113.882 48.0018C113.348 48.7208 112.949 49.8993 112.687 51.5399C112.506 52.6561 112.456 53.5698 112.542 54.2758C112.627 54.9819 112.84 55.5011 113.182 55.8307C113.524 56.1604 113.986 56.3265 114.567 56.3265H114.564ZM124.18 52.8222C123.213 52.8222 122.492 52.4821 122.02 51.8046C121.549 51.1271 121.403 50.1771 121.585 48.957C121.766 47.8512 122.163 46.992 122.772 46.3742C123.381 45.759 124.136 45.4501 125.035 45.4501C126.015 45.4501 126.734 45.7849 127.195 46.4599C127.657 47.1348 127.789 48.0796 127.597 49.2971C127.426 50.3899 127.042 51.2517 126.443 51.8799C125.844 52.5081 125.093 52.8196 124.18 52.8196V52.8222ZM124.229 51.6593C124.73 51.6593 125.144 51.4542 125.476 51.0441C125.806 50.6339 126.039 50.0135 126.176 49.1803C126.301 48.3029 126.254 47.6565 126.031 47.2386C125.808 46.8233 125.448 46.6156 124.947 46.6156C124.447 46.6156 124.053 46.8155 123.734 47.2126C123.415 47.6124 123.187 48.2276 123.052 49.0583C122.915 49.9356 122.956 50.5898 123.171 51.0155C123.387 51.4438 123.742 51.6567 124.229 51.6567V51.6593ZM124.761 57.6608H123.171L132.118 45.6058H133.723L124.758 57.6608H124.761ZM131.864 57.8139C130.884 57.8139 130.164 57.4739 129.694 56.7964C129.228 56.1189 129.09 55.1688 129.285 53.9488C129.466 52.843 129.858 51.9811 130.454 51.3659C131.05 50.7507 131.8 50.4418 132.699 50.4418C133.679 50.4418 134.405 50.7819 134.877 51.4594C135.349 52.1369 135.489 53.0818 135.294 54.2888C135.113 55.3843 134.721 56.2435 134.125 56.8717C133.529 57.4998 132.774 57.8113 131.862 57.8113L131.864 57.8139ZM131.932 56.651C132.432 56.651 132.844 56.4459 133.171 56.0358C133.495 55.6257 133.721 55.0053 133.845 54.172C133.993 53.305 133.954 52.6612 133.726 52.2407C133.498 51.8202 133.135 51.6073 132.634 51.6073C132.134 51.6073 131.737 51.8072 131.413 52.207C131.089 52.6067 130.858 53.2219 130.721 54.0526C130.597 54.9404 130.643 55.5971 130.866 56.0176C131.089 56.4382 131.444 56.651 131.934 56.651H131.932ZM147.368 57.8139C145.955 57.8139 144.827 57.5518 143.977 57.0274C143.127 56.503 142.551 55.7606 142.242 54.795C141.934 53.8294 141.885 52.7054 142.089 51.4179C142.294 50.1407 142.701 49.0609 143.311 48.1783C143.92 47.2957 144.703 46.6208 145.659 46.1509C146.616 45.6837 147.708 45.4501 148.939 45.4501C149.815 45.4501 150.562 45.5591 151.176 45.7746C151.791 45.99 152.315 46.2937 152.748 46.6805L152.048 48.1004C151.591 47.7136 151.13 47.4333 150.663 47.262C150.197 47.0906 149.592 47.005 148.854 47.005C147.487 47.005 146.38 47.4047 145.532 48.2016C144.685 48.9986 144.145 50.1329 143.92 51.6048C143.692 53.0766 143.86 54.2213 144.423 55.0416C144.985 55.8619 146.015 56.272 147.505 56.272C148.076 56.272 148.607 56.2227 149.102 56.1267C149.598 56.0306 150.095 55.8775 150.596 55.6724L150.049 56.5264L150.663 52.5782H147.71L147.933 51.2439H152.39L151.485 56.8872C151.132 57.0819 150.723 57.2454 150.256 57.383C149.789 57.5206 149.305 57.6244 148.804 57.6997C148.304 57.775 147.824 57.8113 147.371 57.8113L147.368 57.8139ZM154.062 57.6608L155.975 45.6058H157.751L155.838 57.6608H154.062ZM157.427 57.6608L164.702 45.6058H166.221L169.755 57.6608H168.013L167.056 54.2421L167.738 54.7197H160.445L161.298 54.2421L159.299 57.6608H157.419H157.427ZM165.213 47.5553L161.643 53.6944L161.285 53.2998H167.346L166.937 53.6944L165.262 47.5553H165.21H165.213ZM165.008 44.5805L167.245 41.6213H169.141L166.27 44.5805H165.008ZM178.79 57.6608L180.465 47.0932H176.35L176.589 45.6058H186.596L186.358 47.0932H182.243L180.569 57.6608H178.793H178.79ZM186.337 57.6608L188.25 45.6058H193.169C194.535 45.6058 195.53 45.9251 196.158 46.5637C196.785 47.2023 197 48.0978 196.806 49.2478C196.705 49.9305 196.456 50.5171 196.062 50.9999C195.67 51.4853 195.165 51.8539 194.55 52.1109C193.936 52.3679 193.246 52.4951 192.484 52.4951L192.585 52.2226H192.995C193.461 52.2226 193.858 52.3446 194.182 52.5912C194.506 52.8378 194.755 53.2142 194.926 53.7281L196.189 57.6608H194.327L193.08 53.71C192.943 53.2427 192.71 52.9416 192.38 52.804C192.051 52.6664 191.623 52.5989 191.1 52.5989H188.914L188.11 57.6608H186.335H186.337ZM189.122 51.2491H192.297C193.106 51.2491 193.747 51.07 194.219 50.7118C194.69 50.3536 194.978 49.8474 195.082 49.1984C195.186 48.4794 195.046 47.9395 194.664 47.5735C194.283 47.2074 193.671 47.0257 192.829 47.0257H189.79L189.124 51.2491H189.122ZM197.693 60.9938L197.983 59.2676H199.777L199.487 60.9938H197.693ZM198.24 57.6608L200.153 45.6058H201.929L200.016 57.6608H198.24ZM207.41 57.6608L209.323 45.6058H211.099L210.28 50.8026H217.041L217.86 45.6058H219.636L217.723 57.6608H215.947L216.8 52.2926H210.038L209.185 57.6608H207.41ZM221.14 51.3867C221.345 50.1225 221.731 49.0479 222.301 48.1627C222.872 47.2801 223.603 46.6078 224.495 46.1458C225.387 45.6837 226.398 45.4527 227.525 45.4527C228.767 45.4527 229.776 45.7226 230.556 46.2652C231.336 46.8077 231.878 47.5631 232.187 48.5313C232.495 49.4995 232.545 50.6106 232.34 51.8643C232.145 53.1311 231.762 54.2032 231.186 55.0883C230.611 55.9709 229.879 56.6484 228.993 57.1157C228.106 57.5829 227.092 57.8165 225.954 57.8165C224.725 57.8165 223.717 57.5466 222.931 57.004C222.146 56.4641 221.601 55.7087 221.301 54.7379C221 53.7671 220.945 52.6509 221.14 51.3867ZM222.965 51.558C222.817 52.5496 222.838 53.3959 223.025 54.0967C223.211 54.7976 223.564 55.3375 224.082 55.7113C224.601 56.0851 225.27 56.2746 226.089 56.2746C227.318 56.2746 228.308 55.8671 229.06 55.052C229.812 54.2369 230.294 53.1181 230.512 51.693C230.67 50.7118 230.652 49.8733 230.452 49.1725C230.253 48.4716 229.898 47.9317 229.384 47.5579C228.871 47.1815 228.207 46.9946 227.385 46.9946C226.156 46.9946 225.171 47.3969 224.43 48.199C223.688 49.0011 223.201 50.1225 222.962 51.558H222.965ZM224.349 60.9938L224.64 59.2676H226.434L226.144 60.9938H224.349ZM239.565 57.8139C238.233 57.8139 237.152 57.544 236.322 57.0014C235.49 56.4615 234.919 55.7061 234.606 54.7353C234.292 53.7671 234.232 52.6483 234.427 51.3841C234.632 50.1199 235.028 49.0453 235.614 48.1601C236.2 47.2775 236.955 46.6026 237.878 46.1354C238.8 45.6681 239.858 45.4397 241.053 45.4527C241.862 45.4527 242.578 45.5669 243.205 45.7953C243.833 46.0238 244.367 46.3534 244.81 46.7869L244.144 48.2068C243.654 47.7733 243.166 47.4696 242.684 47.2931C242.199 47.1166 241.624 47.0283 240.95 47.0283C239.687 47.0283 238.65 47.4229 237.841 48.2068C237.032 48.9934 236.509 50.1044 236.27 51.5399C236.133 52.4873 236.161 53.3128 236.356 54.0189C236.55 54.7249 236.931 55.2726 237.499 55.6594C238.069 56.0462 238.819 56.2409 239.752 56.2409C240.356 56.2409 240.95 56.137 241.536 55.932C242.122 55.7269 242.682 55.392 243.218 54.9222L243.781 56.3239C243.234 56.8016 242.591 57.1702 241.852 57.4272C241.111 57.6841 240.348 57.8113 239.563 57.8113L239.565 57.8139ZM250.117 57.6608L252.03 45.6058H256.967C258.31 45.6058 259.29 45.9407 259.904 46.6052C260.519 47.2723 260.729 48.1809 260.537 49.3334C260.436 50.0291 260.192 50.6209 259.811 51.1115C259.43 51.6022 258.932 51.9785 258.317 52.2407C257.703 52.5029 256.975 52.6353 256.132 52.6353H252.699L251.896 57.6634H250.12L250.117 57.6608ZM252.92 51.2154H256.044C256.863 51.2154 257.503 51.0466 257.965 50.7118C258.426 50.3769 258.709 49.8759 258.81 49.2166C258.924 48.4976 258.802 47.955 258.442 47.5838C258.082 47.2126 257.501 47.0283 256.692 47.0283H253.568L252.92 51.218V51.2154ZM261.353 57.6608L263.267 45.6058H265.043L264.223 50.8026H270.985L271.804 45.6058H273.58L271.667 57.6608H269.891L270.744 52.2926H263.982L263.129 57.6608H261.353ZM274.503 57.6608L276.416 45.6058H278.192L276.279 57.6608H274.503ZM276.841 44.5805L279.079 41.6213H280.974L278.104 44.5805H276.841Z" fill="url(#paint0_linear_474_85)"/>
<defs>
<linearGradient id="paint0_linear_474_85" x1="0.430969" y1="30.4982" x2="378.209" y2="30.4982" gradientUnits="userSpaceOnUse">
<stop stop-color="#F9D16F"/>
<stop offset="0.07" stop-color="#EEBE5C"/>
<stop offset="0.18" stop-color="#E0A341"/>
<stop offset="0.25" stop-color="#DB9A38"/>
<stop offset="0.3" stop-color="#DDA044"/>
<stop offset="0.4" stop-color="#E5B365"/>
<stop offset="0.52" stop-color="#F1D19B"/>
<stop offset="0.64" stop-color="#FFF1D5"/>
<stop offset="0.66" stop-color="#FEEBC4"/>
<stop offset="0.68" stop-color="#FCE3AA"/>
<stop offset="0.71" stop-color="#FBDC94"/>
<stop offset="0.74" stop-color="#FAD783"/>
<stop offset="0.78" stop-color="#F9D377"/>
<stop offset="0.84" stop-color="#F9D170"/>
<stop offset="1" stop-color="#F9D16F"/>
</linearGradient>
</defs>
</svg>
