<svg width="979" height="188" viewBox="0 0 979 188" fill="none" xmlns="http://www.w3.org/2000/svg">
<path d="M3.14439 81.6976L1.00294 75.507C0.213154 73.2226 -0.110183 70.9912 0.032933 68.8075C0.176049 66.6291 0.902232 64.191 2.21678 61.4932L6.7594 63.1522C5.8424 65.0391 5.29643 66.7086 5.12682 68.1556C4.9572 69.6078 5.11621 71.0495 5.61447 72.4964L2.74154 70.9965L9.53692 68.6485L12.8816 78.3267L3.14439 81.6923V81.6976ZM16.1892 77.1924L14.0477 71.0018C13.2579 68.7174 12.9346 66.486 13.0777 64.3023C13.2208 62.1239 13.947 59.6858 15.2616 56.988L19.8042 58.647C18.8872 60.5339 18.3412 62.2034 18.1716 63.6557C18.002 65.108 18.161 66.5496 18.6593 67.9966L15.7863 66.4966L22.5817 64.1486L25.9264 73.8268L16.1839 77.1924H16.1892ZM53.5797 92.5683L27.0713 53.0606L36.9941 50.5271L56.5904 81.2312L53.9401 81.9096L57.3908 45.317L64.4141 43.5202L84.0104 74.2243L81.5457 74.855L84.6889 38.3419L93.9968 35.9621L89.5655 83.3725L81.7365 85.3706L63.1843 57.2213L64.5996 56.8608L61.4564 90.5542L53.5691 92.5683H53.5797ZM110.37 78.9044L101.773 34.8968L132.363 28.9235L133.836 36.4762L112.549 40.6316L114.558 50.9299L134.345 47.0661L135.834 54.6825L116.047 58.5463L118.194 69.5336L139.481 65.3783L140.955 72.9311L110.365 78.9044H110.37ZM147.485 71.8233L140.202 27.5772L149.992 25.9659L155.924 61.9861L175.881 58.7L177.232 66.9206L147.485 71.818V71.8233ZM182.957 66.1044L176.766 21.694L186.593 20.3265L191.634 56.4845L211.665 53.6913L212.815 61.9437L182.952 66.1044H182.957ZM233.933 60.147C230.355 60.5657 226.952 60.5074 223.734 59.988C220.512 59.4632 217.718 58.5516 215.349 57.2478L217.358 49.202C218.9 50.0077 220.512 50.649 222.192 51.1366C223.872 51.6242 225.616 51.9475 227.429 52.096C229.242 52.2497 231.113 52.2126 233.053 51.9847C236.085 51.6295 238.189 50.9193 239.366 49.8434C240.543 48.7674 241.046 47.5113 240.882 46.0802C240.728 44.7764 240.182 43.8223 239.239 43.2287C238.295 42.6351 236.657 42.2164 234.325 41.9726L226.692 41.3206C222.51 40.9549 219.287 39.8737 217.029 38.0875C214.771 36.3013 213.451 33.7254 213.059 30.3545C212.725 27.4924 213.197 24.9165 214.469 22.6374C215.741 20.353 217.686 18.4662 220.31 16.9662C222.934 15.4662 226.098 14.5016 229.804 14.0723C232.963 13.7066 235.963 13.8073 238.804 14.3691C241.645 14.9362 244.046 15.938 246.008 17.3743L243.94 24.9165C242.053 23.7293 240.002 22.9077 237.797 22.4625C235.587 22.0173 233.18 21.9431 230.567 22.2452C227.826 22.5632 225.791 23.2893 224.45 24.4289C223.109 25.5684 222.536 26.9783 222.733 28.6638C222.881 29.9252 223.438 30.8951 224.413 31.5736C225.388 32.252 227.021 32.6919 229.305 32.8933L236.8 33.4922C241.067 33.8526 244.327 34.9021 246.58 36.6459C248.833 38.3896 250.147 40.9072 250.529 44.1881C250.852 46.9654 250.386 49.4777 249.13 51.7143C247.873 53.951 245.955 55.8061 243.373 57.2796C240.792 58.753 237.648 59.707 233.938 60.1364L233.933 60.147ZM259.095 56.6223L254.928 11.9787L275.765 10.0335C280.79 9.56711 284.713 10.4204 287.538 12.6094C290.363 14.7931 291.969 17.9997 292.361 22.2187C292.754 26.4006 291.762 29.8457 289.398 32.5541C287.034 35.2678 283.334 36.8579 278.315 37.3243L267.358 38.3472L268.975 55.7001L259.095 56.6223ZM266.638 30.6884L276.327 29.7821C278.691 29.5595 280.403 28.8705 281.469 27.7044C282.529 26.5437 282.974 25.0066 282.794 23.1091C282.619 21.2117 281.898 19.7965 280.642 18.869C279.385 17.9414 277.573 17.5916 275.209 17.8089L265.519 18.7153L266.638 30.6831V30.6884ZM301.616 52.7479L298.404 8.02475L318.705 6.56719C323.741 6.20678 327.716 7.12371 330.637 9.3127C333.558 11.507 335.174 14.7348 335.476 19.0068C335.678 21.8 335.227 24.2434 334.125 26.3423C333.022 28.4411 331.358 30.1107 329.126 31.3563C326.9 32.6018 324.176 33.3385 320.963 33.5664L321.626 32.1142L324.229 31.9287C326.047 31.7962 327.701 32.1672 329.185 33.0417C330.669 33.911 331.946 35.2466 333.012 37.0381L340.634 49.9441L329.72 50.7285L321.769 36.8261C321.175 35.6388 320.322 34.8809 319.214 34.5523C318.106 34.229 316.855 34.1177 315.461 34.2184L310.262 34.5947L311.512 52.043L301.616 52.7532V52.7479ZM309.747 27.4818L318.44 26.8564C321.022 26.6709 322.951 26.003 324.229 24.8476C325.506 23.6922 326.068 22.0809 325.919 20.0085C325.771 17.9361 324.981 16.4309 323.555 15.4927C322.124 14.5546 320.121 14.1783 317.545 14.3638L308.852 14.9892L309.747 27.4871V27.4818ZM346.38 49.6897L343.814 4.92413L353.721 4.35701L356.287 49.1225L346.38 49.6897ZM365.218 48.5766L363.31 3.77928L370.683 3.46657L396.343 33.3756L394.626 33.4498L393.306 2.50193L402.519 2.10972L404.427 46.9071L397.054 47.2198L371.457 17.3054L373.111 17.2365L374.431 48.1844L365.218 48.5766ZM435.51 46.817C430.379 46.9336 426.043 46.0908 422.507 44.2835C418.966 42.4761 416.268 39.8684 414.408 36.4497C412.547 33.0364 411.567 29.0189 411.461 24.3971C411.355 19.6481 412.224 15.5139 414.074 11.9946C415.924 8.47527 418.648 5.71916 422.253 3.72628C425.857 1.73341 430.198 0.683964 435.287 0.56736C438.552 0.493157 441.43 0.84297 443.932 1.6115C446.429 2.38003 448.629 3.50897 450.531 4.99303L447.526 12.7578C446.148 11.8144 444.86 11.0671 443.657 10.5211C442.453 9.97522 441.218 9.59891 439.941 9.3975C438.663 9.19609 437.2 9.11129 435.547 9.14839C430.882 9.2544 427.405 10.5953 425.11 13.1712C422.815 15.7471 421.723 19.4308 421.829 24.2222C421.935 28.9712 423.122 32.5488 425.38 34.9551C427.638 37.3614 431.126 38.5168 435.828 38.4055C437.397 38.3684 439.003 38.1829 440.651 37.849C442.3 37.5151 443.922 37.0328 445.517 36.402L443.821 40.2553L443.545 28.1761L433.691 28.3987L433.532 21.3389L451.592 20.9308L452.09 42.9319C449.869 44.0873 447.293 45.0043 444.362 45.6827C441.43 46.3611 438.478 46.7374 435.51 46.8063V46.817ZM473.043 45.4707L493.816 0.705165L502.022 0.736966L522.72 45.6509L512.67 45.6138L507.306 33.1265L511.176 35.8773L484.524 35.7819L488.478 33.0629L483.024 45.5078L473.038 45.4707H473.043ZM497.85 11.1519L489.576 30.5824L487.869 28.1602L507.905 28.2344L506.432 30.646L498.104 11.1519H497.85ZM526.447 45.7145L527.539 0.890672L536.248 1.10268L550.978 36.455L548.942 36.4073L565.374 1.81291L574.02 2.02492L572.928 46.8488L563.895 46.6314L564.638 16.1765L567.182 16.2401L552.515 46.3558L546.79 46.218L533.544 15.4238L536.216 15.4874L535.474 45.9424L526.441 45.7251L526.447 45.7145ZM581.923 47.2092L583.948 2.41713L604.599 3.34997C609.512 3.57258 613.255 4.78102 615.831 6.97531C618.407 9.16959 619.61 12.0688 619.451 15.6729C619.329 18.3389 618.433 20.5703 616.758 22.3618C615.083 24.1533 612.857 25.3034 610.074 25.8175L610.122 24.7999C613.318 25.4942 615.751 26.8246 617.421 28.791C619.096 30.7573 619.865 33.2431 619.727 36.2483C619.547 40.2288 617.999 43.2711 615.078 45.3647C612.157 47.4636 608.224 48.3964 603.268 48.1738L581.917 47.2092H581.923ZM591.724 40.2659L602.399 40.7482C604.853 40.8595 606.761 40.4779 608.118 39.6034C609.47 38.7288 610.196 37.2766 610.286 35.2466C610.382 33.1689 609.788 31.6478 608.521 30.6778C607.249 29.7079 605.383 29.1673 602.929 29.056L592.254 28.5736L591.724 40.2659ZM592.582 21.27L601.986 21.694C604.567 21.8106 606.496 21.429 607.769 20.5544C609.041 19.6799 609.719 18.3071 609.799 16.4468C609.884 14.6235 609.327 13.2189 608.145 12.2331C606.958 11.2473 605.071 10.6961 602.489 10.5794L593.086 10.1554L592.582 21.2753V21.27ZM620.474 48.9105L643.972 5.51245L652.161 6.04777L670.045 52.1543L660.017 51.497L655.437 38.7023L659.131 41.6864L632.538 39.9426L636.652 37.4727L630.439 49.5572L620.474 48.9052V48.9105ZM647.354 16.1871L637.892 35.0717L636.339 32.5488L656.333 33.858L654.716 36.1741L647.613 16.203L647.359 16.1871H647.354ZM689.207 54.5765C685.613 54.2637 682.295 53.5323 679.247 52.3716C676.199 51.2108 673.644 49.7586 671.583 48.0042L675.166 40.5256C676.517 41.6227 677.964 42.5768 679.512 43.393C681.06 44.2093 682.703 44.8718 684.447 45.3859C686.191 45.9 688.036 46.2392 689.976 46.4088C693.018 46.6738 695.223 46.3982 696.591 45.5767C697.958 44.7605 698.706 43.6315 698.833 42.1952C698.944 40.886 698.6 39.8472 697.794 39.0734C696.988 38.2995 695.467 37.5628 693.23 36.8579L685.884 34.6901C681.86 33.4922 678.919 31.7856 677.069 29.586C675.219 27.3811 674.44 24.5932 674.731 21.2117C674.98 18.3389 675.956 15.9115 677.662 13.9345C679.364 11.9522 681.654 10.4946 684.521 9.55121C687.389 8.60777 690.686 8.30036 694.402 8.61837C697.571 8.89398 700.487 9.59361 703.158 10.7173C705.83 11.8409 707.977 13.3038 709.609 15.1058L706.068 22.0756C704.457 20.5332 702.612 19.3195 700.54 18.4344C698.467 17.5545 696.119 16.998 693.501 16.7701C690.755 16.5316 688.613 16.8337 687.071 17.6817C685.528 18.5298 684.686 19.7965 684.537 21.482C684.426 22.7487 684.781 23.8141 685.603 24.6727C686.424 25.5313 687.93 26.2893 690.129 26.9465L697.354 29.0401C701.462 30.2485 704.446 31.934 706.302 34.0912C708.157 36.2536 708.941 38.9832 708.655 42.2747C708.411 45.0626 707.452 47.4265 705.771 49.3663C704.091 51.3062 701.838 52.7373 699.013 53.6648C696.188 54.5924 692.917 54.8892 689.196 54.5712L689.207 54.5765ZM730.605 58.6046C727.022 58.2177 723.719 57.4068 720.693 56.1877C717.666 54.9634 715.148 53.4528 713.123 51.656L716.871 44.257C718.196 45.3806 719.627 46.3717 721.154 47.2145C722.68 48.0625 724.313 48.7621 726.046 49.3133C727.78 49.8646 729.614 50.2462 731.554 50.4529C734.591 50.7815 736.801 50.5536 738.185 49.7639C739.573 48.9741 740.342 47.8664 740.496 46.43C740.639 45.1262 740.316 44.0767 739.526 43.287C738.736 42.4973 737.231 41.7288 735.01 40.9761L727.711 38.6493C723.714 37.3614 720.815 35.5964 719.007 33.3544C717.2 31.1124 716.484 28.3033 716.85 24.9324C717.162 22.065 718.191 19.664 719.935 17.7188C721.679 15.7737 724 14.3638 726.889 13.484C729.778 12.6041 733.075 12.3656 736.785 12.7684C739.944 13.1129 742.849 13.8762 745.494 15.0581C748.139 16.2401 750.254 17.7506 751.85 19.5845L748.16 26.4748C746.581 24.8953 744.768 23.6445 742.717 22.7169C740.66 21.7894 738.328 21.1852 735.715 20.8989C732.974 20.6021 730.822 20.8565 729.264 21.6728C727.705 22.4837 726.831 23.7346 726.651 25.42C726.513 26.6868 726.847 27.7574 727.647 28.6319C728.447 29.5065 729.942 30.3015 732.126 31.0064L739.303 33.259C743.385 34.5576 746.332 36.3066 748.139 38.5062C749.947 40.7058 750.673 43.4513 750.318 46.7374C750.016 49.5201 749.003 51.8627 747.286 53.7655C745.563 55.6683 743.284 57.0516 740.437 57.9156C737.591 58.7795 734.315 59.0074 730.605 58.6099V58.6046ZM750.217 59.9509L776.63 18.2647L784.761 19.3619L799.444 66.5867L789.484 65.2458L785.789 52.1702L789.267 55.398L762.854 51.8362L767.126 49.6526L760.103 61.2865L750.206 59.9509H750.217ZM779.275 29.1461L768.541 47.3364L767.163 44.7128L787.019 47.3894L785.249 49.589L779.529 29.1779L779.275 29.1461ZM802.921 67.1697L810.379 22.9554L827.251 25.8016C832.392 26.6709 836.596 28.2821 839.85 30.6354C843.11 32.9887 845.368 35.9621 846.635 39.5504C847.902 43.1386 848.14 47.2569 847.361 51.8945C846.587 56.4951 845.008 60.2901 842.633 63.29C840.258 66.2846 837.142 68.3729 833.288 69.5495C829.435 70.7262 824.934 70.8799 819.793 70.016L802.921 67.1697ZM814.063 60.7936L820.588 61.896C825.523 62.7282 829.387 62.1875 832.18 60.2742C834.974 58.3608 836.776 55.0164 837.582 50.2515C838.393 45.4442 837.788 41.6864 835.774 38.9832C833.755 36.2801 830.283 34.5099 825.348 33.6777L818.823 32.5753L814.063 60.7989V60.7936ZM854.173 53.1295C855.143 48.566 856.844 44.7817 859.288 41.7659C861.726 38.75 864.763 36.6565 868.394 35.4745C872.025 34.2979 876.059 34.176 880.501 35.1194C884.937 36.0628 888.579 37.8119 891.415 40.3666C894.256 42.9213 896.196 46.0749 897.24 49.8275C898.284 53.5853 898.327 57.7195 897.367 62.2405C896.387 66.8464 894.659 70.6467 892.178 73.6572C889.697 76.6624 886.639 78.7666 883.003 79.9644C879.366 81.1623 875.327 81.2895 870.891 80.3514C866.454 79.4079 862.828 77.6535 860.014 75.0829C857.199 72.5123 855.286 69.3428 854.268 65.5691C853.25 61.8006 853.218 57.6506 854.178 53.1295H854.173ZM864.318 55.2867C863.358 59.8078 863.549 63.5444 864.896 66.4966C866.242 69.4488 868.818 71.3304 872.635 72.1413C876.366 72.9364 879.478 72.2632 881.974 70.1273C884.466 67.9913 886.194 64.6627 887.153 60.1417C888.123 55.5782 887.911 51.8415 886.517 48.9211C885.123 46.0007 882.536 44.1403 878.762 43.34C874.946 42.5291 871.829 43.1757 869.406 45.2852C866.984 47.3947 865.288 50.7285 864.323 55.292L864.318 55.2867ZM899.652 85.9908L911.371 42.7093L931.021 48.0254C935.892 49.3451 939.343 51.5182 941.378 54.5499C943.414 57.5817 943.869 61.1646 942.751 65.2988C942.019 68.0019 940.784 70.1591 939.051 71.7756C937.318 73.3922 935.192 74.4204 932.68 74.8603C930.167 75.3003 927.353 75.0988 924.241 74.2561L925.344 73.106L927.862 73.7897C929.621 74.2667 931.058 75.1624 932.176 76.4716C933.295 77.786 934.058 79.4609 934.471 81.5068L937.413 96.2043L926.854 93.3475L923.934 77.6005C923.764 76.2808 923.208 75.2844 922.269 74.6112C921.331 73.9381 920.186 73.4187 918.835 73.053L913.799 71.6908L909.23 88.572L899.652 85.9802V85.9908ZM915.66 64.827L924.072 67.1061C926.568 67.7793 928.609 67.7846 930.199 67.1167C931.784 66.4489 932.849 65.1133 933.395 63.1045C933.936 61.101 933.692 59.4155 932.653 58.0587C931.614 56.7018 929.849 55.6842 927.353 55.0111L918.941 52.732L915.665 64.827H915.66ZM953.421 74.8073L950.824 70.7739C952.716 69.8039 954.168 68.7969 955.17 67.7475C956.172 66.698 956.914 65.4737 957.391 64.0691L958.764 66.9524L951.958 64.6468L955.218 55.0058L965.04 58.329L962.941 64.5355C962.167 66.8252 961.059 68.7757 959.617 70.3923C958.176 72.0088 956.108 73.4823 953.421 74.8073ZM966.498 79.2277L963.9 75.1942C965.798 74.2243 967.245 73.2173 968.247 72.1678C969.249 71.1184 969.991 69.894 970.468 68.4895L971.841 71.3728L965.035 69.0672L968.295 59.4261L978.117 62.7494L976.018 68.9559C975.244 71.2456 974.136 73.1961 972.694 74.8126C971.252 76.4292 969.185 77.9027 966.498 79.2277ZM277.52 129.977C273.931 130.311 270.533 130.179 267.327 129.58C264.12 128.981 261.348 128.005 259.005 126.643L261.204 118.645C262.731 119.483 264.326 120.166 265.991 120.691C267.655 121.221 269.394 121.582 271.201 121.772C273.009 121.969 274.88 121.974 276.825 121.794C279.868 121.513 281.988 120.85 283.186 119.801C284.389 118.751 284.925 117.511 284.792 116.075C284.67 114.766 284.145 113.801 283.218 113.186C282.29 112.571 280.658 112.115 278.331 111.819L270.714 110.992C266.537 110.525 263.346 109.375 261.13 107.536C258.915 105.697 257.653 103.089 257.34 99.713C257.075 96.8403 257.605 94.2803 258.93 92.0277C260.256 89.7751 262.243 87.9306 264.904 86.4943C267.56 85.0579 270.745 84.1675 274.461 83.823C277.626 83.5315 280.626 83.7011 283.451 84.3318C286.276 84.9625 288.651 86.0226 290.58 87.5066L288.333 94.9958C286.472 93.7609 284.442 92.8969 282.248 92.3987C280.053 91.9005 277.642 91.768 275.028 92.0118C272.283 92.2662 270.226 92.9446 268.864 94.0524C267.496 95.1601 266.892 96.5541 267.046 98.2448C267.162 99.5116 267.703 100.497 268.657 101.192C269.616 101.891 271.233 102.368 273.518 102.628L280.997 103.407C285.253 103.868 288.492 104.992 290.702 106.789C292.913 108.586 294.169 111.13 294.476 114.426C294.736 117.214 294.211 119.711 292.902 121.916C291.593 124.126 289.632 125.933 287.018 127.348C284.405 128.763 281.235 129.638 277.52 129.982V129.977ZM324.446 126.177C319.665 126.521 315.498 125.864 311.931 124.205C308.369 122.546 305.544 120.06 303.456 116.748C301.367 113.435 300.159 109.428 299.819 104.732C299.48 100.036 300.111 95.9128 301.706 92.3563C303.302 88.7999 305.745 85.9431 309.032 83.7965C312.323 81.6499 316.357 80.4044 321.133 80.0598C324.218 79.8372 327.064 80.0704 329.662 80.7542C332.264 81.4379 334.506 82.5456 336.404 84.0668L333.855 92.0913C331.798 90.708 329.874 89.7645 328.072 89.2557C326.269 88.7469 324.271 88.572 322.071 88.731C317.884 89.0331 314.767 90.4959 312.726 93.1301C310.686 95.7644 309.827 99.3844 310.155 103.996C310.484 108.607 311.852 112.078 314.248 114.416C316.649 116.753 319.94 117.771 324.128 117.469C326.328 117.31 328.284 116.854 329.99 116.091C331.697 115.333 333.473 114.119 335.312 112.46L338.98 120.039C337.321 121.772 335.249 123.177 332.778 124.248C330.303 125.318 327.52 125.965 324.435 126.182L324.446 126.177ZM346.009 123.999L343.74 79.2171L353.652 78.7136L354.564 96.6919L375.083 95.653L374.171 77.6747L384.147 77.1712L386.415 121.953L376.44 122.456L375.496 103.842L354.977 104.881L355.921 123.495L346.009 123.999ZM393.264 99.1936C393.126 94.5294 393.884 90.4482 395.543 86.9395C397.197 83.4361 399.651 80.68 402.905 78.6712C406.155 76.6677 410.045 75.5971 414.583 75.4646C419.12 75.3321 423.069 76.1695 426.43 77.9769C429.79 79.7842 432.425 82.3919 434.327 85.7947C436.23 89.1974 437.248 93.2044 437.386 97.8261C437.524 102.533 436.745 106.635 435.043 110.144C433.342 113.653 430.871 116.419 427.622 118.444C424.373 120.469 420.482 121.55 415.945 121.682C411.408 121.815 407.469 120.967 404.13 119.138C400.785 117.31 398.177 114.681 396.29 111.257C394.409 107.833 393.396 103.815 393.264 99.1936ZM403.626 98.8862C403.764 103.508 404.835 107.091 406.839 109.64C408.842 112.19 411.795 113.409 415.696 113.292C419.512 113.181 422.375 111.792 424.288 109.126C426.202 106.46 427.092 102.819 426.954 98.1971C426.817 93.533 425.725 89.95 423.679 87.443C421.633 84.936 418.68 83.7435 414.821 83.8548C410.92 83.9714 408.047 85.3388 406.192 87.9571C404.337 90.5807 403.483 94.222 403.621 98.8809L403.626 98.8862ZM445.623 120.251L445.088 75.4169L455.01 75.3003L455.445 111.808L475.672 111.564L475.773 119.896L445.623 120.257V120.251ZM475.587 119.827L496.398 75.0776L504.603 75.1147L525.265 120.05L515.215 120.007L509.866 107.515L513.736 110.266L487.084 110.144L491.039 107.425L485.574 119.864L475.587 119.822V119.827ZM500.421 85.5296L492.131 104.955L490.424 102.533L510.46 102.623L508.987 105.034L500.675 85.535H500.421V85.5296ZM528.943 120.161L529.982 75.3321L550.331 75.8038C555.377 75.9204 559.247 77.2083 561.95 79.6676C564.648 82.1269 565.952 85.4978 565.851 89.7804C565.788 92.5789 565.104 94.9693 563.811 96.9516C562.512 98.9339 560.694 100.444 558.362 101.467C556.029 102.49 553.247 102.973 550.024 102.898L550.819 101.515L553.427 101.573C555.25 101.616 556.862 102.14 558.256 103.148C559.655 104.155 560.795 105.602 561.685 107.488L568.051 121.057L557.116 120.803L550.517 106.206C550.034 104.966 549.26 104.128 548.19 103.704C547.119 103.275 545.884 103.047 544.485 103.015L539.269 102.893L538.866 120.378L528.949 120.151L528.943 120.161ZM539.438 95.7855L548.153 95.987C550.739 96.0453 552.722 95.5629 554.105 94.5347C555.483 93.5065 556.199 91.9535 556.247 89.8758C556.294 87.7981 555.653 86.224 554.323 85.1533C552.992 84.0827 551.031 83.5209 548.444 83.4573L539.73 83.2559L539.438 95.7803V95.7855ZM589.762 122.652C586.163 122.504 582.813 121.921 579.712 120.903C576.612 119.886 573.993 118.545 571.857 116.886L575.101 109.253C576.5 110.287 577.99 111.177 579.575 111.919C581.154 112.661 582.829 113.255 584.594 113.684C586.359 114.119 588.215 114.373 590.165 114.453C593.218 114.58 595.408 114.204 596.738 113.324C598.068 112.444 598.763 111.283 598.821 109.847C598.874 108.533 598.482 107.51 597.644 106.773C596.807 106.036 595.254 105.368 592.985 104.769L585.548 102.936C581.472 101.918 578.462 100.354 576.511 98.2342C574.56 96.1195 573.654 93.3634 573.797 89.9765C573.914 87.0985 574.783 84.6286 576.394 82.5721C578.006 80.5157 580.227 78.9521 583.047 77.8815C585.872 76.8108 589.148 76.3497 592.874 76.5034C596.054 76.6359 598.996 77.203 601.715 78.2048C604.435 79.2065 606.645 80.574 608.357 82.2965L605.134 89.42C603.454 87.9518 601.556 86.8229 599.447 86.0332C597.337 85.2487 594.968 84.7982 592.339 84.6922C589.582 84.5809 587.457 84.9784 585.957 85.8954C584.456 86.8123 583.667 88.1162 583.598 89.8069C583.545 91.079 583.948 92.1231 584.806 92.9446C585.665 93.7662 587.208 94.4552 589.434 95.0117L596.743 96.7767C600.904 97.7996 603.957 99.342 605.908 101.42C607.859 103.497 608.77 106.185 608.633 109.487C608.516 112.285 607.663 114.686 606.078 116.7C604.488 118.714 602.304 120.246 599.521 121.301C596.738 122.355 593.483 122.801 589.757 122.652H589.762ZM615.189 123.045L617.919 78.2896L627.826 78.8938L626.729 96.8615L647.237 98.1123L648.334 80.1446L658.299 80.7542L655.569 125.509L645.604 124.9L646.739 106.301L626.231 105.05L625.096 123.649L615.195 123.045H615.189ZM664.453 126.241L667.893 81.5333L677.79 82.2965L674.349 127.004L664.453 126.241ZM683.255 127.661L687.368 83.0121L708.204 84.9307C713.229 85.3918 716.929 86.9607 719.304 89.6267C721.679 92.2927 722.67 95.7378 722.283 99.9621C721.896 104.144 720.295 107.345 717.47 109.577C714.645 111.808 710.722 112.693 705.697 112.227L694.741 111.22L693.14 128.573L683.26 127.661H683.255ZM695.441 103.556L705.13 104.451C707.494 104.669 709.307 104.303 710.563 103.354C711.819 102.406 712.54 100.98 712.715 99.0823C712.89 97.1848 712.445 95.6636 711.379 94.5188C710.314 93.3793 708.597 92.6955 706.233 92.4782L696.543 91.5878L695.441 103.556ZM263.272 187.14L263.759 184.103H269.484L272.415 165.6L274.196 165.669L266.553 169.93L267.109 166.368L273.915 162.526H276.534L273.11 184.103H278.484L277.997 187.14H263.261H263.272ZM290.819 187.453C287.792 187.453 285.688 186.313 284.501 184.029C283.313 181.75 283.043 178.511 283.7 174.324C284.373 170.158 285.592 167.1 287.347 165.144C289.101 163.188 291.354 162.213 294.105 162.213C297.084 162.213 299.183 163.321 300.408 165.531C301.632 167.741 301.902 170.98 301.229 175.236C300.577 179.38 299.348 182.449 297.545 184.453C295.743 186.456 293.501 187.453 290.824 187.453H290.819ZM291.026 184.416C292.748 184.416 294.169 183.674 295.287 182.179C296.406 180.69 297.233 178.257 297.768 174.881C298.118 172.575 298.208 170.715 298.049 169.294C297.885 167.874 297.455 166.84 296.756 166.188C296.056 165.536 295.102 165.213 293.893 165.213C292.149 165.213 290.729 165.944 289.632 167.413C288.54 168.881 287.723 171.287 287.188 174.637C286.817 176.916 286.716 178.781 286.891 180.223C287.066 181.665 287.501 182.725 288.2 183.398C288.9 184.071 289.844 184.41 291.031 184.41L291.026 184.416ZM311.767 187.453C308.74 187.453 306.636 186.313 305.449 184.029C304.261 181.75 303.991 178.511 304.648 174.324C305.321 170.158 306.54 167.1 308.295 165.144C310.049 163.188 312.302 162.213 315.053 162.213C318.032 162.213 320.131 163.321 321.356 165.531C322.575 167.741 322.85 170.98 322.177 175.236C321.525 179.38 320.296 182.449 318.493 184.453C316.691 186.456 314.449 187.453 311.772 187.453H311.767ZM311.974 184.416C313.696 184.416 315.117 183.674 316.235 182.179C317.354 180.69 318.181 178.257 318.716 174.881C319.066 172.575 319.156 170.715 318.997 169.294C318.833 167.874 318.403 166.84 317.704 166.188C317.004 165.536 316.05 165.213 314.841 165.213C313.097 165.213 311.677 165.944 310.58 167.413C309.488 168.881 308.671 171.287 308.136 174.637C307.765 176.916 307.664 178.781 307.839 180.223C308.014 181.665 308.449 182.725 309.148 183.398C309.848 184.071 310.792 184.41 311.974 184.41V184.416ZM331.634 177.26C329.656 177.26 328.183 176.566 327.218 175.183C326.253 173.799 325.957 171.859 326.328 169.368C326.699 167.11 327.51 165.356 328.755 164.095C330.001 162.838 331.543 162.208 333.383 162.208C335.386 162.208 336.855 162.897 337.798 164.27C338.742 165.642 339.012 167.577 338.62 170.063C338.27 172.299 337.485 174.054 336.261 175.336C335.037 176.619 333.499 177.255 331.634 177.255V177.26ZM331.734 174.886C332.757 174.886 333.605 174.467 334.284 173.63C334.957 172.792 335.434 171.525 335.715 169.824C335.969 168.033 335.874 166.713 335.418 165.86C334.962 165.012 334.226 164.588 333.203 164.588C332.179 164.588 331.374 164.996 330.722 165.812C330.07 166.628 329.603 167.884 329.328 169.58C329.047 171.372 329.132 172.707 329.572 173.577C330.012 174.451 330.738 174.886 331.734 174.886ZM332.821 187.14H329.572L347.864 162.526H351.145L332.816 187.14H332.821ZM347.345 187.453C345.341 187.453 343.867 186.758 342.908 185.375C341.954 183.992 341.673 182.052 342.07 179.561C342.441 177.303 343.242 175.548 344.461 174.287C345.68 173.031 347.212 172.4 349.051 172.4C351.055 172.4 352.539 173.094 353.504 174.478C354.469 175.861 354.755 177.79 354.357 180.255C353.986 182.492 353.186 184.246 351.967 185.529C350.742 186.811 349.205 187.447 347.339 187.447L347.345 187.453ZM347.482 185.078C348.505 185.078 349.348 184.659 350.016 183.822C350.679 182.985 351.14 181.718 351.394 180.016C351.696 178.246 351.617 176.932 351.15 176.073C350.684 175.214 349.942 174.78 348.919 174.78C347.896 174.78 347.085 175.188 346.422 176.004C345.76 176.82 345.288 178.077 345.007 179.773C344.753 181.585 344.848 182.926 345.304 183.785C345.76 184.643 346.486 185.078 347.488 185.078H347.482ZM368.255 174.329C368.674 171.748 369.464 169.554 370.63 167.746C371.796 165.944 373.291 164.572 375.114 163.628C376.943 162.685 379.005 162.213 381.311 162.213C383.85 162.213 385.912 162.764 387.507 163.872C389.103 164.98 390.211 166.522 390.841 168.499C391.472 170.476 391.573 172.745 391.154 175.305C390.756 177.886 389.972 180.08 388.795 181.887C387.619 183.689 386.124 185.073 384.311 186.027C382.493 186.981 380.426 187.458 378.099 187.458C375.586 187.458 373.524 186.907 371.918 185.799C370.312 184.696 369.199 183.154 368.584 181.172C367.969 179.195 367.858 176.911 368.25 174.329H368.255ZM371.992 174.679C371.69 176.704 371.733 178.432 372.114 179.863C372.496 181.294 373.222 182.396 374.277 183.159C375.332 183.923 376.705 184.31 378.38 184.31C380.892 184.31 382.917 183.477 384.454 181.813C385.991 180.149 386.977 177.865 387.422 174.955C387.751 172.951 387.709 171.239 387.3 169.803C386.892 168.372 386.166 167.269 385.117 166.506C384.067 165.738 382.71 165.356 381.03 165.356C378.517 165.356 376.503 166.178 374.993 167.815C373.477 169.458 372.48 171.743 371.987 174.674L371.992 174.679ZM394.265 187.14L398.177 162.526H413.957L413.47 165.425H401.321L400.101 173.317H411.45L410.994 176.216H399.646L397.902 187.145H394.271L394.265 187.14ZM429.281 187.14L432.706 165.563H424.293L424.781 162.526H445.241L444.754 165.563H436.342L432.918 187.14H429.287H429.281ZM444.717 187.14L448.629 162.526H452.259L450.584 173.137H464.408L466.083 162.526H469.714L465.802 187.14H462.172L463.915 176.179H450.091L448.348 187.14H444.717ZM471.596 187.14L475.508 162.526H491.638L491.182 165.425H478.545L477.321 173.174H489.157L488.701 176.105H476.865L475.571 184.204H488.176L487.72 187.135H471.591L471.596 187.14ZM501.555 187.14L505.467 162.526H508.26L520.097 182.529L519.365 182.354L522.508 162.526H525.895L521.984 187.14H519.227L507.354 167.137L508.085 167.312L504.942 187.14H501.555ZM527.74 187.14L531.652 162.526H547.782L547.326 165.425H534.689L533.465 173.174H545.301L544.845 176.105H533.009L531.716 184.204H544.32L543.864 187.135H527.735L527.74 187.14ZM553.962 187.14L557.386 165.563H548.974L549.462 162.526H569.922L569.435 165.563H561.023L557.604 187.14H553.973H553.962ZM584.616 187.14L588.04 165.563H579.628L580.115 162.526H600.576L600.088 165.563H591.676L588.252 187.14H584.621H584.616ZM610.308 187.453C608.145 187.453 606.337 187.076 604.896 186.318C603.454 185.56 602.436 184.416 601.843 182.879C601.249 181.341 601.127 179.433 601.477 177.154L603.814 162.526H607.445L605.108 177.186C604.737 179.561 604.975 181.341 605.823 182.529C606.671 183.716 608.283 184.31 610.657 184.31C612.751 184.31 614.416 183.753 615.651 182.635C616.886 181.516 617.697 179.693 618.094 177.154L620.432 162.526H623.994L621.619 177.361C621.269 179.667 620.617 181.564 619.663 183.053C618.709 184.543 617.453 185.651 615.894 186.371C614.336 187.092 612.47 187.453 610.308 187.453ZM625.706 187.14L629.618 162.526H633.249L629.337 187.14H625.706ZM641.035 187.14L644.459 165.563H636.047L636.535 162.526H656.995L656.508 165.563H648.096L644.671 187.14H641.04H641.035ZM656.465 187.14L660.377 162.526H664.008L660.096 187.14H656.465ZM667.077 174.329C667.496 171.748 668.286 169.554 669.452 167.746C670.618 165.944 672.113 164.572 673.936 163.628C675.759 162.685 677.827 162.213 680.132 162.213C682.671 162.213 684.733 162.764 686.329 163.872C687.924 164.98 689.032 166.522 689.663 168.499C690.294 170.476 690.394 172.745 689.976 175.305C689.578 177.886 688.794 180.08 687.617 181.887C686.44 183.689 684.945 185.073 683.133 186.027C681.32 186.981 679.247 187.458 676.92 187.458C674.408 187.458 672.346 186.907 670.74 185.799C669.134 184.696 668.021 183.154 667.406 181.172C666.791 179.195 666.679 176.911 667.072 174.329H667.077ZM670.814 174.679C670.512 176.704 670.554 178.432 670.936 179.863C671.318 181.294 672.038 182.396 673.099 183.159C674.159 183.928 675.526 184.31 677.201 184.31C679.714 184.31 681.739 183.477 683.276 181.813C684.813 180.149 685.799 177.865 686.244 174.955C686.567 172.951 686.53 171.239 686.122 169.803C685.714 168.372 684.988 167.269 683.938 166.506C682.889 165.738 681.532 165.356 679.851 165.356C677.339 165.356 675.325 166.178 673.809 167.815C672.293 169.453 671.296 171.743 670.809 174.674L670.814 174.679ZM693.087 187.14L696.999 162.526H699.792L711.629 182.529L710.897 182.354L714.04 162.526H717.427L713.516 187.14H710.759L698.891 167.137L699.623 167.312L696.479 187.14H693.092H693.087Z" fill="url(#paint0_linear_508_557)"/>
<defs>
<linearGradient id="paint0_linear_508_557" x1="0.00112939" y1="94.01" x2="978.117" y2="94.01" gradientUnits="userSpaceOnUse">
<stop stop-color="#F9D16F"/>
<stop offset="0.07" stop-color="#EEBE5C"/>
<stop offset="0.18" stop-color="#E0A341"/>
<stop offset="0.25" stop-color="#DB9A38"/>
<stop offset="0.3" stop-color="#DDA044"/>
<stop offset="0.4" stop-color="#E5B365"/>
<stop offset="0.52" stop-color="#F1D19B"/>
<stop offset="0.64" stop-color="#FFF1D5"/>
<stop offset="0.66" stop-color="#FEEBC4"/>
<stop offset="0.68" stop-color="#FCE3AA"/>
<stop offset="0.71" stop-color="#FBDC94"/>
<stop offset="0.74" stop-color="#FAD783"/>
<stop offset="0.78" stop-color="#F9D377"/>
<stop offset="0.84" stop-color="#F9D170"/>
<stop offset="1" stop-color="#F9D16F"/>
</linearGradient>
</defs>
</svg>
