<svg width="860" height="188" viewBox="0 0 860 188" fill="none" xmlns="http://www.w3.org/2000/svg">
<path d="M2.33505 63.6403L0.7767 57.2801C0.204235 54.9321 0.0875437 52.6795 0.432083 50.5223C0.776622 48.3651 1.72549 46.0065 3.27857 43.4412L7.65157 45.5136C6.56495 47.3104 5.86517 48.9217 5.56303 50.3474C5.2609 51.7785 5.28749 53.2307 5.65323 54.7148L2.92865 52.9604L9.90963 51.2485L12.3478 61.1916L2.34035 63.6456L2.33505 63.6403ZM15.7403 60.3542L14.1818 53.994C13.6041 51.646 13.4875 49.3934 13.832 47.2362C14.1766 45.079 15.1254 42.7204 16.6785 40.1551L21.0515 42.2275C19.9649 44.0243 19.2651 45.6355 18.963 47.0613C18.6608 48.487 18.6874 49.9446 19.0532 51.4287L16.3286 49.6743L23.3096 47.9623L25.7478 57.9055L15.7403 60.3595V60.3542ZM38.994 81.4596L30.1261 37.505L39.8528 35.544L43.4147 53.1883L63.557 49.1231L59.9951 31.4787L69.7853 29.5017L78.6532 73.4563L68.863 75.4333L65.1791 57.1635L45.0421 61.2287L48.726 79.4986L38.9993 81.4596H38.994ZM81.9926 72.7991L95.2122 25.2509L103.312 23.9471L131.039 64.9018L121.116 66.4971L113.796 55.0487L118.063 57.1317L91.7509 61.3665L95.2069 58.038L91.8516 71.2037L81.9926 72.7938V72.7991ZM100.884 34.9079L95.8748 55.425L93.797 53.3102L113.579 50.1248L112.519 52.7431L101.133 34.8655L100.884 34.9079ZM134.564 64.5308L128.765 20.0674L149.517 17.3642C154.521 16.7123 158.475 17.4279 161.374 19.5055C164.274 21.5885 166.002 24.7315 166.548 28.9346C167.089 33.0952 166.23 36.5775 163.961 39.376C161.692 42.1745 158.061 43.8971 153.058 44.549L142.144 45.9695L144.397 63.2481L134.559 64.5308H134.564ZM141.158 38.3371L150.81 37.081C153.164 36.7736 154.849 36.021 155.872 34.8178C156.89 33.6147 157.277 32.067 157.033 30.1748C156.789 28.2827 156.016 26.8993 154.727 26.0195C153.434 25.1396 151.616 24.8534 149.257 25.1608L139.605 26.417L141.158 38.3371ZM176.889 59.1299L172.177 14.5392L192.987 12.3396C198.007 11.8096 201.94 12.6206 204.786 14.7725C207.638 16.9243 209.281 20.1097 209.732 24.3234C210.172 28.5 209.228 31.9557 206.896 34.6959C204.564 37.4361 200.885 39.0739 195.871 39.6039L184.93 40.7593L186.759 58.091L176.889 59.1351V59.1299ZM184.119 33.1058L193.798 32.0829C196.162 31.8338 197.864 31.1236 198.913 29.9416C199.963 28.765 200.387 27.2279 200.185 25.3305C199.984 23.433 199.252 22.0284 197.98 21.1168C196.708 20.2051 194.895 19.8765 192.537 20.1256L182.858 21.1486L184.119 33.1005V33.1058ZM230.097 53.8562L228.311 32.6235L230.812 38.0934L208.778 10.6489L220.185 9.68954L234.093 27.7951L232.063 27.9646L242.749 7.79206L253.78 6.86452L236.707 37.5951L238.196 31.7914L239.982 53.024L230.097 53.8562ZM299.238 49.7167C294.451 49.987 290.29 49.2609 286.755 47.5489C283.219 45.8369 280.431 43.3087 278.396 39.959C276.36 36.6146 275.21 32.5864 274.945 27.8905C274.68 23.1892 275.375 19.0762 277.023 15.541C278.672 12.011 281.158 9.19131 284.481 7.09773C287.804 4.99885 291.854 3.81693 296.641 3.54662C299.731 3.37171 302.572 3.64732 305.159 4.37345C307.745 5.09958 309.977 6.23912 311.848 7.78678L309.176 15.7742C307.141 14.359 305.228 13.3838 303.436 12.8485C301.644 12.3132 299.646 12.1064 297.446 12.2283C293.253 12.4615 290.116 13.882 288.032 16.4844C285.949 19.0868 285.037 22.6962 285.297 27.3074C285.557 31.9239 286.866 35.4167 289.23 37.7859C291.594 40.1604 294.87 41.2258 299.063 40.9926C301.263 40.8706 303.224 40.4413 304.947 39.7046C306.669 38.9732 308.461 37.7859 310.321 36.1535L313.873 43.7911C312.187 45.4977 310.093 46.8705 307.607 47.8987C305.122 48.927 302.328 49.5312 299.238 49.7061V49.7167ZM317.164 25.5477C316.995 20.8889 317.726 16.7971 319.359 13.2778C320.991 9.75845 323.424 6.98644 326.663 4.96177C329.897 2.93179 333.782 1.83463 338.319 1.67033C342.851 1.50602 346.811 2.31697 350.182 4.10314C353.553 5.8893 356.209 8.47581 358.133 11.8626C360.062 15.2495 361.107 19.2564 361.276 23.8729C361.446 28.5742 360.698 32.6871 359.023 36.2065C357.348 39.7258 354.894 42.5084 351.661 44.5596C348.428 46.6108 344.542 47.7185 340.005 47.8828C335.468 48.0471 331.524 47.2256 328.169 45.4182C324.813 43.6109 322.184 41.0032 320.276 37.5898C318.368 34.1818 317.334 30.1642 317.164 25.5477ZM327.522 25.1661C327.692 29.7826 328.783 33.3603 330.808 35.8991C332.833 38.4326 335.791 39.6304 339.692 39.4873C343.509 39.3495 346.36 37.9396 348.258 35.2577C350.155 32.5811 351.019 28.9293 350.85 24.3128C350.68 19.6539 349.562 16.0763 347.5 13.5852C345.438 11.0941 342.475 9.91746 338.621 10.0606C334.72 10.2037 331.858 11.5923 330.024 14.2265C328.19 16.8607 327.358 20.5073 327.527 25.1715L327.522 25.1661ZM369.678 46.1656L369.015 1.33111L377.729 1.20391L393.827 35.9521L391.792 35.9839L406.856 0.774591L415.507 0.647391L416.169 45.4818L407.137 45.6143L406.686 15.1541L409.231 15.1169L395.751 45.784L390.027 45.8687L375.582 15.6152L378.254 15.5781L378.705 46.0384L369.672 46.1709L369.678 46.1656ZM425.228 45.4447L425.557 0.60498L434.271 0.66858L449.6 35.7613L447.565 35.7454L463.403 0.880601L472.053 0.944201L471.725 45.784L462.693 45.7203L462.915 15.2548L465.46 15.2707L451.307 45.6355L445.582 45.5931L431.811 15.0269L434.483 15.048L434.26 45.5136L425.228 45.45V45.4447ZM480.736 46.0171L481.913 1.19333L513.07 2.00955L512.868 9.70546L491.183 9.13833L490.908 19.6274L511.066 20.1574L510.865 27.9116L490.706 27.3816L490.415 38.5704L512.1 39.1375L511.898 46.8334L480.741 46.0171H480.736ZM518.635 47.0401L520.618 2.24276L527.991 2.57137L550.958 34.5952L549.241 34.521L550.608 3.57842L559.821 3.98651L557.839 48.7839L550.465 48.4552L527.561 16.4367L529.215 16.5109L527.848 47.4535L518.635 47.0454V47.0401ZM588.301 51.3757C583.52 51.0683 579.476 49.8492 576.173 47.7238C572.866 45.5984 570.406 42.7522 568.79 39.1852C567.173 35.6182 566.516 31.484 566.818 26.788C567.12 22.092 568.302 18.0904 570.364 14.7778C572.426 11.4704 575.23 8.97403 578.781 7.28856C582.333 5.6031 586.499 4.91936 591.28 5.22678C594.37 5.42818 597.153 6.043 599.639 7.07124C602.12 8.10478 604.198 9.49875 605.867 11.2637L602.252 18.8695C600.402 17.2211 598.621 16.0233 596.909 15.2759C595.192 14.5286 593.236 14.0834 591.036 13.9403C586.849 13.67 583.562 14.7036 581.182 17.0303C578.802 19.3571 577.461 22.834 577.165 27.4452C576.868 32.0564 577.748 35.6818 579.81 38.3213C581.871 40.9608 584.994 42.4183 589.186 42.6886C591.386 42.8317 593.384 42.6409 595.181 42.1215C596.978 41.6021 598.897 40.6427 600.943 39.2435L603.551 47.2521C601.669 48.7468 599.432 49.8545 596.835 50.5806C594.238 51.3068 591.397 51.5665 588.306 51.3704L588.301 51.3757ZM609.965 52.176L613.707 7.49525L644.763 10.0977L644.122 17.767L622.506 15.9544L621.631 26.4117L641.726 28.0971L641.079 35.8302L620.985 34.1447L620.052 45.3016L641.668 47.1143L641.026 54.7837L609.97 52.1813L609.965 52.176ZM647.737 55.3349L652.555 10.7549L661.216 11.693L672.952 48.1478L670.927 47.9305L690.179 14.8254L698.776 15.753L693.958 60.333L684.979 59.3631L688.255 29.0724L690.783 29.348L673.662 58.1387L667.969 57.5239L657.331 25.7333L659.987 26.0195L656.711 56.3102L647.731 55.3402L647.737 55.3349ZM702.826 61.515L708.858 17.0833L739.745 21.2758L738.711 28.9028L717.217 25.9877L715.807 36.3867L735.785 39.1004L734.741 46.791L714.763 44.0773L713.258 55.1706L734.752 58.0857L733.718 65.7127L702.831 61.5202L702.826 61.515ZM740.259 66.6349L747.584 22.3994L754.862 23.6026L773.833 58.1387L772.137 57.8578L777.199 27.2968L786.3 28.8021L778.975 73.0376L771.697 71.8344L752.784 37.3089L754.417 37.5792L749.355 68.1349L740.254 66.6296L740.259 66.6349ZM797.691 76.7318L805.006 40.7064L791.044 37.8707L792.65 29.9522L830.3 37.5951L828.694 45.5136L814.732 42.678L807.418 78.7035L797.691 76.7318ZM832.622 57.6617L834.838 38.6976L845.598 41.2894L838.93 59.1776L832.622 57.6564V57.6617ZM846.531 61.0114L848.746 42.0473L859.507 44.6391L852.839 62.5273L846.531 61.0061V61.0114ZM218.441 129.978C214.852 130.312 211.455 130.179 208.248 129.58C205.041 128.981 202.269 128.006 199.926 126.644L202.125 118.646C203.652 119.483 205.248 120.167 206.912 120.692C208.576 121.222 210.315 121.582 212.122 121.773C213.93 121.969 215.801 121.974 217.746 121.794C220.789 121.513 222.909 120.851 224.107 119.801C225.31 118.752 225.846 117.512 225.713 116.075C225.591 114.766 225.066 113.801 224.139 113.187C223.211 112.572 221.579 112.116 219.252 111.819L211.635 110.992C207.463 110.526 204.267 109.376 202.051 107.537C199.836 105.697 198.574 103.09 198.261 99.7135C197.996 96.8408 198.526 94.2808 199.851 92.0282C201.177 89.7757 203.164 87.9312 205.825 86.4948C208.481 85.0585 211.667 84.168 215.382 83.8235C218.547 83.532 221.547 83.7016 224.372 84.3323C227.197 84.9631 229.577 86.0231 231.501 87.5072L229.254 94.9964C227.393 93.7614 225.363 92.8975 223.169 92.3992C220.974 91.901 218.563 91.7685 215.949 92.0123C213.204 92.2667 211.147 92.9452 209.785 94.0529C208.417 95.1606 207.813 96.5546 207.967 98.2454C208.083 99.5121 208.624 100.498 209.578 101.192C210.538 101.892 212.154 102.369 214.439 102.629L221.923 103.408C226.18 103.869 229.418 104.993 231.629 106.789C233.839 108.586 235.095 111.13 235.403 114.427C235.662 117.215 235.138 119.711 233.828 121.916C232.519 124.126 230.558 125.934 227.945 127.349C225.331 128.764 222.162 129.638 218.446 129.983L218.441 129.978ZM265.372 126.177C260.591 126.522 256.42 125.865 252.858 124.206C249.296 122.547 246.47 120.061 244.382 116.748C242.293 113.436 241.085 109.429 240.746 104.733C240.406 100.037 241.037 95.9133 242.633 92.3569C244.228 88.8004 246.666 85.9489 249.958 83.797C253.25 81.6504 257.284 80.4049 262.059 80.0604C265.144 79.8378 267.991 80.071 270.588 80.7547C273.191 81.4384 275.433 82.5462 277.33 84.0673L274.781 92.0918C272.724 90.7085 270.8 89.765 268.998 89.2562C267.196 88.7474 265.197 88.5725 262.998 88.7315C258.81 89.0336 255.693 90.4965 253.653 93.1307C251.612 95.7649 250.753 99.3849 251.082 103.996C251.411 108.607 252.778 112.079 255.174 114.416C257.575 116.754 260.867 117.771 265.054 117.469C267.254 117.31 269.21 116.854 270.917 116.091C272.624 115.333 274.399 114.119 276.239 112.455L279.907 120.035C278.247 121.768 276.175 123.172 273.705 124.243C271.229 125.314 268.447 125.96 265.362 126.177H265.372ZM286.93 123.999L284.661 79.2176L294.573 78.7141L295.485 96.6924L316.004 95.6536L315.092 77.6753L325.068 77.1718L327.336 121.953L317.361 122.457L316.417 103.842L295.898 104.881L296.842 123.496L286.93 123.999ZM334.185 99.1941C334.047 94.5299 334.805 90.4488 336.464 86.94C338.118 83.4366 340.572 80.6805 343.827 78.6717C347.081 76.6629 350.967 75.5976 355.504 75.4651C360.041 75.3326 363.99 76.17 367.351 77.9774C370.711 79.7848 373.346 82.3925 375.249 85.7952C377.151 89.1979 378.169 93.2049 378.307 97.8266C378.445 102.533 377.666 106.636 375.964 110.144C374.263 113.653 371.787 116.42 368.543 118.444C365.294 120.469 361.403 121.55 356.866 121.683C352.329 121.815 348.39 120.967 345.051 119.139C341.706 117.31 339.098 114.681 337.211 111.257C335.33 107.833 334.317 103.816 334.185 99.1941ZM344.547 98.892C344.685 103.514 345.756 107.097 347.76 109.646C349.763 112.196 352.716 113.415 356.617 113.298C360.433 113.187 363.296 111.798 365.209 109.132C367.123 106.466 368.013 102.825 367.875 98.203C367.738 93.5441 366.646 89.9559 364.6 87.4489C362.554 84.9419 359.601 83.7493 355.742 83.8606C351.841 83.9772 348.968 85.3447 347.113 87.963C345.258 90.5866 344.404 94.2278 344.542 98.8867L344.547 98.892ZM386.544 120.257L386.009 75.4227L395.932 75.3061L396.366 111.814L416.593 111.57L416.694 119.902L386.544 120.262V120.257ZM416.508 119.833L437.319 75.0835L445.524 75.1206L466.186 120.056L456.136 120.013L450.788 107.521L454.657 110.272L428.006 110.15L431.96 107.431L426.495 119.87L416.508 119.828V119.833ZM441.342 85.5302L433.052 104.955L431.345 102.528L451.381 102.618L449.908 105.03L441.596 85.5302H441.342ZM469.864 120.167L470.903 75.3379L491.252 75.8096C496.298 75.9262 500.168 77.2141 502.871 79.6734C505.569 82.1327 506.873 85.5037 506.772 89.7862C506.709 92.5847 506.025 94.9752 504.726 96.9574C503.428 98.945 501.615 100.45 499.277 101.473C496.94 102.501 494.162 102.978 490.94 102.904L491.735 101.521L494.343 101.579C496.166 101.622 497.777 102.146 499.171 103.153C500.571 104.16 501.71 105.607 502.601 107.494L508.967 121.068L498.032 120.814L491.433 106.217C490.95 104.977 490.176 104.139 489.105 103.715C488.035 103.286 486.8 103.058 485.4 103.026L480.185 102.904L479.782 120.39L469.864 120.162V120.167ZM480.359 95.7861L489.074 95.9875C491.66 96.0458 493.643 95.5635 495.026 94.5352C496.405 93.507 497.12 91.954 497.168 89.8763C497.216 87.7987 496.574 86.2245 495.244 85.1539C493.908 84.0832 491.952 83.5214 489.365 83.4578L480.651 83.2564L480.359 95.7808V95.7861ZM530.684 122.658C527.084 122.51 523.729 121.927 520.634 120.909C517.533 119.891 514.914 118.55 512.778 116.891L516.022 109.259C517.421 110.293 518.911 111.183 520.496 111.925C522.075 112.667 523.75 113.261 525.515 113.69C527.281 114.125 529.136 114.379 531.086 114.459C534.134 114.586 536.329 114.21 537.659 113.33C538.99 112.45 539.684 111.289 539.742 109.853C539.795 108.538 539.403 107.515 538.565 106.779C537.728 106.042 536.175 105.374 533.906 104.775L526.47 102.941C522.393 101.924 519.383 100.36 517.432 98.2401C515.481 96.1253 514.575 93.3692 514.718 89.9823C514.835 87.1043 515.704 84.6345 517.315 82.578C518.927 80.5215 521.148 78.9579 523.968 77.8873C526.793 76.8166 530.069 76.3555 533.795 76.5092C536.975 76.6417 539.917 77.2089 542.636 78.2106C545.356 79.2123 547.566 80.5798 549.278 82.3024L546.055 89.4258C544.375 87.9577 542.477 86.8287 540.368 86.039C538.258 85.2546 535.889 84.8041 533.26 84.6981C530.503 84.5868 528.378 84.9842 526.878 85.9012C525.378 86.8181 524.588 88.122 524.519 89.8127C524.466 91.0848 524.869 92.1289 525.727 92.9505C526.586 93.772 528.129 94.461 530.355 95.0175L537.664 96.7825C541.825 97.8055 544.879 99.3478 546.829 101.426C548.78 103.503 549.691 106.19 549.554 109.492C549.437 112.291 548.584 114.692 546.999 116.706C545.409 118.72 543.225 120.252 540.442 121.307C537.659 122.361 534.405 122.807 530.678 122.658H530.684ZM556.111 123.05L558.846 78.2954L568.747 78.8996L567.65 96.8673L588.158 98.1182L589.255 80.1505L599.22 80.76L596.491 125.515L586.52 124.905L587.654 106.307L567.146 105.056L566.012 123.655L556.105 123.05H556.111ZM605.374 126.246L608.814 81.5391L618.711 82.3024L615.271 127.01L605.374 126.246ZM624.176 127.667L628.289 83.0179L649.126 84.9366C654.151 85.3977 657.85 86.9665 660.225 89.6325C662.6 92.2985 663.591 95.7437 663.199 99.9679C662.812 104.15 661.211 107.351 658.386 109.583C655.561 111.814 651.638 112.699 646.613 112.233L635.657 111.226L634.056 128.578L624.176 127.667ZM636.362 103.556L646.051 104.447C648.415 104.664 650.228 104.298 651.484 103.349C652.741 102.401 653.461 100.975 653.636 99.0775C653.811 97.18 653.366 95.6589 652.301 94.514C651.235 93.3745 649.518 92.6908 647.154 92.4734L637.464 91.583L636.362 103.551V103.556ZM293.481 187.14L293.969 184.103H299.694L302.625 165.6L304.406 165.669L296.757 169.931L297.314 166.369L304.12 162.526H306.738L303.314 184.103H308.689L308.201 187.14H293.466H293.481ZM321.378 187.458C320.308 187.458 319.264 187.342 318.251 187.109C317.239 186.875 316.311 186.547 315.474 186.112C314.636 185.683 313.936 185.163 313.38 184.559L314.705 181.803C315.68 182.662 316.735 183.308 317.864 183.743C318.993 184.172 320.196 184.39 321.479 184.39C323.085 184.39 324.421 183.987 325.497 183.186C326.568 182.386 327.23 181.215 327.485 179.678C327.718 178.167 327.448 176.948 326.684 176.031C325.916 175.114 324.75 174.653 323.191 174.653C322.073 174.653 321.045 174.876 320.101 175.316C319.158 175.756 318.278 176.434 317.467 177.34H314.954L317.292 162.537H332.202L331.677 165.574H320.26L318.866 174.478H317.891C318.659 173.545 319.597 172.846 320.7 172.363C321.802 171.886 323 171.648 324.278 171.648C325.815 171.648 327.13 171.982 328.222 172.644C329.314 173.307 330.114 174.256 330.612 175.491C331.11 176.726 331.222 178.204 330.946 179.922C330.713 181.48 330.172 182.826 329.324 183.955C328.476 185.084 327.373 185.953 326.027 186.557C324.675 187.162 323.128 187.464 321.384 187.464L321.378 187.458ZM343.445 187.14L347.357 162.526H350.532L356.643 183.928H355.562L368.48 162.526H371.623L367.711 187.14H364.43L367.536 167.45H368.724L356.712 187.14H354.513L348.719 167.45H349.869L346.763 187.14H343.445ZM373.574 187.14L377.485 162.526H381.116L377.204 187.14H373.574ZM383.003 187.14L386.915 162.526H390.546L387.122 184.029H399.165L398.709 187.135H382.998L383.003 187.14ZM402.271 187.14L406.183 162.526H409.814L406.39 184.029H418.433L417.977 187.135H402.266L402.271 187.14ZM421.544 187.14L425.456 162.526H429.087L425.175 187.14H421.544ZM432.156 174.33C432.575 171.749 433.364 169.554 434.53 167.747C435.697 165.945 437.191 164.572 439.015 163.629C440.843 162.685 442.906 162.214 445.211 162.214C447.75 162.214 449.812 162.765 451.408 163.873C453.003 164.98 454.111 166.523 454.742 168.5C455.373 170.477 455.473 172.745 455.054 175.305C454.657 177.886 453.872 180.081 452.696 181.888C451.519 183.69 450.024 185.073 448.211 186.027C446.399 186.981 444.326 187.458 441.999 187.458C439.487 187.458 437.425 186.907 435.819 185.799C434.213 184.697 433.099 183.155 432.485 181.172C431.87 179.195 431.758 176.911 432.151 174.33H432.156ZM435.893 174.68C435.591 176.704 435.633 178.432 436.015 179.863C436.396 181.294 437.117 182.397 438.177 183.16C439.237 183.928 440.605 184.31 442.28 184.31C444.793 184.31 446.817 183.478 448.354 181.814C449.892 180.149 450.878 177.865 451.323 174.955C451.646 172.952 451.609 171.24 451.201 169.803C450.793 168.372 450.067 167.27 449.017 166.507C447.968 165.738 446.611 165.357 444.93 165.357C442.418 165.357 440.404 166.178 438.893 167.816C437.377 169.459 436.38 171.743 435.887 174.674L435.893 174.68ZM458.166 187.14L462.078 162.526H464.871L476.707 182.529L475.976 182.354L479.119 162.526H482.506L478.594 187.14H475.838L463.97 167.137L464.702 167.312L461.558 187.14H458.171H458.166ZM501.53 187.14L494.618 162.526H498.355L504.149 184.103H502.924L515.561 162.526H519.473L504.705 187.14H501.53ZM518.397 187.14L522.309 162.526H525.102L536.938 182.529L536.207 182.354L539.35 162.526H542.737L538.825 187.14H536.069L524.196 167.137L524.927 167.312L521.784 187.14H518.397ZM544.582 187.14L548.494 162.526H556.662C559.593 162.526 561.952 163.04 563.733 164.063C565.514 165.086 566.749 166.549 567.433 168.447C568.116 170.344 568.254 172.628 567.835 175.305C567.205 179.264 565.641 182.222 563.139 184.188C560.637 186.155 557.335 187.14 553.243 187.14H544.582ZM548.7 184.103H553.344C556.535 184.103 559.021 183.351 560.817 181.851C562.609 180.351 563.738 178.061 564.205 174.992C564.719 171.78 564.316 169.406 563.001 167.869C561.687 166.332 559.434 165.563 556.243 165.563H551.637L548.706 184.103H548.7Z" fill="url(#paint0_linear_508_561)"/>
<defs>
<linearGradient id="paint0_linear_508_561" x1="0.235985" y1="94.0317" x2="859.507" y2="94.0317" gradientUnits="userSpaceOnUse">
<stop stop-color="#F9D16F"/>
<stop offset="0.07" stop-color="#EEBE5C"/>
<stop offset="0.18" stop-color="#E0A341"/>
<stop offset="0.25" stop-color="#DB9A38"/>
<stop offset="0.3" stop-color="#DDA044"/>
<stop offset="0.4" stop-color="#E5B365"/>
<stop offset="0.52" stop-color="#F1D19B"/>
<stop offset="0.64" stop-color="#FFF1D5"/>
<stop offset="0.66" stop-color="#FEEBC4"/>
<stop offset="0.68" stop-color="#FCE3AA"/>
<stop offset="0.71" stop-color="#FBDC94"/>
<stop offset="0.74" stop-color="#FAD783"/>
<stop offset="0.78" stop-color="#F9D377"/>
<stop offset="0.84" stop-color="#F9D170"/>
<stop offset="1" stop-color="#F9D16F"/>
</linearGradient>
</defs>
</svg>
