<svg width="1055" height="172" viewBox="0 0 1055 172" fill="none" xmlns="http://www.w3.org/2000/svg">
<g clip-path="url(#clip0_530_531)">
<path d="M7.86177 116.749L3.88702 112.21C2.42393 110.536 1.3705 108.745 0.736487 106.837C0.102479 104.929 -0.12674 102.596 0.0585858 99.8433L4.5064 99.6822C4.3796 101.61 4.49665 103.225 4.85267 104.519C5.20869 105.817 5.85245 106.993 6.7742 108.047L3.80899 107.769L8.78352 103.406L14.9919 110.497L7.86177 116.749ZM17.4158 108.374L13.441 103.835C11.9731 102.161 10.9245 100.37 10.2905 98.4621C9.6565 96.5539 9.42728 94.221 9.61261 91.4636L14.0604 91.3026C13.9336 93.2303 14.0507 94.8457 14.4067 96.139C14.7627 97.4372 15.4065 98.6134 16.3331 99.6676L13.3679 99.3894L18.3424 95.0263L24.5508 102.118L17.4207 108.369L17.4158 108.374ZM54.3541 111.629L24.1607 79.9117L32.7637 76.0659L55.3197 100.873L53.0227 101.903L50.4476 68.1548L56.539 65.4315L79.0951 90.2386L76.9589 91.1952L74.1205 57.5692L82.1871 53.9626L85.562 97.6812L78.7781 100.717L57.568 78.062L58.797 77.5105L61.1965 108.574L54.359 111.634L54.3541 111.629ZM103.465 91.6344L91.5168 52.1178L118.964 43.8065L121.018 50.5902L101.914 56.3735L104.709 65.6219L122.466 60.2437L124.534 67.0811L106.777 72.4593L109.762 82.3226L128.865 76.5393L130.918 83.3231L103.47 91.6344H103.465ZM136.609 81.8883L126.724 41.8006L135.585 39.6093L143.632 72.2446L161.701 67.7839L163.54 75.2314L136.609 81.8834V81.8883ZM168.617 74.1675L160.268 33.7333L169.207 31.8837L176.006 64.8069L194.231 61.0392L195.782 68.5501L168.617 74.1675ZM215.002 65.8269C211.735 66.393 208.608 66.5199 205.624 66.2026C202.639 65.8854 200.025 65.1924 197.781 64.1138L199.215 56.6127C200.674 57.2715 202.19 57.784 203.756 58.1451C205.321 58.5063 206.94 58.7112 208.613 58.76C210.286 58.8088 212.003 58.6771 213.773 58.3745C216.543 57.8962 218.436 57.13 219.465 56.0807C220.489 55.0314 220.889 53.8504 220.664 52.5424C220.459 51.3516 219.903 50.5024 219.006 50.0046C218.109 49.5068 216.582 49.2042 214.427 49.1066L207.384 48.9016C203.522 48.7796 200.508 47.9548 198.342 46.4273C196.177 44.8997 194.831 42.5961 194.294 39.5215C193.841 36.9056 194.143 34.5191 195.192 32.3522C196.245 30.1902 197.933 28.3503 200.269 26.8373C202.6 25.3244 205.458 24.2751 208.842 23.6895C211.725 23.1917 214.485 23.1282 217.124 23.504C219.762 23.8798 222.02 24.6753 223.893 25.8954L222.376 32.933C220.581 31.9374 218.655 31.2883 216.607 30.9906C214.553 30.6928 212.339 30.7514 209.954 31.1614C207.457 31.5957 205.619 32.3668 204.448 33.4844C203.273 34.6021 202.819 35.9246 203.088 37.4668C203.288 38.6235 203.853 39.4824 204.785 40.0535C205.716 40.6245 207.233 40.9466 209.345 41.0149L216.265 41.1808C220.206 41.2931 223.254 42.0886 225.41 43.5771C227.57 45.0656 228.906 47.3106 229.423 50.3121C229.862 52.8499 229.56 55.1827 228.526 57.3008C227.487 59.4238 225.819 61.2246 223.522 62.7132C221.225 64.2017 218.387 65.2363 215.002 65.822V65.8269ZM237.856 61.3466L232.033 20.4733L251.092 17.7549C255.686 17.1009 259.334 17.7159 262.026 19.5948C264.718 21.4786 266.337 24.3532 266.888 28.2185C267.435 32.0447 266.679 35.2609 264.625 37.8573C262.572 40.4585 259.246 42.0837 254.652 42.7426L244.63 44.1725L246.893 60.0582L237.856 61.3466ZM243.63 37.1545L252.496 35.8905C254.662 35.583 256.203 34.8705 257.13 33.7529C258.056 32.6353 258.393 31.2053 258.144 29.4679C257.895 27.7304 257.173 26.4615 255.979 25.666C254.779 24.8705 253.101 24.6265 250.941 24.934L242.074 26.198L243.635 37.1545H243.63ZM276.72 55.9099L271.98 14.895L290.586 12.7427C295.199 12.2108 298.891 12.894 301.661 14.7925C304.431 16.691 306.046 19.5997 306.499 23.5187C306.797 26.0809 306.48 28.3454 305.548 30.3219C304.617 32.2985 303.154 33.8993 301.154 35.134C299.155 36.3688 296.682 37.1545 293.736 37.4961L294.287 36.1345L296.672 35.8612C298.34 35.6709 299.871 35.9442 301.276 36.686C302.676 37.4278 303.905 38.604 304.953 40.2096L312.474 51.7811L302.476 52.9377L294.614 40.4634C294.019 39.3946 293.205 38.7309 292.176 38.4771C291.147 38.2233 289.991 38.1696 288.713 38.316L283.948 38.8675L285.796 54.8655L276.725 55.9148L276.72 55.9099ZM283.192 32.3473L291.156 31.4249C293.522 31.1516 295.268 30.4586 296.394 29.3459C297.521 28.2331 297.979 26.7251 297.755 24.8266C297.535 22.9281 296.75 21.5714 295.399 20.7661C294.048 19.9608 292.19 19.6924 289.83 19.9657L281.866 20.8881L283.187 32.3473H283.192ZM317.736 51.3467L313.707 10.2537L322.793 9.36061L326.822 50.4536L317.736 51.3467ZM334.981 49.6093L331.64 8.45774L338.405 7.90625L363.053 34.5191L361.478 34.646L359.171 6.21763L367.627 5.5295L370.968 46.681L364.204 47.2325L339.614 20.6148L341.131 20.4928L343.438 48.9211L334.981 49.6093ZM399.528 45.5683C394.817 45.8465 390.803 45.212 387.487 43.6698C384.17 42.1276 381.6 39.8143 379.781 36.7348C377.957 33.6553 376.923 29.9901 376.669 25.7441C376.411 21.381 377.074 17.545 378.659 14.2459C380.244 10.9467 382.658 8.32108 385.906 6.36892C389.155 4.41676 393.115 3.30403 397.787 3.02585C400.786 2.85015 403.449 3.07465 405.77 3.69934C408.092 4.32404 410.155 5.29036 411.95 6.59342L409.443 13.8408C408.145 13.016 406.931 12.3767 405.809 11.9131C404.688 11.4494 403.537 11.1468 402.357 11.0004C401.176 10.854 399.825 10.8247 398.309 10.9175C394.022 11.1712 390.871 12.5182 388.847 14.9682C386.823 17.4133 385.941 20.8393 386.199 25.2463C386.458 29.6143 387.662 32.8646 389.823 35.0071C391.978 37.1496 395.221 38.0915 399.547 37.8378C400.986 37.7548 402.459 37.5303 403.961 37.1643C405.463 36.8031 406.941 36.3053 408.389 35.6709L406.96 39.2775L406.307 28.1697L397.25 28.7016L396.87 22.2107L413.461 21.2346L414.651 41.4639C412.647 42.601 410.306 43.5283 407.633 44.2555C404.961 44.9778 402.259 45.4219 399.533 45.583L399.528 45.5683ZM448.395 42.6742L447.298 8.84329L434.193 9.26788L433.95 1.83503L469.279 0.688137L469.522 8.12099L456.418 8.54558L457.515 42.3765L448.39 42.6742H448.395ZM465.952 42.0251L484.231 0.429475L491.781 0.302585L511.655 41.2687L502.408 41.42L497.243 30.0242L500.852 32.484L476.336 32.889L479.92 30.3122L475.136 41.8738L465.948 42.0251H465.952ZM488.138 9.97066L480.886 28.0135L479.267 25.8124L497.697 25.5099L496.39 27.7548L488.367 9.96578H488.133L488.138 9.97066ZM515.049 41.2882L515.2 0L524.33 0.0341628L524.208 33.6504L542.819 33.7187L542.789 41.3907L515.049 41.2882ZM548.218 41.3907L548.837 0.107369L577.509 0.536844L577.401 7.62319L557.445 7.32548L557.298 16.9887L575.851 17.2669L575.743 24.4118L557.191 24.1336L557.035 34.441L576.992 34.7387L576.884 41.825L548.213 41.3956L548.218 41.3907ZM583.093 41.9471L584.439 0.683256L591.223 0.902874L612.696 30.1414L611.116 30.0877L612.048 1.58125L620.529 1.85943L619.183 43.1232L612.399 42.9036L590.984 13.67L592.505 13.7188L591.574 42.2252L583.093 41.9471ZM636.871 43.9871L638.608 10.1805L625.518 9.50702L625.898 2.07905L661.198 3.89456L660.817 11.3225L647.728 10.649L645.991 44.4556L636.871 43.9871ZM680.311 46.5834L683.305 5.4026L692.411 6.06634L689.416 47.2472L680.311 46.5834ZM697.605 47.7987L701.267 6.67151L708.032 7.27668L727.827 37.6767L726.252 37.5352L728.783 9.12635L737.235 9.87793L733.572 51.0051L726.808 50.3999L707.071 20.0048L708.588 20.1414L706.056 48.5502L697.605 47.7987ZM761.41 54.7386C757.031 54.2408 753.368 52.9426 750.427 50.8391C747.486 48.7357 745.35 46.0075 744.024 42.6547C742.697 39.3019 742.278 35.4708 742.766 31.1662C743.253 26.8617 744.521 23.2307 746.565 20.283C748.608 17.3303 751.3 15.1634 754.636 13.7725C757.972 12.3816 761.834 11.9375 766.214 12.4353C769.043 12.7574 771.579 13.4455 773.812 14.5046C776.046 15.5636 777.894 16.9448 779.353 18.6383L775.69 25.4708C774.066 23.87 772.481 22.689 770.94 21.9228C769.399 21.1565 767.619 20.6636 765.6 20.4342C761.761 19.9999 758.694 20.8003 756.402 22.8354C754.109 24.8754 752.724 28.0086 752.242 32.2351C751.764 36.4664 752.407 39.8387 754.187 42.357C755.963 44.8753 758.772 46.3541 762.605 46.7884C764.619 47.0178 766.468 46.9299 768.141 46.5346C769.813 46.1344 771.623 45.3389 773.564 44.1432L775.602 51.6249C773.807 52.9133 771.701 53.8357 769.282 54.3823C766.863 54.9338 764.239 55.0461 761.41 54.7239V54.7386ZM798.675 59.5263C792.686 58.682 788.434 56.5639 785.917 53.172C783.401 49.7801 782.557 45.1486 783.386 39.2726L786.736 15.4953L795.778 16.7739L792.418 40.6098C791.955 43.8943 792.306 46.4907 793.476 48.3892C794.647 50.2877 796.739 51.4541 799.753 51.8787C802.689 52.2935 805.001 51.7518 806.688 50.2535C808.376 48.7552 809.453 46.3638 809.917 43.0793L813.277 19.2434L822.202 20.5026L818.851 44.2799C818.022 50.1559 815.92 54.3726 812.545 56.9348C809.171 59.497 804.547 60.3608 798.675 59.5311V59.5263ZM824.114 62.6058L831.19 21.9276L849.928 25.1926C854.385 25.9686 857.662 27.5108 859.755 29.8193C861.847 32.1277 862.613 34.9144 862.042 38.1843C861.623 40.6049 860.54 42.5376 858.804 43.9822C857.068 45.4268 854.902 46.2125 852.303 46.3589L852.464 45.4365C855.297 46.4468 857.365 47.9451 858.662 49.9363C859.96 51.9275 860.369 54.2847 859.896 57.0177C859.267 60.6341 857.497 63.2256 854.59 64.802C851.683 66.3735 847.982 66.7688 843.485 65.9879L824.114 62.6107V62.6058ZM833.868 57.4082L843.553 59.0968C845.782 59.4872 847.567 59.3603 848.903 58.721C850.24 58.0817 851.074 56.842 851.396 54.9924C851.722 53.1085 851.361 51.6493 850.318 50.6146C849.269 49.58 847.63 48.8675 845.402 48.4819L835.716 46.7933L833.868 57.4082ZM836.867 40.1559L845.402 41.6445C847.747 42.0544 849.547 41.9324 850.81 41.2784C852.073 40.6293 852.849 39.4532 853.146 37.7597C853.434 36.1052 853.093 34.7582 852.127 33.7187C851.157 32.6792 849.503 31.952 847.157 31.5469L838.623 30.0584L836.867 40.1559ZM858.911 68.555L886.154 32.2009L893.533 33.7968L903.589 78.2084L894.552 76.2563L892.109 63.9869L895.069 67.2031L871.099 62.025L875.176 60.3315L867.894 70.5023L858.911 68.5599V68.555ZM887.788 42.3814L876.629 58.3013L875.556 55.7928L893.577 59.6873L891.792 61.576L888.022 42.4253L887.792 42.3765L887.788 42.3814ZM911.334 80.4437L919.937 47.7059L907.257 44.3726L909.149 37.1789L943.337 46.1735L941.444 53.3672L928.764 50.0339L920.161 82.7716L911.334 80.4485V80.4437ZM940.093 66.515C941.464 62.4447 943.424 59.1602 945.98 56.6663C948.531 54.1676 951.53 52.5766 954.973 51.8835C958.416 51.1905 962.118 51.5126 966.073 52.8499C970.028 54.1871 973.169 56.1734 975.49 58.8088C977.812 61.4491 979.251 64.5384 979.807 68.0865C980.363 71.6345 979.958 75.4217 978.597 79.4529C977.212 83.5574 975.227 86.8565 972.637 89.3406C970.048 91.8248 967.029 93.4255 963.581 94.1332C960.128 94.8457 956.426 94.5285 952.471 93.1962C948.516 91.8589 945.39 89.8677 943.093 87.2177C940.796 84.5676 939.381 81.4637 938.85 77.9059C938.318 74.348 938.733 70.5511 940.093 66.5199V66.515ZM949.13 69.5701C947.77 73.6013 947.545 77.042 948.462 79.8824C949.379 82.7228 951.535 84.7189 954.934 85.8707C958.26 86.9932 961.177 86.7101 963.683 85.0215C966.185 83.3329 968.121 80.4729 969.477 76.4417C970.848 72.3715 971.052 68.9308 970.087 66.1099C969.121 63.2939 966.956 61.3125 963.596 60.1802C960.191 59.0333 957.275 59.292 954.836 60.9611C952.398 62.6302 950.496 65.4999 949.125 69.5701H949.13ZM977.422 101.263L995.671 64.2358L1012.47 72.5276C1016.63 74.5823 1019.36 77.1592 1020.66 80.2631C1021.96 83.3621 1021.74 86.6808 1020 90.2191C1018.86 92.5275 1017.36 94.265 1015.51 95.4167C1013.66 96.5734 1011.56 97.1249 1009.21 97.0761C1006.86 97.0273 1004.36 96.3489 1001.7 95.0361L1002.9 94.1918L1005.05 95.2557C1006.55 95.9975 1007.69 97.0614 1008.47 98.4475C1009.24 99.8335 1009.63 101.483 1009.65 103.406L1009.7 117.208L1000.67 112.752L1000.83 98.0033C1000.9 96.7832 1000.58 95.7828 999.856 95.0117C999.129 94.2406 998.188 93.5671 997.032 92.9961L992.726 90.8731L985.605 105.319L977.417 101.278L977.422 101.263ZM995.628 84.9776L1002.82 88.5256C1004.95 89.5798 1006.79 89.9458 1008.35 89.6237C1009.9 89.3016 1011.1 88.2816 1011.94 86.5637C1012.78 84.8507 1012.86 83.2841 1012.17 81.8736C1011.47 80.4632 1010.05 79.2284 1007.92 78.1792L1000.73 74.6311L995.628 84.9776ZM1027.52 101.2L1036.96 86.3782L1044.83 92.8448L1032.13 104.992L1027.51 101.2H1027.52ZM1037.69 109.565L1047.13 94.7432L1055 101.21L1042.3 113.357L1037.69 109.565H1037.69ZM332.221 119.077C328.919 119.384 325.793 119.262 322.842 118.711C319.892 118.159 317.341 117.261 315.185 116.007L317.209 108.643C318.614 109.414 320.082 110.043 321.613 110.531C323.144 111.019 324.744 111.351 326.407 111.527C328.07 111.708 329.792 111.712 331.582 111.546C334.381 111.288 336.332 110.678 337.434 109.711C338.541 108.745 339.034 107.603 338.912 106.281C338.8 105.075 338.317 104.187 337.463 103.621C336.61 103.055 335.108 102.635 332.967 102.362L325.958 101.6C322.115 101.171 319.179 100.112 317.141 98.4182C315.102 96.7247 313.942 94.3235 313.654 91.2147C313.41 88.5695 313.898 86.2123 315.117 84.1381C316.336 82.0639 318.165 80.3656 320.613 79.043C323.057 77.7204 325.988 76.9005 329.407 76.5833C332.318 76.3148 335.078 76.471 337.678 77.0518C340.277 77.6326 342.462 78.6086 344.237 79.9751L342.17 86.8712C340.458 85.734 338.59 84.9385 336.571 84.4798C334.552 84.021 332.333 83.899 329.928 84.1235C327.402 84.3577 325.51 84.9824 324.256 86.0024C322.998 87.0224 322.442 88.306 322.584 89.8628C322.691 91.0293 323.188 91.937 324.066 92.5763C324.949 93.2206 326.436 93.6598 328.538 93.8989L335.42 94.6163C339.336 95.0409 342.316 96.0756 344.35 97.73C346.383 99.3845 347.539 101.727 347.822 104.763C348.061 107.33 347.578 109.628 346.374 111.659C345.169 113.694 343.364 115.358 340.96 116.661C338.551 117.964 335.639 118.769 332.221 119.087V119.077ZM375.401 115.578C371.002 115.895 367.169 115.29 363.887 113.762C360.609 112.235 358.01 109.946 356.089 106.895C354.167 103.845 353.055 100.156 352.743 95.8316C352.431 91.5075 353.011 87.7106 354.479 84.4358C355.947 81.1611 358.195 78.5354 361.219 76.554C364.248 74.5774 367.959 73.4305 372.353 73.1133C375.192 72.9083 377.811 73.1231 380.2 73.7526C382.595 74.3822 384.658 75.4022 386.404 76.8029L384.058 84.1918C382.166 82.918 380.395 82.0493 378.737 81.5808C377.079 81.1123 375.24 80.9512 373.217 81.0976C369.364 81.3758 366.496 82.7228 364.618 85.1484C362.741 87.5739 361.951 90.9072 362.253 95.1532C362.555 99.3991 363.814 102.596 366.018 104.748C368.227 106.9 371.256 107.837 375.109 107.559C377.133 107.413 378.932 106.993 380.503 106.29C382.073 105.587 383.707 104.475 385.399 102.942L388.774 109.921C387.248 111.517 385.341 112.81 383.068 113.796C380.79 114.782 378.23 115.378 375.392 115.578H375.401ZM395.241 113.572L393.154 72.3373L402.274 71.8737L403.112 88.428L421.991 87.4714L421.152 70.9171L430.331 70.4535L432.418 111.688L423.24 112.152L422.372 95.0117L403.493 95.9682L404.361 113.108L395.241 113.572ZM438.719 90.7316C438.593 86.4368 439.29 82.6789 440.816 79.4481C442.338 76.2172 444.596 73.6843 447.591 71.8346C450.585 69.985 454.16 69.004 458.335 68.882C462.509 68.76 466.143 69.5311 469.235 71.1953C472.327 72.8595 474.751 75.2607 476.501 78.3939C478.252 81.5271 479.189 85.2167 479.315 89.4724C479.442 93.8062 478.725 97.5836 477.16 100.814C475.594 104.045 473.322 106.593 470.332 108.457C467.342 110.321 463.763 111.317 459.588 111.439C455.413 111.561 451.79 110.78 448.717 109.096C445.64 107.408 443.24 104.992 441.504 101.839C439.773 98.6866 438.841 94.9873 438.719 90.7316ZM448.254 90.4485C448.381 94.7042 449.366 98.0033 451.209 100.351C453.053 102.698 455.769 103.821 459.359 103.713C462.87 103.611 465.504 102.332 467.264 99.8774C469.025 97.4226 469.844 94.0697 469.717 89.814C469.591 85.5242 468.586 82.2201 466.704 79.9117C464.821 77.6033 462.104 76.5052 458.554 76.6077C454.965 76.715 452.321 77.9742 450.614 80.3851C448.907 82.8009 448.122 86.1537 448.249 90.4436L448.254 90.4485ZM486.894 110.126L486.402 68.8429L495.531 68.7356L495.931 102.352L514.542 102.127L514.635 109.799L486.894 110.131V110.126ZM514.464 109.731L533.611 68.5257L541.161 68.5599L560.171 109.936L550.924 109.897L546.003 98.3938L549.564 100.927L525.042 100.819L528.68 98.3157L523.652 109.77L514.464 109.731ZM537.313 78.1499L529.685 96.0365L528.115 93.8013L546.55 93.8843L545.194 96.1049L537.547 78.1499H537.313ZM563.556 110.043L564.512 68.7649L583.234 69.1992C587.877 69.3066 591.437 70.4925 593.925 72.757C596.407 75.0215 597.607 78.1255 597.514 82.0688C597.456 84.6457 596.826 86.8467 595.636 88.672C594.442 90.5022 592.769 91.8833 590.623 92.8301C588.472 93.7769 585.917 94.2162 582.951 94.1478L583.683 92.874L586.082 92.9277C587.76 92.9668 589.243 93.4499 590.525 94.3772C591.813 95.3045 592.862 96.6368 593.681 98.3743L599.538 110.868L589.477 110.634L583.405 97.1932C582.961 96.0512 582.249 95.285 581.264 94.8896C580.279 94.4943 579.143 94.2845 577.855 94.2552L573.056 94.1429L572.685 110.243L563.561 110.034L563.556 110.043ZM573.207 87.5935L581.225 87.7789C583.605 87.8326 585.429 87.3885 586.702 86.4417C587.97 85.4949 588.628 84.0649 588.672 82.1518C588.716 80.2387 588.126 78.7892 586.902 77.8034C585.678 76.8175 583.873 76.3002 581.493 76.2416L573.475 76.0562L573.207 87.5886V87.5935ZM619.509 112.332C616.198 112.196 613.116 111.659 610.263 110.722C607.41 109.785 605 108.55 603.035 107.022L606.02 99.9946C607.307 100.946 608.678 101.766 610.136 102.449C611.589 103.133 613.13 103.679 614.754 104.075C616.378 104.475 618.085 104.709 619.88 104.782C622.689 104.899 624.703 104.553 625.927 103.743C627.152 102.933 627.79 101.864 627.844 100.541C627.893 99.3308 627.532 98.3889 626.761 97.7105C625.991 97.0322 624.562 96.4172 622.475 95.8657L615.632 94.1771C611.882 93.2401 609.112 91.8004 607.317 89.8482C605.522 87.896 604.688 85.3631 604.82 82.2445C604.927 79.5945 605.727 77.3202 607.21 75.4266C608.692 73.533 610.736 72.0933 613.33 71.1075C615.93 70.1216 618.944 69.697 622.372 69.8386C625.298 69.9606 628.005 70.4828 630.507 71.4052C633.009 72.3276 635.043 73.5867 636.618 75.1728L633.653 81.7321C632.107 80.3802 630.361 79.3407 628.42 78.6135C626.479 77.8863 624.299 77.4764 621.88 77.3788C619.344 77.2763 617.388 77.6423 616.008 78.4866C614.627 79.3309 613.901 80.5315 613.837 82.0884C613.789 83.2597 614.159 84.2211 614.949 84.9776C615.739 85.734 617.159 86.3685 619.207 86.8809L625.932 88.5061C629.761 89.4431 632.57 90.8682 634.365 92.7813C636.159 94.6944 636.998 97.1688 636.871 100.209C636.764 102.786 635.979 104.997 634.521 106.852C633.058 108.706 631.048 110.117 628.488 111.088C625.927 112.059 622.933 112.469 619.504 112.327L619.509 112.332ZM642.909 112.693L645.421 71.4832L654.536 72.0396L653.526 88.5842L672.395 89.7359L673.405 73.1914L682.574 73.7526L680.062 114.963L670.893 114.401L671.937 97.2762L653.068 96.1244L652.024 113.25L642.914 112.693H642.909ZM688.231 115.636L691.396 74.47L700.501 75.1728L697.336 116.339L688.231 115.636ZM705.535 116.944L709.319 75.8317L728.491 77.5984C733.114 78.023 736.518 79.4676 738.703 81.9224C740.888 84.3773 741.8 87.5495 741.444 91.4392C741.088 95.2898 739.615 98.2376 737.016 100.292C734.416 102.347 730.807 103.162 726.184 102.732L716.103 101.805L714.63 117.784L705.539 116.944H705.535ZM716.747 94.7481L725.662 95.568C727.837 95.7681 729.505 95.4314 730.661 94.5578C731.817 93.6842 732.48 92.3714 732.641 90.6242C732.802 88.877 732.392 87.4763 731.412 86.4222C730.432 85.3729 728.851 84.7433 726.676 84.5432L717.761 83.7233L716.747 94.7432V94.7481ZM323.515 172C321.525 172 319.862 171.654 318.536 170.956C317.209 170.258 316.273 169.204 315.727 167.788C315.18 166.373 315.068 164.616 315.39 162.517L317.541 149.047H320.882L318.731 162.547C318.389 164.733 318.609 166.373 319.389 167.466C320.169 168.559 321.652 169.106 323.837 169.106C325.763 169.106 327.295 168.593 328.431 167.564C329.567 166.534 330.314 164.855 330.679 162.517L332.83 149.047H336.107L333.923 162.708C333.601 164.831 333.001 166.578 332.123 167.949C331.245 169.321 330.089 170.341 328.655 171.004C327.222 171.668 325.505 172 323.515 172ZM337.683 171.712L341.282 149.047H350.568C353.094 149.047 354.938 149.677 356.093 150.926C357.249 152.176 357.644 153.889 357.283 156.056C357.088 157.364 356.635 158.476 355.918 159.399C355.201 160.321 354.265 161.029 353.109 161.522C351.953 162.015 350.582 162.264 348.997 162.264H342.54L341.028 171.717H337.688L337.683 171.712ZM342.95 159.594H348.827C350.368 159.594 351.572 159.277 352.441 158.647C353.309 158.018 353.84 157.076 354.03 155.836C354.245 154.484 354.016 153.464 353.338 152.766C352.665 152.068 351.568 151.722 350.046 151.722H344.169L342.95 159.599V159.594ZM372.826 171.712L375.977 151.844H368.232L368.681 149.047H387.506L387.057 151.844H379.318L376.167 171.712H372.826ZM386.701 159.916C387.087 157.539 387.813 155.519 388.886 153.855C389.959 152.195 391.335 150.931 393.012 150.063C394.695 149.194 396.592 148.76 398.713 148.76C401.049 148.76 402.947 149.267 404.415 150.287C405.883 151.307 406.902 152.727 407.482 154.548C408.063 156.368 408.155 158.457 407.77 160.814C407.404 163.196 406.682 165.211 405.6 166.876C404.517 168.535 403.142 169.809 401.474 170.687C399.801 171.566 397.899 172.005 395.758 172.005C393.446 172.005 391.549 171.497 390.071 170.477C388.594 169.462 387.569 168.042 387.004 166.217C386.438 164.396 386.336 162.293 386.697 159.916H386.701ZM390.14 160.238C389.862 162.103 389.901 163.694 390.252 165.011C390.603 166.329 391.271 167.344 392.242 168.047C393.212 168.75 394.475 169.106 396.016 169.106C398.328 169.106 400.191 168.34 401.605 166.807C403.02 165.275 403.927 163.171 404.337 160.492C404.639 158.647 404.6 157.071 404.224 155.753C403.849 154.435 403.181 153.42 402.215 152.718C401.249 152.01 400.001 151.658 398.455 151.658C396.143 151.658 394.29 152.415 392.9 153.923C391.505 155.436 390.588 157.539 390.135 160.238H390.14ZM426.278 172C424.737 172 423.293 171.771 421.957 171.307C420.616 170.848 419.543 170.189 418.729 169.33L420.011 166.793C420.909 167.608 421.889 168.208 422.952 168.593C424.015 168.979 425.152 169.174 426.371 169.174C427.892 169.174 429.112 168.881 430.033 168.291C430.955 167.7 431.511 166.754 431.706 165.446C432.092 162.874 430.702 161.59 427.532 161.59H423.932L424.352 158.891H427.595C428.965 158.891 430.116 158.564 431.048 157.91C431.979 157.256 432.53 156.329 432.701 155.128C432.896 153.991 432.652 153.118 431.979 152.508C431.306 151.898 430.272 151.59 428.878 151.59C427.634 151.59 426.478 151.785 425.41 152.171C424.337 152.556 423.289 153.167 422.26 154.001L421.167 151.463C422.216 150.585 423.454 149.916 424.878 149.453C426.303 148.994 427.766 148.76 429.263 148.76C431.662 148.76 433.457 149.306 434.642 150.399C435.832 151.493 436.276 153.015 435.974 154.963C435.783 156.227 435.218 157.339 434.286 158.306C433.355 159.272 432.184 159.926 430.77 160.268L430.804 159.882C432.301 160.141 433.423 160.799 434.159 161.859C434.896 162.918 435.14 164.255 434.881 165.86C434.559 167.876 433.633 169.404 432.101 170.443C430.57 171.483 428.629 172 426.268 172H426.278ZM445.742 172C442.957 172 441.021 170.951 439.929 168.847C438.836 166.749 438.588 163.767 439.188 159.911C439.807 156.075 440.929 153.259 442.543 151.458C444.157 149.658 446.23 148.76 448.761 148.76C451.502 148.76 453.433 149.78 454.56 151.815C455.686 153.85 455.935 156.832 455.316 160.751C454.716 164.567 453.584 167.393 451.926 169.238C450.268 171.082 448.205 172 445.742 172ZM445.937 169.204C447.522 169.204 448.829 168.52 449.858 167.149C450.887 165.777 451.648 163.537 452.141 160.429C452.463 158.306 452.546 156.593 452.399 155.285C452.248 153.977 451.853 153.025 451.209 152.425C450.566 151.824 449.688 151.527 448.576 151.527C446.971 151.527 445.664 152.2 444.655 153.552C443.645 154.904 442.899 157.12 442.406 160.204C442.065 162.303 441.972 164.021 442.133 165.348C442.294 166.675 442.694 167.652 443.338 168.271C443.982 168.891 444.85 169.204 445.937 169.204ZM464.021 162.615C462.202 162.615 460.846 161.976 459.959 160.702C459.071 159.428 458.798 157.642 459.139 155.348C459.481 153.269 460.227 151.654 461.373 150.492C462.519 149.335 463.938 148.755 465.631 148.755C467.474 148.755 468.825 149.384 469.693 150.653C470.561 151.922 470.81 153.698 470.449 155.987C470.127 158.042 469.405 159.662 468.279 160.843C467.157 162.024 465.738 162.61 464.021 162.61V162.615ZM464.119 160.429C465.06 160.429 465.84 160.043 466.465 159.272C467.084 158.501 467.523 157.334 467.781 155.768C468.015 154.118 467.928 152.903 467.508 152.117C467.089 151.336 466.411 150.946 465.47 150.946C464.528 150.946 463.787 151.322 463.187 152.068C462.587 152.82 462.158 153.977 461.905 155.538C461.646 157.188 461.724 158.418 462.129 159.218C462.534 160.023 463.202 160.424 464.119 160.424V160.429ZM465.114 171.712H462.129L478.959 149.047H481.978L465.114 171.712ZM478.477 172C476.633 172 475.272 171.361 474.395 170.087C473.517 168.813 473.258 167.027 473.624 164.733C473.965 162.654 474.702 161.034 475.823 159.877C476.95 158.72 478.355 158.14 480.047 158.14C481.89 158.14 483.256 158.779 484.144 160.053C485.031 161.327 485.295 163.103 484.929 165.372C484.587 167.432 483.851 169.047 482.729 170.228C481.603 171.409 480.188 171.995 478.472 171.995L478.477 172ZM478.608 169.818C479.549 169.818 480.325 169.433 480.939 168.662C481.549 167.891 481.973 166.724 482.207 165.158C482.485 163.528 482.412 162.317 481.983 161.527C481.554 160.736 480.871 160.336 479.925 160.336C478.979 160.336 478.238 160.712 477.628 161.463C477.018 162.215 476.584 163.371 476.326 164.933C476.092 166.602 476.18 167.837 476.599 168.628C477.018 169.418 477.686 169.818 478.608 169.818ZM497.721 159.916C498.106 157.539 498.833 155.519 499.906 153.855C500.979 152.195 502.354 150.931 504.032 150.063C505.715 149.194 507.612 148.76 509.733 148.76C512.069 148.76 513.966 149.267 515.434 150.287C516.902 151.307 517.922 152.727 518.502 154.548C519.082 156.368 519.175 158.457 518.79 160.814C518.424 163.196 517.702 165.211 516.62 166.876C515.537 168.535 514.161 169.809 512.494 170.687C510.826 171.566 508.919 172.005 506.778 172.005C504.466 172.005 502.569 171.497 501.091 170.477C499.613 169.462 498.589 168.042 498.024 166.217C497.458 164.396 497.355 162.293 497.716 159.916H497.721ZM501.155 160.238C500.877 162.103 500.916 163.694 501.267 165.011C501.618 166.329 502.281 167.344 503.257 168.047C504.232 168.755 505.49 169.106 507.031 169.106C509.343 169.106 511.206 168.34 512.62 166.807C514.035 165.275 514.942 163.171 515.352 160.492C515.649 158.647 515.615 157.071 515.239 155.753C514.864 154.435 514.196 153.42 513.23 152.718C512.264 152.01 511.016 151.658 509.47 151.658C507.158 151.658 505.305 152.415 503.915 153.923C502.52 155.436 501.603 157.539 501.15 160.238H501.155ZM521.653 171.712L525.252 149.047H539.771L539.322 151.717H528.144L527.017 158.984H537.459L537.039 161.654H526.598L524.993 171.717H521.653V171.712ZM553.87 171.712L557.021 151.844H549.281L549.729 149.047H568.555L568.106 151.844H560.366L557.216 171.712H553.875H553.87ZM577.514 172C575.524 172 573.861 171.654 572.534 170.956C571.208 170.258 570.271 169.204 569.725 167.788C569.179 166.373 569.067 164.616 569.389 162.517L571.539 149.047H574.88L572.729 162.547C572.388 164.733 572.607 166.373 573.388 167.466C574.168 168.559 575.651 169.106 577.835 169.106C579.762 169.106 581.293 168.593 582.43 167.564C583.566 166.534 584.312 164.855 584.678 162.517L586.829 149.047H590.106L587.921 162.708C587.599 164.831 586.999 166.578 586.122 167.949C585.244 169.321 584.088 170.341 582.654 171.004C581.22 171.668 579.503 172 577.514 172ZM591.681 171.712L595.28 149.047H598.621L595.022 171.712H591.681ZM605.781 171.712L608.931 151.844H601.191L601.64 149.047H620.465L620.017 151.844H612.272L609.126 171.712H605.786H605.781ZM619.978 171.712L623.577 149.047H626.917L623.318 171.712H619.978ZM629.746 159.916C630.131 157.539 630.858 155.519 631.931 153.855C633.004 152.195 634.379 150.931 636.057 150.063C637.735 149.194 639.637 148.76 641.758 148.76C644.094 148.76 645.991 149.267 647.459 150.287C648.927 151.307 649.947 152.727 650.527 154.548C651.107 156.368 651.2 158.457 650.815 160.814C650.449 163.196 649.727 165.211 648.644 166.876C647.562 168.535 646.187 169.809 644.519 170.687C642.851 171.566 640.944 172.005 638.803 172.005C636.491 172.005 634.594 171.497 633.116 170.477C631.638 169.462 630.614 168.042 630.049 166.217C629.483 164.396 629.38 162.293 629.741 159.916H629.746ZM633.18 160.238C632.902 162.103 632.941 163.694 633.292 165.011C633.643 166.329 634.306 167.344 635.281 168.047C636.257 168.755 637.515 169.106 639.056 169.106C641.368 169.106 643.231 168.34 644.645 166.807C646.06 165.275 646.967 163.171 647.376 160.492C647.674 158.647 647.64 157.071 647.264 155.753C646.889 154.435 646.221 153.42 645.255 152.718C644.289 152.01 643.041 151.658 641.495 151.658C639.183 151.658 637.33 152.415 635.935 153.923C634.54 155.431 633.623 157.539 633.175 160.238H633.18ZM653.677 171.712L657.277 149.047H659.847L670.737 167.466L670.064 167.305L672.956 149.047H676.073L672.473 171.712H669.937L659.018 153.293L659.691 153.454L656.799 171.712H653.682H653.677ZM686.344 171.712L689.943 149.047H704.462L704.013 151.717H692.835L691.708 158.984H702.15L701.73 161.654H691.289L689.684 171.717H686.344V171.712ZM704.559 171.712L708.158 149.047H722.999L722.58 151.717H710.953L709.831 158.852H720.721L720.302 161.551H709.412L708.222 169.008H719.819L719.4 171.707H704.559V171.712ZM723.545 171.712L727.144 149.047H741.985L741.566 151.717H729.939L728.812 158.852H739.703L739.283 161.551H728.393L727.203 169.008H738.8L738.381 171.707H723.54L723.545 171.712Z" fill="url(#paint0_linear_530_531)"/>
</g>
<defs>
<linearGradient id="paint0_linear_530_531" x1="6.19713e-05" y1="86.0025" x2="1055" y2="86.0025" gradientUnits="userSpaceOnUse">
<stop stop-color="#F9D16F"/>
<stop offset="0.07" stop-color="#EEBE5C"/>
<stop offset="0.18" stop-color="#E0A341"/>
<stop offset="0.25" stop-color="#DB9A38"/>
<stop offset="0.3" stop-color="#DDA044"/>
<stop offset="0.4" stop-color="#E5B365"/>
<stop offset="0.52" stop-color="#F1D19B"/>
<stop offset="0.64" stop-color="#FFF1D5"/>
<stop offset="0.66" stop-color="#FEEBC4"/>
<stop offset="0.68" stop-color="#FCE3AA"/>
<stop offset="0.71" stop-color="#FBDC94"/>
<stop offset="0.74" stop-color="#FAD783"/>
<stop offset="0.78" stop-color="#F9D377"/>
<stop offset="0.84" stop-color="#F9D170"/>
<stop offset="1" stop-color="#F9D16F"/>
</linearGradient>
<clipPath id="clip0_530_531">
<rect width="1055" height="172" fill="white"/>
</clipPath>
</defs>
</svg>
