<svg width="461" height="54" viewBox="0 0 461 54" fill="none" xmlns="http://www.w3.org/2000/svg">
<path d="M6.33368 50.8513L0.18927 29.7681L4.84814 28.4079L7.31627 36.8702L16.9633 34.0512L14.4977 25.5888L19.1851 24.2182L25.3295 45.2989L20.6421 46.6694L18.0884 37.9086L8.44145 40.7276L10.9951 49.4885L6.33628 50.8513H6.33368ZM29.348 44.341L24.474 22.9281L34.3335 20.6775C36.6798 20.1428 38.6009 20.2259 40.102 20.9268C41.6031 21.6276 42.5468 22.8399 42.9383 24.5609C43.2287 25.8354 43.0965 27.0062 42.5391 28.0704C41.9843 29.1347 41.082 29.968 39.8376 30.5702L39.7261 30.0848C41.3231 29.9965 42.6428 30.308 43.6876 31.0167C44.7324 31.7253 45.4168 32.8 45.7435 34.2381C46.1765 36.1408 45.842 37.7788 44.7376 39.1468C43.6357 40.5173 41.9013 41.4726 39.5343 42.0125L29.3428 44.3384L29.348 44.341ZM30.9995 30.7052L35.4898 29.6798C36.7239 29.3995 37.5821 28.9686 38.0669 28.3897C38.5517 27.8109 38.6943 27.0762 38.4895 26.1833C38.2924 25.3137 37.8491 24.7218 37.1595 24.4103C36.4724 24.0988 35.5106 24.0833 34.2765 24.3636L29.7862 25.389L30.9969 30.7052H30.9995ZM33.0658 39.7854L38.1628 38.6224C39.3346 38.355 40.185 37.9267 40.7113 37.3375C41.2376 36.7482 41.388 35.9695 41.1676 34.9961C40.942 34.0045 40.465 33.3633 39.7391 33.07C39.0132 32.7792 38.0643 32.7663 36.8898 33.0336L31.7928 34.1966L33.0658 39.7854ZM58.8153 38.0383L55.1312 16.3893L59.9145 15.5742L61.5193 25.0022L61.5816 24.9918L68.8408 14.0531L74.5134 13.0848L65.556 26.2741L65.2527 24.3039L78.8741 34.6197L73.0174 35.6191L61.9808 27.328L61.9186 27.3384L63.6012 37.2259L58.8179 38.0435L58.8153 38.0383ZM79.67 34.5366L76.6807 12.7811L81.4874 12.1192L82.6878 20.8515L92.6433 19.4809L91.4429 10.7486L96.2807 10.0815L99.2699 31.8369L94.4321 32.5041L93.1903 23.4629L83.2348 24.8334L84.4766 33.8747L79.6674 34.5366H79.67ZM100.973 31.6033L108.627 8.68231L112.617 8.2488L125.131 28.979L120.244 29.5111L116.956 23.7276L118.986 24.8542L106.026 26.2637L107.799 24.7244L105.829 31.079L100.973 31.6085V31.6033ZM111.157 13.5443L108.196 23.4551L107.234 22.37L116.977 21.3109L116.394 22.5647L111.284 13.5339L111.159 13.5469L111.157 13.5443ZM108.826 6.77959L111.919 0.959767L116.651 0.445801L112.103 6.42396L108.824 6.77959H108.826ZM129.518 28.6441L127.939 10.7097L120.996 11.3223L120.648 7.3818L139.367 5.72827L139.714 9.66873L132.771 10.2813L134.35 28.2158L129.515 28.6415L129.518 28.6441ZM159.711 26.3598L148.568 5.02222L153.784 4.7133L162.306 21.8068L160.784 21.8976L167.229 3.9164L172.261 3.61788L163.714 26.1236L159.708 26.3624L159.711 26.3598ZM173.589 14.5411C173.501 12.2594 173.853 10.2554 174.649 8.52916C175.443 6.80554 176.632 5.44535 178.211 4.44855C179.793 3.45176 181.691 2.91183 183.907 2.82617C186.124 2.74051 188.061 3.13246 189.712 4.00465C191.364 4.87684 192.662 6.141 193.611 7.79713C194.558 9.45326 195.074 11.4131 195.162 13.6766C195.25 15.9791 194.887 17.9935 194.073 19.7197C193.256 21.4459 192.061 22.8113 190.479 23.8185C188.898 24.8257 187 25.3708 184.784 25.4564C182.567 25.5421 180.635 25.145 178.994 24.2624C177.351 23.3798 176.062 22.1053 175.126 20.4388C174.19 18.7722 173.68 16.8072 173.591 14.5436L173.589 14.5411ZM178.655 14.3438C178.743 16.6047 179.282 18.3569 180.275 19.5951C181.268 20.8359 182.717 21.4174 184.623 21.3447C186.487 21.272 187.882 20.5789 188.807 19.2654C189.733 17.952 190.15 16.1634 190.062 13.9025C189.974 11.6208 189.424 9.8686 188.411 8.65116C187.399 7.43372 185.948 6.86005 184.063 6.93273C182.155 7.00542 180.755 7.69071 179.86 8.98083C178.966 10.2735 178.564 12.0595 178.652 14.3438H178.655ZM182.852 31.8577L182.691 27.7174L187.044 27.5487L187.205 31.689L182.852 31.8577ZM199.279 24.6024L198.877 2.64704L202.486 2.57955L214.676 17.5288L213.836 17.5444L213.559 2.37707L218.07 2.29402L218.472 24.252L214.863 24.3195L202.703 9.3702L203.512 9.35462L203.79 24.522L199.279 24.605V24.6024ZM233.659 24.5687C231.149 24.5583 229.041 24.0911 227.333 23.1592C225.624 22.2299 224.339 20.9164 223.475 19.2213C222.609 17.5262 222.182 15.5456 222.189 13.2821C222.197 10.9562 222.677 8.94448 223.626 7.24422C224.574 5.54656 225.943 4.2305 227.73 3.30379C229.516 2.37449 231.655 1.91502 234.144 1.9254C235.741 1.93059 237.146 2.13826 238.357 2.5484C239.567 2.95854 240.628 3.5374 241.54 4.29018L239.972 8.05411C239.311 7.57388 238.688 7.19232 238.11 6.90938C237.53 6.62644 236.931 6.42655 236.309 6.31233C235.686 6.19552 234.971 6.13583 234.162 6.13323C231.88 6.12545 230.161 6.73805 229.005 7.96846C227.849 9.19888 227.268 10.99 227.258 13.3366C227.25 15.6625 227.782 17.4302 228.857 18.6372C229.931 19.8469 231.619 20.4543 233.921 20.4621C234.688 20.4647 235.476 20.3946 236.285 20.2519C237.094 20.1091 237.893 19.8936 238.683 19.6055L237.804 21.4719L237.825 15.5534L233.003 15.5353L233.016 12.0776L241.851 12.1088L241.813 22.8866C240.711 23.4239 239.44 23.8393 237.996 24.1352C236.552 24.4311 235.106 24.5765 233.654 24.5713L233.659 24.5687ZM260.757 24.5401L253.681 2.34332L258.688 2.50426L263.715 19.6185L262.377 19.5769L268.98 2.83394L272.524 2.94817L277.551 20.0623L276.307 20.0234L282.755 3.27524L287.45 3.42579L278.915 25.1242L274.966 24.997L270.085 9.22742L270.8 9.25081L264.739 24.6699L260.759 24.5427L260.757 24.5401ZM289.485 25.5992L290.696 3.67238L305.917 4.51602L305.709 8.27994L295.116 7.69332L294.833 12.8252L304.68 13.3704L304.47 17.1654L294.623 16.6203L294.32 22.0949L304.913 22.6815L304.706 26.4455L289.485 25.6018V25.5992ZM307.999 26.6635L309.577 4.76004L314.418 5.11047L313.132 22.9437L322.999 23.6576L322.706 27.7278L307.999 26.6661V26.6635ZM325.563 27.9692L327.523 6.09689L332.356 6.53037L330.761 24.3377L340.616 25.2228L340.253 29.2879L325.566 27.9692H325.563ZM350.535 30.7389C348.782 30.5468 347.167 30.1497 345.689 29.5474C344.212 28.9452 342.978 28.2054 341.99 27.3229L343.825 23.7017C344.474 24.2546 345.171 24.7374 345.92 25.1527C346.667 25.5681 347.465 25.9133 348.311 26.1833C349.158 26.4533 350.055 26.6401 351.004 26.7466C352.49 26.9101 353.571 26.7985 354.248 26.4143C354.927 26.0301 355.305 25.485 355.381 24.7841C355.451 24.1456 355.292 23.6316 354.909 23.2448C354.522 22.858 353.789 22.479 352.702 22.1078L349.135 20.9631C347.18 20.3297 345.762 19.4653 344.883 18.3647C344.002 17.2641 343.652 15.8883 343.833 14.2374C343.986 12.833 344.492 11.6571 345.347 10.7071C346.203 9.75699 347.336 9.06648 348.751 8.63817C350.164 8.20986 351.779 8.09306 353.594 8.29294C355.139 8.46426 356.56 8.83805 357.851 9.41951C359.142 10.001 360.179 10.7408 360.957 11.6415L359.148 15.0161C358.378 14.2425 357.491 13.6273 356.485 13.1731C355.482 12.7188 354.341 12.4203 353.063 12.2801C351.722 12.1321 350.67 12.2568 349.908 12.6539C349.145 13.0511 348.718 13.6611 348.627 14.4865C348.559 15.1043 348.72 15.6313 349.112 16.0596C349.503 16.4905 350.232 16.8773 351.3 17.2251L354.81 18.331C356.806 18.9695 358.245 19.8261 359.129 20.906C360.013 21.9858 360.366 23.3305 360.19 24.9399C360.039 26.3027 359.544 27.45 358.702 28.3793C357.859 29.3112 356.742 29.9861 355.349 30.4092C353.957 30.8298 352.355 30.9414 350.54 30.7415L350.535 30.7389ZM362.899 31.798L365.831 10.0347L375.976 11.4053C378.421 11.735 380.197 12.5786 381.301 13.931C382.406 15.286 382.82 16.9915 382.543 19.05C382.268 21.0877 381.418 22.6218 379.992 23.655C378.566 24.6881 376.629 25.0385 374.185 24.7089L368.852 23.9898L367.713 32.447L362.904 31.798H362.899ZM369.352 20.2544L374.07 20.8904C375.222 21.0462 376.113 20.9034 376.749 20.4673C377.384 20.0286 377.762 19.3459 377.887 18.4218C378.011 17.4951 377.824 16.7423 377.327 16.1609C376.829 15.5794 376.004 15.2134 374.853 15.0576L370.135 14.4216L369.349 20.257L369.352 20.2544ZM383.552 34.6352L387.124 12.968L396.947 14.593C399.382 14.9953 401.168 15.8857 402.309 17.2641C403.447 18.6425 403.846 20.3661 403.507 22.4349C403.284 23.7873 402.788 24.9009 402.026 25.7731C401.261 26.6479 400.279 27.2527 399.078 27.5902C397.876 27.9277 396.499 27.9692 394.943 27.7122L395.423 27.097L396.68 27.3047C397.559 27.45 398.303 27.816 398.913 28.4001C399.519 28.9841 399.975 29.7655 400.276 30.7415L402.431 37.758L397.152 36.8858L394.956 29.3554C394.808 28.722 394.49 28.2625 394 27.9822C393.51 27.7018 392.926 27.5045 392.252 27.3929L389.735 26.9776L388.34 35.4296L383.552 34.6378V34.6352ZM390.303 23.5329L394.508 24.2286C395.755 24.4337 396.75 24.3377 397.489 23.9327C398.228 23.5278 398.682 22.8243 398.848 21.8197C399.014 20.8151 398.809 20.0078 398.238 19.3978C397.665 18.7878 396.756 18.3803 395.508 18.1726L391.303 17.4769L390.305 23.5303L390.303 23.5329ZM405.13 38.3343L409.252 16.7657L414.019 17.6794L409.897 39.248L405.13 38.3343ZM414.11 40.0008L418.914 18.5723L422.435 19.3641L430.742 36.7794L429.922 36.5951L433.241 21.7938L437.643 22.7828L432.839 44.2112L429.318 43.4195L421.04 26.012L421.828 26.1885L418.51 40.9898L414.108 40.0008H414.11ZM447.192 48.5436C444.78 47.8479 442.88 46.8174 441.493 45.4546C440.103 44.0918 439.227 42.4772 438.856 40.6082C438.488 38.7392 438.618 36.7197 439.243 34.5444C439.886 32.3094 440.897 30.5053 442.276 29.1295C443.653 27.7563 445.33 26.866 447.3 26.4636C449.273 26.0613 451.454 26.2041 453.847 26.8945C455.382 27.3384 456.675 27.9225 457.728 28.6467C458.78 29.3735 459.644 30.2198 460.313 31.1932L457.774 34.3834C457.269 33.7397 456.776 33.2024 456.297 32.7741C455.817 32.3432 455.293 31.9875 454.726 31.7046C454.16 31.4216 453.486 31.1698 452.711 30.944C450.518 30.3106 448.698 30.43 447.251 31.297C445.805 32.164 444.755 33.7267 444.106 35.9799C443.463 38.2149 443.492 40.0605 444.195 41.5167C444.897 42.973 446.354 44.0217 448.568 44.6603C449.305 44.8731 450.082 45.0211 450.902 45.1068C451.718 45.1924 452.545 45.2028 453.385 45.1431L452.032 46.698L453.67 41.0106L449.037 39.6737L449.994 36.3511L458.485 38.8015L455.503 49.1562C454.298 49.3691 452.96 49.421 451.493 49.312C450.025 49.2003 448.592 48.9434 447.197 48.541L447.192 48.5436ZM145.402 50.153C144.879 50.153 144.37 50.0959 143.875 49.9817C143.38 49.8675 142.926 49.7065 142.517 49.4937C142.107 49.2834 141.765 49.029 141.493 48.7331L142.141 47.3833C142.618 47.8038 143.134 48.1205 143.686 48.3333C144.238 48.5436 144.827 48.65 145.454 48.65C146.24 48.65 146.893 48.4527 147.417 48.0608C147.94 47.6662 148.264 47.0951 148.389 46.3423C148.503 45.6025 148.371 45.0055 147.997 44.5564C147.622 44.1073 147.051 43.8815 146.289 43.8815C145.742 43.8815 145.239 43.9905 144.777 44.206C144.316 44.4214 143.886 44.7537 143.489 45.1976H142.26L143.403 37.9475H150.694L150.437 39.4349H144.853L144.171 43.7959H143.694C144.07 43.339 144.529 42.9964 145.068 42.7601C145.607 42.5265 146.193 42.4097 146.818 42.4097C147.57 42.4097 148.213 42.5707 148.747 42.8977C149.281 43.2222 149.672 43.6869 149.916 44.2917C150.16 44.8965 150.214 45.6207 150.079 46.4618C149.965 47.2249 149.701 47.8843 149.286 48.4372C148.871 48.9901 148.332 49.4158 147.673 49.7117C147.012 50.0077 146.255 50.1556 145.402 50.1556V50.153ZM155.477 50.153C153.997 50.153 152.967 49.5949 152.387 48.4761C151.806 47.3599 151.674 45.7739 151.995 43.7232C152.324 41.6829 152.921 40.1851 153.779 39.2272C154.637 38.2694 155.739 37.7918 157.084 37.7918C158.541 37.7918 159.568 38.3343 160.167 39.4167C160.763 40.4992 160.898 42.0852 160.569 44.1697C160.25 46.1996 159.648 47.7026 158.767 48.6838C157.886 49.665 156.789 50.153 155.48 50.153H155.477ZM155.581 48.6656C156.423 48.6656 157.118 48.3022 157.665 47.5728C158.212 46.8434 158.617 45.6519 158.879 43.9983C159.05 42.8692 159.094 41.958 159.016 41.2624C158.936 40.5667 158.726 40.0605 158.383 39.7412C158.041 39.4219 157.574 39.2636 156.983 39.2636C156.13 39.2636 155.436 39.6218 154.899 40.3408C154.365 41.0599 153.966 42.2384 153.704 43.8789C153.522 44.9951 153.473 45.9089 153.559 46.6149C153.644 47.321 153.857 47.8401 154.199 48.1698C154.541 48.4995 155.003 48.6656 155.583 48.6656H155.581ZM165.194 45.1587C164.227 45.1587 163.506 44.8186 163.034 44.1411C162.563 43.4636 162.417 42.5135 162.599 41.2935C162.78 40.1877 163.177 39.3285 163.786 38.7107C164.396 38.0955 165.15 37.7866 166.05 37.7866C167.03 37.7866 167.748 38.124 168.209 38.7963C168.671 39.4686 168.803 40.4161 168.611 41.6336C168.44 42.729 168.056 43.5882 167.457 44.2164C166.858 44.8446 166.107 45.1561 165.194 45.1561V45.1587ZM165.246 43.9958C165.746 43.9958 166.161 43.7907 166.493 43.3805C166.822 42.9704 167.056 42.35 167.193 41.5167C167.317 40.6394 167.271 39.993 167.048 39.5777C166.825 39.1623 166.464 38.9547 165.964 38.9547C165.464 38.9547 165.07 39.1546 164.751 39.5517C164.432 39.9515 164.204 40.5667 164.069 41.3973C163.931 42.2747 163.973 42.9289 164.188 43.3546C164.403 43.7829 164.758 43.9958 165.246 43.9958ZM165.775 49.9973H164.186L173.133 37.9423H174.737L165.772 49.9973H165.775ZM172.878 50.153C171.898 50.153 171.178 49.8129 170.708 49.1354C170.239 48.4579 170.104 47.5079 170.299 46.2878C170.48 45.182 170.872 44.3228 171.468 43.705C172.064 43.0898 172.814 42.7809 173.713 42.7809C174.693 42.7809 175.419 43.121 175.891 43.7985C176.363 44.476 176.503 45.4209 176.308 46.6279C176.127 47.7207 175.735 48.5825 175.139 49.2107C174.54 49.8389 173.788 50.1504 172.876 50.1504L172.878 50.153ZM172.946 48.9901C173.446 48.9901 173.858 48.785 174.185 48.3749C174.509 47.9647 174.735 47.3443 174.859 46.5111C175.007 45.6441 174.968 45.0003 174.74 44.5798C174.512 44.1593 174.149 43.9464 173.648 43.9464C173.148 43.9464 172.751 44.1463 172.427 44.5461C172.103 44.9458 171.873 45.561 171.735 46.3917C171.611 47.2794 171.657 47.9362 171.88 48.3567C172.103 48.7772 172.458 48.9901 172.948 48.9901H172.946ZM188.385 50.153C186.972 50.153 185.844 49.8908 184.994 49.3665C184.143 48.8421 183.568 48.0997 183.259 47.1341C182.951 46.1684 182.901 45.0444 183.106 43.7569C183.311 42.4798 183.718 41.3999 184.327 40.5174C184.937 39.6348 185.719 38.9599 186.676 38.49C187.633 38.0228 188.724 37.7892 189.956 37.7892C190.832 37.7892 191.579 37.8982 192.193 38.1136C192.808 38.3291 193.331 38.6328 193.764 39.0196L193.064 40.4395C192.608 40.0527 192.146 39.7724 191.68 39.601C191.213 39.4297 190.609 39.344 189.87 39.344C188.504 39.344 187.397 39.7438 186.549 40.5407C185.701 41.3376 185.162 42.472 184.937 43.9438C184.708 45.4156 184.877 46.5604 185.439 47.3807C186.002 48.2009 187.031 48.6111 188.522 48.6111C189.092 48.6111 189.624 48.5618 190.119 48.4657C190.614 48.3697 191.112 48.2165 191.612 48.0115L191.065 48.8655L191.68 44.9146H188.727L188.95 43.5804H193.406L192.502 49.2237C192.149 49.4184 191.739 49.5819 191.273 49.7195C190.806 49.8571 190.321 49.9609 189.821 50.0362C189.321 50.1115 188.841 50.1478 188.387 50.1478L188.385 50.153ZM195.079 49.9973L196.992 37.9423H198.768L196.855 49.9973H195.079ZM198.441 49.9973L205.716 37.9423H207.235L210.769 49.9973H209.027L208.07 46.5786L208.752 47.0562H201.459L202.312 46.5786L200.313 49.9973H198.434H198.441ZM206.229 39.8944L202.659 46.0335L202.302 45.6415H208.363L207.953 46.0335L206.279 39.8944H206.227H206.229ZM206.025 36.917L208.262 33.9577H210.157L207.287 36.917H206.025ZM219.804 49.9973L221.479 39.4297H217.365L217.603 37.9423H227.61L227.372 39.4297H223.257L221.583 49.9973H219.807H219.804ZM227.351 49.9973L229.264 37.9423H234.183C235.549 37.9423 236.544 38.2616 237.172 38.9002C237.799 39.5387 238.014 40.4343 237.82 41.5842C237.719 42.2669 237.47 42.8536 237.076 43.3364C236.684 43.8218 236.179 44.1904 235.564 44.4474C234.95 44.7044 234.26 44.8316 233.498 44.8316L233.599 44.559H234.009C234.476 44.559 234.872 44.681 235.196 44.9276C235.52 45.1742 235.769 45.5506 235.94 46.0646L237.203 49.9973H235.341L234.094 46.0464C233.957 45.5792 233.724 45.2781 233.394 45.1405C233.065 45.0029 232.637 44.9354 232.114 44.9354H229.928L229.124 49.9973H227.349H227.351ZM230.136 43.5856H233.311C234.12 43.5856 234.761 43.4065 235.233 43.0483C235.704 42.6901 235.992 42.1839 236.096 41.5349C236.2 40.8159 236.06 40.276 235.678 39.9099C235.297 39.5465 234.686 39.3622 233.843 39.3622H230.804L230.138 43.5856H230.136ZM238.707 53.3329L238.997 51.6067H240.791L240.501 53.3329H238.707ZM239.254 49.9973L241.167 37.9423H242.943L241.03 49.9973H239.254ZM248.424 49.9973L250.337 37.9423H252.113L251.294 43.1391H258.055L258.874 37.9423H260.65L258.737 49.9973H256.961L257.814 44.6291H251.052L250.2 49.9973H248.424ZM262.154 43.7232C262.359 42.4564 262.745 41.3844 263.315 40.4992C263.886 39.6166 264.617 38.9443 265.509 38.4822C266.403 38.0202 267.412 37.7892 268.539 37.7892C269.781 37.7892 270.79 38.0591 271.57 38.6016C272.351 39.1442 272.892 39.8995 273.201 40.8678C273.509 41.836 273.559 42.947 273.354 44.2008C273.159 45.465 272.776 46.5396 272.2 47.4248C271.625 48.3074 270.893 48.9849 270.007 49.4496C269.12 49.9168 268.107 50.1504 266.968 50.1504C265.739 50.1504 264.731 49.8804 263.945 49.3379C263.16 48.798 262.615 48.0426 262.315 47.0718C262.014 46.1009 261.959 44.9847 262.154 43.7206V43.7232ZM263.982 43.8945C263.834 44.8861 263.855 45.7324 264.041 46.4332C264.228 47.1341 264.581 47.674 265.099 48.0478C265.618 48.4216 266.286 48.6111 267.106 48.6111C268.335 48.6111 269.325 48.2035 270.077 47.3885C270.829 46.5734 271.311 45.4546 271.529 44.0295C271.687 43.0483 271.669 42.2072 271.469 41.5063C271.269 40.8055 270.914 40.2656 270.401 39.8918C269.888 39.5154 269.224 39.3285 268.402 39.3285C267.173 39.3285 266.188 39.7308 265.447 40.5329C264.705 41.335 264.218 42.4564 263.979 43.8919L263.982 43.8945ZM265.364 53.3329L265.654 51.6067H267.448L267.158 53.3329H265.364ZM280.579 50.153C279.247 50.153 278.166 49.883 277.336 49.3405C276.504 48.8006 275.934 48.0452 275.62 47.0744C275.306 46.1061 275.246 44.9873 275.441 43.7232C275.646 42.4564 276.042 41.3844 276.628 40.4992C277.214 39.6166 277.969 38.9417 278.892 38.4719C279.815 38.0046 280.872 37.7762 282.068 37.7892C282.876 37.7892 283.592 37.9034 284.219 38.1318C284.847 38.3602 285.381 38.6899 285.824 39.1234L285.158 40.5433C284.668 40.1098 284.18 39.8061 283.698 39.6296C283.213 39.4531 282.638 39.3648 281.964 39.3648C280.701 39.3648 279.664 39.7594 278.855 40.5433C278.046 41.3298 277.523 42.4408 277.284 43.8763C277.147 44.8238 277.175 45.6493 277.37 46.3553C277.564 47.0614 277.945 47.6091 278.513 47.9959C279.083 48.3826 279.833 48.5774 280.766 48.5774C281.37 48.5774 281.964 48.4735 282.55 48.2684C283.136 48.0634 283.696 47.7285 284.232 47.2613L284.795 48.663C284.248 49.1406 283.605 49.5093 282.866 49.7662C282.125 50.0232 281.362 50.1504 280.577 50.1504L280.579 50.153ZM291.134 49.9973L293.047 37.9423H297.983C299.326 37.9423 300.306 38.2746 300.921 38.9417C301.535 39.6088 301.745 40.5173 301.553 41.6699C301.452 42.3656 301.209 42.9574 300.827 43.448C300.446 43.9386 299.949 44.315 299.334 44.5772C298.72 44.8394 297.991 44.9692 297.149 44.9692H293.716L292.912 49.9973H291.136H291.134ZM293.934 43.5518H297.058C297.877 43.5518 298.517 43.3831 298.979 43.0483C299.44 42.7134 299.723 42.2124 299.824 41.5531C299.938 40.834 299.816 40.2915 299.456 39.9203C299.098 39.5491 298.515 39.3648 297.706 39.3648H294.582L293.934 43.5544V43.5518ZM302.37 49.9973L304.283 37.9423H306.059L305.24 43.1391H312.001L312.821 37.9423H314.597L312.683 49.9973H310.907L311.76 44.6291H304.999L304.146 49.9973H302.37ZM315.517 49.9973L317.43 37.9423H319.206L317.293 49.9973H315.517ZM317.858 36.917L320.096 33.9577H321.991L319.121 36.917H317.858Z" fill="url(#paint0_linear_474_89)"/>
<defs>
<linearGradient id="paint0_linear_474_89" x1="0.18927" y1="26.8893" x2="460.315" y2="26.8893" gradientUnits="userSpaceOnUse">
<stop stop-color="#F9D16F"/>
<stop offset="0.07" stop-color="#EEBE5C"/>
<stop offset="0.18" stop-color="#E0A341"/>
<stop offset="0.25" stop-color="#DB9A38"/>
<stop offset="0.3" stop-color="#DDA044"/>
<stop offset="0.4" stop-color="#E5B365"/>
<stop offset="0.52" stop-color="#F1D19B"/>
<stop offset="0.64" stop-color="#FFF1D5"/>
<stop offset="0.66" stop-color="#FEEBC4"/>
<stop offset="0.68" stop-color="#FCE3AA"/>
<stop offset="0.71" stop-color="#FBDC94"/>
<stop offset="0.74" stop-color="#FAD783"/>
<stop offset="0.78" stop-color="#F9D377"/>
<stop offset="0.84" stop-color="#F9D170"/>
<stop offset="1" stop-color="#F9D16F"/>
</linearGradient>
</defs>
</svg>
