<svg width="466" height="59" viewBox="0 0 466 59" fill="none" xmlns="http://www.w3.org/2000/svg">
<path d="M6.79187 57.0227L0.460815 35.9966L5.1067 34.5949L7.64744 43.0339L17.2685 40.1292L14.7278 31.6876L19.4048 30.2755L25.7358 51.3015L21.0588 52.7137L18.4274 43.9762L8.80631 46.8809L11.4378 55.6184L6.79187 57.0201V57.0227ZM29.7388 50.3229L24.7377 28.9412L34.5818 26.6335C36.9254 26.0832 38.8465 26.1559 40.3502 26.849C41.8539 27.5421 42.808 28.7465 43.2099 30.4649C43.508 31.7395 43.3836 32.9102 42.834 33.9771C42.2843 35.044 41.3899 35.8824 40.148 36.495L40.034 36.0096C41.631 35.9136 42.9532 36.2147 44.0006 36.9181C45.048 37.6216 45.7402 38.6911 46.0772 40.1266C46.5231 42.0267 46.1965 43.6647 45.1025 45.043C44.0084 46.4188 42.2791 47.3844 39.9173 47.94L29.7388 50.3255V50.3229ZM31.3073 36.6793L35.7899 35.628C37.0213 35.3399 37.8769 34.9038 38.3592 34.3223C38.8414 33.7409 38.9762 33.0037 38.7687 32.1159C38.5665 31.2463 38.118 30.657 37.4284 30.3507C36.7388 30.0444 35.7769 30.034 34.5454 30.3222L30.0629 31.3735L31.3047 36.6819L31.3073 36.6793ZM33.4281 45.7465L38.5173 44.5524C39.6891 44.2773 40.5343 43.8438 41.058 43.2519C41.5791 42.6601 41.7269 41.8787 41.5013 40.9079C41.2706 39.9163 40.7884 39.2777 40.0624 38.9896C39.3339 38.7015 38.385 38.6963 37.2132 38.9688L32.124 40.1629L33.4281 45.7439V45.7465ZM59.1464 43.8412L55.4183 22.1999L60.2016 21.3744L61.6975 30.0626L71.6012 28.352L70.1053 19.6638L74.9197 18.8331L78.6478 40.4744L73.8334 41.3051L72.2856 32.3106L62.382 34.0212L63.9297 43.0157L59.1464 43.8412ZM80.3122 40.1915L87.3044 17.0602L91.2789 16.5125L104.382 36.874L99.5129 37.5463L96.0622 31.8589L98.1258 32.9258L85.2122 34.7065L86.9415 33.1153L85.1526 39.5243L80.3148 40.1915H80.3122ZM89.9748 21.8494L87.2967 31.8407L86.3037 30.7816L96.0129 29.4422L95.4659 30.7115L90.0992 21.8313L89.9748 21.8494ZM91.0818 45.435L90.5167 41.331L94.8307 40.7366L95.3959 44.8406L91.0818 45.435ZM106.124 36.7027L103.747 14.8719L107.335 14.4799L120.824 28.2663L119.989 28.3571L118.345 13.2755L122.831 12.7849L125.208 34.6156L121.62 35.0076L108.162 21.2161L108.965 21.1278L110.609 36.2095L106.124 36.7001V36.7027ZM129.506 34.2055L127.679 12.3202L132.516 11.9153L133.25 20.6995L143.263 19.8611L142.529 11.0768L147.395 10.6693L149.223 32.5546L144.357 32.9621L143.597 23.8664L133.585 24.7048L134.344 33.8006L129.509 34.2055H129.506ZM162.261 31.6876L161.079 9.75816L171.299 9.20525C173.764 9.07286 175.665 9.56866 177.002 10.69C178.34 11.814 179.066 13.4131 179.178 15.4845C179.289 17.5378 178.74 19.2043 177.531 20.4866C176.323 21.769 174.488 22.475 172.022 22.61L166.648 22.9008L167.107 31.4228L162.261 31.685V31.6876ZM166.446 19.1394L171.198 18.8824C172.357 18.8201 173.207 18.5138 173.749 17.9635C174.291 17.4158 174.537 16.6734 174.485 15.7389C174.436 14.807 174.112 14.1009 173.513 13.6233C172.917 13.1457 172.038 12.938 170.879 13.0003L166.127 13.2573L166.443 19.1368L166.446 19.1394ZM183.129 30.5896L182.38 8.64195L187.23 8.47583L187.531 17.286L197.575 16.9408L197.274 8.13058L202.156 7.96444L202.905 29.912L198.023 30.0782L197.712 20.9565L187.668 21.3017L187.979 30.4234L183.129 30.5896ZM216.677 30.0211C213.462 30.0678 211.056 29.302 209.456 27.7264C207.857 26.1507 207.035 23.7833 206.988 20.6268L206.804 7.85802L211.658 7.78793L211.842 20.5879C211.868 22.353 212.264 23.6873 213.034 24.5906C213.804 25.494 214.999 25.9327 216.617 25.9093C218.193 25.8859 219.363 25.4135 220.127 24.4868C220.892 23.5627 221.263 22.218 221.237 20.4529L221.053 7.65036L225.844 7.58027L226.028 20.3491C226.072 23.5056 225.315 25.8937 223.752 27.5161C222.189 29.1385 219.829 29.9717 216.679 30.0159L216.677 30.0211ZM214.678 5.87482L218.302 0.371693L223.062 0.304199L217.976 5.83069L214.678 5.87742V5.87482ZM240.959 29.9095C238.615 29.9017 236.606 29.4266 234.929 28.4869C233.251 27.5473 231.965 26.2286 231.071 24.5335C230.174 22.8385 229.73 20.8371 229.738 18.532C229.746 16.2269 230.205 14.2359 231.112 12.5564C232.02 10.8769 233.316 9.57385 234.999 8.64714C236.681 7.71784 238.696 7.25838 241.039 7.26617C242.553 7.27136 243.933 7.48941 245.174 7.92032C246.416 8.35122 247.474 8.97162 248.34 9.78411L246.803 13.6103C245.851 12.8601 244.946 12.3254 244.085 12.0113C243.225 11.6972 242.258 11.5363 241.179 11.5337C239.126 11.5259 237.552 12.1281 236.458 13.3378C235.364 14.5474 234.814 16.2866 234.807 18.5502C234.799 20.8137 235.336 22.5607 236.422 23.7885C237.506 25.0189 239.074 25.6367 241.127 25.6445C242.206 25.6471 243.176 25.4966 244.039 25.1877C244.9 24.8788 245.81 24.3544 246.766 23.6094L248.278 27.446C247.404 28.2325 246.344 28.84 245.097 29.2735C243.85 29.7044 242.47 29.9172 240.956 29.912L240.959 29.9095ZM266.439 29.938L259.415 7.72563L264.422 7.89695L269.41 25.0241L268.072 24.9774L274.714 8.24999L278.258 8.37199L283.246 25.4992L282.002 25.4576L288.489 8.72502L293.184 8.88595L284.6 30.5662L280.651 30.4312L275.803 14.6513L276.519 14.6746L270.421 30.0808L266.441 29.9432L266.439 29.938ZM295.164 31.0646L296.43 9.14036L311.648 10.0203L311.43 13.7843L300.84 13.1716L300.544 18.3036L310.391 18.8721L310.173 22.6671L300.326 22.0986L300.01 27.5706L310.601 28.1832L310.383 31.9472L295.164 31.0672V31.0646ZM313.67 32.1756L315.306 10.2747L320.147 10.6381L318.817 28.4688L328.681 29.206L328.378 33.2762L313.673 32.1756H313.67ZM331.227 33.528L333.247 11.6609L338.079 12.1074L336.436 29.912L346.288 30.8258L345.912 34.8882L331.227 33.528ZM356.191 36.3678C354.439 36.1705 352.826 35.7682 351.348 35.1634C349.871 34.5585 348.642 33.8135 347.657 32.9284L349.505 29.3124C350.153 29.8653 350.848 30.3533 351.595 30.7712C352.341 31.1892 353.137 31.537 353.982 31.8096C354.828 32.0821 355.725 32.2742 356.673 32.3807C358.156 32.5494 359.24 32.4404 359.919 32.0588C360.599 31.6772 360.98 31.1347 361.058 30.4312C361.13 29.7926 360.972 29.2787 360.588 28.8893C360.205 28.4999 359.471 28.1209 358.385 27.7471L354.82 26.592C352.868 25.9534 351.452 25.0838 350.573 23.9806C349.697 22.8774 349.349 21.5016 349.536 19.8507C349.694 18.4489 350.202 17.273 351.061 16.323C351.919 15.3755 353.054 14.6902 354.47 14.2645C355.885 13.8388 357.498 13.7297 359.313 13.9348C360.858 14.1087 362.276 14.4903 363.567 15.0744C364.858 15.6584 365.89 16.4034 366.665 17.3068L364.845 20.6735C364.078 19.8974 363.191 19.2796 362.19 18.8227C361.187 18.3633 360.046 18.0622 358.771 17.9194C357.431 17.7688 356.381 17.8882 355.616 18.2828C354.851 18.6774 354.423 19.2874 354.33 20.1128C354.26 20.7306 354.421 21.2576 354.809 21.6885C355.198 22.1194 355.927 22.5114 356.995 22.8592L360.5 23.9754C362.494 24.6192 363.93 25.481 364.812 26.5634C365.69 27.6459 366.04 28.9905 365.859 30.5999C365.706 31.9627 365.206 33.1075 364.361 34.0368C363.515 34.9661 362.395 35.6384 361.003 36.0563C359.608 36.4743 358.006 36.5807 356.194 36.3756L356.191 36.3678ZM368.547 37.4659L371.555 15.713L381.694 17.1173C384.139 17.4547 385.913 18.3036 387.012 19.6612C388.111 21.0188 388.521 22.7268 388.236 24.7827C387.953 26.8178 387.097 28.352 385.669 29.3799C384.24 30.4078 382.301 30.7531 379.856 30.413L374.526 29.6732L373.357 38.1278L368.55 37.4607L368.547 37.4659ZM375.039 25.943L379.755 26.5972C380.906 26.7555 381.798 26.618 382.436 26.1819C383.071 25.7458 383.455 25.0657 383.582 24.139C383.709 23.2122 383.525 22.4595 383.03 21.878C382.534 21.2965 381.713 20.9253 380.562 20.7644L375.846 20.1103L375.039 25.9404V25.943ZM389.19 40.3732L392.853 18.7215L402.668 20.3854C405.103 20.7981 406.884 21.6963 408.02 23.0773C409.152 24.4608 409.544 26.1845 409.194 28.2533C408.966 29.6057 408.468 30.7167 407.701 31.5863C406.933 32.4559 405.948 33.0582 404.745 33.3904C403.542 33.7227 402.163 33.759 400.61 33.4943L401.092 32.8816L402.35 33.0945C403.228 33.2425 403.97 33.6111 404.577 34.1977C405.181 34.7844 405.634 35.5683 405.93 36.5443L408.056 43.5712L402.78 42.6757L400.615 35.1374C400.47 34.5014 400.154 34.0446 399.664 33.759C399.176 33.4761 398.593 33.2762 397.919 33.162L395.404 32.7363L393.976 41.1831L389.19 40.3706V40.3732ZM395.987 29.2994L400.19 30.0133C401.437 30.2235 402.432 30.1301 403.171 29.7303C403.913 29.3306 404.367 28.6271 404.538 27.6225C404.706 26.6206 404.507 25.8107 403.939 25.198C403.368 24.5854 402.461 24.1727 401.214 23.9624L397.011 23.2512L395.987 29.302V29.2994ZM410.747 44.1656L414.973 22.6152L419.735 23.5523L415.509 45.1027L410.747 44.1656ZM419.717 45.8711L424.646 24.4712L428.161 25.2837L436.367 42.7483L435.547 42.5588L438.954 27.7757L443.349 28.7907L438.42 50.1905L434.905 49.378L426.73 31.9212L427.518 32.1029L424.114 46.8835L419.717 45.8685V45.8711ZM452.726 54.6371C450.32 53.9207 448.43 52.8746 447.053 51.4988C445.677 50.1256 444.813 48.5007 444.461 46.6317C444.108 44.7601 444.253 42.7405 444.899 40.5704C445.563 38.3406 446.587 36.5469 447.979 35.1841C449.369 33.8213 451.051 32.9465 453.027 32.5624C455.002 32.1756 457.183 32.3391 459.568 33.0504C461.097 33.5072 462.388 34.1017 463.436 34.8363C464.483 35.5709 465.336 36.4275 466 37.4036L463.436 40.5704C462.936 39.9241 462.448 39.3816 461.971 38.9481C461.494 38.5146 460.973 38.1537 460.41 37.8656C459.845 37.5775 459.176 37.3205 458.401 37.0869C456.216 36.4353 454.393 36.5365 452.939 37.3932C451.484 38.2498 450.421 39.8021 449.752 42.0501C449.089 44.2799 449.104 46.1255 449.794 47.5869C450.483 49.0484 451.933 50.1101 454.139 50.7668C454.875 50.9848 455.65 51.1406 456.467 51.234C457.284 51.3249 458.111 51.3457 458.948 51.2912L457.582 52.8331L459.27 47.1612L454.647 45.7828L455.632 42.468L464.1 44.9937L461.027 55.3224C459.819 55.5275 458.481 55.5665 457.014 55.4419C455.547 55.3173 454.118 55.0499 452.726 54.6346V54.6371ZM144.357 55.3302L144.562 54.0142L149.513 49.5C150.105 48.9653 150.556 48.4799 150.862 48.0464C151.17 47.6129 151.367 47.1404 151.46 46.6265C151.564 45.9645 151.437 45.4661 151.084 45.1313C150.732 44.7964 150.185 44.6277 149.446 44.6277C148.832 44.6277 148.238 44.7263 147.67 44.9262C147.1 45.1261 146.537 45.4428 145.98 45.8763L145.399 44.542C145.946 44.0982 146.602 43.7503 147.372 43.4985C148.142 43.2467 148.902 43.1221 149.651 43.1221C150.517 43.1221 151.237 43.2623 151.81 43.5401C152.386 43.8204 152.796 44.2176 153.039 44.7367C153.283 45.2559 153.35 45.8789 153.236 46.6083C153.122 47.3377 152.847 48.0074 152.409 48.6175C151.971 49.2275 151.37 49.8635 150.607 50.5228L146.338 54.3179L146.319 53.8402H152.552L152.329 55.3276H144.354L144.357 55.3302ZM158.634 55.4834C158.11 55.4834 157.6 55.4263 157.104 55.3121C156.609 55.1979 156.156 55.0369 155.746 54.8241C155.336 54.6112 154.994 54.3594 154.722 54.0635L155.37 52.7137C155.847 53.1342 156.363 53.4509 156.915 53.6637C157.467 53.874 158.056 53.9804 158.683 53.9804C159.469 53.9804 160.122 53.7831 160.646 53.3912C161.17 52.9966 161.494 52.4255 161.618 51.6727C161.732 50.9329 161.6 50.3359 161.227 49.8868C160.851 49.4377 160.28 49.2119 159.518 49.2119C158.971 49.2119 158.468 49.3209 158.007 49.5364C157.545 49.7518 157.115 50.0841 156.718 50.528H155.489L156.633 43.2779H163.923L163.666 44.7653H158.082L157.4 49.1262H156.923C157.299 48.6694 157.758 48.3267 158.297 48.0905C158.839 47.8569 159.422 47.7401 160.047 47.7401C160.799 47.7401 161.442 47.901 161.976 48.2281C162.51 48.5526 162.901 49.0172 163.145 49.6221C163.389 50.2269 163.443 50.9511 163.306 51.7921C163.192 52.5553 162.927 53.2146 162.513 53.7676C162.098 54.3205 161.559 54.7462 160.9 55.0421C160.239 55.338 159.482 55.486 158.629 55.486L158.634 55.4834ZM168.18 50.4916C167.213 50.4916 166.492 50.1516 166.02 49.4741C165.549 48.7966 165.403 47.8465 165.585 46.6265C165.766 45.5207 166.163 44.6614 166.772 44.0436C167.381 43.4284 168.136 43.1195 169.035 43.1195C170.015 43.1195 170.734 43.457 171.195 44.1293C171.657 44.8016 171.789 45.7491 171.597 46.9665C171.426 48.062 171.042 48.9212 170.443 49.5494C169.844 50.1775 169.093 50.489 168.18 50.489V50.4916ZM168.229 49.3287C168.73 49.3287 169.144 49.1237 169.476 48.7135C169.806 48.3034 170.039 47.683 170.176 46.8497C170.301 45.9723 170.254 45.326 170.031 44.9106C169.808 44.4953 169.448 44.2876 168.947 44.2876C168.447 44.2876 168.053 44.4875 167.734 44.8847C167.415 45.2845 167.187 45.8997 167.052 46.7303C166.915 47.6077 166.956 48.2618 167.171 48.6875C167.387 49.1159 167.742 49.3287 168.229 49.3287ZM168.761 55.3302H167.171L176.118 43.2753H177.723L168.758 55.3302H168.761ZM175.864 55.4834C174.884 55.4834 174.164 55.1433 173.694 54.4658C173.225 53.7883 173.09 52.8382 173.285 51.6182C173.466 50.5124 173.858 49.6532 174.454 49.0354C175.05 48.4202 175.8 48.1113 176.699 48.1113C177.679 48.1113 178.405 48.4513 178.877 49.1288C179.349 49.8063 179.489 50.7512 179.294 51.9583C179.113 53.0511 178.721 53.9129 178.125 54.5411C177.526 55.1693 176.774 55.4808 175.862 55.4808L175.864 55.4834ZM175.932 54.3205C176.432 54.3205 176.844 54.1154 177.171 53.7053C177.495 53.2951 177.721 52.6747 177.845 51.8415C177.993 50.9745 177.954 50.3307 177.726 49.9102C177.498 49.4897 177.135 49.2768 176.634 49.2768C176.134 49.2768 175.737 49.4767 175.413 49.8764C175.089 50.2762 174.858 50.8914 174.721 51.7221C174.597 52.6098 174.643 53.2666 174.866 53.6871C175.089 54.1076 175.444 54.3205 175.934 54.3205H175.932ZM191.368 55.4834C189.955 55.4834 188.827 55.2212 187.977 54.6969C187.127 54.1725 186.551 53.4301 186.242 52.4645C185.934 51.4988 185.885 50.3748 186.089 49.0873C186.294 47.8102 186.701 46.7303 187.311 45.8477C187.92 44.9652 188.703 44.2902 189.659 43.8204C190.616 43.3532 191.708 43.1195 192.939 43.1195C193.815 43.1195 194.562 43.2286 195.176 43.444C195.791 43.6595 196.315 43.9632 196.748 44.3499L196.048 45.7699C195.591 45.3831 195.13 45.1027 194.663 44.9314C194.197 44.7601 193.592 44.6744 192.854 44.6744C191.487 44.6744 190.38 45.0742 189.532 45.8711C188.685 46.668 188.145 47.8024 187.92 49.2742C187.692 50.746 187.86 51.8908 188.423 52.7111C188.985 53.5313 190.015 53.9415 191.505 53.9415C192.076 53.9415 192.607 53.8922 193.102 53.7961C193.598 53.7001 194.095 53.5469 194.596 53.3418L194.049 54.1959L194.663 50.245H191.71L191.933 48.9108H196.39L195.485 54.5541C195.132 54.7488 194.723 54.9123 194.256 55.0499C193.789 55.1875 193.305 55.2913 192.804 55.3666C192.304 55.4418 191.824 55.4782 191.371 55.4782L191.368 55.4834ZM198.062 55.3302L199.975 43.2753H201.751L199.838 55.3302H198.062ZM201.427 55.3302L208.702 43.2753H210.221L213.755 55.3302H212.013L211.056 51.9115L211.738 52.3892H204.445L205.298 51.9115L203.299 55.3302H201.419H201.427ZM209.213 45.2247L205.643 51.3638L205.285 50.9719H211.346L210.937 51.3638L209.262 45.2247H209.21H209.213ZM209.008 42.2499L211.245 39.2907H213.14L210.27 42.2499H209.008ZM222.79 55.3302L224.465 44.7627H220.35L220.589 43.2753H230.596L230.358 44.7627H226.243L224.569 55.3302H222.793H222.79ZM230.337 55.3302L232.25 43.2753H237.169C238.535 43.2753 239.53 43.5946 240.158 44.2331C240.785 44.8717 241 45.7673 240.806 46.9172C240.705 47.5999 240.456 48.1866 240.062 48.6694C239.67 49.1548 239.165 49.5234 238.55 49.7804C237.936 50.0374 237.246 50.1646 236.484 50.1646L236.585 49.892H236.995C237.461 49.892 237.858 50.014 238.182 50.2606C238.506 50.5072 238.755 50.8836 238.926 51.3976L240.189 55.3302H238.327L237.08 51.3794C236.943 50.9122 236.71 50.611 236.38 50.4735C236.051 50.3359 235.623 50.2684 235.1 50.2684H232.914L232.11 55.3302H230.335H230.337ZM233.122 48.9186H236.297C237.106 48.9186 237.747 48.7395 238.219 48.3812C238.69 48.023 238.978 47.5168 239.082 46.8679C239.186 46.1488 239.046 45.6089 238.664 45.2429C238.283 44.8795 237.671 44.6952 236.829 44.6952H233.79L233.124 48.9186H233.122ZM241.693 58.6633L241.983 56.937H243.777L243.487 58.6633H241.693ZM242.24 55.3302L244.153 43.2753H245.929L244.016 55.3302H242.24ZM251.41 55.3302L253.323 43.2753H255.099L254.28 48.4721H261.041L261.86 43.2753H263.636L261.723 55.3302H259.947L260.8 49.9621H254.038L253.185 55.3302H251.41ZM265.14 49.0536C265.345 47.7868 265.731 46.7147 266.301 45.8296C266.872 44.947 267.603 44.2747 268.495 43.8126C269.389 43.3506 270.398 43.1195 271.525 43.1195C272.767 43.1195 273.776 43.3895 274.556 43.932C275.336 44.4745 275.878 45.2299 276.187 46.1982C276.495 47.1664 276.545 48.2774 276.34 49.5312C276.145 50.7953 275.762 51.87 275.186 52.7552C274.611 53.6378 273.879 54.3153 272.993 54.7799C272.106 55.2472 271.092 55.4808 269.954 55.4808C268.725 55.4808 267.717 55.2108 266.931 54.6683C266.146 54.1284 265.601 53.373 265.301 52.4022C265 51.4313 264.945 50.3151 265.14 49.051V49.0536ZM266.965 49.2249C266.817 50.2165 266.838 51.0627 267.025 51.7636C267.211 52.4645 267.564 53.0044 268.082 53.3782C268.601 53.752 269.27 53.9415 270.089 53.9415C271.318 53.9415 272.308 53.5339 273.06 52.7189C273.812 51.9038 274.294 50.785 274.512 49.3599C274.67 48.3787 274.652 47.5376 274.452 46.8367C274.253 46.1359 273.898 45.5959 273.384 45.2221C272.871 44.8458 272.207 44.6588 271.385 44.6588C270.156 44.6588 269.171 45.0612 268.43 45.8633C267.688 46.6654 267.201 47.7868 266.962 49.2223L266.965 49.2249ZM268.349 58.6633L268.64 56.937H270.434L270.144 58.6633H268.349ZM283.565 55.4834C282.233 55.4834 281.152 55.2134 280.322 54.6709C279.49 54.131 278.919 53.3756 278.606 52.4048C278.292 51.4365 278.232 50.3177 278.427 49.0536C278.632 47.7868 279.028 46.7147 279.614 45.8296C280.2 44.947 280.955 44.2721 281.878 43.8022C282.8 43.335 283.858 43.1065 285.053 43.1195C285.862 43.1195 286.578 43.2337 287.205 43.4622C287.833 43.6906 288.367 44.0203 288.81 44.4538L288.144 45.8737C287.654 45.4402 287.166 45.1365 286.684 44.96C286.199 44.7835 285.624 44.6952 284.95 44.6952C283.687 44.6952 282.65 45.0898 281.841 45.8737C281.032 46.6602 280.509 47.7712 280.27 49.2067C280.133 50.1542 280.161 50.9796 280.356 51.6857C280.55 52.3918 280.931 52.9395 281.499 53.3263C282.069 53.713 282.819 53.9077 283.752 53.9077C284.356 53.9077 284.95 53.8039 285.536 53.5988C286.122 53.3938 286.682 53.0589 287.218 52.5916L287.781 53.9934C287.234 54.471 286.591 54.8396 285.852 55.0966C285.111 55.3536 284.348 55.4808 283.563 55.4808L283.565 55.4834ZM294.117 55.3302L296.03 43.2753H300.967C302.31 43.2753 303.29 43.6075 303.904 44.2747C304.519 44.9418 304.729 45.8503 304.537 47.0029C304.436 47.6985 304.192 48.2904 303.811 48.781C303.43 49.2716 302.932 49.648 302.317 49.9102C301.703 50.1724 300.975 50.3022 300.132 50.3022H296.699L295.896 55.3302H294.12H294.117ZM296.92 48.8822H300.044C300.863 48.8822 301.503 48.7135 301.965 48.3786C302.426 48.0438 302.709 47.5428 302.81 46.8835C302.924 46.1644 302.802 45.6219 302.442 45.2507C302.084 44.8795 301.501 44.6952 300.692 44.6952H297.568L296.92 48.8848V48.8822ZM305.353 55.3302L307.267 43.2753H309.043L308.223 48.4721H314.985L315.804 43.2753H317.58L315.667 55.3302H313.891L314.744 49.9621H307.982L307.129 55.3302H305.353ZM318.503 55.3302L320.416 43.2753H322.192L320.279 55.3302H318.503ZM320.841 42.2499L323.079 39.2907H324.974L322.104 42.2499H320.841Z" fill="url(#paint0_linear_474_87)"/>
<defs>
<linearGradient id="paint0_linear_474_87" x1="0.460815" y1="29.4837" x2="466" y2="29.4837" gradientUnits="userSpaceOnUse">
<stop stop-color="#F9D16F"/>
<stop offset="0.07" stop-color="#EEBE5C"/>
<stop offset="0.18" stop-color="#E0A341"/>
<stop offset="0.25" stop-color="#DB9A38"/>
<stop offset="0.3" stop-color="#DDA044"/>
<stop offset="0.4" stop-color="#E5B365"/>
<stop offset="0.52" stop-color="#F1D19B"/>
<stop offset="0.64" stop-color="#FFF1D5"/>
<stop offset="0.66" stop-color="#FEEBC4"/>
<stop offset="0.68" stop-color="#FCE3AA"/>
<stop offset="0.71" stop-color="#FBDC94"/>
<stop offset="0.74" stop-color="#FAD783"/>
<stop offset="0.78" stop-color="#F9D377"/>
<stop offset="0.84" stop-color="#F9D170"/>
<stop offset="1" stop-color="#F9D16F"/>
</linearGradient>
</defs>
</svg>
