<svg width="749" height="129" viewBox="0 0 749 129" fill="none" xmlns="http://www.w3.org/2000/svg">
<path d="M6.51372 50.2438L0.789062 32.0323L11.6712 30.0076L12.8903 49.0618L6.51372 50.2491V50.2438ZM20.5815 47.6255L14.8569 29.414L25.739 27.3893L26.9582 46.4436L20.5815 47.6308V47.6255ZM62.2655 67.5755C57.532 68.3175 53.3181 68.0154 49.6288 66.6638C45.9396 65.3123 42.913 63.0756 40.5542 59.9432C38.1954 56.8161 36.6477 52.9257 35.9215 48.2774C35.19 43.6291 35.4709 39.4632 36.759 35.7849C38.047 32.1065 40.2415 29.0589 43.337 26.6367C46.4326 24.2198 50.3497 22.635 55.0832 21.893C58.1416 21.4107 60.9933 21.4054 63.6436 21.8665C66.294 22.3329 68.6262 23.2392 70.6405 24.5961L68.7746 32.8061C66.612 31.6029 64.6084 30.8186 62.7743 30.4634C60.935 30.1083 58.9261 30.103 56.7529 30.4422C52.6078 31.0941 49.6235 32.8167 47.8107 35.6152C45.9979 38.4137 45.4467 42.0921 46.1675 46.6555C46.8831 51.219 48.5369 54.5688 51.1236 56.6942C53.7103 58.8195 57.0762 59.5563 61.2266 58.9044C63.4051 58.5599 65.3133 57.9397 66.9512 57.0387C68.5891 56.1376 70.2535 54.7808 71.9444 52.9681L76.2379 60.2135C74.7272 62.0845 72.7872 63.6533 70.4125 64.9307C68.0378 66.2027 65.3186 67.0826 62.2602 67.5649L62.2655 67.5755ZM83.4891 63.6639L77.7963 19.1846L97.9863 16.6034C102.99 15.9621 107.013 16.6564 110.05 18.6811C113.088 20.7058 114.879 23.8435 115.425 28.0943C115.78 30.8716 115.468 33.3362 114.482 35.4933C113.496 37.6505 111.927 39.4102 109.77 40.7776C107.612 42.1451 104.935 43.0302 101.739 43.4383L102.317 41.9543L104.904 41.6256C106.711 41.3924 108.381 41.6734 109.918 42.4578C111.45 43.2475 112.796 44.5037 113.962 46.2369L122.29 58.703L111.439 60.0916L102.73 46.6503C102.068 45.4948 101.177 44.7846 100.054 44.5249C98.9298 44.2652 97.6735 44.2228 96.2848 44.3977L91.1114 45.0602L93.3323 62.4078L83.4891 63.6692V63.6639ZM90.2103 37.9897L98.8556 36.882C101.421 36.5534 103.308 35.7795 104.522 34.5552C105.736 33.3308 106.208 31.6878 105.942 29.626C105.677 27.5642 104.808 26.1067 103.329 25.2481C101.85 24.3894 99.8309 24.1244 97.2654 24.453L88.6201 25.5608L90.2103 37.9897ZM127.919 58.1358L123.27 13.5399L154.268 10.3067L155.068 17.9603L133.495 20.2076L134.582 30.6436L154.634 28.5554L155.44 36.2724L135.387 38.3608L136.548 49.4965L158.122 47.2492L158.922 54.9027L127.924 58.1358H127.919ZM159.569 54.7596L176.419 8.37747L184.598 7.70433L209.082 50.6784L199.064 51.5052L192.65 39.5268L196.742 41.9331L170.181 44.1274L173.886 41.0798L169.523 53.9486L159.569 54.7702V54.7596ZM181.338 18.4425L174.76 38.5144L172.852 36.246L192.819 34.5976L191.558 37.1258L181.587 18.4214L181.333 18.4425H181.338ZM218.098 50.2014L215.745 13.5134L201.523 14.425L201.004 6.36343L239.343 3.90412L239.857 11.9657L225.641 12.8773L227.994 49.5654L218.093 50.2014H218.098ZM247.479 48.447L245.195 3.66557L255.107 3.16208L257.391 47.9435L247.479 48.447ZM281.006 46.91L259.199 2.84408L269.88 2.44657L286.524 37.73L283.407 37.8466L297.4 1.43421L307.699 1.05261L289.206 46.6078L281.006 46.91ZM312.862 45.85L311.988 1.02078L343.15 0.411241L343.298 8.10715L321.614 8.53119L321.82 19.0256L341.978 18.6333L342.132 26.3929L321.974 26.7851L322.191 37.9791L343.876 37.5551L344.025 45.251L312.862 45.8605V45.85ZM368.715 45.1132L368.55 0.273495L378.473 0.236357L378.637 45.0761L368.715 45.1132ZM387.558 45.039L388.12 0.20459L405.231 0.416546C410.446 0.480149 414.846 1.42894 418.424 3.25221C422.007 5.07548 424.7 7.66723 426.502 11.017C428.304 14.3667 429.179 18.3949 429.12 23.1015C429.062 27.7656 428.087 31.762 426.205 35.0852C424.318 38.4137 421.562 40.9525 417.936 42.7122C414.311 44.4719 409.89 45.3146 404.674 45.251L387.564 45.039H387.558ZM397.582 37.0251L404.197 37.1099C409.201 37.1735 412.932 36.0446 415.402 33.7178C417.873 31.3963 419.134 27.8186 419.192 22.9849C419.251 18.1087 418.079 14.4886 415.673 12.1301C413.261 9.76616 409.556 8.55766 404.552 8.49405L397.937 8.4093L397.582 37.0304V37.0251ZM436.403 45.7757L437.755 0.957178L468.907 1.89532L468.674 9.58593L446.994 8.93401L446.676 19.4231L466.829 20.0326L466.596 27.7868L446.443 27.1773L446.104 38.3661L467.783 39.018L467.55 46.7086L436.398 45.7704L436.403 45.7757ZM468.26 46.6661L491 2.86524L499.194 3.25745L517.879 49.0459L507.84 48.5637L503.037 35.8537L506.78 38.7741L480.16 37.4968L484.231 34.9527L478.231 47.1432L468.255 46.6661H468.26ZM494.562 13.4816L485.429 32.5252L483.828 30.0288L503.843 30.9882L502.263 33.3309L494.811 13.4869L494.556 13.4763L494.562 13.4816ZM522.634 23.9071L519.077 20.6845C520.657 19.2535 521.791 17.9073 522.491 16.6299C523.185 15.3579 523.583 13.9798 523.678 12.501L525.756 14.9285L518.584 14.4727L519.231 4.31749L529.578 4.98002L529.159 11.5152C529.005 13.9268 528.443 16.0998 527.468 18.0344C526.493 19.969 524.881 21.9301 522.634 23.9071ZM536.41 24.7869L532.853 21.5644C534.433 20.1333 535.567 18.7871 536.267 17.5097C536.961 16.2377 537.359 14.8596 537.454 13.3809L539.532 15.8084L532.36 15.3526L533.007 5.19734L543.354 5.85987L542.935 12.3951C542.781 14.8067 542.219 16.9797 541.244 18.9143C540.269 20.8489 538.657 22.8047 536.41 24.7869ZM565.717 52.4699L569.73 7.81037L590.572 9.68136C595.597 10.1319 599.302 11.6901 601.682 14.3508C604.062 17.0115 605.063 20.4566 604.682 24.6756C604.305 28.8575 602.71 32.0641 599.89 34.3008C597.07 36.5375 593.148 37.4332 588.123 36.9774L577.161 35.9915L575.603 53.3497L565.717 52.4593V52.4699ZM577.85 28.3328L587.545 29.202C589.909 29.414 591.722 29.043 592.978 28.0943C594.234 27.1455 594.95 25.7144 595.119 23.817C595.289 21.9142 594.839 20.3983 593.773 19.2588C592.702 18.1193 590.985 17.4462 588.621 17.2342L578.926 16.3649L577.85 28.3381V28.3328ZM608.223 56.3655L613.269 11.812L633.496 14.1017C638.51 14.6688 642.252 16.3013 644.723 18.9885C647.193 21.681 648.184 25.1526 647.701 29.4087C647.389 32.1913 646.493 34.5128 645.025 36.3732C643.556 38.2336 641.611 39.5692 639.194 40.3854C636.777 41.2016 633.968 41.4243 630.766 41.0639L631.683 39.76L634.275 40.0515C636.088 40.2582 637.641 40.926 638.945 42.0497C640.249 43.1786 641.256 44.721 641.972 46.6821L647.097 60.77L636.226 59.5404L630.962 44.4136C630.596 43.1362 629.897 42.2352 628.868 41.7105C627.84 41.191 626.632 40.8465 625.238 40.6928L620.054 40.1045L618.087 57.4839L608.228 56.3655H608.223ZM620.854 33.0234L629.51 34.0039C632.081 34.2955 634.1 33.9881 635.568 33.087C637.037 32.186 637.885 30.7019 638.118 28.6401C638.351 26.5784 637.853 24.9512 636.623 23.764C635.388 22.582 633.491 21.84 630.92 21.5485L622.259 20.5679L620.849 33.0181L620.854 33.0234ZM652.742 61.6075L658.615 17.1546L668.453 18.4532L662.58 62.906L652.742 61.6075ZM669.763 63.8123L670.855 56.5829L699.335 28.2109L698.895 31.1047L675.249 27.5271L676.468 19.4761L709.485 24.4689L708.399 31.6401L679.855 60.0015L680.284 57.1712L704.874 60.8919L703.655 68.943L669.757 63.8176L669.763 63.8123ZM709.756 69.9765L717.717 25.847L748.392 31.3804L747.024 38.9544L725.679 35.1011L723.813 45.4312L743.658 49.0089L742.28 56.6465L722.435 53.0635L720.447 64.0773L741.793 67.9306L740.425 75.5046L709.75 69.9712L709.756 69.9765ZM239.56 128.12L240.048 125.083H245.772L248.704 106.58L250.485 106.649L242.841 110.91L243.398 107.348L250.204 103.506H252.822L249.398 125.083H254.773L254.285 128.12H239.55H239.56ZM267.107 128.432C264.081 128.432 261.976 127.293 260.789 125.008C259.602 122.729 259.331 119.491 259.989 115.304C260.662 111.138 261.881 108.08 263.636 106.124C265.39 104.168 267.643 103.193 270.394 103.193C273.373 103.193 275.472 104.301 276.696 106.511C277.915 108.721 278.191 111.959 277.518 116.215C276.866 120.36 275.636 123.429 273.834 125.432C272.032 127.436 269.79 128.432 267.113 128.432H267.107ZM267.319 125.395C269.042 125.395 270.463 124.653 271.581 123.159C272.7 121.669 273.526 119.237 274.062 115.86C274.412 113.555 274.502 111.694 274.343 110.274C274.178 108.854 273.749 107.82 273.049 107.168C272.35 106.516 271.396 106.193 270.187 106.193C268.443 106.193 267.023 106.924 265.925 108.392C264.833 109.861 264.017 112.267 263.482 115.616C263.111 117.896 263.01 119.761 263.185 121.203C263.36 122.645 263.795 123.705 264.494 124.378C265.194 125.051 266.137 125.39 267.319 125.39V125.395ZM289.524 128.12L293.436 103.506H296.611L302.722 124.908H301.641L314.558 103.506H317.702L313.79 128.12H310.509L313.615 108.43H314.802L302.791 128.12H300.591L294.798 108.43H295.948L292.842 128.12H289.524ZM319.652 128.12L323.564 103.506H327.195L323.283 128.12H319.652ZM329.077 128.12L332.989 103.506H336.62L333.201 125.008H345.244L344.788 128.114H329.077V128.12ZM348.35 128.12L352.262 103.506H355.893L352.468 125.008H364.511L364.055 128.114H348.344L348.35 128.12ZM367.623 128.12L371.535 103.506H375.166L371.254 128.12H367.623ZM378.235 115.309C378.653 112.728 379.443 110.534 380.609 108.726C381.775 106.924 383.27 105.551 385.094 104.608C386.917 103.665 388.984 103.193 391.29 103.193C393.829 103.193 395.891 103.744 397.486 104.852C399.082 105.96 400.19 107.502 400.82 109.479C401.451 111.456 401.552 113.724 401.133 116.284C400.736 118.866 399.951 121.06 398.774 122.867C397.598 124.669 396.103 126.053 394.29 127.007C392.477 127.961 390.405 128.438 388.078 128.438C385.565 128.438 383.503 127.887 381.897 126.779C380.291 125.676 379.178 124.134 378.563 122.152C377.948 120.175 377.837 117.89 378.229 115.309H378.235ZM381.972 115.659C381.669 117.684 381.712 119.412 382.093 120.843C382.475 122.274 383.196 123.376 384.256 124.139C385.316 124.908 386.684 125.289 388.359 125.289C390.871 125.289 392.896 124.457 394.433 122.793C395.97 121.129 396.956 118.844 397.402 115.935C397.725 113.931 397.688 112.219 397.28 110.783C396.872 109.352 396.145 108.249 395.096 107.486C394.046 106.718 392.689 106.336 391.009 106.336C388.497 106.336 386.482 107.157 384.966 108.795C383.45 110.433 382.454 112.723 381.966 115.654L381.972 115.659ZM404.245 128.12L408.157 103.506H410.95L422.786 123.509L422.055 123.334L425.198 103.506H428.585L424.673 128.12H421.917L410.049 108.117L410.78 108.292L407.637 128.12H404.25H404.245ZM447.609 128.12L440.697 103.506H444.434L450.227 125.083H449.003L461.64 103.506H465.551L450.784 128.12H447.609ZM464.47 128.12L468.382 103.506H471.175L483.012 123.509L482.28 123.334L485.423 103.506H488.811L484.899 128.12H482.142L470.274 108.117L471.006 108.292L467.863 128.12H464.475H464.47ZM490.66 128.12L494.572 103.506H502.741C505.672 103.506 508.031 104.02 509.812 105.043C511.593 106.066 512.828 107.528 513.511 109.426C514.195 111.323 514.333 113.608 513.914 116.284C513.283 120.244 511.72 123.201 509.218 125.167C506.716 127.134 503.414 128.12 499.322 128.12H490.666H490.66ZM494.779 125.083H499.422C502.613 125.083 505.099 124.33 506.896 122.83C508.688 121.33 509.817 119.041 510.283 115.972C510.797 112.76 510.395 110.385 509.08 108.848C507.766 107.311 505.513 106.543 502.322 106.543H497.716L494.784 125.083H494.779Z" fill="url(#paint0_linear_508_564)"/>
<defs>
<linearGradient id="paint0_linear_508_564" x1="0.789062" y1="64.3212" x2="748.392" y2="64.3212" gradientUnits="userSpaceOnUse">
<stop stop-color="#F9D16F"/>
<stop offset="0.07" stop-color="#EEBE5C"/>
<stop offset="0.18" stop-color="#E0A341"/>
<stop offset="0.25" stop-color="#DB9A38"/>
<stop offset="0.3" stop-color="#DDA044"/>
<stop offset="0.4" stop-color="#E5B365"/>
<stop offset="0.52" stop-color="#F1D19B"/>
<stop offset="0.64" stop-color="#FFF1D5"/>
<stop offset="0.66" stop-color="#FEEBC4"/>
<stop offset="0.68" stop-color="#FCE3AA"/>
<stop offset="0.71" stop-color="#FBDC94"/>
<stop offset="0.74" stop-color="#FAD783"/>
<stop offset="0.78" stop-color="#F9D377"/>
<stop offset="0.84" stop-color="#F9D170"/>
<stop offset="1" stop-color="#F9D16F"/>
</linearGradient>
</defs>
</svg>
