<svg width="1147" height="188" viewBox="0 0 1147 188" fill="none" xmlns="http://www.w3.org/2000/svg">
<path d="M8.90793 127.694L4.58799 122.765C2.99251 120.947 1.8529 119.002 1.16382 116.93C0.474742 114.857 0.225606 112.324 0.427029 109.329L5.26118 109.154C5.12336 111.248 5.25056 113.002 5.6375 114.407C6.02445 115.817 6.7241 117.094 7.73121 118.239L4.50847 117.937L9.91513 113.198L16.6628 120.899L8.91324 127.689L8.90793 127.694ZM19.2866 118.599L14.9666 113.67C13.3764 111.852 12.2314 109.907 11.5423 107.834C10.8532 105.762 10.6042 103.229 10.8056 100.234L15.6398 100.059C15.502 102.153 15.6292 103.907 16.0161 105.312C16.4031 106.721 17.1027 107.999 18.1098 109.144L14.887 108.842L20.2936 104.103L27.0413 111.804L19.2919 118.594L19.2866 118.599ZM59.4333 122.134L26.6173 87.6884L35.9676 83.5119L60.4829 110.453L57.9863 111.571L55.1876 74.9202L61.808 71.9627L86.3233 98.9036L84.0017 99.9425L80.9167 63.4241L89.6839 59.5072L93.3519 106.986L85.9788 110.283L62.9265 85.6797L64.2623 85.0807L66.8701 118.817L59.4386 122.14L59.4333 122.134ZM112.81 100.419L99.8239 57.4984L129.656 48.4722L131.887 55.8395L111.125 62.1202L114.162 72.1641L133.462 66.3233L135.709 73.7489L116.41 79.5897L119.654 90.3014L140.416 84.0207L142.648 91.388L112.816 100.414L112.81 100.419ZM148.833 89.835L138.089 46.2991L147.72 43.9193L156.466 79.3618L176.105 74.5174L178.103 82.6055L148.833 89.8297V89.835ZM183.621 81.4501L174.547 37.5378L184.263 35.5291L191.652 71.2843L211.46 67.1925L213.146 75.3496L183.621 81.4501ZM234.035 72.3867C230.484 73.0015 227.086 73.1393 223.842 72.7948C220.598 72.4503 217.757 71.6977 215.314 70.5264L216.872 62.3799C218.457 63.0954 220.105 63.652 221.807 64.0442C223.508 64.4364 225.268 64.659 227.086 64.712C228.904 64.765 230.77 64.6219 232.694 64.288C235.705 63.7686 237.762 62.9364 238.88 61.7969C239.993 60.6574 240.428 59.3747 240.184 57.9543C239.961 56.661 239.357 55.7388 238.382 55.1982C237.407 54.6575 235.747 54.3289 233.405 54.2176L225.75 53.995C221.552 53.8625 218.277 52.9668 215.923 51.3078C213.57 49.6489 212.107 47.1472 211.529 43.808C211.036 40.9671 211.365 38.37 212.504 36.022C213.649 33.674 215.483 31.6759 218.022 30.0328C220.556 28.3897 223.662 27.2502 227.341 26.6141C230.473 26.0735 233.473 26.0046 236.341 26.4127C239.209 26.8208 241.663 27.6848 243.698 29.0098L242.05 36.6528C240.099 35.5715 238.005 34.8666 235.779 34.5433C233.548 34.22 231.141 34.2836 228.549 34.7288C225.835 35.2005 223.837 36.0379 222.565 37.2517C221.287 38.4654 220.794 39.9017 221.086 41.5766C221.303 42.8275 221.918 43.7656 222.931 44.391C223.943 45.0112 225.591 45.361 227.887 45.4352L235.408 45.6207C239.691 45.7426 243.004 46.6065 245.347 48.2231C247.69 49.8396 249.147 52.2778 249.709 55.5374C250.186 58.2935 249.858 60.827 248.734 63.1273C247.605 65.4328 245.792 67.3886 243.296 69.0052C240.799 70.6217 237.714 71.7454 234.035 72.3815V72.3867ZM258.874 67.5265L252.545 23.1372L273.26 20.185C278.253 19.4748 282.218 20.1426 285.144 22.1832C288.07 24.229 289.829 27.3509 290.428 31.5487C291.022 35.704 290.2 39.1916 287.969 42.0166C285.737 44.8416 282.122 46.6065 277.129 47.3221L266.236 48.875L268.696 66.1272L258.874 67.5265ZM265.155 41.2533L274.792 39.8806C277.14 39.5466 278.82 38.7728 279.827 37.5591C280.834 36.3453 281.2 34.7923 280.93 32.9055C280.659 31.0186 279.875 29.6406 278.576 28.7767C277.272 27.9127 275.449 27.6477 273.101 27.9816L263.464 29.3544L265.161 41.2533H265.155ZM301.12 61.622L295.973 17.0791L316.195 14.7417C321.209 14.164 325.222 14.906 328.232 16.9678C331.243 19.0296 332.998 22.1885 333.491 26.4446C333.814 29.2272 333.464 31.6864 332.457 33.833C331.445 35.9796 329.854 37.7181 327.681 39.059C325.508 40.4 322.821 41.2533 319.619 41.6244L320.218 40.1456L322.81 39.8488C324.623 39.6421 326.287 39.9389 327.814 40.7445C329.335 41.5501 330.671 42.8275 331.81 44.5712L339.984 57.1381L329.118 58.3942L320.573 44.8469C319.926 43.6861 319.041 42.9653 317.923 42.6897C316.804 42.4141 315.548 42.3557 314.159 42.5147L308.981 43.1137L310.99 60.4878L301.13 61.6273L301.12 61.622ZM308.148 36.0326L316.804 35.0309C319.375 34.7341 321.273 33.9814 322.497 32.773C323.722 31.5645 324.22 29.9268 323.976 27.865C323.737 25.8032 322.884 24.3298 321.416 23.4552C319.948 22.5807 317.928 22.2892 315.363 22.586L306.707 23.5877L308.143 36.0326H308.148ZM345.693 56.6663L341.314 12.0386L351.189 11.0687L355.568 55.6964L345.693 56.6663ZM364.435 54.7794L360.805 10.0881L368.156 9.4892L394.946 38.3912L393.234 38.529L390.727 7.65529L399.918 6.90801L403.549 51.5993L396.191 52.1982L369.466 23.2909L371.114 23.1584L373.621 54.0321L364.43 54.7794H364.435ZM434.594 50.3908C429.474 50.693 425.112 50.004 421.507 48.3291C417.903 46.6543 415.109 44.1419 413.132 40.7975C411.15 37.4531 410.026 33.4726 409.75 28.8614C409.469 24.123 410.19 19.9571 411.913 16.3742C413.636 12.7912 416.26 9.93971 419.79 7.81963C423.32 5.69954 427.624 4.49111 432.702 4.189C435.962 3.99819 438.856 4.242 441.379 4.92043C443.902 5.59886 446.144 6.64825 448.095 8.05811L445.376 15.929C443.961 15.0332 442.646 14.3389 441.427 13.8353C440.208 13.3318 438.957 13.0032 437.674 12.8442C436.391 12.6852 434.923 12.6534 433.274 12.7541C428.615 13.0298 425.191 14.4926 422.986 17.1533C420.786 19.8087 419.827 23.5295 420.108 28.3155C420.389 33.0539 421.698 36.5892 424.046 38.916C426.389 41.2427 429.914 42.2656 434.616 41.99C436.179 41.8999 437.78 41.6561 439.413 41.2586C441.045 40.8664 442.651 40.3258 444.225 39.6368L442.672 43.5536L441.962 31.4904L432.119 32.0681L431.706 25.0188L449.738 23.9534L451.032 45.9228C448.853 47.1578 446.309 48.1648 443.404 48.9545C440.499 49.7389 437.563 50.2212 434.6 50.3962L434.594 50.3908ZM487.701 47.2479L486.508 10.5068L472.266 10.9679L472.006 2.89571L510.404 1.65018L510.669 9.72238L496.426 10.1835L497.618 46.9246L487.701 47.2479ZM506.789 46.543L526.655 1.36925L534.861 1.23144L556.461 45.7214L546.411 45.8857L540.797 33.5097L544.72 36.181L518.074 36.6209L521.97 33.8225L516.77 46.3786L506.783 46.543H506.789ZM530.896 11.7312L523.014 31.326L521.259 28.9356L541.29 28.607L539.87 31.0451L531.15 11.7259H530.896V11.7312ZM560.15 45.7426L560.314 0.902832L570.237 0.93997L570.104 37.4478L590.331 37.522L590.3 45.8539L560.15 45.7426ZM596.194 45.8539L596.867 1.01949L628.029 1.48591L627.913 9.18175L606.223 8.85845L606.064 19.3529L626.227 19.655L626.111 27.4145L605.947 27.1124L605.777 38.3064L627.467 38.6297L627.351 46.3256L596.189 45.8592L596.194 45.8539ZM634.099 46.4581L635.561 1.63957L642.935 1.87812L666.273 33.6316L664.556 33.5733L665.563 2.61485L674.781 2.91694L673.318 47.7355L665.945 47.497L642.67 15.7487L644.323 15.8018L643.316 46.7602L634.099 46.4581ZM692.554 48.6736L694.441 11.9591L680.214 11.2277L680.627 3.16072L718.993 5.13245L718.58 13.1993L704.353 12.4679L702.466 49.1824L692.554 48.6736ZM739.766 51.4933L743.021 6.7702L752.917 7.49102L749.662 52.2142L739.766 51.4933ZM758.557 52.8131L762.538 8.14824L769.884 8.80546L791.399 41.8205L789.687 41.6667L792.438 10.8143L801.624 11.6304L797.643 56.2953L790.297 55.6381L768.845 22.6284L770.494 22.7768L767.743 53.6293L758.557 52.8131ZM827.905 60.35C823.145 59.8093 819.164 58.3995 815.968 56.1151C812.771 53.8307 810.45 50.8679 809.008 47.2266C807.566 43.5854 807.11 39.4248 807.64 34.75C808.17 30.0752 809.549 26.1318 811.77 22.9305C813.991 19.7239 816.916 17.3706 820.542 15.8601C824.173 14.3495 828.366 13.8672 833.126 14.4078C836.2 14.7576 838.956 15.5049 841.384 16.6551C843.812 17.8052 845.821 19.3052 847.406 21.1497L843.425 28.5699C841.66 26.8315 839.937 25.5488 838.262 24.7167C836.587 23.8846 834.652 23.3492 832.458 23.1001C828.286 22.6284 824.957 23.4976 822.461 25.7078C819.964 27.918 818.464 31.326 817.939 35.916C817.42 40.5113 818.125 44.1737 820.054 46.9086C821.984 49.6488 825.037 51.2495 829.209 51.7265C831.398 51.9756 833.407 51.8802 835.225 51.4509C837.043 51.0163 839.009 50.1524 841.119 48.8538L843.335 56.979C841.384 58.3783 839.094 59.38 836.465 59.9737C833.836 60.5673 830.984 60.6945 827.91 60.3446L827.905 60.35ZM868.407 65.5495C861.897 64.6326 857.275 62.3323 854.54 58.6486C851.805 54.965 850.888 49.9351 851.789 43.5536L855.431 17.731L865.258 19.1196L861.606 45.0059C861.102 48.5729 861.484 51.3926 862.756 53.4544C864.028 55.5162 866.302 56.7829 869.578 57.244C872.769 57.6946 875.281 57.1063 877.116 55.4791C878.95 53.8519 880.121 51.2548 880.624 47.6878L884.277 21.8016L893.977 23.169L890.335 48.9916C889.434 55.3731 887.15 59.9524 883.482 62.735C879.814 65.5177 874.788 66.4558 868.407 65.5548V65.5495ZM896.055 68.8939L903.746 24.7167L924.111 28.2625C928.955 29.1052 932.517 30.7801 934.791 33.2871C937.065 35.7941 937.898 38.8205 937.277 42.3716C936.816 45.0058 935.645 47.1047 933.758 48.6683C931.871 50.2318 929.517 51.0905 926.692 51.2442L926.867 50.2425C929.947 51.3396 932.194 52.9668 933.604 55.1293C935.014 57.2917 935.459 59.8518 934.945 62.8199C934.261 66.7473 932.337 69.567 929.178 71.2737C926.019 72.9803 921.996 73.4097 917.109 72.5616L896.055 68.8939ZM906.656 63.2492L917.183 65.0831C919.605 65.5071 921.545 65.3693 922.997 64.6749C924.45 63.9806 925.356 62.6344 925.706 60.6256C926.061 58.5797 925.669 56.9949 924.535 55.8713C923.395 54.7477 921.614 53.9738 919.192 53.5551L908.665 51.7212L906.656 63.2492ZM909.921 44.5129L919.197 46.1295C921.747 46.5747 923.703 46.4422 925.075 45.732C926.448 45.0271 927.291 43.7497 927.614 41.9105C927.927 40.1137 927.556 38.6509 926.507 37.522C925.452 36.3931 923.655 35.6033 921.105 35.1634L911.829 33.5468L909.921 44.5129ZM933.874 75.3549L963.484 35.8736L971.503 37.6068L982.433 85.8386L972.611 83.7185L969.956 70.3939L973.173 73.8867L947.121 68.2632L951.552 66.424L943.638 77.4696L933.874 75.3602V75.3549ZM965.264 46.9299L953.137 64.2244L951.971 61.5001L971.556 65.7297L969.616 67.7809L965.519 46.9829L965.27 46.9299H965.264ZM990.851 88.2662L1000.2 52.7123L986.419 49.0923L988.476 41.2798L1025.63 51.0481L1023.58 58.8606L1009.79 55.2405L1000.44 90.7944L990.851 88.2715V88.2662ZM1022.11 73.1394C1023.6 68.719 1025.73 65.1573 1028.5 62.4436C1031.27 59.7299 1034.53 58.002 1038.28 57.2493C1042.02 56.4967 1046.04 56.8465 1050.34 58.2988C1054.64 59.751 1058.05 61.9082 1060.57 64.7703C1063.1 67.6377 1064.66 70.9928 1065.27 74.846C1065.87 78.6993 1065.43 82.8122 1063.95 87.1902C1062.45 91.6477 1060.29 95.2306 1057.47 97.9284C1054.66 100.626 1051.38 102.359 1047.63 103.133C1043.88 103.907 1039.85 103.563 1035.56 102.116C1031.26 100.663 1027.86 98.5009 1025.36 95.6228C1022.87 92.7448 1021.33 89.3739 1020.75 85.51C1020.17 81.6462 1020.62 77.5226 1022.1 73.1447L1022.11 73.1394ZM1031.94 76.4573C1030.46 80.8353 1030.22 84.5719 1031.21 87.6566C1032.21 90.7466 1034.55 92.9091 1038.25 94.16C1041.86 95.379 1045.03 95.0716 1047.76 93.2378C1050.48 91.4039 1052.58 88.2979 1054.05 83.92C1055.54 79.4996 1055.77 75.763 1054.72 72.6995C1053.67 69.6412 1051.31 67.4893 1047.66 66.2597C1043.97 65.0141 1040.79 65.295 1038.14 67.1077C1035.49 68.9204 1033.42 72.0369 1031.94 76.4573ZM1062.68 110.877L1082.51 70.6641L1100.77 79.6692C1105.3 81.9006 1108.26 84.6991 1109.67 88.0701C1111.08 91.4357 1110.85 95.0398 1108.95 98.8825C1107.71 101.389 1106.09 103.276 1104.07 104.527C1102.06 105.778 1099.78 106.382 1097.22 106.329C1094.67 106.276 1091.95 105.54 1089.06 104.114L1090.36 103.197L1092.7 104.352C1094.33 105.158 1095.57 106.313 1096.42 107.819C1097.26 109.324 1097.68 111.115 1097.7 113.204L1097.75 128.193L1087.94 123.353L1088.11 107.336C1088.2 106.011 1087.85 104.925 1087.06 104.087C1086.27 103.25 1085.24 102.518 1083.99 101.898L1079.31 99.5927L1071.57 115.281L1062.67 110.893L1062.68 110.877ZM1082.47 93.19L1090.28 97.0433C1092.6 98.1881 1094.6 98.5856 1096.29 98.2358C1097.98 97.886 1099.28 96.7782 1100.2 94.9126C1101.11 93.0522 1101.19 91.3508 1100.44 89.8191C1099.68 88.2873 1098.15 86.9464 1095.82 85.8069L1088.01 81.9536L1082.47 93.19ZM1117.13 110.808L1127.39 94.7112L1135.94 101.734L1122.14 114.926L1117.12 110.808H1117.13ZM1128.18 119.892L1138.45 103.796L1147 110.818L1133.19 124.011L1128.18 119.892H1128.18ZM361.441 130.223C357.852 130.556 354.454 130.424 351.248 129.825C348.041 129.226 345.269 128.251 342.926 126.889L345.125 118.891C346.652 119.728 348.247 120.412 349.912 120.937C351.576 121.467 353.315 121.827 355.122 122.018C356.93 122.214 358.801 122.219 360.746 122.039C363.789 121.758 365.909 121.096 367.107 120.046C368.31 118.997 368.846 117.756 368.713 116.32C368.591 115.011 368.066 114.046 367.139 113.432C366.211 112.817 364.579 112.361 362.252 112.064L354.635 111.237C350.463 110.771 347.267 109.621 345.051 107.781C342.836 105.942 341.574 103.335 341.261 99.9584C340.996 97.0857 341.526 94.5257 342.851 92.2731C344.177 90.0205 346.164 88.1761 348.825 86.7397C351.481 85.3033 354.666 84.4129 358.382 84.0684C361.547 83.7769 364.547 83.9464 367.372 84.5772C370.197 85.2079 372.577 86.268 374.501 87.7521L372.254 95.2412C370.393 94.0062 368.363 93.1424 366.169 92.6441C363.974 92.1459 361.563 92.0134 358.949 92.2572C356.204 92.5116 354.147 93.1901 352.785 94.2978C351.417 95.4055 350.813 96.7994 350.967 98.4902C351.083 99.757 351.624 100.743 352.578 101.437C353.537 102.137 355.154 102.614 357.439 102.873L364.923 103.653C369.18 104.114 372.418 105.237 374.629 107.034C376.839 108.831 378.095 111.375 378.403 114.672C378.662 117.46 378.138 119.956 376.828 122.161C375.519 124.371 373.558 126.179 370.945 127.594C368.331 129.009 365.162 129.883 361.446 130.228L361.441 130.223ZM408.372 126.422C403.591 126.767 399.419 126.11 395.857 124.451C392.295 122.792 389.47 120.306 387.382 116.993C385.293 113.681 384.085 109.674 383.746 104.978C383.406 100.282 384.037 96.1581 385.633 92.6017C387.228 89.0453 389.666 86.1885 392.958 84.0419C396.25 81.8953 400.284 80.6498 405.059 80.3052C408.144 80.0826 410.991 80.3158 413.588 80.9995C416.191 81.6833 418.433 82.791 420.33 84.3122L417.781 92.3367C415.724 90.9533 413.8 90.0099 411.998 89.5011C410.196 88.9923 408.197 88.8174 405.998 88.9764C401.81 89.2785 398.693 90.7414 396.653 93.3756C394.612 96.0098 393.753 99.6298 394.082 104.241C394.41 108.852 395.778 112.324 398.174 114.661C400.575 116.999 403.867 118.016 408.054 117.714C410.254 117.555 412.21 117.099 413.917 116.336C415.623 115.578 417.399 114.364 419.238 112.705L422.906 120.285C421.247 122.018 419.175 123.422 416.705 124.493C414.229 125.564 411.447 126.21 408.362 126.428L408.372 126.422ZM429.93 124.244L427.661 79.4625L437.573 78.959L438.485 96.9373L459.004 95.8985L458.092 77.9201L468.068 77.4167L470.336 122.198L460.361 122.702L459.417 104.087L438.898 105.126L439.842 123.74L429.93 124.244ZM477.185 99.439C477.047 94.7748 477.805 90.6936 479.464 87.1849C481.118 83.6815 483.572 80.9254 486.827 78.9166C490.076 76.9131 493.966 75.8424 498.504 75.7099C503.041 75.5774 506.99 76.4149 510.351 78.2222C513.711 80.0296 516.346 82.6373 518.249 86.04C520.151 89.4428 521.169 93.4498 521.307 98.0715C521.445 102.778 520.666 106.88 518.964 110.389C517.263 113.898 514.787 116.665 511.543 118.689C508.294 120.714 504.403 121.795 499.866 121.928C495.329 122.06 491.39 121.212 488.051 119.384C484.706 117.555 482.098 114.926 480.211 111.502C478.33 108.078 477.317 104.061 477.185 99.439ZM487.547 99.1316C487.685 103.753 488.756 107.336 490.76 109.886C492.763 112.435 495.716 113.654 499.617 113.538C503.433 113.426 506.296 112.038 508.209 109.372C510.123 106.706 511.013 103.064 510.875 98.4425C510.737 93.7783 509.646 90.1954 507.6 87.6884C505.554 85.1814 502.601 83.9889 498.742 84.1002C494.841 84.2168 491.968 85.5843 490.113 88.2026C488.258 90.8262 487.404 94.4674 487.542 99.1263L487.547 99.1316ZM529.544 120.502L529.009 75.6676L538.932 75.551L539.366 112.059L559.593 111.815L559.694 120.147L529.544 120.507V120.502ZM559.508 120.073L580.319 75.323L588.524 75.3602L609.186 120.295L599.136 120.253L593.788 107.76L597.657 110.511L571.006 110.389L574.96 107.67L569.495 120.11L559.508 120.067V120.073ZM584.342 85.775L576.052 105.2L574.345 102.778L594.381 102.868L592.908 105.28L584.596 85.7803H584.342V85.775ZM612.864 120.412L613.903 75.5827L634.252 76.0545C639.298 76.1711 643.168 77.459 645.871 79.9183C648.569 82.3776 649.873 85.7485 649.772 90.0311C649.709 92.8296 649.025 95.22 647.726 97.2023C646.428 99.1846 644.615 100.695 642.277 101.718C639.94 102.746 637.162 103.223 633.94 103.149L634.735 101.766L637.343 101.824C639.166 101.866 640.777 102.391 642.171 103.398C643.571 104.405 644.71 105.852 645.601 107.739L651.967 121.308L641.032 121.053L634.433 106.456C633.95 105.216 633.176 104.379 632.105 103.955C631.035 103.525 629.8 103.298 628.4 103.266L623.185 103.144L622.782 120.629L612.864 120.401V120.412ZM623.359 96.031L632.074 96.2324C634.66 96.2907 636.643 95.8083 638.026 94.7801C639.404 93.7518 640.12 92.1989 640.168 90.1212C640.216 88.0435 639.574 86.4694 638.244 85.3987C636.908 84.3281 634.952 83.7663 632.365 83.7027L623.651 83.5013L623.359 96.0257V96.031ZM673.684 122.898C670.084 122.749 666.729 122.166 663.634 121.149C660.533 120.131 657.914 118.79 655.778 117.131L659.022 109.499C660.421 110.532 661.911 111.423 663.496 112.165C665.075 112.907 666.75 113.5 668.515 113.93C670.281 114.364 672.136 114.619 674.086 114.698C677.134 114.825 679.329 114.449 680.659 113.569C681.99 112.689 682.684 111.529 682.742 110.092C682.795 108.778 682.403 107.755 681.565 107.018C680.728 106.282 679.175 105.614 676.906 105.015L669.47 103.181C665.393 102.163 662.383 100.6 660.432 98.4797C658.481 96.3649 657.575 93.6087 657.718 90.2219C657.835 87.3439 658.704 84.874 660.315 82.8175C661.927 80.7611 664.148 79.1975 666.968 78.1269C669.793 77.0562 673.069 76.5951 676.795 76.7488C679.975 76.8813 682.917 77.4484 685.636 78.4502C688.356 79.4519 690.566 80.8193 692.278 82.5419L689.055 89.6654C687.375 88.1973 685.477 87.0683 683.368 86.2786C681.258 85.4942 678.889 85.0436 676.26 84.9376C673.503 84.8263 671.378 85.2238 669.878 86.1408C668.378 87.0577 667.588 88.3616 667.519 90.0523C667.466 91.3244 667.869 92.3685 668.727 93.19C669.586 94.0115 671.129 94.7006 673.355 95.2571L680.664 97.0221C684.825 98.045 687.879 99.5874 689.829 101.665C691.78 103.743 692.691 106.43 692.554 109.732C692.437 112.53 691.584 114.931 689.999 116.946C688.409 118.96 686.225 120.491 683.442 121.546C680.659 122.601 677.405 123.046 673.678 122.898H673.684ZM699.111 123.29L701.846 78.535L711.747 79.1392L710.65 97.1069L731.158 98.3577L732.255 80.3901L742.22 80.9995L739.49 125.755L729.52 125.145L730.654 106.547L710.146 105.296L709.012 123.894L699.105 123.29H699.111ZM748.374 126.486L751.814 81.7787L761.711 82.5419L758.271 127.249L748.374 126.486ZM767.176 127.906L771.289 83.2574L792.126 85.1761C797.151 85.6372 800.85 87.2061 803.225 89.8721C805.6 92.5381 806.591 95.9833 806.199 100.208C805.812 104.389 804.211 107.591 801.386 109.822C798.56 112.053 794.638 112.939 789.613 112.472L778.657 111.465L777.056 128.818L767.176 127.906ZM779.362 103.801L789.051 104.697C791.415 104.914 793.228 104.548 794.484 103.6C795.741 102.651 796.461 101.225 796.636 99.3277C796.811 97.4302 796.366 95.9091 795.301 94.7642C794.235 93.6247 792.518 92.9409 790.154 92.7236L780.464 91.8332L779.362 103.801ZM357.667 187.385L358.154 184.348H363.879L366.81 165.845L368.591 165.914L360.942 170.175L361.499 166.614L368.305 162.771H370.923L367.499 184.348H372.874L372.386 187.385H357.651H357.667ZM385.214 187.698C382.187 187.698 380.083 186.558 378.896 184.274C377.708 181.995 377.438 178.757 378.095 174.569C378.768 170.403 379.988 167.345 381.742 165.389C383.497 163.434 385.749 162.458 388.5 162.458C391.479 162.458 393.578 163.566 394.803 165.776C396.027 167.987 396.297 171.225 395.624 175.481C394.972 179.626 393.743 182.695 391.94 184.698C390.138 186.702 387.896 187.698 385.219 187.698H385.214ZM385.421 184.661C387.143 184.661 388.564 183.919 389.682 182.424C390.801 180.935 391.628 178.502 392.163 175.126C392.513 172.82 392.603 170.96 392.444 169.539C392.28 168.119 391.85 167.086 391.151 166.434C390.451 165.782 389.497 165.458 388.288 165.458C386.544 165.458 385.124 166.19 384.027 167.658C382.935 169.126 382.118 171.532 381.583 174.882C381.212 177.161 381.111 179.027 381.286 180.469C381.461 181.91 381.896 182.97 382.595 183.643C383.295 184.316 384.239 184.656 385.421 184.656V184.661ZM405.081 177.506C403.103 177.506 401.63 176.811 400.665 175.428C399.7 174.045 399.404 172.105 399.775 169.614C400.146 167.356 400.957 165.601 402.202 164.34C403.448 163.084 404.99 162.453 406.83 162.453C408.833 162.453 410.302 163.142 411.245 164.515C412.189 165.888 412.459 167.822 412.067 170.308C411.717 172.545 410.932 174.299 409.708 175.582C408.489 176.864 406.946 177.5 405.081 177.5V177.506ZM405.181 175.131C406.204 175.131 407.052 174.713 407.731 173.875C408.404 173.038 408.881 171.771 409.162 170.07C409.416 168.278 409.321 166.958 408.865 166.105C408.409 165.257 407.673 164.833 406.65 164.833C405.627 164.833 404.821 165.241 404.169 166.057C403.517 166.874 403.05 168.13 402.775 169.826C402.494 171.617 402.579 172.953 403.019 173.822C403.459 174.697 404.185 175.131 405.181 175.131ZM406.268 187.385H403.019L421.311 162.771H424.592L406.263 187.385H406.268ZM420.792 187.698C418.788 187.698 417.309 187.004 416.355 185.62C415.401 184.237 415.12 182.297 415.517 179.806C415.889 177.548 416.689 175.794 417.908 174.532C419.127 173.271 420.659 172.645 422.498 172.645C424.502 172.645 425.986 173.34 426.951 174.723C427.916 176.106 428.202 178.036 427.804 180.5C427.433 182.737 426.633 184.491 425.414 185.774C424.195 187.057 422.652 187.693 420.786 187.693L420.792 187.698ZM420.929 185.324C421.952 185.324 422.795 184.905 423.463 184.067C424.126 183.23 424.587 181.963 424.841 180.262C425.143 178.492 425.064 177.177 424.597 176.318C424.131 175.46 423.389 175.025 422.36 175.025C421.332 175.025 420.527 175.433 419.864 176.25C419.201 177.066 418.73 178.322 418.449 180.018C418.194 181.831 418.29 183.172 418.746 184.03C419.201 184.889 419.928 185.324 420.929 185.324ZM441.702 174.575C442.121 171.993 442.911 169.799 444.077 167.992C445.243 166.19 446.738 164.817 448.561 163.874C450.39 162.93 452.452 162.458 454.758 162.458C457.297 162.458 459.359 163.01 460.954 164.117C462.55 165.225 463.658 166.767 464.288 168.744C464.919 170.721 465.02 172.99 464.601 175.55C464.204 178.131 463.419 180.325 462.242 182.133C461.066 183.935 459.571 185.318 457.758 186.272C455.945 187.226 453.873 187.703 451.546 187.703C449.033 187.703 446.971 187.152 445.365 186.044C443.759 184.942 442.646 183.4 442.031 181.417C441.416 179.44 441.305 177.156 441.697 174.575H441.702ZM445.439 174.925C445.137 176.949 445.18 178.677 445.561 180.108C445.943 181.539 446.664 182.642 447.724 183.405C448.784 184.173 450.152 184.555 451.827 184.555C454.339 184.555 456.364 183.723 457.901 182.059C459.438 180.394 460.424 178.11 460.869 175.2C461.193 173.197 461.156 171.485 460.748 170.048C460.339 168.612 459.613 167.515 458.564 166.752C457.514 165.983 456.157 165.601 454.477 165.601C451.964 165.601 449.95 166.423 448.439 168.061C446.923 169.704 445.927 171.988 445.434 174.919L445.439 174.925ZM467.713 187.385L471.624 162.771H487.404L486.917 165.67H474.768L473.543 173.562H484.892L484.436 176.462H473.087L471.343 187.391H467.713V187.385ZM502.734 187.385L506.158 165.808H497.746L498.233 162.771H518.694L518.206 165.808H509.789L506.37 187.385H502.739H502.734ZM518.164 187.385L522.076 162.771H525.706L524.031 173.382H537.855L539.53 162.771H543.161L539.249 187.385H535.619L537.362 176.424H523.539L521.795 187.385H518.164ZM545.048 187.385L548.96 162.771H565.09L564.634 165.67H551.997L550.778 173.419H562.615L562.159 176.35H550.323L549.029 184.449H561.634L561.178 187.38H545.048V187.385ZM575.002 187.385L578.914 162.771H581.707L593.544 182.774L592.812 182.599L595.955 162.771H599.343L595.431 187.385H592.674L580.806 167.382L581.538 167.557L578.395 187.385H575.007H575.002ZM601.187 187.385L605.099 162.771H621.229L620.773 165.67H608.136L606.917 173.419H618.753L618.298 176.35H606.461L605.168 184.449H617.773L617.317 187.38H601.187V187.385ZM627.409 187.385L630.833 165.808H622.421L622.909 162.771H643.369L642.882 165.808H634.47L631.045 187.385H627.415H627.409ZM658.063 187.385L661.487 165.808H653.075L653.562 162.771H674.023L673.535 165.808H665.123L661.699 187.385H658.068H658.063ZM683.755 187.698C681.592 187.698 679.785 187.322 678.343 186.564C676.901 185.806 675.883 184.661 675.29 183.124C674.696 181.587 674.574 179.679 674.924 177.4L677.261 162.771H680.892L678.555 177.432C678.184 179.806 678.422 181.587 679.27 182.774C680.118 183.961 681.73 184.555 684.104 184.555C686.198 184.555 687.863 183.998 689.098 182.88C690.333 181.762 691.144 179.938 691.541 177.4L693.879 162.771H697.441L695.066 177.606C694.716 179.912 694.064 181.809 693.11 183.299C692.156 184.788 690.9 185.896 689.342 186.617C687.783 187.338 685.917 187.698 683.755 187.698ZM699.153 187.385L703.065 162.771H706.696L702.784 187.385H699.153ZM714.482 187.385L717.906 165.808H709.494L709.982 162.771H730.442L729.955 165.808H721.543L718.124 187.385H714.493H714.482ZM729.912 187.385L733.824 162.771H737.455L733.543 187.385H729.912ZM740.524 174.575C740.943 171.993 741.733 169.799 742.899 167.992C744.065 166.19 745.56 164.817 747.383 163.874C749.207 162.93 751.274 162.458 753.58 162.458C756.119 162.458 758.18 163.01 759.776 164.117C761.371 165.225 762.479 166.767 763.11 168.744C763.741 170.721 763.842 172.99 763.423 175.55C763.025 178.131 762.241 180.325 761.064 182.133C759.887 183.935 758.392 185.318 756.58 186.272C754.767 187.226 752.694 187.703 750.367 187.703C747.855 187.703 745.793 187.152 744.187 186.044C742.581 184.942 741.468 183.4 740.853 181.417C740.238 179.44 740.127 177.156 740.524 174.575ZM744.261 174.925C743.959 176.949 744.001 178.677 744.383 180.108C744.765 181.539 745.486 182.642 746.546 183.405C747.606 184.168 748.973 184.555 750.648 184.555C753.161 184.555 755.186 183.723 756.723 182.059C758.26 180.394 759.246 178.11 759.691 175.2C760.014 173.197 759.977 171.485 759.569 170.048C759.161 168.617 758.435 167.515 757.385 166.752C756.336 165.983 754.979 165.601 753.299 165.601C750.786 165.601 748.772 166.423 747.256 168.061C745.74 169.698 744.743 171.988 744.256 174.919L744.261 174.925ZM766.534 187.385L770.446 162.771H773.239L785.076 182.774L784.344 182.599L787.488 162.771H790.875L786.963 187.385H784.206L772.338 167.382L773.07 167.557L769.927 187.385H766.54H766.534Z" fill="url(#paint0_linear_508_562)"/>
<defs>
<linearGradient id="paint0_linear_508_562" x1="0.358122" y1="94.3031" x2="1147" y2="94.3031" gradientUnits="userSpaceOnUse">
<stop stop-color="#F9D16F"/>
<stop offset="0.07" stop-color="#EEBE5C"/>
<stop offset="0.18" stop-color="#E0A341"/>
<stop offset="0.25" stop-color="#DB9A38"/>
<stop offset="0.3" stop-color="#DDA044"/>
<stop offset="0.4" stop-color="#E5B365"/>
<stop offset="0.52" stop-color="#F1D19B"/>
<stop offset="0.64" stop-color="#FFF1D5"/>
<stop offset="0.66" stop-color="#FEEBC4"/>
<stop offset="0.68" stop-color="#FCE3AA"/>
<stop offset="0.71" stop-color="#FBDC94"/>
<stop offset="0.74" stop-color="#FAD783"/>
<stop offset="0.78" stop-color="#F9D377"/>
<stop offset="0.84" stop-color="#F9D170"/>
<stop offset="1" stop-color="#F9D16F"/>
</linearGradient>
</defs>
</svg>
