<svg width="904" height="188" viewBox="0 0 904 188" fill="none" xmlns="http://www.w3.org/2000/svg">
<path d="M2.73452 69.8692L0.995922 63.5514C0.354548 61.2193 0.17433 58.972 0.455262 56.8042C0.736194 54.6364 1.62139 52.2514 3.10026 49.6437L7.53157 51.5888C6.49265 53.4121 5.84598 55.0446 5.58095 56.4809C5.31592 57.9173 5.39013 59.3695 5.79297 60.843L3.02075 59.1628L9.94864 57.2547L12.6679 67.129L2.73452 69.864V69.8692ZM16.039 66.2068L14.3004 59.8889C13.6591 57.5568 13.4788 55.3096 13.7598 53.1418C14.0407 50.974 14.9259 48.5889 16.4048 45.9812L20.8361 47.9264C19.7972 49.7497 19.1505 51.3821 18.8855 52.8185C18.6204 54.2548 18.6893 55.7071 19.0975 57.1805L16.3253 55.5003L23.2532 53.5923L25.9724 63.4666L16.039 66.2015V66.2068ZM52.5602 83.655L27.7057 43.0873L37.7238 40.9672L56.0374 72.4557L53.3606 73.0229L58.322 36.6052L65.4142 35.0999L83.7278 66.5884L81.2365 67.1184L85.8851 30.7643L95.2831 28.7714L88.9012 75.9592L80.998 77.634L63.6279 48.7426L65.059 48.4405L60.527 81.9749L52.5602 83.6603V83.655ZM109.945 72.1536L102.672 27.9075L133.426 22.8564L134.672 30.4516L113.268 33.9709L114.97 44.3275L134.868 41.0573L136.124 48.7161L116.226 51.9863L118.039 63.032L139.442 59.5126L140.688 67.1078L109.934 72.1642L109.945 72.1536ZM147.287 66.1538L141.133 21.7381L150.961 20.3759L155.97 56.5392L176.006 53.7619L177.151 62.0143L147.287 66.1538ZM182.923 61.32L177.729 16.7824L187.583 15.6322L191.812 51.8962L211.902 49.5535L212.866 57.8271L182.918 61.32H182.923ZM234.053 56.4597C230.464 56.8042 227.067 56.6823 223.86 56.094C220.653 55.5056 217.876 54.5357 215.533 53.1842L217.706 45.1809C219.232 46.013 220.833 46.6914 222.503 47.2108C224.173 47.7302 225.911 48.0906 227.719 48.2762C229.526 48.467 231.403 48.467 233.343 48.2762C236.38 47.9846 238.5 47.3116 239.698 46.2621C240.896 45.2127 241.426 43.9671 241.288 42.5308C241.161 41.2216 240.631 40.2623 239.703 39.6475C238.771 39.0326 237.143 38.5821 234.811 38.2959L227.194 37.4903C223.017 37.0397 219.821 35.8949 217.6 34.0663C215.379 32.2325 214.107 29.6301 213.783 26.2538C213.508 23.3864 214.027 20.8211 215.347 18.5632C216.667 16.3054 218.649 14.4556 221.3 13.0086C223.95 11.5617 227.136 10.6606 230.851 10.3055C234.016 10.0034 237.016 10.1624 239.841 10.7878C242.672 11.4132 245.052 12.4627 246.981 13.9362L244.76 21.4307C242.894 20.2063 240.864 19.3424 238.664 18.8495C236.465 18.3566 234.058 18.2346 231.44 18.489C228.694 18.754 226.643 19.4378 225.28 20.5508C223.918 21.6639 223.314 23.0631 223.478 24.7485C223.6 26.0153 224.141 26.9958 225.1 27.6902C226.06 28.3845 227.682 28.8616 229.966 29.1107L237.451 29.8632C241.712 30.3085 244.946 31.4268 247.167 33.213C249.382 35.0045 250.649 37.5433 250.962 40.8347C251.227 43.6226 250.713 46.119 249.414 48.3292C248.115 50.5394 246.16 52.3573 243.546 53.7778C240.933 55.1982 237.774 56.0887 234.058 56.4438L234.053 56.4597ZM259.289 53.4333L255.939 8.72072L276.808 7.15719C281.838 6.78087 285.744 7.70841 288.527 9.9451C291.31 12.1818 292.858 15.4149 293.176 19.6445C293.489 23.8317 292.439 27.2555 290.022 29.9268C287.605 32.5982 283.884 34.1193 278.848 34.4956L267.876 35.3172L269.18 52.6966L259.284 53.4386L259.289 53.4333ZM267.309 27.6425L277.014 26.9164C279.384 26.7415 281.106 26.0789 282.193 24.9341C283.274 23.7893 283.746 22.2681 283.603 20.3653C283.46 18.4625 282.771 17.0368 281.53 16.088C280.29 15.1393 278.483 14.7524 276.119 14.9326L266.413 15.6587L267.309 27.6478V27.6425ZM301.89 50.3326L299.436 5.56182L319.758 4.44879C324.799 4.17318 328.759 5.15368 331.642 7.39567C334.526 9.63766 336.084 12.8973 336.318 17.1693C336.471 19.9625 335.978 22.4006 334.839 24.4783C333.699 26.556 332.008 28.199 329.761 29.4074C327.513 30.6159 324.778 31.3049 321.561 31.4798L322.244 30.0435L324.847 29.9004C326.665 29.7997 328.314 30.1972 329.787 31.0929C331.261 31.9887 332.512 33.3455 333.545 35.1528L340.95 48.1861L330.026 48.785L322.313 34.7501C321.736 33.5522 320.898 32.7783 319.796 32.4338C318.693 32.0893 317.442 31.9568 316.048 32.0363L310.838 32.3226L311.797 49.7868L301.89 50.3273V50.3326ZM310.451 25.2097L319.154 24.7327C321.736 24.5896 323.676 23.9536 324.974 22.8193C326.273 21.6851 326.861 20.0844 326.75 18.0067C326.639 15.9343 325.875 14.4132 324.46 13.4485C323.045 12.4839 321.052 12.0758 318.47 12.2189L309.767 12.6959L310.451 25.2044V25.2097ZM346.728 48.0271L344.894 3.22441L354.806 2.81635L356.64 47.6189L346.723 48.0271H346.728ZM365.577 47.2161L364.368 2.39231L371.741 2.1909L396.93 32.4975L395.213 32.5452L394.38 1.58136L403.598 1.33227L404.807 46.1561L397.428 46.3575L372.303 16.0509L373.957 16.0085L374.795 46.9723L365.577 47.2214V47.2161ZM435.895 46.543C430.764 46.5801 426.444 45.6738 422.929 43.8134C419.415 41.9531 416.754 39.3029 414.947 35.8631C413.139 32.4233 412.217 28.3898 412.185 23.768C412.148 19.019 413.081 14.9008 414.984 11.408C416.887 7.91513 419.654 5.20143 423.285 3.26685C426.915 1.33228 431.278 0.341094 436.366 0.303992C439.632 0.277491 442.51 0.669756 444.996 1.48069C447.482 2.28632 449.666 3.44703 451.542 4.96289L448.42 12.6853C447.053 11.7207 445.775 10.9574 444.588 10.3956C443.395 9.83378 442.165 9.44158 440.888 9.21367C439.616 8.99106 438.148 8.88507 436.494 8.89567C431.829 8.93277 428.331 10.2207 425.998 12.7595C423.666 15.2983 422.516 18.966 422.553 23.7574C422.59 28.5064 423.719 32.1053 425.945 34.5434C428.166 36.9868 431.633 38.1899 436.34 38.1528C437.909 38.1422 439.52 37.9779 441.169 37.6704C442.823 37.363 444.45 36.9019 446.056 36.2977L444.307 40.1297L444.217 28.0453L434.358 28.1195L434.305 21.0596L452.369 20.9218L452.539 42.9283C450.296 44.0466 447.71 44.9264 444.768 45.5625C441.826 46.1985 438.868 46.5324 435.9 46.5536L435.895 46.543ZM473.45 45.7586L494.88 1.30574L503.085 1.45947L523.116 46.6755L513.066 46.49L507.893 33.9285L511.72 36.7324L485.074 36.2394L489.065 33.5787L483.431 45.9441L473.444 45.7586H473.45ZM498.76 11.8108L490.194 31.1194L488.524 28.6707L508.555 29.0418L507.05 31.4322L499.014 11.8161H498.76V11.8108ZM542.416 48.1278C538.811 47.9953 535.461 47.4281 532.36 46.4211C529.254 45.414 526.631 44.089 524.489 42.4406L527.696 34.7925C529.101 35.8207 530.595 36.7005 532.18 37.4373C533.765 38.174 535.44 38.757 537.211 39.181C538.976 39.6051 540.836 39.8541 542.787 39.9283C545.84 40.0396 548.024 39.6528 549.354 38.7676C550.685 37.8825 551.368 36.7218 551.421 35.2801C551.469 33.9657 551.072 32.9427 550.229 32.2113C549.386 31.4798 547.828 30.8173 545.559 30.2237L538.117 28.4216C534.035 27.4252 531.019 25.8722 529.058 23.7627C527.097 21.6532 526.18 18.9078 526.307 15.5156C526.413 12.6323 527.267 10.1624 528.873 8.10064C530.473 6.03886 532.689 4.46468 535.509 3.37814C538.329 2.2969 541.605 1.81985 545.331 1.95765C548.511 2.07426 551.459 2.63079 554.183 3.62193C556.902 4.61306 559.123 5.96994 560.846 7.68721L557.655 14.8266C555.969 13.3637 554.066 12.2454 551.957 11.4663C549.842 10.6871 547.472 10.2525 544.843 10.1571C542.087 10.0564 539.962 10.4645 538.467 11.3867C536.967 12.309 536.187 13.6181 536.129 15.3089C536.081 16.581 536.49 17.6251 537.348 18.4413C538.207 19.2576 539.755 19.9413 541.981 20.4872L549.301 22.2204C553.467 23.2221 556.526 24.7539 558.487 26.8209C560.448 28.888 561.365 31.5753 561.249 34.8773C561.148 37.6758 560.305 40.0821 558.726 42.1015C557.146 44.1208 554.968 45.6632 552.19 46.7285C549.413 47.7939 546.158 48.255 542.432 48.1225L542.416 48.1278ZM567.848 48.4352L570.307 3.66437L591.202 4.81447C596.238 5.09008 599.996 6.52118 602.466 9.09708C604.936 11.673 606.055 15.081 605.822 19.3158C605.594 23.5083 604.104 26.768 601.364 29.1054C598.623 31.4374 594.733 32.4657 589.697 32.19L578.709 31.5858L577.755 48.9864L567.848 48.4405V48.4352ZM579.133 23.8952L588.849 24.4305C591.218 24.563 593.015 24.1285 594.24 23.132C595.464 22.1356 596.127 20.6886 596.233 18.7806C596.339 16.8778 595.835 15.3725 594.727 14.2701C593.62 13.1676 591.881 12.5528 589.512 12.4256L579.796 11.8903L579.138 23.8952H579.133ZM610.566 50.9263L613.651 6.19258L623.552 6.87626L620.467 51.61L610.566 50.9263ZM629.383 52.193L633.146 7.51232L653.432 9.21897C658.462 9.64299 662.246 11.1641 664.791 13.7824C667.335 16.4007 668.427 19.8459 668.072 24.1125C667.839 26.9004 667.012 29.2485 665.596 31.1512C664.181 33.054 662.278 34.448 659.882 35.3278C657.487 36.2129 654.688 36.5203 651.476 36.25L652.356 34.9197L654.953 35.137C656.771 35.2907 658.345 35.9108 659.681 37.0027C661.017 38.0945 662.066 39.6103 662.84 41.5449L668.369 55.4792L657.465 54.5622L651.767 39.5944C651.364 38.3277 650.638 37.4478 649.594 36.9549C648.55 36.462 647.331 36.1599 645.937 36.038L640.737 35.5981L639.268 53.0252L629.383 52.193ZM641.336 28.4958L650.018 29.2272C652.594 29.4446 654.603 29.0841 656.045 28.1407C657.487 27.1972 658.292 25.692 658.467 23.6197C658.642 21.5526 658.096 19.9413 656.829 18.7911C655.562 17.641 653.644 16.9572 651.068 16.7399L642.385 16.0085L641.336 28.4958ZM667.86 55.3731L693.16 13.0033L701.317 13.8831L717.251 60.6999L707.259 59.6239L703.22 46.649L706.782 49.7868L680.284 46.9299L684.498 44.6349L677.788 56.4491L667.86 55.3784V55.3731ZM696.086 23.8051L685.839 42.2764L684.392 39.6898L704.312 41.8365L702.6 44.0837L696.34 23.8316L696.086 23.8051ZM726.14 61.9719L730.9 25.5171L716.774 23.6726L717.818 15.664L755.914 20.6356L754.869 28.6442L740.743 26.7998L735.983 63.2545L726.145 61.9719H726.14ZM755.251 65.9524L761.893 21.6056L771.704 23.0737L765.062 67.4205L755.251 65.9524ZM776.369 46.2886C777.174 41.6933 778.743 37.8507 781.075 34.7501C783.408 31.6495 786.365 29.4498 789.954 28.1407C793.543 26.8315 797.571 26.5718 802.039 27.3563C806.508 28.1407 810.208 29.7573 813.134 32.2113C816.059 34.66 818.111 37.7447 819.293 41.4601C820.47 45.1755 820.66 49.3097 819.86 53.8626C819.044 58.5003 817.454 62.3641 815.079 65.4541C812.704 68.5442 809.725 70.7544 806.131 72.0847C802.538 73.4151 798.509 73.6854 794.041 72.901C789.572 72.1165 785.883 70.4893 782.984 68.0194C780.079 65.5495 778.054 62.4489 776.899 58.7176C775.743 54.9863 775.568 50.8415 776.369 46.2886ZM786.583 48.0801C785.782 52.6329 786.106 56.359 787.558 59.2635C789.005 62.168 791.65 63.9542 795.498 64.6273C799.257 65.2899 802.342 64.5054 804.759 62.2793C807.17 60.0532 808.782 56.6664 809.577 52.1135C810.383 47.5182 810.038 43.7869 808.538 40.9195C807.038 38.0521 804.388 36.2818 800.587 35.6193C796.744 34.9461 793.649 35.7041 791.306 37.8984C788.963 40.0927 787.389 43.4848 786.578 48.0801H786.583ZM823.109 77.4591L832.804 33.6794L840.008 35.2748L857.097 70.7809L855.422 70.4098L862.116 40.1669L871.122 42.1598L861.427 85.9395L854.224 84.3441L837.198 48.8486L838.815 49.2037L832.12 79.4467L823.115 77.4538L823.109 77.4591ZM879.476 64.3676L876.635 60.5038C878.469 59.4172 879.852 58.32 880.785 57.2123C881.723 56.1046 882.386 54.8325 882.773 53.4015L884.326 56.1947L877.388 54.3184L880.048 44.4971L890.056 47.2056L888.344 53.5287C887.713 55.8608 886.727 57.8802 885.386 59.5815C884.045 61.2829 882.073 62.8835 879.476 64.3729V64.3676ZM892.802 67.977L889.961 64.1132C891.789 63.0266 893.178 61.9295 894.111 60.8218C895.049 59.714 895.712 58.442 896.099 57.0109L897.646 59.8041L890.708 57.9279L893.369 48.1066L903.376 50.815L901.664 57.1381C901.033 59.4702 900.048 61.4896 898.707 63.1909C897.365 64.8923 895.399 66.493 892.796 67.9823L892.802 67.977ZM240.52 130.223C236.931 130.557 233.533 130.424 230.327 129.825C227.12 129.226 224.348 128.251 222.005 126.889L224.204 118.891C225.731 119.728 227.326 120.412 228.991 120.937C230.655 121.467 232.394 121.827 234.201 122.018C236.009 122.214 237.88 122.219 239.825 122.039C242.868 121.758 244.988 121.096 246.186 120.046C247.389 118.997 247.925 117.757 247.792 116.32C247.67 115.011 247.145 114.046 246.218 113.432C245.29 112.817 243.658 112.361 241.331 112.064L233.714 111.237C229.537 110.771 226.346 109.621 224.13 107.782C221.915 105.942 220.653 103.335 220.34 99.9585C220.075 97.0858 220.605 94.5258 221.93 92.2732C223.256 90.0206 225.243 88.1761 227.904 86.7398C230.56 85.3034 233.746 84.413 237.461 84.0685C240.626 83.777 243.626 83.9465 246.451 84.5773C249.276 85.208 251.651 86.2681 253.58 87.7521L251.333 95.2413C249.472 94.0063 247.442 93.1424 245.248 92.6442C243.053 92.146 240.642 92.0135 238.028 92.2573C235.283 92.5117 233.226 93.1901 231.864 94.2979C230.496 95.4056 229.892 96.7995 230.046 98.4903C230.162 99.757 230.703 100.743 231.657 101.437C232.616 102.137 234.233 102.614 236.518 102.874L243.997 103.653C248.253 104.114 251.492 105.237 253.702 107.034C255.913 108.831 257.169 111.375 257.476 114.672C257.736 117.46 257.211 119.956 255.902 122.161C254.593 124.371 252.632 126.179 250.018 127.594C247.405 129.009 244.235 129.883 240.52 130.228V130.223ZM287.446 126.422C282.665 126.767 278.499 126.11 274.931 124.451C271.369 122.792 268.544 120.306 266.456 116.993C264.367 113.681 263.159 109.674 262.819 104.978C262.48 100.282 263.111 96.1582 264.706 92.6018C266.302 89.0453 268.745 86.1886 272.032 84.042C275.323 81.8954 279.357 80.6498 284.133 80.3053C287.218 80.0827 290.064 80.3159 292.662 80.9996C295.264 81.6833 297.507 82.7911 299.404 84.3123L296.855 92.3368C294.798 90.9534 292.874 90.01 291.072 89.5012C289.269 88.9924 287.271 88.8175 285.071 88.9765C280.884 89.2786 277.767 90.7415 275.726 93.3757C273.686 96.0099 272.827 99.6299 273.156 104.241C273.484 108.852 274.852 112.324 277.248 114.661C279.649 116.999 282.94 118.016 287.128 117.714C289.328 117.555 291.284 117.099 292.99 116.336C294.697 115.578 296.473 114.364 298.312 112.705L301.98 120.285C300.321 122.018 298.249 123.422 295.779 124.493C293.303 125.564 290.52 126.21 287.435 126.428L287.446 126.422ZM309.009 124.244L306.74 79.4626L316.652 78.9591L317.564 96.9374L338.083 95.8986L337.171 77.9202L347.147 77.4167L349.415 122.198L339.44 122.702L338.496 104.087L317.977 105.126L318.921 123.74L309.009 124.244ZM356.264 99.4391C356.126 94.7749 356.884 90.6937 358.543 87.185C360.197 83.6815 362.651 80.9255 365.906 78.9167C369.155 76.9132 373.045 75.8425 377.583 75.71C382.12 75.5775 386.069 76.4149 389.43 78.2223C392.79 80.0297 395.425 82.6374 397.328 86.0401C399.23 89.4429 400.248 93.4498 400.386 98.0716C400.524 102.778 399.745 106.881 398.043 110.389C396.342 113.898 393.872 116.665 390.622 118.689C387.373 120.714 383.482 121.795 378.945 121.928C374.408 122.06 370.469 121.212 367.13 119.384C363.785 117.555 361.177 114.926 359.29 111.502C357.409 108.078 356.396 104.061 356.264 99.4391ZM366.626 99.1317C366.764 103.753 367.835 107.336 369.839 109.886C371.842 112.435 374.795 113.654 378.696 113.538C382.512 113.426 385.375 112.038 387.288 109.372C389.202 106.706 390.092 103.064 389.954 98.4426C389.817 93.7784 388.725 90.1955 386.679 87.6885C384.633 85.1815 381.68 83.989 377.821 84.1003C373.92 84.2169 371.047 85.5843 369.192 88.2026C367.337 90.8262 366.483 94.4675 366.621 99.1264L366.626 99.1317ZM408.623 120.502L408.088 75.6676L418.01 75.5511L418.445 112.059L438.672 111.815L438.773 120.147L408.623 120.507V120.502ZM438.587 120.073L459.398 75.3231L467.603 75.3603L488.265 120.295L478.215 120.253L472.866 107.76L476.736 110.511L450.084 110.389L454.039 107.67L448.574 120.11L438.587 120.067V120.073ZM463.421 85.7751L455.131 105.2L453.424 102.778L473.46 102.868L471.987 105.28L463.675 85.7804H463.421V85.7751ZM491.943 120.412L492.982 75.5828L513.331 76.0546C518.377 76.1712 522.247 77.4591 524.95 79.9184C527.648 82.3777 528.952 85.7486 528.851 90.0312C528.788 92.8297 528.104 95.2201 526.811 97.2024C525.512 99.1847 523.694 100.695 521.362 101.718C519.029 102.741 516.247 103.223 513.024 103.149L513.819 101.766L516.427 101.824C518.25 101.867 519.862 102.391 521.256 103.398C522.655 104.405 523.795 105.852 524.685 107.739L531.051 121.308L520.116 121.053L513.517 106.457C513.034 105.216 512.261 104.379 511.19 103.955C510.119 103.526 508.884 103.298 507.485 103.266L502.269 103.144L501.866 120.629L491.949 120.401L491.943 120.412ZM502.439 96.0311L511.153 96.2325C513.739 96.2908 515.722 95.8084 517.105 94.7802C518.483 93.7519 519.199 92.199 519.247 90.1213C519.294 88.0436 518.653 86.4695 517.323 85.3988C515.992 84.3282 514.031 83.7664 511.444 83.7028L502.73 83.5014L502.439 96.0258V96.0311ZM552.762 122.898C549.163 122.749 545.813 122.166 542.713 121.149C539.612 120.131 536.993 118.79 534.857 117.131L538.101 109.499C539.5 110.532 540.99 111.423 542.575 112.165C544.154 112.907 545.829 113.5 547.594 113.93C549.36 114.364 551.215 114.619 553.165 114.698C556.218 114.826 558.408 114.449 559.738 113.569C561.069 112.69 561.763 111.529 561.821 110.092C561.874 108.778 561.482 107.755 560.644 107.018C559.807 106.282 558.254 105.614 555.985 105.015L548.549 103.181C544.472 102.163 541.462 100.6 539.511 98.4798C537.56 96.365 536.654 93.6088 536.797 90.222C536.914 87.344 537.783 84.8741 539.394 82.8176C541.006 80.7611 543.227 79.1976 546.047 78.127C548.872 77.0563 552.148 76.5952 555.874 76.7489C559.054 76.8814 561.996 77.4485 564.715 78.4503C567.435 79.452 569.645 80.8194 571.357 82.542L568.134 89.6655C566.454 88.1974 564.556 87.0684 562.447 86.2787C560.337 85.4942 557.968 85.0437 555.339 84.9377C552.582 84.8264 550.457 85.2239 548.957 86.1409C547.457 87.0578 546.667 88.3616 546.598 90.0524C546.545 91.3245 546.948 92.3686 547.806 93.1901C548.665 94.0116 550.208 94.7007 552.434 95.2572L559.743 97.0222C563.904 98.0451 566.957 99.5875 568.908 101.665C570.859 103.743 571.77 106.43 571.633 109.732C571.516 112.531 570.663 114.932 569.078 116.946C567.488 118.96 565.304 120.491 562.521 121.546C559.738 122.601 556.484 123.046 552.757 122.898H552.762ZM578.189 123.29L580.919 78.5351L590.826 79.1393L589.729 97.107L610.237 98.3578L611.334 80.3902L621.299 80.9996L618.57 125.755L608.604 125.145L609.739 106.547L589.231 105.296L588.096 123.894L578.195 123.29H578.189ZM627.453 126.486L630.893 81.7788L640.79 82.542L637.35 127.249L627.453 126.486ZM646.255 127.906L650.368 83.2575L671.205 85.1762C676.229 85.6373 679.929 87.2062 682.304 89.8722C684.679 92.5382 685.67 95.9834 685.283 100.208C684.896 104.389 683.295 107.591 680.47 109.822C677.645 112.054 673.722 112.939 668.697 112.472L657.741 111.465L656.14 128.818L646.26 127.906H646.255ZM658.441 103.801L668.13 104.697C670.494 104.914 672.307 104.548 673.563 103.6C674.82 102.651 675.54 101.225 675.715 99.3278C675.89 97.4303 675.445 95.9091 674.38 94.7643C673.314 93.6248 671.597 92.941 669.233 92.7237L659.543 91.8333L658.441 103.801ZM243.695 187.698C242.624 187.698 241.585 187.581 240.573 187.348C239.56 187.115 238.633 186.786 237.795 186.352C236.958 185.922 236.258 185.403 235.701 184.799L237.027 182.043C238.002 182.901 239.057 183.548 240.186 183.983C241.315 184.412 242.518 184.629 243.801 184.629C245.407 184.629 246.743 184.226 247.813 183.426C248.884 182.626 249.547 181.454 249.801 179.917C250.034 178.407 249.764 177.188 249.001 176.271C248.232 175.354 247.066 174.893 245.508 174.893C244.389 174.893 243.361 175.115 242.417 175.555C241.474 175.995 240.594 176.674 239.783 177.58H237.27L239.608 162.777H254.513L253.989 165.814H242.571L241.177 174.718H240.202C240.97 173.785 241.908 173.085 243.011 172.603C244.114 172.126 245.311 171.888 246.589 171.888C248.126 171.888 249.441 172.222 250.533 172.884C251.624 173.547 252.425 174.495 252.923 175.73C253.421 176.965 253.533 178.444 253.257 180.161C253.024 181.719 252.483 183.066 251.635 184.195C250.787 185.324 249.684 186.193 248.338 186.797C246.986 187.401 245.439 187.703 243.695 187.703V187.698ZM264.293 187.698C261.266 187.698 259.162 186.559 257.975 184.274C256.787 181.995 256.517 178.757 257.174 174.569C257.847 170.404 259.067 167.345 260.821 165.39C262.576 163.434 264.828 162.459 267.579 162.459C270.558 162.459 272.657 163.566 273.882 165.776C275.101 167.987 275.376 171.225 274.703 175.481C274.051 179.626 272.822 182.695 271.019 184.698C269.217 186.702 266.975 187.698 264.298 187.698H264.293ZM264.5 184.661C266.222 184.661 267.643 183.919 268.761 182.424C269.88 180.935 270.707 178.502 271.242 175.126C271.592 172.82 271.682 170.96 271.523 169.54C271.359 168.119 270.929 167.086 270.23 166.434C269.53 165.782 268.576 165.458 267.367 165.458C265.623 165.458 264.203 166.19 263.106 167.658C262.014 169.126 261.197 171.532 260.662 174.882C260.291 177.161 260.19 179.027 260.365 180.469C260.54 181.91 260.975 182.97 261.674 183.643C262.374 184.317 263.318 184.656 264.505 184.656L264.5 184.661ZM284.16 177.506C282.182 177.506 280.709 176.811 279.744 175.428C278.779 174.045 278.483 172.105 278.854 169.614C279.225 167.356 280.036 165.602 281.281 164.34C282.527 163.084 284.069 162.453 285.909 162.453C287.912 162.453 289.381 163.142 290.324 164.515C291.268 165.888 291.538 167.822 291.146 170.308C290.796 172.545 290.011 174.299 288.787 175.582C287.563 176.864 286.025 177.5 284.16 177.5V177.506ZM284.26 175.131C285.283 175.131 286.131 174.713 286.81 173.875C287.483 173.038 287.96 171.771 288.241 170.07C288.495 168.278 288.4 166.958 287.944 166.105C287.488 165.257 286.752 164.833 285.729 164.833C284.706 164.833 283.9 165.241 283.248 166.057C282.596 166.874 282.129 168.13 281.854 169.826C281.573 171.617 281.658 172.953 282.098 173.822C282.538 174.697 283.264 175.131 284.26 175.131ZM285.347 187.385H282.098L300.39 162.771H303.671L285.342 187.385H285.347ZM299.871 187.698C297.867 187.698 296.393 187.004 295.434 185.62C294.48 184.237 294.199 182.297 294.596 179.806C294.968 177.548 295.768 175.794 296.987 174.532C298.206 173.276 299.738 172.645 301.577 172.645C303.581 172.645 305.065 173.34 306.03 174.723C306.995 176.107 307.281 178.036 306.883 180.5C306.512 182.737 305.712 184.491 304.493 185.774C303.268 187.057 301.731 187.693 299.865 187.693L299.871 187.698ZM300.008 185.324C301.031 185.324 301.874 184.905 302.542 184.067C303.205 183.23 303.666 181.963 303.92 180.262C304.222 178.492 304.143 177.177 303.676 176.319C303.21 175.46 302.468 175.025 301.445 175.025C300.422 175.025 299.611 175.433 298.948 176.25C298.286 177.066 297.814 178.322 297.533 180.018C297.279 181.831 297.374 183.172 297.83 184.03C298.286 184.889 299.012 185.324 300.014 185.324H300.008ZM320.781 174.575C321.2 171.994 321.99 169.799 323.156 167.992C324.322 166.19 325.817 164.817 327.64 163.874C329.469 162.93 331.531 162.459 333.837 162.459C336.376 162.459 338.438 163.01 340.033 164.117C341.629 165.225 342.737 166.768 343.367 168.745C343.998 170.722 344.099 172.99 343.68 175.55C343.283 178.131 342.498 180.326 341.321 182.133C340.145 183.935 338.65 185.318 336.837 186.272C335.019 187.226 332.952 187.703 330.625 187.703C328.112 187.703 326.05 187.152 324.444 186.044C322.838 184.942 321.725 183.4 321.11 181.417C320.495 179.44 320.384 177.156 320.776 174.575H320.781ZM324.518 174.925C324.216 176.949 324.259 178.677 324.64 180.108C325.022 181.539 325.748 182.642 326.803 183.405C327.858 184.168 329.231 184.555 330.906 184.555C333.418 184.555 335.443 183.723 336.98 182.059C338.517 180.394 339.503 178.11 339.948 175.2C340.277 173.197 340.235 171.485 339.827 170.048C339.418 168.617 338.692 167.515 337.643 166.752C336.593 165.983 335.236 165.601 333.556 165.601C331.043 165.601 329.029 166.423 327.519 168.061C326.003 169.704 325.006 171.988 324.513 174.919L324.518 174.925ZM346.792 187.385L350.703 162.771H366.483L365.996 165.67H353.847L352.628 173.562H363.976L363.52 176.462H352.172L350.428 187.391H346.797L346.792 187.385ZM381.807 187.385L385.232 165.808H376.819L377.307 162.771H397.767L397.28 165.808H388.868L385.444 187.385H381.813H381.807ZM397.243 187.385L401.155 162.771H404.785L403.11 173.382H416.934L418.609 162.771H422.24L418.329 187.385H414.698L416.442 176.425H402.618L400.874 187.385H397.243ZM424.122 187.385L428.034 162.771H444.164L443.708 165.67H431.071L429.847 173.419H441.683L441.227 176.35H429.391L428.098 184.449H440.702L440.247 187.38H424.117L424.122 187.385ZM454.081 187.385L457.993 162.771H460.786L472.623 182.774L471.891 182.599L475.034 162.771H478.421L474.51 187.385H471.753L459.88 167.382L460.611 167.557L457.468 187.385H454.081ZM480.266 187.385L484.178 162.771H500.308L499.852 165.67H487.215L485.991 173.419H497.827L497.371 176.35H485.535L484.242 184.449H496.846L496.391 187.38H480.261L480.266 187.385ZM506.488 187.385L509.912 165.808H501.5L501.988 162.771H522.448L521.961 165.808H513.549L510.13 187.385H506.499H506.488ZM537.142 187.385L540.566 165.808H532.148L532.636 162.771H553.096L552.609 165.808H544.197L540.773 187.385H537.142ZM562.834 187.698C560.671 187.698 558.864 187.322 557.422 186.564C555.98 185.806 554.962 184.661 554.369 183.124C553.775 181.587 553.653 179.679 554.003 177.4L556.34 162.771H559.971L557.634 177.432C557.263 179.806 557.501 181.587 558.349 182.774C559.197 183.961 560.809 184.555 563.184 184.555C565.277 184.555 566.942 183.999 568.177 182.88C569.412 181.762 570.223 179.939 570.62 177.4L572.958 162.771H576.52L574.145 177.606C573.795 179.912 573.143 181.81 572.189 183.299C571.235 184.788 569.979 185.896 568.421 186.617C566.862 187.338 564.996 187.698 562.834 187.698ZM578.232 187.385L582.144 162.771H585.775L581.863 187.385H578.232ZM593.561 187.385L596.985 165.808H588.573L589.061 162.771H609.521L609.034 165.808H600.622L597.197 187.385H593.567H593.561ZM608.991 187.385L612.903 162.771H616.534L612.622 187.385H608.991ZM619.603 174.575C620.022 171.994 620.812 169.799 621.978 167.992C623.144 166.19 624.639 164.817 626.462 163.874C628.286 162.93 630.353 162.459 632.659 162.459C635.198 162.459 637.259 163.01 638.855 164.117C640.45 165.225 641.564 166.768 642.189 168.745C642.82 170.722 642.921 172.99 642.502 175.55C642.104 178.131 641.32 180.326 640.143 182.133C638.966 183.935 637.471 185.318 635.659 186.272C633.846 187.226 631.773 187.703 629.446 187.703C626.934 187.703 624.872 187.152 623.266 186.044C621.66 184.942 620.547 183.4 619.932 181.417C619.317 179.44 619.206 177.156 619.598 174.575H619.603ZM623.34 174.925C623.038 176.949 623.08 178.677 623.462 180.108C623.844 181.539 624.564 182.642 625.625 183.405C626.685 184.173 628.052 184.555 629.727 184.555C632.24 184.555 634.265 183.723 635.802 182.059C637.339 180.394 638.325 178.11 638.77 175.2C639.093 173.197 639.056 171.485 638.648 170.048C638.24 168.617 637.514 167.515 636.464 166.752C635.415 165.983 634.058 165.601 632.378 165.601C629.865 165.601 627.851 166.423 626.335 168.061C624.819 169.699 623.822 171.988 623.335 174.919L623.34 174.925ZM645.613 187.385L649.525 162.771H652.318L664.155 182.774L663.423 182.599L666.566 162.771H669.954L666.042 187.385H663.285L651.417 167.382L652.149 167.557L649.006 187.385H645.619H645.613Z" fill="url(#paint0_linear_508_563)"/>
<defs>
<linearGradient id="paint0_linear_508_563" x1="0.322746" y1="93.9958" x2="903.382" y2="93.9958" gradientUnits="userSpaceOnUse">
<stop stop-color="#F9D16F"/>
<stop offset="0.07" stop-color="#EEBE5C"/>
<stop offset="0.18" stop-color="#E0A341"/>
<stop offset="0.25" stop-color="#DB9A38"/>
<stop offset="0.3" stop-color="#DDA044"/>
<stop offset="0.4" stop-color="#E5B365"/>
<stop offset="0.52" stop-color="#F1D19B"/>
<stop offset="0.64" stop-color="#FFF1D5"/>
<stop offset="0.66" stop-color="#FEEBC4"/>
<stop offset="0.68" stop-color="#FCE3AA"/>
<stop offset="0.71" stop-color="#FBDC94"/>
<stop offset="0.74" stop-color="#FAD783"/>
<stop offset="0.78" stop-color="#F9D377"/>
<stop offset="0.84" stop-color="#F9D170"/>
<stop offset="1" stop-color="#F9D16F"/>
</linearGradient>
</defs>
</svg>
