<svg width="381" height="58" viewBox="0 0 381 58" fill="none" xmlns="http://www.w3.org/2000/svg">
<path d="M4.55086 45.4951L0.394958 23.9316L5.16012 23.0101L6.82715 31.6646L16.6945 29.7592L15.0275 21.1022L19.8238 20.1755L23.9797 41.7389L19.1834 42.6656L17.4567 33.7049L7.58937 35.6102L9.31603 44.5709L4.55086 45.4925V45.4951ZM28.1822 41.0484L24.8093 19.35L34.8011 17.7925C37.1785 17.4213 39.0918 17.6394 40.5385 18.4441C41.9851 19.2488 42.8459 20.5233 43.1155 22.2677C43.3151 23.5604 43.1025 24.7182 42.4751 25.7409C41.8477 26.7637 40.8911 27.532 39.6051 28.0486L39.5274 27.5554C41.127 27.5788 42.4233 27.9811 43.4136 28.7624C44.4066 29.5438 45.0159 30.6626 45.2414 32.1188C45.5421 34.0475 45.0936 35.6569 43.8984 36.947C42.7033 38.2372 40.9066 39.0678 38.5085 39.4416L28.1796 41.051L28.1822 41.0484ZM30.7774 27.5606L35.3274 26.8519C36.577 26.6572 37.4637 26.2886 37.99 25.7435C38.5137 25.201 38.7055 24.4768 38.5655 23.5734C38.4281 22.6908 38.0263 22.0704 37.3626 21.7122C36.6989 21.354 35.7396 21.2709 34.49 21.4656L29.94 22.1743L30.7774 27.5606ZM32.2085 36.7653L37.3729 35.9606C38.5603 35.7763 39.4392 35.4077 40.0044 34.8574C40.5696 34.3071 40.7744 33.5387 40.6214 32.5549C40.4659 31.5504 40.0355 30.8754 39.3303 30.5328C38.6251 30.1901 37.6789 30.1123 36.4915 30.2966L31.327 31.1013L32.2059 36.7653H32.2085ZM54.4399 27.6359L54.0458 24.2016L67.2446 22.6857L67.6387 26.1199L54.4399 27.6359ZM58.0747 36.6563L55.5754 14.8385L63.8898 13.8833C66.4254 13.5925 68.6161 13.7794 70.4672 14.4439C72.3183 15.1085 73.7831 16.2013 74.8668 17.7173C75.9479 19.2332 76.622 21.136 76.8839 23.4281C77.1431 25.6968 76.9201 27.6982 76.2098 29.4322C75.4994 31.1662 74.3198 32.5705 72.6683 33.6478C71.0168 34.725 68.9246 35.4103 66.3891 35.7011L58.0747 36.6563ZM62.4406 32.1422L65.6554 31.7736C68.0872 31.4932 69.8294 30.7145 70.882 29.4322C71.9346 28.1498 72.3287 26.3354 72.0591 23.9836C71.7868 21.611 70.9935 19.9263 69.6791 18.9269C68.3646 17.9275 66.4902 17.5693 64.0609 17.8471L60.8461 18.2157L62.4432 32.1422H62.4406ZM78.6857 34.2785L86.7719 11.5055L90.7697 11.1473L102.887 32.111L97.9926 32.5497L94.8167 26.704L96.826 27.8695L83.8423 29.0324L85.6442 27.5268L83.5546 33.8424L78.6883 34.2785H78.6857ZM89.2116 16.4168L86.0616 26.2679L85.1205 25.1647L94.8815 24.2899L94.2749 25.5333L89.336 16.4064L89.2116 16.4168ZM89.196 40.0309L88.8279 35.9035L93.1653 35.5142L93.5334 39.6415L89.196 40.0309ZM104.694 32.0462L103.097 10.1427L107.938 9.78966L109.535 31.6931L104.694 32.0462ZM130.555 30.7586C128.795 30.8495 127.136 30.7145 125.583 30.3589C124.027 30.0006 122.692 29.4685 121.575 28.7547L122.809 24.8869C123.537 25.3282 124.305 25.6942 125.108 25.9849C125.912 26.2757 126.755 26.4885 127.634 26.6209C128.512 26.7533 129.428 26.7948 130.382 26.7455C131.872 26.6702 132.922 26.3873 133.532 25.8967C134.141 25.4087 134.426 24.8116 134.39 24.1056C134.356 23.4618 134.12 22.9816 133.677 22.6597C133.234 22.3404 132.448 22.0834 131.318 21.8913L127.613 21.3332C125.583 21.0217 124.045 20.3936 123.001 19.4487C121.956 18.5038 121.391 17.2033 121.305 15.5446C121.233 14.135 121.544 12.8917 122.236 11.817C122.928 10.7423 123.939 9.88051 125.267 9.22896C126.594 8.58001 128.168 8.20621 129.99 8.11276C131.543 8.03229 133.005 8.17766 134.374 8.54367C135.743 8.90968 136.884 9.47556 137.794 10.2387L136.547 13.8599C135.663 13.2187 134.688 12.7541 133.625 12.4659C132.562 12.1778 131.388 12.0662 130.104 12.1311C128.759 12.2012 127.74 12.4919 127.05 13.0059C126.361 13.5198 126.037 14.1922 126.078 15.0202C126.109 15.6432 126.353 16.1338 126.807 16.4946C127.26 16.8555 128.043 17.1228 129.153 17.2941L132.793 17.8237C134.864 18.1326 136.422 18.7504 137.467 19.6745C138.512 20.5986 139.075 21.868 139.158 23.4878C139.228 24.8558 138.922 26.068 138.237 27.1219C137.553 28.1758 136.56 29.022 135.253 29.6606C133.947 30.2992 132.381 30.6652 130.558 30.7586H130.555ZM152.39 29.8475C149.178 29.9513 146.756 29.2297 145.131 27.6826C143.503 26.1355 142.639 23.7837 142.538 20.6298L142.129 7.86616L146.979 7.71041L147.392 20.5052C147.449 22.2703 147.869 23.5968 148.657 24.4845C149.442 25.3723 150.645 25.7928 152.261 25.7383C153.837 25.6864 154.998 25.1932 155.745 24.2535C156.494 23.3164 156.839 21.964 156.782 20.1989L156.37 7.4041L161.158 7.24836L161.57 20.012C161.672 23.1659 160.956 25.5696 159.421 27.2179C157.886 28.8689 155.543 29.7437 152.393 29.8449L152.39 29.8475ZM150.246 5.7324L153.772 0.164383L158.529 0.0112305L153.544 5.62597L150.249 5.7324H150.246ZM160.979 9.49893L158.156 7.87654L158.138 7.347C158.802 7.30546 159.336 7.19384 159.745 7.01473C160.155 6.83562 160.45 6.51374 160.632 6.05169C160.813 5.58963 160.891 4.93289 160.865 4.08146L160.842 3.36502L164.884 3.23523L164.925 4.54352C164.954 5.41571 164.806 6.19965 164.487 6.89532C164.168 7.591 163.709 8.17247 163.11 8.63712C162.514 9.10436 161.801 9.3925 160.974 9.50152L160.979 9.49893ZM180.937 28.9182L173.079 6.98618L178.088 6.96801L183.719 23.8927L182.381 23.8979L188.386 6.93167L191.932 6.91869L197.563 23.8434L196.319 23.8486L202.168 6.88235L206.865 6.86417L199.106 28.8533L195.155 28.8689L189.716 13.2836H190.431L184.919 28.9078L180.937 28.9234V28.9182ZM209.681 28.9987L210.137 7.04329L225.379 7.35998L225.301 11.1291L214.695 10.9085L214.589 16.0456L224.448 16.2506L224.371 20.0509L214.511 19.8458L214.397 25.3282L225.003 25.5488L224.925 29.318L209.684 29.0013L209.681 28.9987ZM228.233 29.4244L229.024 7.47938L233.875 7.6559L233.229 25.5229L243.115 25.8811L242.967 29.9591L228.231 29.427L228.233 29.4244ZM245.835 30.0915L246.965 8.15949L251.813 8.40868L250.893 26.2653L260.773 26.7741L260.563 30.8495L245.837 30.0889L245.835 30.0915ZM270.913 31.8878C269.155 31.7658 267.524 31.4361 266.023 30.8962C264.522 30.3563 263.259 29.6658 262.235 28.8247L263.923 25.1309C264.594 25.6553 265.31 26.1121 266.075 26.4963C266.837 26.8831 267.648 27.192 268.507 27.4282C269.365 27.6644 270.267 27.815 271.221 27.8799C272.712 27.9837 273.788 27.828 274.449 27.4152C275.11 27.0025 275.468 26.4444 275.514 25.7409C275.558 25.0998 275.38 24.591 274.98 24.2224C274.578 23.8512 273.829 23.5033 272.73 23.1763L269.118 22.1795C267.14 21.6266 265.688 20.8193 264.763 19.7576C263.837 18.6959 263.433 17.3357 263.547 15.677C263.643 14.2674 264.099 13.0708 264.916 12.0869C265.733 11.1031 266.837 10.3659 268.232 9.88051C269.627 9.39509 271.234 9.21338 273.057 9.33798C274.61 9.44441 276.041 9.7611 277.358 10.2906C278.672 10.8176 279.738 11.5159 280.552 12.3829L278.88 15.8275C278.078 15.0851 277.166 14.5062 276.144 14.0935C275.123 13.6808 273.972 13.429 272.688 13.3407C271.343 13.2473 270.298 13.416 269.551 13.8443C268.805 14.2726 268.403 14.9008 268.346 15.7289C268.304 16.3493 268.486 16.8684 268.895 17.2812C269.303 17.6939 270.049 18.0521 271.13 18.3558L274.682 19.3189C276.702 19.8744 278.174 20.6739 279.103 21.7148C280.028 22.7583 280.438 24.0848 280.326 25.702C280.233 27.07 279.784 28.2355 278.978 29.2011C278.174 30.1668 277.085 30.8884 275.711 31.366C274.337 31.8437 272.74 32.0202 270.92 31.8956L270.913 31.8878ZM283.336 32.4381L285.283 10.5632L295.477 11.4717C297.935 11.6898 299.747 12.453 300.911 13.7535C302.075 15.0566 302.565 16.7412 302.381 18.8101C302.2 20.8582 301.419 22.4313 300.04 23.5267C298.661 24.6221 296.742 25.0634 294.285 24.8428L288.923 24.3651L288.166 32.8664L283.331 32.4355L283.336 32.4381ZM289.26 20.6142L294.002 21.0373C295.158 21.1411 296.045 20.9594 296.659 20.4922C297.274 20.0275 297.621 19.3267 297.704 18.3974C297.787 17.4681 297.567 16.7231 297.043 16.165C296.519 15.6069 295.679 15.2772 294.523 15.1734L289.781 14.7503L289.26 20.6142ZM304.129 34.3331L306.579 12.5101L316.472 13.6237C318.924 13.8988 320.755 14.6957 321.963 16.0118C323.171 17.3279 323.659 19.0282 323.425 21.1126C323.272 22.4754 322.837 23.6124 322.119 24.5235C321.4 25.4346 320.449 26.0914 319.267 26.4911C318.085 26.8909 316.71 27.0025 315.145 26.826L315.593 26.1874L316.861 26.3302C317.747 26.4288 318.507 26.7559 319.145 27.3088C319.783 27.8617 320.275 28.6171 320.628 29.5749L323.14 36.472L317.823 35.8724L315.24 28.4665C315.062 27.8409 314.719 27.3996 314.214 27.1453C313.711 26.8909 313.12 26.7247 312.438 26.6469L309.902 26.3613L308.946 34.873L304.124 34.3305L304.129 34.3331ZM310.296 22.8959L314.533 23.3735C315.79 23.5137 316.778 23.3658 317.496 22.9219C318.214 22.4806 318.629 21.7538 318.743 20.7414C318.857 19.7316 318.611 18.9347 318.009 18.3558C317.405 17.777 316.477 17.4162 315.22 17.2734L310.983 16.7958L310.299 22.8933L310.296 22.8959ZM325.904 36.8796L328.758 15.1059L333.57 15.7393L330.716 37.5129L325.904 36.8796ZM335.019 38.0451L338.346 16.3389L341.913 16.8866L351.394 33.6893L350.564 33.5621L352.861 18.5687L357.321 19.254L353.994 40.9602L350.427 40.4125L340.977 23.6124L341.776 23.7344L339.478 38.7278L335.019 38.0425V38.0451ZM368.79 44.0492C366.325 43.5767 364.339 42.7279 362.832 41.4975C361.326 40.2697 360.302 38.7407 359.763 36.9159C359.224 35.091 359.167 33.0663 359.592 30.8417C360.027 28.5574 360.867 26.6676 362.114 25.1724C363.359 23.6773 364.945 22.6389 366.874 22.0549C368.801 21.4708 370.989 21.4137 373.431 21.8809C374.999 22.1821 376.342 22.6441 377.457 23.2697C378.572 23.8953 379.508 24.6611 380.265 25.567L378.03 28.9753C377.468 28.3809 376.928 27.8929 376.41 27.5087C375.891 27.1245 375.339 26.8182 374.748 26.5872C374.157 26.3587 373.467 26.1666 372.671 26.0161C370.431 25.5878 368.629 25.8707 367.266 26.8701C365.905 27.8669 365.002 29.5178 364.562 31.8229C364.126 34.1072 364.323 35.9425 365.158 37.3286C365.99 38.7148 367.538 39.6233 369.801 40.0568C370.556 40.1996 371.344 40.2775 372.166 40.2879C372.988 40.2982 373.812 40.2333 374.642 40.0958L373.436 41.7675L374.546 35.9554L369.809 35.0495L370.457 31.6542L379.135 33.3155L377.115 43.9012C375.933 44.2257 374.608 44.3996 373.135 44.423C371.663 44.4463 370.214 44.3243 368.788 44.0518L368.79 44.0492ZM96.8804 54.6609L97.1189 53.1735H99.9189L101.353 44.1115L102.224 44.1452L98.4852 46.2323L98.7575 44.4879L102.086 42.6059H103.367L101.692 53.1735H104.321L104.083 54.6609H96.8752H96.8804ZM110.354 54.814C108.874 54.814 107.844 54.2559 107.264 53.1371C106.683 52.0209 106.551 50.4349 106.872 48.3842C107.201 46.3439 107.798 44.8461 108.656 43.8882C109.514 42.9304 110.616 42.4528 111.961 42.4528C113.418 42.4528 114.445 42.9953 115.044 44.0777C115.643 45.1602 115.775 46.7462 115.446 48.8307C115.127 50.8606 114.526 52.3636 113.644 53.3448C112.763 54.326 111.666 54.814 110.357 54.814H110.354ZM110.458 53.3266C111.3 53.3266 111.995 52.9632 112.542 52.2338C113.089 51.5044 113.494 50.3129 113.756 48.6593C113.927 47.5302 113.971 46.619 113.893 45.9234C113.813 45.2277 113.603 44.7215 113.26 44.4022C112.918 44.0829 112.451 43.9246 111.86 43.9246C111.007 43.9246 110.313 44.2828 109.776 45.0019C109.242 45.7209 108.843 46.8994 108.581 48.5399C108.399 49.6561 108.35 50.5699 108.436 51.2759C108.521 51.982 108.734 52.5011 109.076 52.8308C109.418 53.1605 109.88 53.3266 110.46 53.3266H110.458ZM120.6 54.814C119.12 54.814 118.09 54.2559 117.51 53.1371C116.929 52.0209 116.797 50.4349 117.118 48.3842C117.447 46.3439 118.044 44.8461 118.902 43.8882C119.76 42.9304 120.862 42.4528 122.207 42.4528C123.664 42.4528 124.691 42.9953 125.29 44.0777C125.886 45.1602 126.021 46.7462 125.692 48.8307C125.373 50.8606 124.771 52.3636 123.89 53.3448C123.008 54.326 121.912 54.814 120.603 54.814H120.6ZM120.704 53.3266C121.546 53.3266 122.241 52.9632 122.788 52.2338C123.335 51.5044 123.74 50.3129 124.001 48.6593C124.173 47.5302 124.217 46.619 124.139 45.9234C124.058 45.2277 123.848 44.7215 123.506 44.4022C123.164 44.0829 122.697 43.9246 122.106 43.9246C121.253 43.9246 120.558 44.2828 120.022 45.0019C119.488 45.7209 119.088 46.8994 118.827 48.5399C118.645 49.6561 118.596 50.5699 118.681 51.2759C118.767 51.982 118.98 52.5011 119.322 52.8308C119.664 53.1605 120.125 53.3266 120.704 53.3266ZM130.317 49.8223C129.35 49.8223 128.629 49.4822 128.157 48.8047C127.685 48.1272 127.54 47.1771 127.722 45.9571C127.903 44.8513 128.3 43.9921 128.909 43.3743C129.518 42.7591 130.273 42.4502 131.172 42.4502C132.152 42.4502 132.871 42.785 133.332 43.4599C133.794 44.1348 133.926 45.0797 133.734 46.2972C133.563 47.39 133.179 48.2518 132.58 48.88C131.981 49.5082 131.23 49.8197 130.317 49.8197V49.8223ZM130.369 48.6593C130.869 48.6593 131.284 48.4543 131.616 48.0441C131.945 47.634 132.178 47.0136 132.316 46.1804C132.44 45.303 132.394 44.6566 132.171 44.2387C131.948 43.8233 131.587 43.6157 131.087 43.6157C130.587 43.6157 130.192 43.8156 129.874 44.2127C129.555 44.6125 129.327 45.2277 129.192 46.0583C129.054 46.9357 129.096 47.5899 129.311 48.0156C129.526 48.4439 129.881 48.6568 130.369 48.6568V48.6593ZM130.898 54.6609H129.308L138.255 42.6059H139.86L130.895 54.6609H130.898ZM138.001 54.814C137.021 54.814 136.301 54.474 135.831 53.7965C135.365 53.119 135.227 52.1689 135.422 50.9489C135.603 49.843 135.995 48.9812 136.591 48.366C137.187 47.7508 137.937 47.4419 138.836 47.4419C139.816 47.4419 140.542 47.782 141.014 48.4595C141.486 49.137 141.626 50.0819 141.431 51.2889C141.25 52.3843 140.858 53.2436 140.262 53.8717C139.666 54.4999 138.911 54.8114 137.999 54.8114L138.001 54.814ZM138.069 53.6511C138.569 53.6511 138.981 53.446 139.308 53.0359C139.632 52.6258 139.858 52.0054 139.982 51.1721C140.13 50.3051 140.091 49.6613 139.863 49.2408C139.635 48.8203 139.272 48.6074 138.771 48.6074C138.271 48.6074 137.874 48.8073 137.55 49.2071C137.226 49.6068 136.995 50.222 136.858 51.0527C136.734 51.9405 136.78 52.5972 137.003 53.0177C137.226 53.4382 137.581 53.6511 138.071 53.6511H138.069ZM153.508 54.814C152.095 54.814 150.967 54.5518 150.116 54.0275C149.266 53.5031 148.691 52.7607 148.382 51.7951C148.074 50.8294 148.024 49.7055 148.229 48.4179C148.434 47.1408 148.841 46.0609 149.45 45.1784C150.059 44.2958 150.842 43.6209 151.799 43.151C152.756 42.6838 153.847 42.4502 155.079 42.4502C155.955 42.4502 156.702 42.5592 157.316 42.7746C157.93 42.9901 158.454 43.2938 158.887 43.6806L158.187 45.1005C157.731 44.7137 157.269 44.4334 156.803 44.262C156.336 44.0907 155.732 44.0051 154.993 44.0051C153.627 44.0051 152.52 44.4048 151.672 45.2017C150.824 45.9986 150.285 47.133 150.059 48.6048C149.831 50.0767 150 51.2214 150.562 52.0417C151.125 52.862 152.154 53.2721 153.645 53.2721C154.215 53.2721 154.747 53.2228 155.242 53.1267C155.737 53.0307 156.235 52.8775 156.735 52.6725L156.188 53.5265L156.803 49.5783H153.85L154.073 48.244H158.529L157.625 53.8873C157.272 54.082 156.862 54.2455 156.396 54.3831C155.929 54.5207 155.444 54.6245 154.944 54.6998C154.443 54.7751 153.964 54.8114 153.51 54.8114L153.508 54.814ZM160.202 54.6609L162.115 42.6059H163.891L161.978 54.6609H160.202ZM163.564 54.6609L170.839 42.6059H172.358L175.892 54.6609H174.15L173.193 51.2422L173.875 51.7198H166.582L167.435 51.2422L165.436 54.6609H163.556H163.564ZM171.352 44.5554L167.782 50.6945L167.425 50.2999H173.486L173.076 50.6945L171.402 44.5554H171.35H171.352ZM171.147 41.5806L173.385 38.6213H175.28L172.41 41.5806H171.147ZM184.927 54.6609L186.602 44.0933H182.487L182.726 42.6059H192.733L192.495 44.0933H188.38L186.706 54.6609H184.93H184.927ZM192.474 54.6609L194.387 42.6059H199.305C200.672 42.6059 201.667 42.9252 202.295 43.5638C202.922 44.2023 203.137 45.0979 202.943 46.2478C202.842 46.9305 202.593 47.5172 202.199 48C201.807 48.4854 201.302 48.854 200.687 49.111C200.073 49.368 199.383 49.4952 198.621 49.4952L198.722 49.2226H199.132C199.598 49.2226 199.995 49.3446 200.319 49.5912C200.643 49.8378 200.892 50.2142 201.063 50.7282L202.326 54.6609H200.464L199.217 50.71C199.08 50.2428 198.847 49.9417 198.517 49.8041C198.188 49.6665 197.76 49.599 197.237 49.599H195.051L194.247 54.6609H192.471H192.474ZM195.258 48.2492H198.434C199.243 48.2492 199.884 48.0701 200.355 47.7119C200.827 47.3537 201.115 46.8475 201.219 46.1985C201.322 45.4795 201.182 44.9395 200.801 44.5735C200.42 44.2075 199.808 44.0258 198.966 44.0258H195.927L195.261 48.2492H195.258ZM203.83 57.9939L204.12 56.2677H205.914L205.624 57.9939H203.83ZM204.377 54.6609L206.29 42.6059H208.066L206.152 54.6609H204.377ZM213.547 54.6609L215.46 42.6059H217.236L216.417 47.8027H223.178L223.997 42.6059H225.773L223.86 54.6609H222.084L222.937 49.2927H216.175L215.322 54.6609H213.547ZM227.277 48.3868C227.482 47.1226 227.868 46.048 228.438 45.1628C229.009 44.2802 229.74 43.6079 230.632 43.1458C231.526 42.6838 232.535 42.4528 233.662 42.4528C234.904 42.4528 235.913 42.7227 236.693 43.2653C237.473 43.8078 238.015 44.5632 238.324 45.5314C238.632 46.4996 238.682 47.6106 238.477 48.8644C238.282 50.1312 237.899 51.2032 237.323 52.0884C236.748 52.971 236.016 53.6485 235.13 54.1157C234.243 54.583 233.229 54.8166 232.091 54.8166C230.862 54.8166 229.854 54.5467 229.068 54.0041C228.283 53.4642 227.738 52.7088 227.438 51.738C227.137 50.7697 227.082 49.651 227.274 48.3868H227.277ZM229.105 48.5581C228.957 49.5497 228.978 50.3959 229.164 51.0968C229.351 51.7977 229.703 52.3376 230.222 52.7114C230.741 53.0878 231.409 53.2747 232.229 53.2747C233.458 53.2747 234.448 52.8672 235.2 52.0521C235.952 51.237 236.434 50.1182 236.652 48.6931C236.81 47.7119 236.792 46.8734 236.592 46.1726C236.392 45.4717 236.037 44.9318 235.524 44.558C235.01 44.1816 234.347 43.9947 233.525 43.9947C232.296 43.9947 231.311 44.397 230.572 45.1991C229.831 46.0038 229.343 47.1226 229.102 48.5581H229.105ZM230.486 57.9939L230.777 56.2677H232.571L232.281 57.9939H230.486ZM245.702 54.814C244.37 54.814 243.289 54.5441 242.459 54.0015C241.627 53.4616 241.056 52.7062 240.743 51.7354C240.429 50.7671 240.369 49.6484 240.564 48.3842C240.769 47.12 241.165 46.0454 241.751 45.1602C242.337 44.2776 243.092 43.6027 244.015 43.1355C244.937 42.6682 245.995 42.4398 247.19 42.4528C247.999 42.4528 248.715 42.567 249.342 42.7954C249.97 43.0238 250.504 43.3535 250.947 43.787L250.281 45.2069C249.791 44.7734 249.303 44.4697 248.821 44.2932C248.336 44.1167 247.761 44.0284 247.087 44.0284C245.824 44.0284 244.787 44.423 243.978 45.2069C243.169 45.9935 242.646 47.1045 242.407 48.5399C242.27 49.4874 242.298 50.3129 242.493 51.0189C242.687 51.725 243.068 52.2727 243.636 52.6595C244.206 53.0463 244.956 53.241 245.889 53.241C246.493 53.241 247.087 53.1371 247.673 52.9321C248.259 52.727 248.819 52.3921 249.355 51.9223L249.918 53.324C249.371 53.8017 248.728 54.1703 247.989 54.4272C247.247 54.6842 246.485 54.8114 245.7 54.8114L245.702 54.814ZM256.257 54.6609L258.17 42.6059H263.106C264.449 42.6059 265.429 42.9408 266.044 43.6053C266.658 44.2724 266.868 45.181 266.676 46.3335C266.575 47.0292 266.331 47.621 265.95 48.1116C265.569 48.6022 265.071 48.9786 264.457 49.2408C263.843 49.503 263.114 49.6354 262.271 49.6354H258.839L258.035 54.6635H256.259L256.257 54.6609ZM259.057 48.2155H262.181C263 48.2155 263.64 48.0467 264.102 47.7119C264.563 47.377 264.846 46.876 264.947 46.2167C265.061 45.4977 264.939 44.9551 264.579 44.5839C264.219 44.2127 263.638 44.0284 262.829 44.0284H259.705L259.057 48.2181V48.2155ZM267.49 54.6609L269.404 42.6059H271.18L270.36 47.8027H277.122L277.941 42.6059H279.717L277.804 54.6609H276.028L276.881 49.2927H270.119L269.266 54.6609H267.49ZM280.64 54.6609L282.553 42.6059H284.329L282.416 54.6609H280.64ZM282.981 41.5806L285.218 38.6213H287.114L284.244 41.5806H282.981Z" fill="url(#paint0_linear_474_84)"/>
<defs>
<linearGradient id="paint0_linear_474_84" x1="0.394958" y1="29.0039" x2="380.268" y2="29.0039" gradientUnits="userSpaceOnUse">
<stop stop-color="#F9D16F"/>
<stop offset="0.07" stop-color="#EEBE5C"/>
<stop offset="0.18" stop-color="#E0A341"/>
<stop offset="0.25" stop-color="#DB9A38"/>
<stop offset="0.3" stop-color="#DDA044"/>
<stop offset="0.4" stop-color="#E5B365"/>
<stop offset="0.52" stop-color="#F1D19B"/>
<stop offset="0.64" stop-color="#FFF1D5"/>
<stop offset="0.66" stop-color="#FEEBC4"/>
<stop offset="0.68" stop-color="#FCE3AA"/>
<stop offset="0.71" stop-color="#FBDC94"/>
<stop offset="0.74" stop-color="#FAD783"/>
<stop offset="0.78" stop-color="#F9D377"/>
<stop offset="0.84" stop-color="#F9D170"/>
<stop offset="1" stop-color="#F9D16F"/>
</linearGradient>
</defs>
</svg>
