<svg width="418" height="59" viewBox="0 0 418 59" fill="none" xmlns="http://www.w3.org/2000/svg">
<path d="M5.36104 52.8082L0.453308 31.4057L5.18477 30.3181L7.15509 38.9102L16.9499 36.6596L14.9795 28.0675L19.7395 26.9747L24.6472 48.3797L19.8873 49.4726L17.8469 40.5767L8.05211 42.8273L10.0925 51.7231L5.36104 52.8108V52.8082ZM28.7876 47.5698L24.8236 25.9701L34.7687 24.14C37.1357 23.7039 39.0516 23.8701 40.5216 24.6332C41.9916 25.399 42.8834 26.6476 43.2023 28.3842C43.4383 29.6717 43.2568 30.8346 42.6553 31.873C42.0564 32.9139 41.1205 33.7082 39.8501 34.2585L39.7594 33.7679C41.359 33.7471 42.6657 34.1157 43.6794 34.8685C44.6931 35.6213 45.3334 36.7245 45.5979 38.173C45.9505 40.0939 45.546 41.7137 44.3872 43.0349C43.2283 44.3562 41.4549 45.2362 39.0672 45.6775L28.785 47.5698H28.7876ZM31.012 34.0171L35.5412 33.1839C36.7857 32.9554 37.662 32.5608 38.1702 32.0027C38.6783 31.4446 38.852 30.7152 38.6861 29.8171C38.5253 28.9397 38.1079 28.3297 37.4338 27.9896C36.7598 27.6496 35.8005 27.5925 34.5561 27.8235L30.0268 28.6567L31.012 34.0171ZM32.6946 43.1777L37.8357 42.2328C39.0179 42.0148 39.8864 41.6228 40.4361 41.0569C40.9857 40.4911 41.1697 39.7175 40.9908 38.7389C40.8068 37.7395 40.3583 37.0776 39.6453 36.7531C38.9324 36.4312 37.9835 36.3767 36.8013 36.5947L31.6602 37.5422L32.6946 43.1803V43.1777ZM58.5375 42.4223L55.5326 20.6694L60.3393 20.0023L61.6486 29.4744L61.7108 29.4666L69.307 18.7615L75.0081 17.9724L65.6411 30.8736L65.4 28.8956L78.6922 39.6318L72.807 40.4469L62.0349 31.8133L61.9726 31.8211L63.3467 41.7578L58.54 42.4249L58.5375 42.4223ZM79.514 39.5617L77.1029 17.7336L81.9277 17.1988L82.8947 25.9597L92.884 24.8539L91.9169 16.093L96.7728 15.5557L99.1839 37.3839L94.328 37.9212L93.3273 28.8488L83.3407 29.9546L84.3414 39.027L79.5166 39.5617H79.514ZM101.896 26.0687C101.704 23.7922 101.966 21.7752 102.681 20.0153C103.397 18.2553 104.522 16.8432 106.054 15.7763C107.589 14.7094 109.461 14.0813 111.672 13.8944C113.884 13.7075 115.833 14.0112 117.526 14.8055C119.217 15.5998 120.573 16.8043 121.594 18.4163C122.616 20.0283 123.22 21.9621 123.412 24.2179C123.606 26.5152 123.334 28.5451 122.597 30.3051C121.861 32.065 120.728 33.485 119.193 34.5622C117.661 35.6395 115.789 36.2729 113.578 36.4598C111.366 36.6467 109.419 36.3377 107.739 35.5304C106.059 34.7231 104.711 33.5109 103.7 31.8859C102.689 30.2636 102.088 28.3245 101.898 26.0687H101.896ZM106.949 25.6404C107.138 27.8962 107.758 29.6198 108.805 30.8139C109.852 32.0079 111.328 32.5219 113.228 32.361C115.087 32.2026 116.451 31.4472 117.314 30.0922C118.177 28.7372 118.514 26.9331 118.325 24.6774C118.133 22.4008 117.503 20.6772 116.438 19.5065C115.372 18.3358 113.897 17.8296 112.017 17.988C110.117 18.1489 108.748 18.8965 107.913 20.2255C107.078 21.5572 106.757 23.3613 106.949 25.6378V25.6404ZM110.394 12.4693L110.345 11.88C110.316 11.5296 110.373 11.2415 110.521 11.0208C110.669 10.8002 110.845 10.5977 111.048 10.4134C111.25 10.2291 111.429 10.0526 111.582 9.88384C111.735 9.71511 111.802 9.53599 111.786 9.35169C111.771 9.16738 111.659 9.03499 111.457 8.95712C111.252 8.88184 110.975 8.85847 110.625 8.88703C110.293 8.91558 109.987 8.9727 109.702 9.05836C109.417 9.14402 109.116 9.26343 108.795 9.41658L107.957 7.64365C108.87 7.10892 110.091 6.77663 111.621 6.64684C112.676 6.55858 113.521 6.66244 114.161 6.96355C114.799 7.26467 115.146 7.72411 115.198 8.34451C115.24 8.81954 115.152 9.20374 114.936 9.49187C114.721 9.7826 114.467 10.037 114.174 10.2602C113.881 10.4835 113.63 10.7119 113.42 10.9481C113.21 11.1843 113.122 11.4777 113.15 11.8307L113.184 12.233L110.394 12.4693ZM115.297 16.1813L113.858 13.9281C114.273 13.9151 114.63 13.9099 114.934 13.9151C115.235 13.9203 115.53 13.9125 115.821 13.8866C116.482 13.8295 117.013 13.7023 117.412 13.5024C117.812 13.3025 118.094 12.9599 118.263 12.4771C118.429 11.9942 118.478 11.3297 118.405 10.4809L118.346 9.76701L122.375 9.42698L122.483 10.7301C122.556 11.5997 122.432 12.4121 122.113 13.1675C121.791 13.9255 121.319 14.5537 120.695 15.0547C120.07 15.5557 119.336 15.8412 118.488 15.9139L115.294 16.1838L115.297 16.1813ZM128.034 34.9931L126.549 13.0819L131.391 12.7522L132.877 34.6635L128.034 34.9931ZM142.954 24.5943L142.799 21.1393L156.07 20.5422L156.226 23.9973L142.954 24.5943ZM145.954 33.8458L144.971 11.906L153.333 11.5296C155.881 11.4154 158.056 11.7528 159.855 12.5471C161.655 13.3389 163.042 14.5303 164.017 16.1164C164.991 17.705 165.531 19.6493 165.632 21.9518C165.733 24.2335 165.372 26.2141 164.543 27.8936C163.716 29.5731 162.44 30.8943 160.719 31.8548C158.997 32.8152 156.861 33.3526 154.313 33.4668L145.951 33.8432L145.954 33.8458ZM150.623 29.6458L153.856 29.5004C156.301 29.3914 158.093 28.732 159.233 27.5276C160.374 26.3231 160.89 24.5372 160.784 22.1724C160.677 19.7869 160.001 18.0502 158.759 16.9626C157.517 15.8749 155.671 15.387 153.229 15.496L149.996 15.6413L150.623 29.6458ZM166.705 32.9035L176.233 10.6963L180.246 10.5951L190.995 32.2935L186.082 32.4155L183.285 26.3776L185.216 27.6703L172.186 27.9974L174.081 26.6086L171.589 32.7789L166.708 32.9009L166.705 32.9035ZM172.795 8.91301L176.119 3.68764L180.101 3.589L183.681 8.64044L180.788 8.71313L178.169 6.06798L175.686 8.84032L172.792 8.91301H172.795ZM178.351 15.7556L174.576 25.386L173.708 24.2231L183.505 23.9765L182.821 25.1783L178.478 15.753H178.354L178.351 15.7556ZM183.005 5.26068L179.155 0.684266L182.888 0.59082L185.587 5.19839L183.005 5.26328V5.26068ZM202.068 32.5842C198.853 32.6024 196.452 31.8185 194.868 30.2272C193.282 28.6386 192.48 26.266 192.462 23.1069L192.387 10.3355L197.24 10.307L197.316 23.1095C197.326 24.8746 197.712 26.2115 198.475 27.12C199.237 28.0285 200.427 28.4802 202.044 28.4698C203.621 28.4595 204.795 27.9974 205.568 27.0785C206.34 26.1596 206.721 24.8175 206.711 23.0524L206.636 10.2498L211.427 10.2213L211.502 22.9927C211.52 26.1492 210.743 28.5321 209.164 30.1389C207.587 31.7483 205.22 32.5608 202.068 32.579V32.5842ZM224.478 32.2727L224.927 10.3173L229.78 10.416L229.598 19.2288L239.645 19.4338L239.826 10.621L244.711 10.7223L244.259 32.6777L239.375 32.5764L239.562 23.4521L229.516 23.2471L229.329 32.3714L224.475 32.2727H224.478ZM246.022 32.7088L256.986 11.1765L260.997 11.3401L270.299 33.6978L265.389 33.4979L262.996 27.2887L264.837 28.7035L251.812 28.1713L253.792 26.9124L250.902 32.9061L246.022 32.7062V32.7088ZM258.768 16.363L254.371 25.7235L253.58 24.506L263.372 24.9058L262.61 26.0583L258.895 16.3682L258.77 16.363H258.768ZM255.698 39.7772L255.866 35.6369L260.219 35.8134L260.051 39.9537L255.698 39.7772ZM272.08 33.8146L273.434 11.8956L277.035 12.1188L287.994 27.9948L287.156 27.9429L288.092 12.8015L292.596 13.0793L291.242 34.9983L287.641 34.7751L276.713 18.8991L277.52 18.9484L276.584 34.0898L272.08 33.812V33.8146ZM295.559 35.3124L297.413 13.4297L302.248 13.8399L301.504 22.6241L311.516 23.4755L312.26 14.6913L317.127 15.104L315.273 36.9867L310.407 36.574L311.177 27.4782L301.164 26.6268L300.394 35.7199L295.559 35.3098V35.3124ZM328.251 38.3235L330.844 16.5161L341.007 17.7284C343.457 18.0191 345.246 18.8342 346.371 20.171C347.496 21.5079 347.937 23.2081 347.69 25.2692C347.447 27.3121 346.622 28.8592 345.212 29.9157C343.802 30.9722 341.873 31.3538 339.42 31.0605L334.077 30.4245L333.068 38.8998L328.249 38.3261L328.251 38.3235ZM334.523 26.6813L339.249 27.2446C340.403 27.3822 341.292 27.2265 341.919 26.78C342.547 26.3335 342.915 25.643 343.026 24.7163C343.138 23.787 342.938 23.0394 342.433 22.4657C341.927 21.8921 341.098 21.539 339.944 21.4015L335.218 20.8382L334.523 26.6839V26.6813ZM348.95 40.8207L352.163 19.0964L356.964 19.8076L355.676 28.5269L365.616 29.9988L366.904 21.2794L371.737 21.9959L368.524 43.7202L363.692 43.0038L365.027 33.9756L355.087 32.5037L353.752 41.532L348.95 40.8207ZM381.936 46.4692C378.775 45.8851 376.564 44.6625 375.304 42.8039C374.044 40.9453 373.702 38.4637 374.275 35.3591L376.592 22.8006L381.365 23.6832L379.043 36.2728C378.721 38.0094 378.851 39.3956 379.429 40.4313C380.007 41.4671 381.093 42.1316 382.682 42.4275C384.233 42.7131 385.472 42.4794 386.403 41.7215C387.334 40.9635 387.958 39.7175 388.28 37.9835L390.603 25.3938L395.314 26.266L392.996 38.8245C392.423 41.9291 391.212 44.1226 389.361 45.4049C387.51 46.6898 385.034 47.0429 381.936 46.4692ZM384.702 22.4008L389.332 17.7154L394.012 18.5824L387.945 23.0031L384.702 22.4034V22.4008ZM405.578 51.396C403.293 50.8717 401.437 49.9658 400.009 48.6782C398.58 47.3907 397.616 45.8228 397.113 43.9694C396.612 42.1186 396.618 40.0679 397.134 37.8226C397.649 35.5746 398.534 33.7342 399.788 32.2961C401.043 30.858 402.594 29.8716 404.439 29.3368C406.285 28.8021 408.352 28.7969 410.636 29.3213C412.111 29.6587 413.407 30.1753 414.527 30.871C415.645 31.5641 416.539 32.4025 417.205 33.3889L414.864 36.7816C414.102 35.8394 413.335 35.1203 412.565 34.6245C411.795 34.1287 410.885 33.7601 409.835 33.5187C407.833 33.0592 406.166 33.3007 404.834 34.2403C403.501 35.18 402.583 36.7557 402.078 38.9595C401.572 41.166 401.712 42.9882 402.5 44.4263C403.288 45.8644 404.683 46.8118 406.685 47.2739C407.735 47.5153 408.715 47.5802 409.625 47.4686C410.532 47.357 411.535 47.0455 412.632 46.5289L413.262 50.6043C412.235 51.178 411.069 51.5388 409.759 51.6868C408.45 51.8347 407.055 51.7361 405.58 51.3986L405.578 51.396ZM145.451 57.9972L145.69 56.5098H148.49L149.923 47.4478L150.794 47.4816L147.053 49.5686L147.326 47.8242L150.654 45.9422H151.935L150.26 56.5098H152.889L152.651 57.9972H145.443H145.451ZM159.093 58.153C158.57 58.153 158.061 58.0958 157.566 57.9816C157.071 57.8674 156.617 57.7065 156.208 57.4936C155.798 57.2833 155.456 57.029 155.184 56.7331L155.832 55.3832C156.309 55.8037 156.825 56.1204 157.377 56.3333C157.929 56.5435 158.518 56.65 159.145 56.65C159.931 56.65 160.584 56.4527 161.11 56.0607C161.634 55.6661 161.958 55.0951 162.082 54.3423C162.197 53.6025 162.064 53.0054 161.691 52.5564C161.315 52.1073 160.745 51.8815 159.982 51.8815C159.435 51.8815 158.933 51.9905 158.471 52.2059C158.01 52.4214 157.579 52.7537 157.183 53.1976H155.954L157.097 45.9474H164.39L164.133 47.4348H158.549L157.867 51.7958H157.39C157.766 51.3389 158.225 50.9963 158.764 50.7601C159.303 50.5265 159.889 50.4097 160.514 50.4097C161.266 50.4097 161.909 50.5706 162.443 50.8977C162.977 51.2247 163.368 51.6868 163.612 52.2916C163.856 52.8964 163.91 53.6207 163.775 54.4617C163.661 55.2249 163.397 55.8842 162.982 56.4371C162.567 56.99 162.028 57.4158 161.37 57.7117C160.708 58.0076 159.951 58.1556 159.098 58.1556L159.093 58.153ZM164.901 57.9972L165.225 55.9621H167.257L166.933 57.9972H164.901ZM173.218 58.153C171.737 58.153 170.708 57.5949 170.127 56.4761C169.547 55.3599 169.414 53.7738 169.733 51.7231C170.062 49.6828 170.659 48.185 171.517 47.2272C172.378 46.2693 173.477 45.7917 174.822 45.7917C176.279 45.7917 177.306 46.3342 177.905 47.4167C178.504 48.4991 178.636 50.0852 178.307 52.1696C177.988 54.1995 177.386 55.7025 176.505 56.6837C175.624 57.6649 174.527 58.153 173.218 58.153ZM173.319 56.6656C174.161 56.6656 174.856 56.3022 175.403 55.5727C175.95 54.8433 176.355 53.6518 176.617 51.9983C176.788 50.8691 176.832 49.958 176.754 49.2623C176.674 48.5666 176.464 48.0604 176.121 47.7412C175.779 47.4219 175.312 47.2635 174.721 47.2635C173.868 47.2635 173.174 47.6217 172.637 48.3408C172.103 49.0598 171.704 50.2383 171.442 51.8789C171.26 52.9951 171.211 53.9088 171.297 54.6149C171.382 55.3209 171.595 55.8401 171.937 56.1698C172.279 56.4994 172.741 56.6656 173.319 56.6656ZM183.463 58.153C181.983 58.153 180.954 57.5949 180.373 56.4761C179.792 55.3599 179.66 53.7738 179.982 51.7231C180.311 49.6828 180.907 48.185 181.765 47.2272C182.626 46.2693 183.725 45.7917 185.071 45.7917C186.528 45.7917 187.555 46.3342 188.153 47.4167C188.752 48.4991 188.885 50.0852 188.555 52.1696C188.236 54.1995 187.635 55.7025 186.753 56.6837C185.872 57.6649 184.775 58.153 183.466 58.153H183.463ZM183.565 56.6656C184.407 56.6656 185.102 56.3022 185.649 55.5727C186.196 54.8433 186.601 53.6518 186.862 51.9983C187.033 50.8691 187.078 49.958 187 49.2623C186.919 48.5666 186.709 48.0604 186.367 47.7412C186.025 47.4219 185.558 47.2635 184.967 47.2635C184.114 47.2635 183.419 47.6217 182.883 48.3408C182.349 49.0598 181.949 50.2383 181.688 51.8789C181.506 52.9951 181.457 53.9088 181.542 54.6149C181.628 55.3209 181.841 55.8401 182.183 56.1698C182.525 56.4994 182.986 56.6656 183.565 56.6656ZM193.709 58.153C192.229 58.153 191.2 57.5949 190.619 56.4761C190.038 55.3599 189.909 53.7738 190.228 51.7231C190.557 49.6828 191.153 48.185 192.011 47.2272C192.872 46.2693 193.971 45.7917 195.317 45.7917C196.774 45.7917 197.8 46.3342 198.399 47.4167C198.998 48.4991 199.13 50.0852 198.801 52.1696C198.482 54.1995 197.881 55.7025 196.999 56.6837C196.118 57.6649 195.021 58.153 193.712 58.153H193.709ZM193.81 56.6656C194.653 56.6656 195.348 56.3022 195.895 55.5727C196.442 54.8433 196.846 53.6518 197.108 51.9983C197.279 50.8691 197.323 49.958 197.246 49.2623C197.165 48.5666 196.955 48.0604 196.613 47.7412C196.271 47.4219 195.804 47.2635 195.213 47.2635C194.36 47.2635 193.665 47.6217 193.129 48.3408C192.595 49.0598 192.195 50.2383 191.933 51.8789C191.752 52.9951 191.703 53.9088 191.788 54.6149C191.874 55.3209 192.086 55.8401 192.429 56.1698C192.771 56.4994 193.232 56.6656 193.81 56.6656ZM199.685 57.9972L200.009 55.9621H202.042L201.718 57.9972H199.685ZM208.002 58.153C206.522 58.153 205.493 57.5949 204.912 56.4761C204.331 55.3599 204.199 53.7738 204.518 51.7231C204.847 49.6828 205.443 48.185 206.302 47.2272C207.16 46.2693 208.262 45.7917 209.607 45.7917C211.064 45.7917 212.091 46.3342 212.69 47.4167C213.289 48.4991 213.421 50.0852 213.091 52.1696C212.773 54.1995 212.171 55.7025 211.29 56.6837C210.408 57.6649 209.311 58.153 208.002 58.153ZM208.103 56.6656C208.946 56.6656 209.641 56.3022 210.188 55.5727C210.735 54.8433 211.139 53.6518 211.401 51.9983C211.572 50.8691 211.616 49.958 211.539 49.2623C211.458 48.5666 211.248 48.0604 210.906 47.7412C210.564 47.4219 210.097 47.2635 209.506 47.2635C208.653 47.2635 207.958 47.6217 207.421 48.3408C206.887 49.0598 206.488 50.2383 206.226 51.8789C206.045 52.9951 205.996 53.9088 206.081 54.6149C206.167 55.3209 206.379 55.8401 206.722 56.1698C207.064 56.4994 207.525 56.6656 208.103 56.6656ZM218.248 58.153C216.768 58.153 215.739 57.5949 215.158 56.4761C214.577 55.3599 214.445 53.7738 214.766 51.7231C215.096 49.6828 215.692 48.185 216.55 47.2272C217.411 46.2693 218.51 45.7917 219.856 45.7917C221.313 45.7917 222.339 46.3342 222.938 47.4167C223.537 48.4991 223.669 50.0852 223.34 52.1696C223.021 54.1995 222.42 55.7025 221.538 56.6837C220.657 57.6649 219.56 58.153 218.251 58.153H218.248ZM218.349 56.6656C219.192 56.6656 219.887 56.3022 220.434 55.5727C220.981 54.8433 221.385 53.6518 221.647 51.9983C221.818 50.8691 221.862 49.958 221.784 49.2623C221.704 48.5666 221.494 48.0604 221.152 47.7412C220.81 47.4219 220.343 47.2635 219.752 47.2635C218.899 47.2635 218.204 47.6217 217.667 48.3408C217.133 49.0598 216.734 50.2383 216.472 51.8789C216.291 52.9951 216.241 53.9088 216.327 54.6149C216.413 55.3209 216.625 55.8401 216.967 56.1698C217.31 56.4994 217.771 56.6656 218.349 56.6656ZM228.494 58.153C227.014 58.153 225.984 57.5949 225.404 56.4761C224.823 55.3599 224.693 53.7738 225.012 51.7231C225.341 49.6828 225.938 48.185 226.796 47.2272C227.654 46.2693 228.756 45.7917 230.101 45.7917C231.558 45.7917 232.585 46.3342 233.184 47.4167C233.783 48.4991 233.915 50.0852 233.586 52.1696C233.267 54.1995 232.665 55.7025 231.784 56.6837C230.903 57.6649 229.806 58.153 228.497 58.153H228.494ZM228.595 56.6656C229.438 56.6656 230.133 56.3022 230.68 55.5727C231.227 54.8433 231.631 53.6518 231.893 51.9983C232.064 50.8691 232.108 49.958 232.03 49.2623C231.95 48.5666 231.74 48.0604 231.398 47.7412C231.056 47.4219 230.589 47.2635 229.998 47.2635C229.145 47.2635 228.45 47.6217 227.913 48.3408C227.379 49.0598 226.98 50.2383 226.718 51.8789C226.537 52.9951 226.487 53.9088 226.573 54.6149C226.658 55.3209 226.871 55.8401 227.213 56.1698C227.555 56.4994 228.017 56.6656 228.595 56.6656ZM238.722 57.9972L235.341 45.9422H237.169L240.002 56.5098H239.404L245.584 45.9422H247.498L240.275 57.9972H238.722ZM246.969 57.9972L248.882 45.9422H250.248L256.038 55.7388L255.68 55.6532L257.217 45.9422H258.874L256.961 57.9972H255.612L249.808 48.2006L250.165 48.2863L248.628 57.9972H246.971H246.969ZM259.195 52.5434L259.4 51.2273H265.975L265.752 52.5434H259.195ZM259.776 57.9972L261.689 45.9422H265.685C267.118 45.9422 268.272 46.194 269.143 46.695C270.014 47.196 270.618 47.9125 270.953 48.8418C271.287 49.7711 271.355 50.8899 271.15 52.2007C270.841 54.1398 270.076 55.5883 268.853 56.5513C267.629 57.5144 266.014 57.9972 264.012 57.9972H259.776ZM261.793 56.5098H264.064C265.625 56.5098 266.841 56.1412 267.72 55.4066C268.596 54.672 269.148 53.5506 269.376 52.0476C269.628 50.4745 269.431 49.3116 268.788 48.5588C268.145 47.8061 267.043 47.4296 265.482 47.4296H263.229L261.796 56.5098H261.793Z" fill="url(#paint0_linear_474_88)"/>
<defs>
<linearGradient id="paint0_linear_474_88" x1="0.453308" y1="29.3706" x2="417.203" y2="29.3706" gradientUnits="userSpaceOnUse">
<stop stop-color="#F9D16F"/>
<stop offset="0.07" stop-color="#EEBE5C"/>
<stop offset="0.18" stop-color="#E0A341"/>
<stop offset="0.25" stop-color="#DB9A38"/>
<stop offset="0.3" stop-color="#DDA044"/>
<stop offset="0.4" stop-color="#E5B365"/>
<stop offset="0.52" stop-color="#F1D19B"/>
<stop offset="0.64" stop-color="#FFF1D5"/>
<stop offset="0.66" stop-color="#FEEBC4"/>
<stop offset="0.68" stop-color="#FCE3AA"/>
<stop offset="0.71" stop-color="#FBDC94"/>
<stop offset="0.74" stop-color="#FAD783"/>
<stop offset="0.78" stop-color="#F9D377"/>
<stop offset="0.84" stop-color="#F9D170"/>
<stop offset="1" stop-color="#F9D16F"/>
</linearGradient>
</defs>
</svg>
