<svg width="423" height="56" viewBox="0 0 423 56" fill="none" xmlns="http://www.w3.org/2000/svg">
<path d="M5.27693 47.9382L0.213623 26.5721L4.93471 25.4507L6.96729 34.0273L16.7439 31.704L14.7113 23.1275L19.4635 21.9983L24.5268 43.3644L19.7746 44.4936L17.6695 35.6133L7.89284 37.9366L9.99802 46.8169L5.27693 47.9382ZM28.6594 42.5364L24.5761 20.96L34.5109 19.0754C36.8753 18.6263 38.7938 18.7821 40.2664 19.5375C41.739 20.2929 42.6412 21.5388 42.9679 23.2729C43.2116 24.5578 43.0353 25.7233 42.4416 26.7642C41.8479 27.8077 40.9171 28.6072 39.6494 29.1653L39.556 28.6747C41.1556 28.6462 42.4623 29.007 43.4812 29.752C44.4975 30.4996 45.1456 31.5976 45.4178 33.0461C45.7808 34.9644 45.3867 36.5868 44.233 37.9158C43.0793 39.2449 41.3112 40.1353 38.9286 40.5869L28.6594 42.5364ZM30.8087 28.9732L35.3327 28.114C36.5746 27.8778 37.4508 27.4807 37.9564 26.9174C38.462 26.3567 38.6305 25.6272 38.4594 24.7291C38.2934 23.8517 37.8734 23.2443 37.1968 22.9068C36.5201 22.572 35.5609 22.5201 34.319 22.7563L29.795 23.6155L30.8087 28.9707V28.9732ZM32.5405 38.1235L37.6764 37.1501C38.8586 36.9268 39.7219 36.5297 40.269 35.9612C40.816 35.3927 40.9975 34.6191 40.8108 33.6379C40.6216 32.6385 40.1705 31.9792 39.4549 31.6599C38.7394 31.3406 37.7905 31.2939 36.6109 31.5172L31.4749 32.4906L32.5405 38.1209V38.1235ZM58.3678 37.2201L55.3085 15.475L63.5944 14.3069C66.1196 13.9513 68.3181 14.0811 70.1848 14.6989C72.0514 15.3167 73.5447 16.3706 74.6673 17.858C75.7873 19.3454 76.5081 21.2325 76.8295 23.5143C77.1484 25.7752 76.9747 27.7818 76.311 29.5339C75.6473 31.2835 74.5014 32.719 72.8785 33.8404C71.2555 34.9618 69.1814 35.699 66.6563 36.0546L58.3704 37.2227L58.3678 37.2201ZM62.6196 32.5944L65.824 32.1427C68.2481 31.8001 69.9696 30.9772 70.9885 29.6689C72.0073 28.3606 72.3547 26.5358 72.0255 24.1918C71.6936 21.827 70.8562 20.1631 69.5159 19.1974C68.1755 18.2344 66.2933 17.9203 63.8692 18.2629L60.6648 18.7146L62.617 32.5944H62.6196ZM78.8932 34.318L86.4662 11.3684L90.4535 10.9194L103.038 31.6054L98.1535 32.1531L94.8454 26.38L96.8805 27.4988L83.9254 28.9551L85.6936 27.408L83.7465 33.7703L78.8932 34.3154V34.318ZM89.0121 16.2226L86.085 26.1438L85.118 25.0614L94.8557 23.9685L94.2776 25.2249L89.1365 16.2122L89.0121 16.2252V16.2226ZM104.796 31.4678L102.901 9.59032L106.496 9.27882L119.677 23.3611L118.84 23.4338L117.53 8.32096L122.026 7.93159L123.921 29.8091L120.325 30.1206L107.176 16.0357L107.982 15.9656L109.291 31.0785L104.798 31.4678H104.796ZM128.238 29.4846L126.846 7.56819L131.689 7.25928L132.246 16.0565L142.274 15.4179L141.717 6.62071L146.591 6.31181L147.983 28.2282L143.109 28.5371L142.531 19.4285L132.503 20.067L133.081 29.1757L128.238 29.4846ZM161.039 27.5949L160.285 5.64728L168.648 5.35915C171.197 5.27089 173.369 5.63171 175.161 6.44419C176.952 7.25409 178.326 8.45854 179.286 10.0576C180.242 11.6566 180.761 13.606 180.841 15.9111C180.919 18.1954 180.535 20.1709 179.69 21.8426C178.845 23.5143 177.556 24.8199 175.825 25.7622C174.093 26.7045 171.951 27.2211 169.403 27.3093L161.039 27.5975V27.5949ZM165.752 23.4442L168.985 23.3326C171.43 23.2469 173.229 22.6083 174.383 21.4168C175.534 20.2228 176.071 18.4446 175.991 16.0798C175.908 13.6943 175.252 11.9499 174.02 10.8493C172.789 9.74866 170.951 9.23988 168.506 9.32554L165.273 9.43717L165.755 23.4468L165.752 23.4442ZM194.333 27.0264C191.118 27.0731 188.712 26.31 187.113 24.7343C185.513 23.1586 184.691 20.7938 184.645 17.6373L184.458 4.86854L189.311 4.79586L189.5 17.5958C189.526 19.361 189.923 20.6952 190.696 21.596C191.466 22.4993 192.661 22.938 194.279 22.9146C195.855 22.8913 197.024 22.4162 197.789 21.4921C198.554 20.568 198.922 19.2208 198.896 17.4582L198.707 4.65827L203.498 4.58818L203.684 17.357C203.731 20.5135 202.971 22.9017 201.411 24.524C199.847 26.1464 197.491 26.9797 194.338 27.0264H194.333ZM192.529 33.3757L192.469 29.2328L196.824 29.1679L196.884 33.3109L192.529 33.3757ZM203.277 6.83097L200.483 5.15926L200.475 4.62972C201.139 4.59857 201.675 4.49734 202.087 4.32602C202.5 4.1547 202.8 3.838 202.992 3.37854C203.182 2.91908 203.272 2.26493 203.259 1.41091L203.249 0.694464L207.293 0.634766L207.311 1.94305C207.324 2.81524 207.164 3.59659 206.832 4.28708C206.5 4.97756 206.031 5.55123 205.427 6.0055C204.823 6.46237 204.104 6.73752 203.277 6.83097ZM222.88 26.5617L215.455 4.47916L220.464 4.55963L225.76 21.5934L224.423 21.5726L230.759 4.72577L234.305 4.78287L239.602 21.8166L238.358 21.7958L244.538 4.94641L249.236 5.02169L241.046 26.8525L237.095 26.7902L231.964 11.0985L232.68 11.1089L226.862 26.624L222.88 26.5591V26.5617ZM251.626 27.164L252.472 5.21898L267.706 5.80822L267.56 9.57474L256.959 9.1646L256.762 14.3017L266.617 14.6833L266.472 18.481L256.617 18.0994L256.407 23.5766L267.008 23.9867L266.863 27.7532L251.629 27.164H251.626ZM270.166 27.9193L271.361 5.99253L276.207 6.2573L275.234 24.1113L285.112 24.6512L284.889 28.7267L270.166 27.9219V27.9193ZM287.749 28.9135L289.302 7.00748L294.142 7.35013L292.88 25.186L302.747 25.8868L302.459 29.9571L287.749 28.9109V28.9135ZM312.778 31.2031C311.022 31.0447 309.399 30.6813 307.909 30.1102C306.418 29.5391 305.171 28.8227 304.165 27.9609L305.928 24.3034C306.587 24.8433 307.294 25.3132 308.051 25.7129C308.806 26.1153 309.609 26.4423 310.462 26.6941C311.315 26.9485 312.215 27.1172 313.167 27.2029C314.655 27.3353 315.733 27.2029 316.405 26.8057C317.076 26.4086 317.442 25.8557 317.504 25.1522C317.561 24.5111 317.392 23.9997 317.001 23.6207C316.607 23.2417 315.865 22.8783 314.771 22.5304L311.181 21.4584C309.213 20.8665 307.779 20.0281 306.877 18.9456C305.975 17.8632 305.596 16.4952 305.744 14.8416C305.868 13.4347 306.351 12.2484 307.185 11.2802C308.023 10.312 309.143 9.60071 310.548 9.14125C311.953 8.68439 313.563 8.53642 315.383 8.69736C316.934 8.83753 318.359 9.18278 319.664 9.73828C320.968 10.2938 322.018 11.0128 322.814 11.898L321.071 15.3063C320.286 14.5483 319.386 13.9513 318.372 13.5178C317.359 13.0843 316.213 12.8091 314.932 12.6949C313.589 12.5755 312.539 12.7209 311.785 13.1336C311.03 13.5463 310.615 14.1667 310.54 14.9922C310.486 15.6126 310.657 16.1344 311.056 16.5549C311.455 16.9754 312.192 17.3492 313.268 17.6763L316.799 18.712C318.808 19.309 320.262 20.1371 321.167 21.1988C322.072 22.2605 322.453 23.5973 322.308 25.2093C322.186 26.5747 321.714 27.7298 320.89 28.6799C320.065 29.6274 318.964 30.3257 317.579 30.7773C316.197 31.2264 314.595 31.3692 312.778 31.2083V31.2031ZM325.178 32.0103L327.615 10.1848L337.788 11.3243C340.241 11.5995 342.035 12.4016 343.17 13.7306C344.306 15.0597 344.757 16.7548 344.526 18.8184C344.298 20.8613 343.482 22.4162 342.079 23.4805C340.676 24.5448 338.748 24.942 336.295 24.6668L330.946 24.0672L330 32.5503L325.178 32.0103ZM331.366 20.324L336.098 20.8536C337.252 20.9833 338.141 20.8224 338.766 20.3681C339.39 19.9165 339.753 19.226 339.857 18.2967C339.961 17.3674 339.759 16.6198 339.248 16.0487C338.737 15.4802 337.905 15.1298 336.751 15L332.02 14.4704L331.366 20.3214V20.324ZM345.903 34.3751L348.905 12.6222L358.767 13.985C361.212 14.3225 363.022 15.1661 364.196 16.5133C365.371 17.8606 365.817 19.5738 365.529 21.6505C365.342 23.0081 364.878 24.1347 364.137 25.0276C363.395 25.9206 362.428 26.554 361.238 26.9226C360.046 27.2912 358.669 27.369 357.108 27.1536L357.572 26.5254L358.835 26.6993C359.719 26.8213 360.471 27.1666 361.096 27.7351C361.718 28.3035 362.192 29.0719 362.521 30.0401L364.86 36.9995L359.558 36.2649L357.165 28.7967C357.002 28.1659 356.67 27.7169 356.172 27.4495C355.674 27.1821 355.089 27.0004 354.409 26.907L351.882 26.5565L350.71 35.0423L345.903 34.3777V34.3751ZM352.359 23.0989L356.582 23.683C357.834 23.8569 358.827 23.7323 359.556 23.3092C360.284 22.8861 360.717 22.1696 360.857 21.1625C360.997 20.1553 360.771 19.3532 360.183 18.7587C359.594 18.1643 358.674 17.7801 357.422 17.6062L353.199 17.0221L352.359 23.1015V23.0989ZM367.595 37.4901L371.064 15.8047L375.855 16.5731L372.386 38.2585L367.595 37.4901ZM376.654 38.8996L380.682 17.3129L384.229 17.9774L393.158 35.0812L392.334 34.928L395.115 20.0151L399.549 20.8458L395.52 42.4325L391.973 41.768L383.073 24.6694L383.869 24.8174L381.087 39.7303L376.654 38.8996ZM410.134 46.0952C407.692 45.5216 405.742 44.5871 404.288 43.2969C402.833 42.0068 401.874 40.4364 401.413 38.5907C400.951 36.7451 400.98 34.7178 401.496 32.5139C402.027 30.2504 402.945 28.397 404.254 26.9537C405.561 25.513 407.189 24.5396 409.141 24.0386C411.091 23.5376 413.276 23.5714 415.7 24.1398C417.256 24.5059 418.576 25.025 419.665 25.6947C420.753 26.367 421.656 27.1718 422.374 28.1063L419.999 31.4185C419.462 30.8007 418.941 30.2893 418.441 29.8844C417.94 29.4794 417.399 29.1498 416.82 28.8954C416.24 28.6436 415.558 28.4229 414.77 28.236C412.548 27.7143 410.736 27.9219 409.333 28.8616C407.931 29.8013 406.961 31.4133 406.427 33.6976C405.895 35.9612 406.017 37.8042 406.792 39.2241C407.568 40.644 409.076 41.6175 411.316 42.1444C412.063 42.3209 412.846 42.4299 413.668 42.4741C414.49 42.5182 415.314 42.4871 416.149 42.3858L414.873 44.0056L416.224 38.2429L411.529 37.1397L412.317 33.7729L420.919 35.795L418.459 46.2873C417.266 46.5625 415.934 46.6793 414.461 46.6429C412.989 46.6066 411.547 46.4223 410.134 46.09V46.0952ZM122.594 52.3304L130.26 41.0983L130.226 41.781H123.652L123.89 40.2754H132.088L131.883 41.5915L124.608 52.3278H122.594V52.3304ZM136.477 52.4835C134.997 52.4835 133.967 51.9254 133.387 50.8066C132.806 49.6904 132.674 48.1044 132.995 46.0537C133.324 44.0134 133.921 42.5156 134.779 41.5578C135.637 40.5999 136.739 40.1223 138.084 40.1223C139.541 40.1223 140.568 40.6648 141.167 41.7472C141.763 42.8297 141.898 44.4157 141.569 46.5002C141.25 48.5301 140.648 50.0331 139.767 51.0143C138.886 51.9955 137.789 52.4835 136.48 52.4835H136.477ZM136.581 50.9961C137.423 50.9961 138.118 50.6327 138.665 49.9033C139.212 49.1739 139.617 47.9824 139.878 46.3289C140.05 45.1997 140.094 44.2885 140.016 43.5929C139.936 42.8972 139.726 42.391 139.383 42.0717C139.041 41.7524 138.574 41.5941 137.983 41.5941C137.13 41.5941 136.436 41.9523 135.899 42.6714C135.365 43.3904 134.966 44.5689 134.704 46.2094C134.522 47.3256 134.473 48.2394 134.559 48.9454C134.644 49.6515 134.857 50.1706 135.199 50.5003C135.541 50.83 136.003 50.9961 136.583 50.9961H136.581ZM146.194 47.4918C145.227 47.4918 144.506 47.1517 144.034 46.4742C143.563 45.7967 143.417 44.8466 143.599 43.6266C143.78 42.5208 144.177 41.6616 144.786 41.0438C145.395 40.4286 146.15 40.1197 147.05 40.1197C148.03 40.1197 148.748 40.4571 149.209 41.1294C149.671 41.8018 149.803 42.7492 149.611 43.9667C149.44 45.0621 149.056 45.9213 148.457 46.5495C147.858 47.1777 147.107 47.4892 146.194 47.4892V47.4918ZM146.246 46.3289C146.746 46.3289 147.161 46.1238 147.493 45.7137C147.822 45.3035 148.055 44.6831 148.193 43.8498C148.317 42.9725 148.271 42.3261 148.048 41.9108C147.825 41.4954 147.464 41.2878 146.964 41.2878C146.464 41.2878 146.07 41.4877 145.751 41.8848C145.432 42.2846 145.204 42.8998 145.069 43.7304C144.931 44.6078 144.973 45.262 145.188 45.6877C145.403 46.116 145.758 46.3289 146.246 46.3289ZM146.775 52.3304H145.186L154.132 40.2754H155.737L146.772 52.3304H146.775ZM153.878 52.4835C152.898 52.4835 152.178 52.1435 151.708 51.466C151.239 50.7885 151.104 49.8384 151.299 48.6184C151.48 47.5125 151.872 46.6533 152.468 46.0355C153.064 45.4203 153.814 45.1114 154.713 45.1114C155.693 45.1114 156.419 45.4515 156.891 46.129C157.363 46.8065 157.503 47.7514 157.308 48.9584C157.127 50.0513 156.735 50.9131 156.139 51.5412C155.54 52.1694 154.788 52.4809 153.876 52.4809L153.878 52.4835ZM153.946 51.3206C154.446 51.3206 154.858 51.1155 155.185 50.7054C155.509 50.2953 155.735 49.6749 155.859 48.8416C156.007 47.9746 155.968 47.3308 155.74 46.9103C155.512 46.4898 155.149 46.2769 154.648 46.2769C154.148 46.2769 153.751 46.4768 153.427 46.8766C153.103 47.2763 152.872 47.8915 152.735 48.7222C152.611 49.61 152.657 50.2667 152.88 50.6872C153.103 51.1077 153.458 51.3206 153.948 51.3206H153.946ZM169.385 52.4835C167.972 52.4835 166.844 52.2214 165.994 51.697C165.143 51.1726 164.568 50.4302 164.259 49.4646C163.951 48.4989 163.901 47.375 164.106 46.0874C164.311 44.8103 164.718 43.7304 165.327 42.8479C165.937 41.9653 166.719 41.2904 167.676 40.8205C168.633 40.3533 169.724 40.1197 170.956 40.1197C171.832 40.1197 172.579 40.2287 173.193 40.4441C173.808 40.6596 174.331 40.9633 174.764 41.3501L174.064 42.77C173.608 42.3832 173.146 42.1029 172.68 41.9316C172.213 41.7602 171.609 41.6746 170.87 41.6746C169.504 41.6746 168.397 42.0743 167.549 42.8712C166.701 43.6681 166.162 44.8025 165.937 46.2743C165.708 47.7462 165.877 48.8909 166.439 49.7112C167.002 50.5315 168.031 50.9416 169.522 50.9416C170.092 50.9416 170.624 50.8923 171.119 50.7962C171.614 50.7002 172.112 50.547 172.612 50.342L172.065 51.196L172.68 47.2452H169.727L169.95 45.9109H174.406L173.502 51.5542C173.149 51.7489 172.739 51.9124 172.273 52.05C171.806 52.1876 171.321 52.2914 170.821 52.3667C170.321 52.442 169.841 52.4783 169.387 52.4783L169.385 52.4835ZM176.079 52.3304L177.992 40.2754H179.768L177.855 52.3304H176.079ZM179.441 52.3304L186.716 40.2754H188.235L191.769 52.3304H190.027L189.07 48.9117L189.752 49.3893H182.459L183.312 48.9117L181.313 52.3304H179.433H179.441ZM187.229 42.2249L183.659 48.364L183.302 47.972H189.363L188.953 48.364L187.279 42.2249H187.227H187.229ZM187.025 39.2501L189.262 36.2908H191.157L188.287 39.2501H187.025ZM200.804 52.3304L202.479 41.7628H198.364L198.603 40.2754H208.61L208.372 41.7628H204.257L202.583 52.3304H200.807H200.804ZM208.351 52.3304L210.264 40.2754H215.183C216.549 40.2754 217.544 40.5947 218.172 41.2333C218.799 41.8718 219.014 42.7674 218.82 43.9173C218.719 44.6 218.47 45.1867 218.076 45.6695C217.684 46.1549 217.179 46.5235 216.564 46.7805C215.95 47.0375 215.26 47.1647 214.498 47.1647L214.599 46.8921H215.009C215.476 46.8921 215.872 47.0141 216.196 47.2607C216.52 47.5073 216.769 47.8837 216.94 48.3977L218.203 52.3304H216.341L215.094 48.3795C214.957 47.9123 214.724 47.6112 214.394 47.4736C214.065 47.336 213.637 47.2685 213.114 47.2685H210.928L210.124 52.3304H208.349H208.351ZM211.136 45.9187H214.311C215.12 45.9187 215.761 45.7396 216.233 45.3814C216.704 45.0232 216.992 44.517 217.096 43.868C217.2 43.149 217.06 42.609 216.678 42.243C216.297 41.8796 215.686 41.6953 214.843 41.6953H211.804L211.138 45.9187H211.136ZM219.707 55.6634L219.997 53.9372H221.791L221.501 55.6634H219.707ZM220.254 52.3304L222.167 40.2754H223.943L222.03 52.3304H220.254ZM229.424 52.3304L231.337 40.2754H233.113L232.294 45.4722H239.055L239.874 40.2754H241.65L239.737 52.3304H237.961L238.814 46.9622H232.052L231.2 52.3304H229.424ZM243.154 46.0537C243.359 44.7869 243.745 43.7149 244.315 42.8297C244.886 41.9471 245.617 41.2748 246.509 40.8128C247.403 40.3507 248.412 40.1197 249.539 40.1197C250.781 40.1197 251.79 40.3896 252.57 40.9322C253.351 41.4747 253.892 42.2301 254.201 43.1983C254.509 44.1665 254.559 45.2775 254.354 46.5313C254.159 47.7955 253.776 48.8701 253.2 49.7553C252.625 50.6379 251.893 51.3154 251.007 51.7801C250.12 52.2473 249.106 52.4809 247.968 52.4809C246.739 52.4809 245.731 52.211 244.945 51.6684C244.16 51.1285 243.615 50.3731 243.315 49.4023C243.014 48.4315 242.959 47.3153 243.154 46.0511V46.0537ZM244.982 46.225C244.834 47.2166 244.855 48.0629 245.041 48.7637C245.228 49.4646 245.581 50.0045 246.099 50.3783C246.618 50.7521 247.286 50.9416 248.106 50.9416C249.335 50.9416 250.325 50.5341 251.077 49.719C251.829 48.9039 252.311 47.7851 252.529 46.36C252.687 45.3788 252.669 44.5377 252.469 43.8369C252.269 43.136 251.914 42.5961 251.401 42.2223C250.888 41.8459 250.224 41.659 249.402 41.659C248.173 41.659 247.188 42.0613 246.446 42.8634C245.705 43.6655 245.218 44.7869 244.979 46.2224L244.982 46.225ZM246.364 55.6634L246.654 53.9372H248.448L248.158 55.6634H246.364ZM261.579 52.4835C260.247 52.4835 259.166 52.2136 258.336 51.671C257.504 51.1311 256.933 50.3757 256.62 49.4049C256.306 48.4367 256.246 47.3179 256.441 46.0537C256.646 44.7869 257.042 43.7149 257.628 42.8297C258.214 41.9471 258.969 41.2722 259.892 40.8024C260.815 40.3351 261.872 40.1067 263.068 40.1197C263.876 40.1197 264.592 40.2339 265.219 40.4623C265.847 40.6907 266.381 41.0204 266.824 41.4539L266.158 42.8738C265.668 42.4403 265.18 42.1366 264.698 41.9601C264.213 41.7836 263.638 41.6953 262.964 41.6953C261.701 41.6953 260.664 42.0899 259.855 42.8738C259.046 43.6604 258.523 44.7714 258.284 46.2068C258.147 47.1543 258.175 47.9798 258.37 48.6858C258.564 49.3919 258.945 49.9396 259.513 50.3264C260.083 50.7132 260.833 50.9079 261.766 50.9079C262.37 50.9079 262.964 50.804 263.55 50.599C264.136 50.3939 264.696 50.059 265.232 49.5918L265.795 50.9935C265.248 51.4712 264.605 51.8398 263.866 52.0967C263.125 52.3537 262.362 52.4809 261.577 52.4809L261.579 52.4835ZM272.134 52.3304L274.047 40.2754H278.983C280.326 40.2754 281.306 40.6077 281.921 41.2748C282.535 41.9419 282.745 42.8505 282.553 44.003C282.452 44.6987 282.209 45.2905 281.827 45.7811C281.446 46.2717 280.949 46.6481 280.334 46.9103C279.72 47.1725 278.991 47.3023 278.149 47.3023H274.716L273.912 52.3304H272.136H272.134ZM274.934 45.8824H278.058C278.877 45.8824 279.517 45.7136 279.979 45.3788C280.44 45.0439 280.723 44.5429 280.824 43.8836C280.938 43.1646 280.816 42.622 280.456 42.2508C280.098 41.8796 279.515 41.6953 278.706 41.6953H275.582L274.934 45.885V45.8824ZM283.37 52.3304L285.283 40.2754H287.059L286.24 45.4722H293.001L293.821 40.2754H295.597L293.683 52.3304H291.907L292.76 46.9622H285.999L285.146 52.3304H283.37ZM296.517 52.3304L298.43 40.2754H300.206L298.293 52.3304H296.517ZM298.858 39.2501L301.095 36.2908H302.991L300.121 39.2501H298.858Z" fill="url(#paint0_linear_474_86)"/>
<defs>
<linearGradient id="paint0_linear_474_86" x1="0.21103" y1="28.1504" x2="422.371" y2="28.1504" gradientUnits="userSpaceOnUse">
<stop stop-color="#F9D16F"/>
<stop offset="0.07" stop-color="#EEBE5C"/>
<stop offset="0.18" stop-color="#E0A341"/>
<stop offset="0.25" stop-color="#DB9A38"/>
<stop offset="0.3" stop-color="#DDA044"/>
<stop offset="0.4" stop-color="#E5B365"/>
<stop offset="0.52" stop-color="#F1D19B"/>
<stop offset="0.64" stop-color="#FFF1D5"/>
<stop offset="0.66" stop-color="#FEEBC4"/>
<stop offset="0.68" stop-color="#FCE3AA"/>
<stop offset="0.71" stop-color="#FBDC94"/>
<stop offset="0.74" stop-color="#FAD783"/>
<stop offset="0.78" stop-color="#F9D377"/>
<stop offset="0.84" stop-color="#F9D170"/>
<stop offset="1" stop-color="#F9D16F"/>
</linearGradient>
</defs>
</svg>
