<svg width="370" height="55" viewBox="0 0 370 55" fill="none" xmlns="http://www.w3.org/2000/svg">
<path d="M4.24751 44.5279L0.273132 22.9307L5.04605 22.0507L6.64306 30.7207L16.526 28.8959L14.9289 20.2259L19.733 19.3381L23.7074 40.9352L18.9034 41.823L17.2519 32.8467L7.36899 34.669L9.02049 43.6453L4.24751 44.5253V44.5279ZM27.9178 40.2708L24.6926 18.5489L34.6948 17.059C37.0748 16.7059 38.9855 16.9344 40.427 17.7495C41.8685 18.5646 42.7188 19.8443 42.9781 21.5887C43.17 22.884 42.9496 24.0391 42.3144 25.0567C41.6792 26.0742 40.7173 26.8374 39.4314 27.3436L39.3589 26.8504C40.9585 26.8841 42.2496 27.2968 43.2374 28.0834C44.2251 28.8699 44.8266 29.9939 45.0418 31.4528C45.3296 33.3841 44.8707 34.9882 43.6651 36.2706C42.4596 37.5529 40.6578 38.3706 38.2596 38.7288L27.9204 40.2682L27.9178 40.2708ZM30.6037 26.8036L35.1588 26.1262C36.4111 25.9393 37.3003 25.5758 37.8266 25.0359C38.3555 24.496 38.5525 23.7744 38.4177 22.8684C38.2855 21.9858 37.8888 21.3629 37.2277 20.9994C36.5666 20.636 35.6074 20.5478 34.3578 20.7347L29.8026 21.4121L30.6037 26.8036ZM31.9726 36.0162L37.1422 35.2478C38.3322 35.0713 39.2111 34.7079 39.7788 34.1628C40.3466 33.6177 40.5592 32.8493 40.414 31.8629C40.2636 30.8557 39.8385 30.1808 39.1385 29.833C38.4359 29.4852 37.4896 29.402 36.3022 29.5786L31.1326 30.347L31.9751 36.0162H31.9726ZM63.1484 35.4996L61.9946 25.1294L63.2909 27.7745L52.1558 14.6319L57.7221 14.0115L64.761 22.6919L63.7706 22.8009L68.7276 12.7811L74.1072 12.1815L66.1661 27.4526L66.8169 24.5894L67.9706 34.9597L63.1484 35.497V35.4996ZM61.2843 11.7297L64.3617 5.90216L69.0932 5.3752L64.5639 11.3664L61.2869 11.7323L61.2843 11.7297ZM91.353 32.7143L89.8986 14.7695L82.9531 15.3354L82.6342 11.3923L101.363 9.86857L101.682 13.8116L94.7363 14.3775L96.1908 32.3223L91.353 32.7143ZM115.096 31.3489C111.886 31.5436 109.447 30.892 107.777 29.3917C106.107 27.8913 105.177 25.5655 104.985 22.4142L104.21 9.66609L109.055 9.37019L109.83 22.1494C109.937 23.9119 110.396 25.2254 111.207 26.0898C112.018 26.9568 113.232 27.341 114.847 27.2423C116.421 27.1463 117.567 26.6194 118.287 25.6589C119.008 24.6985 119.314 23.3383 119.208 21.5783L118.43 8.79913L123.213 8.50836L123.988 21.2564C124.18 24.4077 123.532 26.8296 122.044 28.5221C120.558 30.2146 118.241 31.1568 115.093 31.3489H115.096ZM123.104 10.7641L120.237 9.22221L120.206 8.69266C120.867 8.63295 121.398 8.50577 121.803 8.31368C122.207 8.12159 122.493 7.7945 122.664 7.32466C122.832 6.85741 122.892 6.19811 122.84 5.34668L122.796 4.63283L126.832 4.38621L126.913 5.69195C126.965 6.56154 126.843 7.35063 126.542 8.0541C126.241 8.75756 125.801 9.35203 125.217 9.83485C124.634 10.3177 123.929 10.6265 123.107 10.7589L123.104 10.7641ZM127.636 19.2551C127.545 16.9733 127.898 14.9693 128.691 13.2431C129.485 11.5169 130.672 10.1567 132.251 9.15992C133.83 8.16312 135.73 7.62059 137.947 7.53234C140.164 7.44408 142.1 7.83605 143.754 8.70565C145.408 9.57525 146.707 10.8394 147.656 12.4956C148.602 14.1517 149.121 16.1115 149.212 18.3725C149.302 20.6749 148.942 22.6893 148.128 24.4155C147.314 26.1417 146.119 27.5097 144.537 28.5169C142.958 29.5241 141.061 30.0718 138.841 30.16C136.625 30.2483 134.693 29.8512 133.049 28.9712C131.406 28.0912 130.115 26.8167 129.179 25.1501C128.24 23.4836 127.727 21.5186 127.639 19.2576L127.636 19.2551ZM132.702 19.0552C132.79 21.3161 133.332 23.0683 134.325 24.3065C135.318 25.5447 136.767 26.1262 138.675 26.0509C140.539 25.9756 141.934 25.2825 142.86 23.969C143.783 22.6556 144.2 20.8671 144.112 18.6035C144.021 16.3218 143.469 14.5722 142.458 13.3547C141.444 12.1373 139.995 11.5662 138.11 11.6415C136.202 11.7168 134.805 12.4021 133.91 13.6948C133.016 14.9875 132.614 16.7761 132.705 19.0578L132.702 19.0552ZM136.736 6.05274L136.713 5.46088C136.7 5.10785 136.77 4.8249 136.928 4.60945C137.086 4.39659 137.27 4.20191 137.48 4.02539C137.69 3.85147 137.877 3.68276 138.035 3.51922C138.196 3.35828 138.271 3.18176 138.263 2.99486C138.255 2.80796 138.152 2.67299 137.952 2.58733C137.75 2.50167 137.475 2.46532 137.122 2.4809C136.791 2.49388 136.482 2.538 136.194 2.61069C135.907 2.68337 135.598 2.78979 135.274 2.92737L134.517 1.11809C135.453 0.62489 136.687 0.347148 138.219 0.284849C139.277 0.243316 140.117 0.386063 140.742 0.715731C141.366 1.0454 141.693 1.52043 141.716 2.14343C141.735 2.62106 141.631 3.00004 141.403 3.2778C141.175 3.55814 140.91 3.80217 140.607 4.00983C140.304 4.22009 140.042 4.43812 139.824 4.66395C139.604 4.88979 139.502 5.18054 139.515 5.53357L139.531 5.93854L136.734 6.05014L136.736 6.05274ZM141.468 9.98017L140.13 7.66473C140.545 7.66992 140.902 7.68034 141.206 7.7011C141.506 7.71927 141.802 7.72441 142.092 7.71143C142.756 7.68547 143.29 7.58165 143.7 7.39735C144.107 7.21564 144.405 6.88596 144.594 6.41093C144.784 5.93589 144.861 5.27398 144.828 4.42256L144.799 3.70611L148.841 3.54517L148.893 4.85344C148.926 5.72563 148.766 6.53035 148.413 7.27276C148.058 8.01516 147.558 8.62258 146.912 9.09242C146.266 9.56486 145.52 9.81663 144.669 9.85038L141.468 9.97757V9.98017ZM153.329 29.2957L152.909 7.34025L156.518 7.27016L168.721 22.2091L167.881 22.2247L167.59 7.05728L172.102 6.97166L172.522 28.927L168.913 28.9971L156.741 14.0582L157.549 14.0427L157.84 29.21L153.329 29.2957ZM187.727 29.2256C185.217 29.2359 183.104 28.7817 181.391 27.8628C179.677 26.9438 178.381 25.6407 177.502 23.9508C176.626 22.261 176.182 20.2856 176.174 18.0221C176.167 15.6962 176.631 13.6792 177.569 11.9738C178.508 10.2684 179.866 8.94447 181.645 8.00219C183.426 7.06251 185.56 6.58748 188.048 6.5771C189.645 6.5719 191.051 6.76919 192.267 7.16895C193.483 7.5687 194.545 8.14234 195.461 8.88734L193.918 12.6617C193.252 12.1866 192.63 11.8103 192.046 11.5325C191.466 11.2548 190.861 11.0601 190.239 10.9485C189.617 10.8368 188.901 10.7823 188.093 10.7849C185.811 10.7927 184.097 11.4183 182.951 12.6565C181.806 13.8973 181.235 15.6884 181.246 18.035C181.253 20.3608 181.8 22.1234 182.881 23.3253C183.963 24.5271 185.658 25.1216 187.958 25.1138C188.725 25.1112 189.513 25.0359 190.322 24.888C191.131 24.74 191.927 24.5193 192.715 24.226L191.852 26.0976L191.831 20.1791L187.009 20.1973L186.996 16.7397L195.831 16.7086L195.87 27.4864C194.774 28.0315 193.503 28.4546 192.064 28.7609C190.623 29.0672 189.179 29.223 187.727 29.2282V29.2256ZM216.611 29.6071C214.848 29.563 213.207 29.3034 211.682 28.8284C210.158 28.3534 208.867 27.72 207.809 26.9256L209.334 23.1617C210.026 23.6575 210.762 24.0807 211.542 24.4311C212.323 24.7841 213.145 25.0593 214.011 25.2566C214.877 25.4538 215.787 25.5655 216.741 25.5888C218.234 25.6252 219.302 25.4253 219.945 24.984C220.588 24.5427 220.92 23.969 220.938 23.263C220.954 22.6192 220.754 22.1208 220.336 21.7678C219.919 21.4148 219.154 21.1006 218.042 20.8229L214.392 19.9844C212.39 19.5198 210.905 18.7748 209.935 17.7547C208.965 16.7345 208.499 15.3925 208.54 13.7312C208.577 12.319 208.978 11.1042 209.751 10.084C210.524 9.06389 211.597 8.28253 212.968 7.73482C214.34 7.1871 215.939 6.93533 217.765 6.98206C219.32 7.02099 220.764 7.27537 222.102 7.74521C223.44 8.21505 224.534 8.86401 225.384 9.69727L223.865 13.212C223.033 12.5059 222.097 11.9686 221.057 11.6C220.018 11.2313 218.856 11.0315 217.57 10.9978C216.222 10.964 215.185 11.1769 214.457 11.6363C213.731 12.0958 213.355 12.7421 213.334 13.5728C213.318 14.1958 213.523 14.7046 213.948 15.0992C214.374 15.4937 215.133 15.8208 216.227 16.0752L219.818 16.8825C221.861 17.3497 223.367 18.0817 224.337 19.0837C225.309 20.0857 225.773 21.394 225.732 23.0138C225.698 24.3844 225.299 25.5681 224.539 26.5674C223.777 27.5668 222.722 28.3352 221.368 28.8725C220.015 29.4098 218.428 29.6565 216.603 29.6097L216.611 29.6071ZM226.258 29.4799L237.284 7.97881L241.292 8.15277L250.532 30.5365L245.622 30.321L243.245 24.1066L245.083 25.5265L232.06 24.9581L234.046 23.7043L231.14 29.6876L226.261 29.4747L226.258 29.4799ZM239.05 13.1704L234.627 22.518L233.839 21.2979L243.628 21.7236L242.861 22.8762L239.172 13.173L239.047 13.1678L239.05 13.1704ZM237.769 6.13062L241.705 0.845521L246.459 1.0532L241.062 6.27341L237.766 6.13062H237.769ZM252.313 30.6611L253.732 8.74716L257.333 8.98082L268.242 24.8906L267.405 24.8361L268.385 9.69727L272.886 9.98796L271.467 31.9019L267.866 31.6682L256.988 15.761L257.794 15.813L256.814 30.9517L252.313 30.6585V30.6611ZM286.572 33.5216C284.072 33.3036 282.009 32.6572 280.386 31.5877C278.763 30.5182 277.588 29.101 276.87 27.3384C276.15 25.5758 275.888 23.5667 276.085 21.3135C276.287 18.9981 276.932 17.0304 278.021 15.4184C279.11 13.8064 280.583 12.6098 282.442 11.8362C284.301 11.0601 286.468 10.7823 288.949 11.0004C290.541 11.1405 291.923 11.465 293.095 11.9738C294.269 12.4826 295.278 13.1497 296.12 13.9752L294.243 17.5937C293.624 17.059 293.038 16.6281 292.483 16.2984C291.928 15.9687 291.347 15.7196 290.738 15.5508C290.129 15.3821 289.421 15.2627 288.615 15.1926C286.341 14.9927 284.578 15.46 283.323 16.5892C282.068 17.7209 281.34 19.4549 281.135 21.7911C280.933 24.1092 281.317 25.9133 282.286 27.2086C283.256 28.5039 284.887 29.2515 287.181 29.4514C287.946 29.5189 288.737 29.5163 289.556 29.441C290.375 29.3683 291.189 29.2203 291.998 28.9997L290.969 30.7856L291.485 24.8906L286.681 24.47L286.981 21.0254L295.783 21.7963L294.845 32.5326C293.701 32.9739 292.4 33.2828 290.938 33.4567C289.475 33.6307 288.021 33.654 286.574 33.5268L286.572 33.5216ZM312.456 35.8475L314.613 17.9727L307.694 17.1368L308.168 13.2094L326.824 15.4652L326.35 19.3926L319.43 18.5567L317.276 36.4315L312.456 35.8501V35.8475ZM321.699 36.8962L334.825 16.6151L338.797 17.1913L345.745 40.3927L340.881 39.6867L339.141 33.2647L340.827 34.8637L327.926 32.9895L330.026 31.9408L326.534 37.6023L321.701 36.8988L321.699 36.8962ZM336.064 21.9573L330.723 30.8142L330.062 29.5215L339.761 30.931L338.882 32.0005L336.186 21.9781L336.064 21.9599V21.9573ZM330.596 44.9276L331.19 40.8288L335.501 41.4544L334.908 45.5532L330.596 44.9276ZM348.226 29.6694C348.633 27.4215 349.411 25.5421 350.559 24.0313C351.708 22.5206 353.162 21.4485 354.92 20.8177C356.678 20.1869 358.648 20.0701 360.834 20.4647C363.017 20.8619 364.821 21.664 366.247 22.871C367.673 24.0807 368.668 25.594 369.234 27.4189C369.799 29.2411 369.882 31.2659 369.477 33.4931C369.068 35.7618 368.277 37.649 367.108 39.1571C365.938 40.6653 364.474 41.74 362.713 42.3811C360.953 43.0223 358.98 43.1443 356.797 42.7497C354.614 42.3525 352.815 41.5479 351.402 40.3305C349.989 39.113 349.004 37.5892 348.451 35.7592C347.897 33.9292 347.821 31.8992 348.226 29.672V29.6694ZM353.214 30.5728C352.812 32.8 352.96 34.6275 353.66 36.0526C354.36 37.4777 355.651 38.3602 357.528 38.7003C359.364 39.0325 360.875 38.6587 362.062 37.5763C363.25 36.4938 364.043 34.8403 364.448 32.6105C364.855 30.3625 364.694 28.535 363.971 27.1255C363.245 25.7186 361.954 24.8438 360.097 24.509C358.22 24.1689 356.704 24.5323 355.552 25.5992C354.399 26.6661 353.621 28.3248 353.214 30.5728ZM122.451 54.6671L122.69 53.1797H125.49L126.923 44.1177L127.794 44.1515L124.053 46.2385L124.325 44.4941L127.654 42.6122H128.935L127.26 53.1797H129.889L129.651 54.6671H122.443H122.451ZM135.925 54.8202C134.444 54.8202 133.415 54.2621 132.834 53.1433C132.254 52.0271 132.121 50.4412 132.443 48.3905C132.772 46.3502 133.368 44.8524 134.227 43.8945C135.085 42.9366 136.187 42.459 137.532 42.459C138.989 42.459 140.016 43.0015 140.615 44.084C141.214 45.1664 141.346 46.7525 141.016 48.8369C140.698 50.8669 140.096 52.3698 139.215 53.351C138.333 54.3322 137.237 54.8228 135.927 54.8228L135.925 54.8202ZM136.026 53.3328C136.868 53.3328 137.563 52.9668 138.11 52.2374C138.657 51.508 139.062 50.3165 139.324 48.663C139.495 47.5338 139.539 46.6227 139.461 45.927C139.381 45.2314 139.171 44.7252 138.828 44.4059C138.486 44.0866 138.019 43.9282 137.428 43.9282C136.575 43.9282 135.881 44.2865 135.344 45.0055C134.81 45.7246 134.411 46.903 134.149 48.5436C133.967 49.6598 133.918 50.5735 134.004 51.2796C134.089 51.9856 134.302 52.5048 134.644 52.8345C134.986 53.1641 135.448 53.3302 136.026 53.3302V53.3328ZM141.901 54.6671L142.225 52.632H144.257L143.933 54.6671H141.901ZM150.218 54.8202C148.737 54.8202 147.708 54.2621 147.127 53.1433C146.546 52.0271 146.414 50.4412 146.733 48.3905C147.062 46.3502 147.659 44.8524 148.517 43.8945C149.375 42.9366 150.477 42.459 151.822 42.459C153.279 42.459 154.306 43.0015 154.905 44.084C155.504 45.1664 155.636 46.7525 155.307 48.8369C154.988 50.8669 154.386 52.3698 153.505 53.351C152.623 54.3322 151.527 54.8228 150.218 54.8228V54.8202ZM150.319 53.3328C151.161 53.3328 151.856 52.9668 152.403 52.2374C152.95 51.508 153.355 50.3165 153.616 48.663C153.788 47.5338 153.832 46.6227 153.754 45.927C153.673 45.2314 153.463 44.7252 153.121 44.4059C152.779 44.0866 152.312 43.9282 151.721 43.9282C150.868 43.9282 150.173 44.2865 149.637 45.0055C149.103 45.7246 148.704 46.903 148.442 48.5436C148.26 49.6598 148.211 50.5735 148.296 51.2796C148.382 51.9856 148.595 52.5048 148.937 52.8345C149.279 53.1641 149.741 53.3302 150.319 53.3302V53.3328ZM160.463 54.8202C158.983 54.8202 157.954 54.2621 157.373 53.1433C156.792 52.0271 156.66 50.4412 156.982 48.3905C157.311 46.3502 157.907 44.8524 158.765 43.8945C159.623 42.9366 160.725 42.459 162.071 42.459C163.528 42.459 164.555 43.0015 165.153 44.084C165.752 45.1664 165.885 46.7525 165.555 48.8369C165.236 50.8669 164.635 52.3698 163.753 53.351C162.872 54.3322 161.775 54.8228 160.466 54.8228L160.463 54.8202ZM160.565 53.3328C161.407 53.3328 162.102 52.9668 162.649 52.2374C163.196 51.508 163.6 50.3165 163.862 48.663C164.033 47.5338 164.078 46.6227 164 45.927C163.919 45.2314 163.709 44.7252 163.367 44.4059C163.025 44.0866 162.558 43.9282 161.967 43.9282C161.114 43.9282 160.419 44.2865 159.883 45.0055C159.349 45.7246 158.949 46.903 158.688 48.5436C158.506 49.6598 158.457 50.5735 158.542 51.2796C158.628 51.9856 158.84 52.5048 159.183 52.8345C159.525 53.1641 159.986 53.3302 160.565 53.3302V53.3328ZM170.709 54.8202C169.229 54.8202 168.2 54.2621 167.619 53.1433C167.038 52.0271 166.909 50.4412 167.227 48.3905C167.557 46.3502 168.153 44.8524 169.011 43.8945C169.869 42.9366 170.971 42.459 172.317 42.459C173.774 42.459 174.8 43.0015 175.399 44.084C175.998 45.1664 176.13 46.7525 175.801 48.8369C175.482 50.8669 174.881 52.3698 173.999 53.351C173.118 54.3322 172.021 54.8228 170.712 54.8228L170.709 54.8202ZM170.81 53.3328C171.653 53.3328 172.348 52.9668 172.895 52.2374C173.442 51.508 173.846 50.3165 174.108 48.663C174.279 47.5338 174.323 46.6227 174.246 45.927C174.165 45.2314 173.955 44.7252 173.613 44.4059C173.271 44.0866 172.804 43.9282 172.213 43.9282C171.36 43.9282 170.665 44.2865 170.129 45.0055C169.595 45.7246 169.195 46.903 168.933 48.5436C168.752 49.6598 168.703 50.5735 168.788 51.2796C168.874 51.9856 169.086 52.5048 169.429 52.8345C169.771 53.1641 170.232 53.3302 170.81 53.3302V53.3328ZM176.685 54.6671L177.009 52.632H179.042L178.718 54.6671H176.685ZM185.002 54.8202C183.522 54.8202 182.493 54.2621 181.912 53.1433C181.331 52.0271 181.199 50.4412 181.518 48.3905C181.847 46.3502 182.443 44.8524 183.301 43.8945C184.16 42.9366 185.261 42.459 186.607 42.459C188.064 42.459 189.091 43.0015 189.69 44.084C190.288 45.1664 190.421 46.7525 190.091 48.8369C189.773 50.8669 189.171 52.3698 188.29 53.351C187.408 54.3322 186.311 54.8228 185.002 54.8228V54.8202ZM185.103 53.3328C185.946 53.3328 186.641 52.9668 187.188 52.2374C187.735 51.508 188.139 50.3165 188.401 48.663C188.572 47.5338 188.616 46.6227 188.538 45.927C188.458 45.2314 188.248 44.7252 187.906 44.4059C187.564 44.0866 187.097 43.9282 186.506 43.9282C185.653 43.9282 184.958 44.2865 184.421 45.0055C183.887 45.7246 183.488 46.903 183.226 48.5436C183.045 49.6598 182.996 50.5735 183.081 51.2796C183.167 51.9856 183.379 52.5048 183.721 52.8345C184.064 53.1641 184.525 53.3302 185.103 53.3302V53.3328ZM195.248 54.8202C193.768 54.8202 192.738 54.2621 192.158 53.1433C191.577 52.0271 191.445 50.4412 191.766 48.3905C192.096 46.3502 192.692 44.8524 193.55 43.8945C194.408 42.9366 195.51 42.459 196.856 42.459C198.313 42.459 199.339 43.0015 199.938 44.084C200.537 45.1664 200.669 46.7525 200.34 48.8369C200.021 50.8669 199.42 52.3698 198.538 53.351C197.657 54.3322 196.56 54.8228 195.251 54.8228L195.248 54.8202ZM195.349 53.3328C196.192 53.3328 196.887 52.9668 197.434 52.2374C197.981 51.508 198.385 50.3165 198.647 48.663C198.818 47.5338 198.862 46.6227 198.784 45.927C198.704 45.2314 198.494 44.7252 198.152 44.4059C197.81 44.0866 197.343 43.9282 196.752 43.9282C195.899 43.9282 195.204 44.2865 194.667 45.0055C194.133 45.7246 193.734 46.903 193.472 48.5436C193.291 49.6598 193.241 50.5735 193.327 51.2796C193.413 51.9856 193.625 52.5048 193.967 52.8345C194.31 53.1641 194.771 53.3302 195.349 53.3302V53.3328ZM205.494 54.8202C204.014 54.8202 202.984 54.2621 202.404 53.1433C201.823 52.0271 201.693 50.4412 202.012 48.3905C202.341 46.3502 202.938 44.8524 203.796 43.8945C204.654 42.9366 205.756 42.459 207.101 42.459C208.558 42.459 209.585 43.0015 210.184 44.084C210.783 45.1664 210.915 46.7525 210.586 48.8369C210.267 50.8669 209.665 52.3698 208.784 53.351C207.902 54.3322 206.806 54.8228 205.497 54.8228L205.494 54.8202ZM205.595 53.3328C206.438 53.3328 207.132 52.9668 207.68 52.2374C208.227 51.508 208.631 50.3165 208.893 48.663C209.064 47.5338 209.108 46.6227 209.03 45.927C208.95 45.2314 208.74 44.7252 208.398 44.4059C208.055 44.0866 207.589 43.9282 206.998 43.9282C206.145 43.9282 205.45 44.2865 204.913 45.0055C204.379 45.7246 203.98 46.903 203.718 48.5436C203.537 49.6598 203.487 50.5735 203.573 51.2796C203.658 51.9856 203.871 52.5048 204.213 52.8345C204.555 53.1641 205.017 53.3302 205.595 53.3302V53.3328ZM215.722 54.6671L212.341 42.6122H214.169L217.002 53.1797H216.404L222.584 42.6122H224.498L217.275 54.6671H215.722ZM223.969 54.6671L225.882 42.6122H227.248L233.038 52.4088L232.68 52.3231L234.217 42.6122H235.874L233.96 54.6671H232.612L226.808 44.8705L227.165 44.9561L225.628 54.6671H223.971H223.969ZM236.195 49.2133L236.4 47.8972H242.975L242.752 49.2133H236.195ZM236.776 54.6671L238.689 42.6122H242.685C244.118 42.6122 245.272 42.864 246.143 43.3649C247.014 43.8659 247.618 44.5824 247.953 45.5117C248.287 46.441 248.354 47.5598 248.15 48.8707C247.841 50.8071 247.076 52.2582 245.853 53.2212C244.629 54.1843 243.014 54.6671 241.012 54.6671H236.776ZM238.793 53.1797H241.064C242.625 53.1797 243.841 52.8111 244.72 52.0765C245.596 51.3419 246.148 50.2205 246.376 48.7175C246.628 47.1445 246.431 45.9815 245.788 45.2287C245.145 44.4759 244.043 44.0996 242.482 44.0996H240.229L238.796 53.1771L238.793 53.1797Z" fill="url(#paint0_linear_474_90)"/>
<defs>
<linearGradient id="paint0_linear_474_90" x1="0.27054" y1="27.5512" x2="369.726" y2="27.5512" gradientUnits="userSpaceOnUse">
<stop stop-color="#F9D16F"/>
<stop offset="0.07" stop-color="#EEBE5C"/>
<stop offset="0.18" stop-color="#E0A341"/>
<stop offset="0.25" stop-color="#DB9A38"/>
<stop offset="0.3" stop-color="#DDA044"/>
<stop offset="0.4" stop-color="#E5B365"/>
<stop offset="0.52" stop-color="#F1D19B"/>
<stop offset="0.64" stop-color="#FFF1D5"/>
<stop offset="0.66" stop-color="#FEEBC4"/>
<stop offset="0.68" stop-color="#FCE3AA"/>
<stop offset="0.71" stop-color="#FBDC94"/>
<stop offset="0.74" stop-color="#FAD783"/>
<stop offset="0.78" stop-color="#F9D377"/>
<stop offset="0.84" stop-color="#F9D170"/>
<stop offset="1" stop-color="#F9D16F"/>
</linearGradient>
</defs>
</svg>
