<svg width="462" height="59" viewBox="0 0 462 59" fill="none" xmlns="http://www.w3.org/2000/svg">
<path d="M6.15738 56.5784L0 35.5004L4.65887 34.135L7.12959 42.5947L16.774 39.7705L14.3033 31.3107L18.9906 29.9375L25.148 51.0156L20.4606 52.3887L17.9018 43.6278L8.25737 46.4521L10.8162 55.213L6.15738 56.5784ZM29.1691 50.0525L24.2873 28.6422L34.1443 26.3891C36.4906 25.8543 38.4117 25.9348 39.9128 26.6357C41.4139 27.3365 42.3602 28.5488 42.7516 30.2672C43.042 31.5417 42.9098 32.7125 42.355 33.7767C41.8002 34.841 40.9005 35.6743 39.6535 36.2791L39.542 35.7937C41.1391 35.7054 42.4587 36.017 43.5035 36.7256C44.5483 37.4343 45.2353 38.5089 45.562 39.9444C45.995 41.8471 45.6605 43.4851 44.5587 44.8531C43.4568 46.2236 41.7224 47.1789 39.3554 47.7188L29.1639 50.0473L29.1691 50.0525ZM30.8154 36.4167L35.3032 35.3913C36.5372 35.1084 37.3954 34.6775 37.8802 34.0986C38.365 33.5198 38.505 32.7851 38.3028 31.8922C38.1031 31.0226 37.6598 30.4308 36.9728 30.1193C36.2857 29.8078 35.3239 29.7922 34.0898 30.0751L29.6021 31.1004L30.8128 36.4141L30.8154 36.4167ZM32.8869 45.4969L37.9813 44.3314C39.1531 44.064 40.0035 43.6356 40.5272 43.0464C41.0535 42.4571 41.2039 41.6784 40.9835 40.705C40.7579 39.7134 40.2809 39.0722 39.555 38.7789C38.8291 38.4881 37.8802 38.4752 36.7057 38.7426L31.6113 39.9081L32.8869 45.4969ZM58.6234 43.7213L54.9808 22.0671L59.7667 21.2597L61.229 29.9531L71.1378 28.2814L69.6756 19.5881L74.4926 18.7755L78.1352 40.4298L73.3182 41.2423L71.8041 32.2426L61.8952 33.9143L63.4093 42.914L58.6234 43.7213ZM79.8048 40.1521L86.8722 17.0415L90.8492 16.5068L103.885 36.9099L99.0132 37.5667L95.5806 31.8689L97.6391 32.9435L84.7203 34.6827L86.4548 33.0967L84.6477 39.5005L79.8074 40.1521H79.8048ZM87.0251 15.1362L81.1814 10.4222L85.8999 9.78627L90.2944 14.6949L87.0251 15.1362ZM89.5244 21.8412L86.8151 31.8247L85.8248 30.763L95.5366 29.4547L94.9843 30.7241L89.6462 21.8256L89.5218 21.8412H89.5244ZM105.629 36.7437L103.312 14.9052L106.9 14.5236L120.35 28.3489L119.515 28.4371L117.916 13.3529L122.401 12.8753L124.719 34.7139L121.131 35.0954L107.711 21.2675L108.515 21.1819L110.115 36.2662L105.629 36.7437ZM129.017 34.3141L127.244 12.4262L132.082 12.0342L132.795 20.8211L142.81 20.0059L142.097 11.2192L146.966 10.8246L148.739 32.7125L143.87 33.107L143.134 24.0113L133.119 24.8238L133.855 33.9195L129.017 34.3141ZM166.851 31.6144L165.91 13.6333L158.951 13.9993L158.744 10.0484L177.509 9.06462L177.716 13.0154L170.758 13.3814L171.699 31.36L166.853 31.6144H166.851ZM181.203 30.8928L180.451 8.94523L190.402 8.60516C192.867 8.5195 194.796 9.04126 196.183 10.1678C197.57 11.2944 198.301 12.9064 198.371 15.0012C198.418 16.3718 198.153 17.5607 197.575 18.5653C196.997 19.5725 196.152 20.359 195.042 20.9275C193.93 21.496 192.587 21.8075 191.011 21.8594L191.361 21.1611L192.636 21.117C193.528 21.0858 194.329 21.2987 195.04 21.7503C195.75 22.2046 196.349 22.8795 196.836 23.7777L200.326 30.2361L194.978 30.4204L191.348 23.4688C191.078 22.8743 190.676 22.4902 190.14 22.3111C189.603 22.132 188.994 22.054 188.312 22.0774L185.764 22.1657L186.056 30.7267L181.206 30.8928H181.203ZM185.642 18.6769L189.901 18.5315C191.166 18.4874 192.121 18.1967 192.766 17.6542C193.412 17.1117 193.718 16.3329 193.681 15.3154C193.648 14.2978 193.287 13.5476 192.608 13.0621C191.926 12.5767 190.954 12.3561 189.691 12.3977L185.432 12.543L185.642 18.6769ZM203.422 6.37014L198.143 1.028L202.903 0.926758L206.719 6.29751L203.422 6.3676V6.37014ZM203.147 30.2101L202.683 8.2547L207.536 8.15349L207.997 30.1089L203.147 30.2127V30.2101ZM212.379 29.9972L212.213 8.03669L215.822 8.00811L227.851 23.0872L227.011 23.0924L226.897 7.92249L231.408 7.88871L231.574 29.8493L227.966 29.8778L215.967 14.7988L216.776 14.7936L216.89 29.9635L212.379 29.9972ZM235.914 29.8571L236.174 7.89911L241.027 7.95621L240.923 16.7716L250.972 16.891L251.076 8.0756L255.96 8.1327L255.701 30.0907L250.817 30.0336L250.923 20.9067L240.874 20.7873L240.768 29.9142L235.914 29.8571ZM268.77 30.423L269.633 8.47797L274.484 8.67005L274.137 17.4776L284.178 17.8748L284.525 9.06722L289.407 9.25931L288.544 31.2017L283.665 31.0096L284.022 21.8905L273.981 21.4933L273.623 30.6125L268.773 30.4204L268.77 30.423ZM290.302 31.264L301.691 9.95497L305.696 10.199L314.555 32.7384L309.647 32.4399L307.376 26.1866L309.188 27.6377L296.176 26.8485L298.183 25.6285L295.173 31.5625L290.299 31.2666L290.302 31.264ZM303.371 15.1752L298.79 24.4448L298.022 23.2118L307.804 23.8063L307.018 24.9432L303.495 15.1804L303.371 15.1726V15.1752ZM299.834 38.5219L300.086 34.3868L304.434 34.6516L304.182 38.7867L299.834 38.5219ZM316.326 32.8916L318.146 11.0063L321.742 11.3048L332.358 27.4118L331.521 27.3417L332.778 12.2237L337.274 12.5976L335.454 34.4828L331.858 34.1817L321.272 18.0773L322.079 18.1448L320.821 33.2628L316.326 32.889V32.8916ZM339.75 34.8904L342.117 13.057L346.942 13.5813L345.99 22.3448L355.979 23.4325L356.931 14.669L361.787 15.1959L359.417 37.0293L354.561 36.5023L355.546 27.4274L345.557 26.3398L344.572 35.4147L339.747 34.8904H339.75ZM372.336 38.6958L375.54 16.9715L385.667 18.4692C388.109 18.8301 389.872 19.6945 390.961 21.0625C392.05 22.4305 392.441 24.1411 392.138 26.197C391.837 28.2295 390.969 29.7558 389.53 30.7708C388.091 31.7857 386.149 32.1128 383.71 31.752L378.384 30.9655L377.14 39.4096L372.339 38.701L372.336 38.6958ZM378.934 27.2353L383.642 27.931C384.791 28.0997 385.685 27.9699 386.326 27.5416C386.966 27.1107 387.352 26.4332 387.49 25.5091C387.627 24.585 387.448 23.8296 386.958 23.2429C386.468 22.6563 385.649 22.2773 384.5 22.1086L379.792 21.4129L378.934 27.2379V27.2353ZM392.929 41.7745L396.867 20.1695L401.642 21.0417L400.061 29.7143L409.946 31.521L411.528 22.8484L416.332 23.7258L412.394 45.3307L407.59 44.4534L409.226 35.4744L399.34 33.6677L397.704 42.6466L392.929 41.7745ZM425.632 48.617C422.497 47.8953 420.343 46.5819 419.163 44.6688C417.983 42.7582 417.748 40.2637 418.453 37.1877L421.307 24.7407L426.039 25.8284L423.176 38.3064C422.782 40.0274 422.852 41.4162 423.384 42.4779C423.918 43.5396 424.973 44.2482 426.549 44.6117C428.084 44.9647 429.334 44.783 430.298 44.0666C431.26 43.3501 431.939 42.1327 432.333 40.4117L435.196 27.9336L439.865 29.0083L437.01 41.4552C436.305 44.5312 435.001 46.6728 433.096 47.8746C431.193 49.0765 428.704 49.3256 425.632 48.6196V48.617ZM429.427 24.6888L434.255 20.2058L438.893 21.2727L432.642 25.4286L429.427 24.6888ZM448.905 54.7171C446.655 54.0578 444.856 53.0454 443.505 51.6775C442.154 50.3095 441.283 48.6845 440.892 46.8077C440.5 44.9309 440.627 42.8855 441.273 40.6712C441.918 38.4596 442.911 36.6711 444.246 35.3109C445.584 33.9507 447.189 33.0551 449.063 32.632C450.938 32.2063 452.999 32.3231 455.249 32.9824C456.701 33.4081 457.966 34 459.042 34.758C460.118 35.5159 460.961 36.4063 461.57 37.4291L459.034 40.679C458.329 39.6926 457.606 38.9294 456.867 38.3895C456.128 37.8496 455.241 37.4265 454.204 37.1228C452.234 36.5465 450.554 36.6893 449.17 37.5485C447.785 38.4077 446.774 39.9262 446.141 42.0989C445.506 44.2716 445.543 46.099 446.243 47.5813C446.945 49.0635 448.28 50.0914 450.251 50.6677C451.285 50.9714 452.26 51.0934 453.175 51.0363C454.088 50.9792 455.107 50.7248 456.232 50.2757L456.621 54.3823C455.563 54.8963 454.376 55.187 453.061 55.2545C451.744 55.3246 450.36 55.1455 448.905 54.7197V54.7171ZM146.307 55.6673L146.717 53.17H141.117L141.322 51.9059L148.477 43.6123H149.944L148.63 51.7839H150.424L150.201 53.1674H148.407L148.031 55.6647H146.307V55.6673ZM146.921 51.7865L147.894 45.7175H148.355L142.755 52.2148L142.722 51.7865H146.921ZM155.477 55.8204C153.997 55.8204 152.967 55.2623 152.387 54.1435C151.806 53.0273 151.674 51.4413 151.995 49.3906C152.324 47.3503 152.921 45.8525 153.779 44.8946C154.637 43.9368 155.739 43.4591 157.084 43.4591C158.541 43.4591 159.568 44.0017 160.167 45.0841C160.763 46.1666 160.898 47.7526 160.569 49.8371C160.25 51.867 159.648 53.3699 158.767 54.3512C157.886 55.3324 156.789 55.823 155.48 55.823L155.477 55.8204ZM155.581 54.333C156.423 54.333 157.118 53.967 157.665 53.2375C158.212 52.5081 158.617 51.3166 158.878 49.6631C159.05 48.5339 159.094 47.6228 159.016 46.9272C158.936 46.2315 158.725 45.7253 158.383 45.406C158.041 45.0867 157.574 44.9283 156.983 44.9283C156.13 44.9283 155.436 45.2866 154.899 46.0056C154.365 46.7247 153.966 47.9032 153.704 49.5437C153.522 50.6599 153.473 51.5736 153.558 52.2797C153.644 52.9858 153.857 53.5049 154.199 53.8346C154.541 54.1643 155.003 54.3304 155.583 54.3304L155.581 54.333ZM165.194 50.8286C164.227 50.8286 163.506 50.4912 163.034 49.8111C162.563 49.131 162.417 48.1835 162.599 46.9635C162.78 45.8577 163.177 44.9959 163.786 44.3807C164.395 43.7655 165.15 43.4565 166.05 43.4565C167.03 43.4565 167.748 43.794 168.209 44.4663C168.671 45.1386 168.803 46.0861 168.611 47.3036C168.44 48.399 168.056 49.2582 167.457 49.8864C166.858 50.5146 166.107 50.826 165.194 50.826V50.8286ZM165.246 49.6657C165.746 49.6657 166.161 49.4607 166.493 49.0505C166.822 48.6404 167.055 48.02 167.193 47.1868C167.317 46.3094 167.271 45.663 167.048 45.245C166.825 44.8271 166.464 44.6221 165.964 44.6221C165.464 44.6221 165.07 44.8219 164.751 45.2217C164.432 45.6215 164.204 46.2366 164.069 47.0673C163.931 47.9447 163.973 48.5962 164.188 49.0245C164.403 49.4529 164.758 49.6657 165.246 49.6657ZM165.775 55.6673H164.185L173.132 43.6123H174.737L165.772 55.6673H165.775ZM172.878 55.8204C171.898 55.8204 171.178 55.4803 170.708 54.8028C170.242 54.1253 170.104 53.1753 170.299 51.9552C170.48 50.8494 170.872 49.9902 171.468 49.3724C172.064 48.7572 172.814 48.4483 173.713 48.4483C174.693 48.4483 175.419 48.7883 175.891 49.4658C176.363 50.1433 176.503 51.0882 176.308 52.2953C176.127 53.3907 175.735 54.2499 175.139 54.8781C174.54 55.5063 173.788 55.8178 172.876 55.8178L172.878 55.8204ZM172.946 54.6574C173.446 54.6574 173.858 54.4524 174.185 54.0423C174.509 53.6321 174.735 53.0117 174.859 52.1785C175.007 51.3115 174.968 50.6677 174.74 50.2472C174.512 49.8266 174.149 49.6138 173.648 49.6138C173.148 49.6138 172.751 49.8137 172.427 50.2108C172.103 50.6106 171.872 51.2258 171.735 52.0564C171.611 52.9442 171.657 53.601 171.88 54.0241C172.103 54.4472 172.458 54.6574 172.948 54.6574H172.946ZM188.385 55.8204C186.972 55.8204 185.844 55.5582 184.994 55.0339C184.146 54.5095 183.568 53.7671 183.259 52.8015C182.951 51.8384 182.901 50.7118 183.106 49.4243C183.311 48.1472 183.718 47.0673 184.327 46.1847C184.936 45.3022 185.719 44.6272 186.676 44.16C187.633 43.6927 188.724 43.4591 189.956 43.4591C190.832 43.4591 191.579 43.5682 192.193 43.7836C192.808 43.9991 193.331 44.3028 193.764 44.6895L193.064 46.1095C192.608 45.7227 192.146 45.4423 191.68 45.271C191.213 45.0997 190.609 45.014 189.87 45.014C188.504 45.014 187.397 45.4138 186.549 46.2107C185.701 47.0076 185.162 48.142 184.936 49.6138C184.708 51.083 184.877 52.2304 185.439 53.0507C186.002 53.8709 187.031 54.2811 188.522 54.2811C189.092 54.2811 189.624 54.2317 190.119 54.1357C190.614 54.0396 191.112 53.8865 191.612 53.6814L191.065 54.5354L191.68 50.5846H188.727L188.95 49.2504H193.406L192.502 54.8937C192.149 55.0884 191.739 55.2519 191.273 55.3895C190.806 55.5271 190.321 55.6309 189.821 55.7062C189.321 55.7814 188.841 55.8178 188.387 55.8178L188.385 55.8204ZM195.079 55.6673L196.992 43.6123H198.768L196.855 55.6673H195.079ZM198.441 55.6673L205.716 43.6123H207.235L210.769 55.6673H209.027L208.07 52.2486L208.752 52.7262H201.459L202.312 52.2486L200.313 55.6673H198.433H198.441ZM206.229 45.5618L202.659 51.7008L202.302 51.3089H208.363L207.953 51.7008L206.279 45.5618H206.227H206.229ZM206.025 42.5869L208.262 39.6303H210.157L207.287 42.5869H206.025ZM219.804 55.6673L221.479 45.0997H217.364L217.603 43.6123H227.61L227.372 45.0997H223.257L221.583 55.6673H219.807H219.804ZM227.351 55.6673L229.264 43.6123H234.183C235.549 43.6123 236.544 43.9316 237.172 44.5702C237.799 45.2087 238.014 46.1042 237.82 47.2542C237.719 47.9369 237.47 48.5209 237.076 49.0064C236.684 49.4918 236.179 49.8604 235.564 50.1174C234.95 50.3744 234.26 50.5015 233.498 50.5015L233.599 50.229H234.009C234.475 50.229 234.872 50.351 235.196 50.5976C235.52 50.8442 235.769 51.2206 235.94 51.7346L237.203 55.6673H235.341L234.094 51.719C233.957 51.2518 233.724 50.9507 233.394 50.8131C233.065 50.6755 232.637 50.608 232.114 50.608H229.928L229.124 55.6698H227.348L227.351 55.6673ZM230.136 49.2556H233.311C234.12 49.2556 234.761 49.0765 235.233 48.7157C235.704 48.3574 235.992 47.8512 236.096 47.2023C236.2 46.4832 236.06 45.9433 235.678 45.5773C235.297 45.2139 234.686 45.0296 233.843 45.0296H230.804L230.138 49.253L230.136 49.2556ZM238.707 59.0002L238.997 57.274H240.791L240.501 59.0002H238.707ZM239.254 55.6673L241.167 43.6123H242.943L241.03 55.6673H239.254ZM248.424 55.6673L250.337 43.6123H252.113L251.294 48.8091H258.055L258.874 43.6123H260.65L258.737 55.6673H256.961L257.814 50.2991H251.052L250.199 55.6673H248.424ZM262.154 49.3932C262.359 48.129 262.745 47.0543 263.315 46.1692C263.886 45.2866 264.617 44.6143 265.509 44.1522C266.401 43.6901 267.412 43.4591 268.539 43.4591C269.781 43.4591 270.79 43.7291 271.57 44.2716C272.35 44.8141 272.892 45.5696 273.201 46.5378C273.509 47.506 273.559 48.617 273.354 49.8708C273.159 51.1349 272.776 52.2096 272.2 53.0948C271.625 53.9773 270.893 54.6523 270.007 55.1195C269.12 55.5868 268.106 55.8204 266.968 55.8204C265.739 55.8204 264.731 55.5504 263.945 55.0079C263.16 54.4654 262.615 53.7126 262.315 52.7418C262.014 51.7735 261.959 50.6548 262.154 49.3906V49.3932ZM263.982 49.5645C263.834 50.5561 263.855 51.4023 264.041 52.1032C264.228 52.8041 264.581 53.344 265.099 53.7178C265.618 54.0916 266.286 54.2811 267.106 54.2811C268.335 54.2811 269.325 53.8735 270.077 53.0584C270.829 52.2434 271.311 51.1246 271.529 49.6995C271.687 48.7183 271.669 47.8798 271.469 47.1764C271.269 46.4755 270.914 45.9356 270.401 45.5618C269.888 45.1854 269.224 44.9984 268.402 44.9984C267.173 44.9984 266.188 45.4008 265.446 46.2029C264.705 47.005 264.218 48.1264 263.979 49.5619L263.982 49.5645ZM265.363 59.0002L265.654 57.274H267.448L267.158 59.0002H265.363ZM280.579 55.8204C279.247 55.8204 278.166 55.5504 277.336 55.0079C276.504 54.4654 275.933 53.7126 275.62 52.7418C275.306 51.7735 275.246 50.6548 275.441 49.3906C275.646 48.1264 276.042 47.0517 276.628 46.1666C277.214 45.284 277.969 44.6091 278.892 44.1392C279.815 43.672 280.872 43.4436 282.067 43.4565C282.876 43.4565 283.592 43.5708 284.219 43.7992C284.847 44.0276 285.381 44.3573 285.824 44.7908L285.158 46.2107C284.668 45.7772 284.18 45.4735 283.698 45.297C283.213 45.1205 282.638 45.0322 281.964 45.0322C280.701 45.0322 279.664 45.4242 278.855 46.2107C278.046 46.9973 277.523 48.1082 277.284 49.5437C277.147 50.4912 277.175 51.3167 277.37 52.0227C277.564 52.7288 277.945 53.2765 278.513 53.6633C279.083 54.0501 279.833 54.2448 280.766 54.2448C281.37 54.2448 281.964 54.1435 282.55 53.9359C283.136 53.7308 283.696 53.3959 284.232 52.9261L284.795 54.3278C284.248 54.8054 283.605 55.174 282.866 55.431C282.125 55.688 281.362 55.8152 280.577 55.8152L280.579 55.8204ZM291.134 55.6673L293.047 43.6123H297.983C299.326 43.6123 300.306 43.9445 300.921 44.6117C301.535 45.2788 301.745 46.1873 301.553 47.3399C301.452 48.0355 301.208 48.6274 300.827 49.118C300.446 49.6086 299.948 49.985 299.334 50.2472C298.72 50.5093 297.991 50.6391 297.149 50.6391H293.716L292.912 55.6673H291.136H291.134ZM293.934 49.2218H297.058C297.877 49.2218 298.517 49.0531 298.979 48.7183C299.44 48.3834 299.723 47.8824 299.824 47.2231C299.938 46.504 299.816 45.9615 299.456 45.5903C299.098 45.2191 298.515 45.0348 297.706 45.0348H294.582L293.934 49.2244V49.2218ZM302.37 55.6673L304.283 43.6123H306.059L305.24 48.8091H312.001L312.821 43.6123H314.597L312.683 55.6673H310.907L311.76 50.2991H304.999L304.146 55.6673H302.37ZM315.517 55.6673L317.43 43.6123H319.206L317.293 55.6673H315.517ZM317.858 42.5869L320.095 39.6303H321.991L319.121 42.5869H317.858Z" fill="url(#paint0_linear_474_91)"/>
<defs>
<linearGradient id="paint0_linear_474_91" x1="0" y1="29.9661" x2="461.57" y2="29.9661" gradientUnits="userSpaceOnUse">
<stop stop-color="#F9D16F"/>
<stop offset="0.07" stop-color="#EEBE5C"/>
<stop offset="0.18" stop-color="#E0A341"/>
<stop offset="0.25" stop-color="#DB9A38"/>
<stop offset="0.3" stop-color="#DDA044"/>
<stop offset="0.4" stop-color="#E5B365"/>
<stop offset="0.52" stop-color="#F1D19B"/>
<stop offset="0.64" stop-color="#FFF1D5"/>
<stop offset="0.66" stop-color="#FEEBC4"/>
<stop offset="0.68" stop-color="#FCE3AA"/>
<stop offset="0.71" stop-color="#FBDC94"/>
<stop offset="0.74" stop-color="#FAD783"/>
<stop offset="0.78" stop-color="#F9D377"/>
<stop offset="0.84" stop-color="#F9D170"/>
<stop offset="1" stop-color="#F9D16F"/>
</linearGradient>
</defs>
</svg>
