<svg width="599" height="188" viewBox="0 0 599 188" fill="none" xmlns="http://www.w3.org/2000/svg">
<path d="M1.49477 39.2812L0.63083 32.7884C0.312794 30.3928 0.439993 28.1402 1.01246 26.0307C1.58492 23.9212 2.78288 21.6792 4.60628 19.2941L8.73017 21.8223C7.45272 23.4919 6.58865 25.0183 6.1328 26.4017C5.67694 27.7903 5.54975 29.2373 5.75117 30.7532L3.23338 28.7126L10.3574 27.7639L11.709 37.9137L1.49477 39.2759V39.2812ZM15.1757 37.4579L14.3116 30.9651C13.9936 28.5694 14.1209 26.3169 14.6934 24.2074C15.2658 22.0979 16.4636 19.8559 18.287 17.4708L22.4109 19.999C21.1335 21.6686 20.2695 23.1951 19.8137 24.5784C19.3578 25.9671 19.2306 27.414 19.4321 28.9299L16.9143 26.8893L24.0383 25.9406L25.3899 36.0905L15.1757 37.4526V37.4579ZM36.2084 60.9008L31.316 16.326L41.1805 15.2448L43.1417 33.1383L63.5649 30.8962L61.6037 13.0027L71.5317 11.9109L76.4242 56.4856L66.4962 57.5722L64.466 39.048L44.0427 41.29L46.0729 59.8142L36.2084 60.8955V60.9008ZM79.9384 56.104L96.7096 9.69011L104.888 9.00112L129.446 51.9328L119.433 52.7755L112.998 40.8077L117.096 43.2087L90.5396 45.4453L94.2394 42.3871L89.8983 55.2613L79.949 56.0987L79.9384 56.104ZM101.644 19.7393L95.1035 39.8218L93.1899 37.5586L113.157 35.8784L111.901 38.412L101.899 19.7234L101.644 19.7446V19.7393ZM133.088 51.7526L130.278 7.00293L151.163 5.68849C156.198 5.37048 160.094 6.35103 162.85 8.61952C165.607 10.888 167.117 14.1423 167.382 18.3718C167.648 22.559 166.556 25.9777 164.107 28.6172C161.658 31.2567 157.916 32.7354 152.88 33.0482L141.897 33.7372L142.989 51.1325L133.088 51.7526ZM141.415 26.0571L151.126 25.4477C153.495 25.2993 155.228 24.6579 156.326 23.529C157.423 22.4001 157.91 20.8789 157.794 18.9761C157.672 17.0733 156.999 15.637 155.769 14.6723C154.539 13.7077 152.742 13.2996 150.368 13.448L140.657 14.0575L141.41 26.0571H141.415ZM175.731 49.1608L173.764 4.36344L194.67 3.44651C199.711 3.2239 203.591 4.27331 206.3 6.5948C209.014 8.91629 210.461 12.1972 210.646 16.432C210.832 20.6245 209.676 24.0166 207.179 26.6137C204.683 29.2055 200.914 30.6153 195.873 30.8326L184.88 31.315L185.643 48.7261L175.731 49.1608ZM184.541 23.6297L194.262 23.2004C196.631 23.0944 198.38 22.4901 199.499 21.3771C200.617 20.2693 201.137 18.7588 201.052 16.8507C200.967 14.9426 200.321 13.501 199.112 12.5099C197.898 11.524 196.106 11.0841 193.737 11.1848L184.016 11.6141L184.546 23.6244L184.541 23.6297ZM229.193 47.0937L228.631 25.7921L230.815 31.3945L210.392 2.731L221.836 2.42885L234.679 21.3029L232.644 21.3559L244.469 1.82992L255.532 1.53845L236.72 31.2408L238.543 25.5324L239.11 46.834L229.193 47.099V47.0937ZM278.467 58.0704C277.704 58.0704 276.792 58.0386 275.732 57.9591C274.672 57.8796 273.591 57.7365 272.488 57.5351L272.44 49.7756C273.289 49.9399 274.094 50.0618 274.858 50.1413C275.621 50.2208 276.236 50.2579 276.702 50.2579C278.653 50.2473 280.026 49.6855 280.826 48.5778C281.626 47.47 282.019 45.6891 282.003 43.2298L281.743 1.31582L291.666 1.25222L291.925 43.1662C291.947 46.4736 291.507 49.2297 290.611 51.4451C289.71 53.6553 288.279 55.309 286.318 56.4008C284.356 57.4927 281.738 58.0492 278.473 58.0704H278.467ZM299.786 23.5449C299.829 18.8807 300.74 14.8313 302.532 11.3862C304.324 7.94638 306.879 5.28564 310.202 3.40407C313.526 1.5225 317.453 0.605582 321.996 0.642684C326.533 0.679785 330.445 1.67091 333.737 3.60548C337.028 5.54006 339.557 8.24319 341.333 11.7148C343.103 15.1865 343.972 19.2305 343.93 23.8523C343.887 28.5589 342.954 32.6347 341.12 36.0745C339.286 39.5144 336.71 42.1857 333.387 44.0885C330.063 45.9912 326.13 46.9188 321.593 46.8817C317.056 46.8446 313.154 45.8428 309.884 43.887C306.614 41.9313 304.106 39.207 302.352 35.7142C300.603 32.2213 299.744 28.1666 299.786 23.5449ZM310.154 23.635C310.112 28.2568 311.05 31.8768 312.953 34.5057C314.861 37.1293 317.766 38.4597 321.667 38.4915C325.484 38.5233 328.399 37.2459 330.413 34.6541C332.427 32.0623 333.456 28.4582 333.498 23.8364C333.541 19.1722 332.581 15.5522 330.636 12.9657C328.685 10.3845 325.78 9.0753 321.922 9.0435C318.02 9.0117 315.094 10.2678 313.144 12.8172C311.193 15.3666 310.197 18.9708 310.16 23.635H310.154ZM370.528 47.788C363.955 47.6025 359.111 45.8323 355.978 42.4772C352.851 39.1222 351.377 34.2248 351.557 27.7797L352.294 1.71334L362.212 1.99426L361.47 28.1242C361.369 31.7284 362.063 34.4845 363.558 36.3925C365.053 38.3006 367.454 39.3024 370.756 39.3978C373.979 39.4879 376.412 38.624 378.05 36.806C379.693 34.988 380.562 32.2743 380.668 28.6702L381.41 2.54013L391.201 2.81576L390.464 28.8822C390.284 35.3272 388.524 40.1345 385.184 43.304C381.85 46.4789 376.958 47.9682 370.518 47.788H370.528ZM398.505 47.9736L400.646 3.18681L420.979 4.15672C426.02 4.39523 429.858 5.77856 432.498 8.30676C435.137 10.8297 436.351 14.2324 436.15 18.5097C436.017 21.3029 435.275 23.6774 433.929 25.6332C432.582 27.5836 430.727 29.0465 428.368 30.0164C426.01 30.9864 423.216 31.3945 419.999 31.2408L420.826 29.8786L423.434 30.0058C425.252 30.0906 426.852 30.6577 428.225 31.7019C429.598 32.746 430.706 34.2195 431.549 36.1275L437.581 49.8498L426.651 49.3251L420.418 34.5746C419.967 33.3238 419.214 32.4705 418.154 32.0146C417.094 31.5588 415.864 31.2991 414.465 31.2355L409.254 30.9864L408.417 48.4558L398.505 47.9841V47.9736ZM409.594 23.8629L418.297 24.2816C420.879 24.4035 422.877 23.9689 424.282 22.9778C425.686 21.9866 426.439 20.4495 426.54 18.3718C426.64 16.2995 426.036 14.7094 424.732 13.607C423.428 12.5045 421.483 11.8897 418.896 11.7678L410.193 11.3491L409.594 23.8629ZM443.263 50.1837L446.332 5.44994L453.695 5.9535L475.878 38.5232L474.166 38.4067L476.286 7.50642L485.488 8.13718L482.419 52.8709L475.056 52.3674L452.937 19.8029L454.585 19.9142L452.465 50.8145L443.263 50.1837ZM491.26 53.6182L495.257 8.95874L526.302 11.736L525.619 19.4001L504.013 17.4655L503.08 27.9175L523.164 29.7143L522.475 37.442L502.391 35.6453L501.395 46.7969L523 48.7314L522.316 56.3956L491.271 53.6182H491.26ZM539.787 58.2559L542.125 37.0763L543.529 42.9277L527.193 11.7572L538.573 13.0133L548.734 33.4563L546.71 33.2336L561.08 15.4939L572.078 16.7076L549.408 43.5797L551.989 38.1682L549.652 59.3478L539.787 58.2612V58.2559ZM573.011 36.0269L573.207 16.9355L584.18 18.3718L579.446 36.8643L573.011 36.0216V36.0269ZM587.201 37.8872L587.397 18.7959L598.369 20.2322L593.636 38.7247L587.201 37.8819V37.8872ZM88.4406 130.524C84.8521 130.858 81.4544 130.726 78.2476 130.127C75.0407 129.528 72.2685 128.552 69.9256 127.19L72.1253 119.192C73.6519 120.03 75.2474 120.714 76.9118 121.238C78.5762 121.768 80.3148 122.129 82.1223 122.319C83.9298 122.516 85.8009 122.521 87.7462 122.341C90.7888 122.06 92.909 121.397 94.1069 120.348C95.3102 119.298 95.8455 118.058 95.713 116.622C95.5911 115.313 95.0664 114.348 94.1388 113.733C93.2112 113.118 91.5786 112.662 89.2516 112.366L81.6346 111.539C77.463 111.073 74.2668 109.922 72.0512 108.083C69.8355 106.244 68.5739 103.636 68.2612 100.26C67.9961 97.3874 68.5262 94.8274 69.8514 92.5748C71.1765 90.3222 73.1642 88.4776 75.8251 87.0413C78.4808 85.6049 81.6664 84.7146 85.3822 84.3701C88.5466 84.0786 91.5467 84.2482 94.372 84.8789C97.1972 85.5096 99.5771 86.5696 101.501 88.0537L99.2538 95.5428C97.3933 94.3079 95.3632 93.444 93.1687 92.9458C90.9743 92.4476 88.5626 92.3151 85.9494 92.5589C83.2036 92.8133 81.1469 93.4916 79.7847 94.5994C78.4171 95.7071 77.8129 97.1012 77.9666 98.7919C78.0832 100.059 78.6239 101.045 79.578 101.739C80.5374 102.439 82.1541 102.915 84.4386 103.175L91.9231 103.954C96.1795 104.415 99.4181 105.539 101.628 107.336C103.839 109.133 105.095 111.677 105.403 114.973C105.662 117.761 105.138 120.258 103.828 122.463C102.519 124.673 100.558 126.48 97.9446 127.895C95.3314 129.31 92.1616 130.185 88.4459 130.529L88.4406 130.524ZM135.372 126.724C130.591 127.069 126.419 126.411 122.857 124.752C119.295 123.093 116.47 120.608 114.382 117.295C112.293 113.982 111.085 109.975 110.746 105.279C110.406 100.583 111.037 96.4598 112.633 92.9033C114.228 89.3469 116.666 86.4901 119.958 84.3436C123.25 82.197 127.283 80.9514 132.059 80.6069C135.144 80.3843 137.991 80.6175 140.588 81.3012C143.191 81.985 145.433 83.0927 147.33 84.6139L144.781 92.6383C142.724 91.255 140.8 90.3116 138.998 89.8028C137.196 89.294 135.197 89.1191 132.998 89.2781C128.81 89.5802 125.693 91.0429 123.652 93.6772C121.612 96.3114 120.753 99.9314 121.082 104.543C121.41 109.154 122.778 112.625 125.174 114.963C127.575 117.3 130.867 118.318 135.054 118.016C137.254 117.857 139.21 117.401 140.917 116.638C142.623 115.88 144.399 114.666 146.238 113.007L149.906 120.586C148.247 122.319 146.175 123.724 143.705 124.795C141.229 125.865 138.447 126.512 135.362 126.729L135.372 126.724ZM156.93 124.546L154.661 79.7641L164.573 79.2606L165.485 97.239L186.004 96.2001L185.092 78.2218L195.068 77.7183L197.336 122.5L187.361 123.003L186.417 104.389L165.898 105.428L166.842 124.042L156.93 124.546ZM204.185 99.7407C204.047 95.0765 204.805 90.9953 206.464 87.4865C208.118 83.9831 210.572 81.2271 213.826 79.2183C217.076 77.2148 220.966 76.1442 225.504 76.0117C230.041 75.8791 233.99 76.7166 237.35 78.5239C240.711 80.3313 243.346 82.939 245.248 86.3417C247.151 89.7445 248.169 93.7514 248.307 98.3732C248.445 103.08 247.665 107.182 245.964 110.691C244.262 114.2 241.787 116.966 238.543 118.991C235.294 121.016 231.403 122.097 226.866 122.229C222.329 122.362 218.39 121.514 215.051 119.685C211.706 117.857 209.098 115.228 207.211 111.804C205.33 108.38 204.317 104.362 204.185 99.7407ZM214.547 99.4332C214.685 104.055 215.756 107.638 217.759 110.187C219.763 112.737 222.716 113.956 226.617 113.839C230.433 113.728 233.295 112.339 235.209 109.673C237.123 107.007 238.013 103.366 237.875 98.7442C237.737 94.08 236.646 90.497 234.599 87.99C232.553 85.483 229.601 84.2905 225.742 84.4018C221.841 84.5184 218.968 85.8858 217.113 88.5041C215.258 91.1277 214.404 94.769 214.542 99.4279L214.547 99.4332ZM256.544 120.798L256.009 75.9639L265.931 75.8473L266.366 112.355L286.593 112.111L286.694 120.443L256.544 120.804V120.798ZM286.508 120.374L307.318 75.6247L315.524 75.6618L336.186 120.597L326.136 120.555L320.787 108.062L324.657 110.813L298.005 110.691L301.96 107.972L296.495 120.411L286.508 120.369V120.374ZM311.342 86.0767L303.051 105.502L301.345 103.08L321.381 103.17L319.907 105.582L311.596 86.082H311.342V86.0767ZM339.864 120.708L340.903 75.8791L361.252 76.3508C366.298 76.4674 370.168 77.7554 372.871 80.2147C375.569 82.674 376.873 86.0449 376.772 90.3275C376.709 93.126 376.025 95.5164 374.726 97.4987C373.428 99.481 371.615 100.991 369.277 102.014C366.94 103.043 364.162 103.52 360.939 103.446L361.735 102.062L364.342 102.12C366.166 102.163 367.777 102.688 369.171 103.695C370.571 104.702 371.71 106.149 372.601 108.035L378.967 121.604L368.032 121.35L361.432 106.753C360.95 105.513 360.176 104.675 359.105 104.251C358.035 103.822 356.8 103.594 355.4 103.562L350.185 103.44L349.782 120.926L339.864 120.698V120.708ZM350.359 96.3326L359.074 96.534C361.66 96.5923 363.643 96.11 365.026 95.0818C366.404 94.0535 367.12 92.5006 367.168 90.4229C367.215 88.3452 366.574 86.7711 365.243 85.7004C363.908 84.6298 361.952 84.0679 359.365 84.0043L350.651 83.8029L350.359 96.3273V96.3326ZM400.683 123.199C397.084 123.051 393.729 122.468 390.633 121.45C387.533 120.433 384.914 119.092 382.778 117.433L386.022 109.8C387.421 110.834 388.911 111.724 390.496 112.466C392.075 113.209 393.75 113.802 395.515 114.231C397.28 114.666 399.136 114.92 401.086 115C404.134 115.127 406.328 114.751 407.659 113.871C408.989 112.991 409.684 111.83 409.742 110.394C409.795 109.08 409.403 108.057 408.565 107.32C407.728 106.583 406.175 105.915 403.906 105.317L396.469 103.483C392.393 102.465 389.382 100.901 387.432 98.7813C385.481 96.6665 384.575 93.9104 384.718 90.5236C384.835 87.6455 385.704 85.1757 387.315 83.1192C388.927 81.0627 391.148 79.4991 393.967 78.4284C396.793 77.3578 400.068 76.8968 403.795 77.0505C406.975 77.183 409.917 77.7501 412.636 78.7518C415.355 79.7536 417.566 81.121 419.278 82.8436L416.055 89.967C414.375 88.4988 412.477 87.37 410.368 86.5802C408.258 85.7958 405.889 85.3453 403.259 85.2393C400.503 85.128 398.378 85.5255 396.877 86.4424C395.377 87.3594 394.588 88.6631 394.519 90.3539C394.466 91.626 394.869 92.6702 395.727 93.4917C396.586 94.3133 398.128 95.0022 400.355 95.5588L407.664 97.3238C411.825 98.3467 414.878 99.8891 416.829 101.967C418.78 104.044 419.691 106.732 419.553 110.034C419.437 112.832 418.584 115.233 416.999 117.247C415.408 119.261 413.225 120.793 410.442 121.848C407.659 122.903 404.404 123.348 400.678 123.199H400.683ZM426.11 123.592L428.845 78.8366L438.747 79.4409L437.65 97.4085L458.158 98.6594L459.255 80.6916L469.22 81.3012L466.49 126.056L456.52 125.447L457.654 106.848L437.146 105.597L436.012 124.196L426.105 123.592H426.11ZM475.374 126.788L478.814 82.0804L488.71 82.8436L485.27 127.551L475.374 126.788ZM494.175 128.208L498.289 83.5591L519.125 85.4777C524.15 85.9389 527.85 87.5078 530.225 90.1738C532.599 92.8398 533.591 96.2849 533.199 100.509C532.812 104.691 531.211 107.892 528.386 110.124C525.56 112.355 521.638 113.24 516.613 112.774L505.657 111.767L504.056 129.12L494.175 128.208ZM506.361 104.103L516.051 104.998C518.415 105.216 520.228 104.85 521.484 103.901C522.74 102.953 523.461 101.527 523.636 99.6293C523.811 97.7318 523.366 96.2107 522.3 95.0659C521.235 93.9263 519.518 93.2425 517.154 93.0252L507.464 92.1348L506.361 104.103ZM28.7876 187.687L29.6251 182.588H18.1758L18.5945 180.007L33.2242 163.073H36.2243L33.5369 179.758H37.205L36.7491 182.588H33.0811L32.3126 187.687H28.7876ZM30.0439 179.763L32.0316 167.371H32.9751L21.5205 180.638L21.4516 179.763H30.0386H30.0439ZM47.5359 188C44.5092 188 42.4048 186.86 41.2175 184.576C40.0301 182.297 39.7598 179.058 40.4171 174.871C41.0903 170.705 42.3095 167.647 44.064 165.691C45.8185 163.735 48.0712 162.76 50.8222 162.76C53.8012 162.76 55.9002 163.868 57.1246 166.078C58.349 168.288 58.6194 171.527 57.9462 175.783C57.2942 179.927 56.0645 182.996 54.2623 185C52.4601 187.003 50.218 188 47.5412 188H47.5359ZM47.7479 184.963C49.4705 184.963 50.8911 184.221 52.0096 182.726C53.128 181.237 53.9548 178.804 54.4902 175.428C54.84 173.122 54.9302 171.262 54.7712 169.841C54.6068 168.421 54.1775 167.387 53.4778 166.735C52.7782 166.083 51.824 165.76 50.6154 165.76C48.8715 165.76 47.4511 166.491 46.3539 167.96C45.2619 169.428 44.4456 171.834 43.9102 175.184C43.5392 177.463 43.4384 179.329 43.6134 180.77C43.7883 182.212 44.2229 183.272 44.9226 183.945C45.6223 184.618 46.5658 184.957 47.7532 184.957L47.7479 184.963ZM67.4025 177.807C65.4254 177.807 63.9518 177.113 62.9871 175.73C62.0224 174.346 61.7256 172.406 62.0966 169.915C62.4677 167.657 63.2786 165.903 64.5242 164.642C65.7699 163.386 67.3125 162.755 69.1518 162.755C71.1554 162.755 72.6236 163.444 73.5671 164.817C74.5106 166.189 74.7809 168.124 74.3887 170.61C74.0389 172.846 73.2544 174.601 72.03 175.883C70.8108 177.166 69.2684 177.802 67.4025 177.802V177.807ZM67.5085 175.433C68.5315 175.433 69.3797 175.014 70.0582 174.177C70.7313 173.339 71.2084 172.073 71.4893 170.371C71.7437 168.58 71.6483 167.26 71.1924 166.407C70.7366 165.559 69.9998 165.135 68.9768 165.135C67.9538 165.135 67.1481 165.543 66.4962 166.359C65.8442 167.175 65.3777 168.431 65.102 170.127C64.8211 171.919 64.9059 173.254 65.3458 174.124C65.7858 174.998 66.512 175.433 67.5085 175.433ZM68.5899 187.687H65.3405L83.6329 163.073H86.9141L68.5846 187.687H68.5899ZM83.1135 188C81.1099 188 79.6363 187.305 78.6769 185.922C77.7228 184.539 77.4419 182.599 77.8394 180.108C78.2104 177.85 79.0108 176.095 80.23 174.834C81.4491 173.578 82.9809 172.947 84.8203 172.947C86.8239 172.947 88.3081 173.641 89.2728 175.025C90.2376 176.408 90.5237 178.337 90.1262 180.802C89.7551 183.039 88.9547 184.793 87.7356 186.076C86.5112 187.358 84.974 187.994 83.1082 187.994L83.1135 188ZM83.2513 185.625C84.2743 185.625 85.1171 185.206 85.785 184.369C86.4476 183.532 86.9088 182.265 87.1632 180.564C87.4653 178.793 87.3857 177.479 86.9193 176.62C86.4528 175.761 85.7108 175.327 84.6824 175.327C83.6541 175.327 82.8484 175.735 82.1859 176.551C81.5233 177.367 81.0516 178.624 80.7707 180.32C80.5162 182.132 80.6117 183.473 81.0675 184.332C81.5234 185.191 82.2495 185.625 83.2513 185.625ZM104.024 174.876C104.443 172.295 105.233 170.101 106.399 168.293C107.565 166.491 109.06 165.119 110.883 164.175C112.707 163.232 114.774 162.76 117.08 162.76C119.619 162.76 121.681 163.311 123.276 164.419C124.872 165.527 125.98 167.069 126.61 169.046C127.241 171.023 127.342 173.292 126.923 175.852C126.526 178.433 125.741 180.627 124.564 182.435C123.387 184.237 121.893 185.62 120.08 186.574C118.267 187.528 116.195 188.005 113.868 188.005C111.355 188.005 109.293 187.454 107.687 186.346C106.081 185.244 104.968 183.701 104.353 181.719C103.738 179.742 103.627 177.458 104.019 174.876H104.024ZM107.761 175.226C107.459 177.251 107.502 178.979 107.883 180.41C108.265 181.841 108.986 182.943 110.046 183.707C111.106 184.475 112.474 184.857 114.149 184.857C116.661 184.857 118.686 184.024 120.223 182.36C121.76 180.696 122.746 178.412 123.191 175.502C123.515 173.498 123.478 171.786 123.07 170.35C122.661 168.919 121.935 167.817 120.886 167.053C119.836 166.285 118.479 165.903 116.799 165.903C114.286 165.903 112.272 166.725 110.756 168.362C109.24 170 108.244 172.29 107.756 175.221L107.761 175.226ZM130.034 187.687L133.946 163.073H149.726L149.239 165.972H137.09L135.865 173.864H147.214L146.758 176.763H135.409L133.665 187.692H130.034V187.687ZM165.056 187.687L168.48 166.11H160.068L160.555 163.073H181.016L180.528 166.11H172.116L168.692 187.687H165.061H165.056ZM180.486 187.687L184.397 163.073H188.028L186.353 173.684H200.177L201.852 163.073H205.483L201.571 187.687H197.941L199.684 176.726H185.86L184.117 187.687H180.486ZM207.37 187.687L211.282 163.073H227.412L226.956 165.972H214.319L213.095 173.721H224.931L224.475 176.652H212.639L211.346 184.751H223.951L223.495 187.682H207.365L207.37 187.687ZM237.324 187.687L241.236 163.073H251.328C254.074 163.073 256.077 163.751 257.334 165.113C258.59 166.475 259.019 168.331 258.627 170.684C258.415 172.104 257.922 173.313 257.143 174.315C256.364 175.316 255.346 176.085 254.09 176.62C252.834 177.155 251.344 177.42 249.621 177.42H242.603L240.96 187.687H237.329H237.324ZM243.049 174.527H249.436C251.111 174.527 252.42 174.182 253.364 173.498C254.307 172.815 254.885 171.792 255.092 170.445C255.325 168.977 255.076 167.869 254.339 167.112C253.607 166.354 252.415 165.977 250.761 165.977H244.374L243.049 174.532V174.527ZM270.564 188C268.402 188 266.594 187.623 265.152 186.865C263.71 186.107 262.693 184.963 262.099 183.426C261.505 181.889 261.383 179.98 261.733 177.701L264.071 163.073H267.702L265.364 177.733C264.993 180.108 265.232 181.889 266.08 183.076C266.928 184.263 268.539 184.857 270.914 184.857C273.008 184.857 274.672 184.3 275.907 183.182C277.142 182.063 277.953 180.24 278.351 177.701L280.688 163.073H284.25L281.876 177.908C281.526 180.214 280.874 182.111 279.92 183.601C278.966 185.09 277.709 186.198 276.151 186.918C274.592 187.639 272.727 188 270.564 188ZM285.957 187.687L289.869 163.073H300.237C302.845 163.073 304.764 163.645 305.999 164.785C307.234 165.924 307.684 167.567 307.361 169.709C307.128 171.219 306.476 172.46 305.405 173.429C304.334 174.394 302.983 175.051 301.355 175.401L301.424 174.876C303.195 175.11 304.483 175.799 305.299 176.938C306.115 178.078 306.391 179.509 306.136 181.231C305.808 183.351 304.843 184.957 303.237 186.049C301.631 187.141 299.49 187.692 296.813 187.692H285.952L285.957 187.687ZM289.906 184.862H296.786C298.44 184.862 299.781 184.56 300.82 183.956C301.854 183.351 302.479 182.371 302.686 181.025C302.85 179.933 302.765 179.064 302.442 178.422C302.113 177.781 301.594 177.325 300.873 177.044C300.152 176.763 299.267 176.625 298.217 176.625H291.199L289.906 184.862ZM291.687 173.827H297.936C299.68 173.827 301.037 173.504 302.002 172.852C302.967 172.2 303.544 171.293 303.73 170.127C303.963 168.659 303.725 167.583 303.014 166.9C302.304 166.216 301.149 165.871 299.543 165.871H292.906L291.687 173.832V173.827ZM309.873 187.687L313.785 163.073H317.416L313.992 184.576H326.035L325.579 187.682H309.868L309.873 187.687ZM329.146 187.687L333.058 163.073H336.689L332.777 187.687H329.146ZM347.126 188C345.191 188 343.447 187.766 341.889 187.3C340.331 186.834 339.027 186.24 337.977 185.519L339.339 182.657C340.458 183.357 341.651 183.908 342.917 184.316C344.184 184.724 345.668 184.926 347.37 184.926C349.299 184.926 350.778 184.576 351.807 183.876C352.83 183.177 353.423 182.281 353.587 181.189C353.752 180.166 353.566 179.344 353.031 178.73C352.496 178.115 351.473 177.701 349.957 177.489L346.532 176.933C344.295 176.61 342.674 175.83 341.661 174.595C340.649 173.361 340.294 171.781 340.596 169.847C340.808 168.426 341.364 167.186 342.271 166.126C343.177 165.066 344.364 164.239 345.833 163.645C347.301 163.052 348.997 162.755 350.932 162.755C352.607 162.755 354.133 162.983 355.506 163.433C356.879 163.889 357.998 164.488 358.856 165.23L357.531 168.055C356.625 167.355 355.607 166.809 354.478 166.412C353.349 166.014 352.04 165.818 350.55 165.818C348.732 165.818 347.269 166.179 346.151 166.9C345.032 167.62 344.37 168.611 344.163 169.868C343.977 170.938 344.163 171.813 344.72 172.486C345.276 173.159 346.315 173.615 347.826 173.848L351.319 174.373C353.577 174.701 355.199 175.438 356.19 176.588C357.181 177.739 357.521 179.281 357.218 181.215C357.012 182.519 356.46 183.685 355.575 184.708C354.69 185.731 353.54 186.537 352.119 187.115C350.699 187.698 349.034 187.989 347.126 187.989V188ZM360.674 187.687L364.586 163.073H368.217L366.542 173.684H380.366L382.041 163.073H385.672L381.76 187.687H378.129L379.873 176.726H366.049L364.305 187.687H360.674ZM387.559 187.687L391.471 163.073H407.601L407.145 165.972H394.508L393.284 173.721H405.12L404.664 176.652H392.828L391.535 184.751H404.139L403.683 187.682H387.554L387.559 187.687ZM408.189 187.687L412.101 163.073H420.269C423.2 163.073 425.559 163.587 427.34 164.61C429.121 165.633 430.356 167.096 431.04 168.993C431.724 170.891 431.862 173.175 431.443 175.852C430.812 179.811 429.248 182.768 426.746 184.735C424.245 186.701 420.942 187.687 416.85 187.687H408.194H408.189ZM412.308 184.65H416.951C420.142 184.65 422.628 183.897 424.425 182.397C426.216 180.897 427.345 178.608 427.812 175.539C428.321 172.327 427.923 169.952 426.609 168.415C425.294 166.878 423.041 166.11 419.85 166.11H415.244L412.313 184.65H412.308ZM449.735 187.687L453.159 166.11H444.747L445.235 163.073H465.695L465.208 166.11H456.79L453.371 187.687H449.741H449.735ZM475.433 188C473.27 188 471.462 187.623 470.021 186.865C468.579 186.107 467.561 184.963 466.967 183.426C466.374 181.889 466.252 179.98 466.602 177.701L468.939 163.073H472.57L470.233 177.733C469.862 180.108 470.1 181.889 470.948 183.076C471.796 184.263 473.408 184.857 475.782 184.857C477.876 184.857 479.54 184.3 480.775 183.182C482.01 182.063 482.822 180.24 483.219 177.701L485.557 163.073H489.119L486.744 177.908C486.394 180.214 485.742 182.111 484.788 183.601C483.834 185.09 482.578 186.198 481.019 186.918C479.461 187.639 477.595 188 475.433 188ZM490.831 187.687L494.743 163.073H498.374L494.462 187.687H490.831ZM506.155 187.687L509.579 166.11H501.167L501.655 163.073H522.115L521.627 166.11H513.21L509.791 187.687H506.16H506.155ZM521.59 187.687L525.502 163.073H529.133L525.221 187.687H521.59ZM532.202 174.876C532.621 172.295 533.41 170.101 534.577 168.293C535.743 166.491 537.237 165.119 539.061 164.175C540.89 163.232 542.952 162.76 545.257 162.76C547.796 162.76 549.858 163.311 551.454 164.419C553.049 165.527 554.157 167.069 554.788 169.046C555.419 171.023 555.519 173.292 555.101 175.852C554.703 178.433 553.919 180.627 552.742 182.435C551.565 184.237 550.07 185.62 548.257 186.574C546.439 187.528 544.372 188.005 542.045 188.005C539.533 188.005 537.471 187.454 535.865 186.346C534.259 185.244 533.146 183.701 532.531 181.719C531.916 179.742 531.804 177.458 532.197 174.876H532.202ZM535.939 175.226C535.637 177.251 535.679 178.979 536.061 180.41C536.442 181.841 537.169 182.943 538.223 183.707C539.278 184.47 540.651 184.857 542.326 184.857C544.839 184.857 546.863 184.024 548.401 182.36C549.938 180.696 550.924 178.412 551.369 175.502C551.698 173.498 551.655 171.786 551.247 170.35C550.839 168.919 550.113 167.817 549.063 167.053C548.014 166.285 546.657 165.903 544.976 165.903C542.464 165.903 540.45 166.725 538.939 168.362C537.423 170.005 536.427 172.29 535.934 175.221L535.939 175.226ZM558.212 187.687L562.124 163.073H564.917L576.754 183.076L576.022 182.901L579.165 163.073H582.552L578.641 187.687H575.884L564.016 167.684L564.748 167.859L561.604 187.687H558.217H558.212Z" fill="url(#paint0_linear_508_559)"/>
<defs>
<linearGradient id="paint0_linear_508_559" x1="0.455906" y1="94.3239" x2="598.369" y2="94.3239" gradientUnits="userSpaceOnUse">
<stop stop-color="#F9D16F"/>
<stop offset="0.07" stop-color="#EEBE5C"/>
<stop offset="0.18" stop-color="#E0A341"/>
<stop offset="0.25" stop-color="#DB9A38"/>
<stop offset="0.3" stop-color="#DDA044"/>
<stop offset="0.4" stop-color="#E5B365"/>
<stop offset="0.52" stop-color="#F1D19B"/>
<stop offset="0.64" stop-color="#FFF1D5"/>
<stop offset="0.66" stop-color="#FEEBC4"/>
<stop offset="0.68" stop-color="#FCE3AA"/>
<stop offset="0.71" stop-color="#FBDC94"/>
<stop offset="0.74" stop-color="#FAD783"/>
<stop offset="0.78" stop-color="#F9D377"/>
<stop offset="0.84" stop-color="#F9D170"/>
<stop offset="1" stop-color="#F9D16F"/>
</linearGradient>
</defs>
</svg>
