<svg width="878" height="188" viewBox="0 0 878 188" fill="none" xmlns="http://www.w3.org/2000/svg">
<path d="M2.41938 66.0143L0.792062 59.6699C0.193094 57.3272 0.0500809 55.0799 0.368117 52.9175C0.686154 50.755 1.60844 48.3858 3.13502 45.8046L7.52924 47.8293C6.45852 49.6366 5.7853 51.2532 5.49376 52.6842C5.20223 54.1153 5.24994 55.5729 5.63158 57.0516L2.89121 55.3237L9.85084 53.5376L12.4005 63.4543L2.41938 66.0196V66.0143ZM15.7875 62.5797L14.155 56.2354C13.556 53.8927 13.4129 51.6454 13.7309 49.4829C14.049 47.3204 14.9713 44.9512 16.4978 42.37L20.892 44.3947C19.8213 46.2021 19.1428 47.8187 18.8566 49.2497C18.5703 50.6808 18.6127 52.1383 18.9944 53.6118L16.254 51.8839L23.2137 50.0977L25.7633 60.0144L15.7822 62.5797H15.7875ZM52.049 80.5951L27.6873 39.7252L37.7321 37.7218L55.6586 69.4276L52.9766 69.9629L58.3779 33.6088L65.4913 32.1937L83.418 63.8995L80.9214 64.3977L86.0099 28.1019L95.4291 26.2256L88.4748 73.3338L80.5503 74.9133L63.5301 45.8152L64.9665 45.529L60.0263 79.0051L52.0437 80.5951H52.049ZM109.598 69.7403L102.733 25.4306L133.535 20.6604L134.712 28.2662L113.276 31.5841L114.882 41.9566L134.807 38.8719L135.995 46.5413L116.07 49.626L117.782 60.6876L139.217 57.3696L140.394 64.9754L109.592 69.7456L109.598 69.7403ZM147.009 64.0744L141.216 19.611L151.054 18.3283L155.771 54.5287L175.829 51.9157L176.905 60.1787L147.009 64.0744ZM182.682 59.5268L177.811 14.9521L187.676 13.8761L191.64 50.1666L211.746 47.9724L212.652 56.2566L182.682 59.5321V59.5268ZM233.844 55.0269C230.255 55.3449 226.858 55.2018 223.651 54.5923C220.444 53.9828 217.677 52.997 215.339 51.6295L217.566 43.6421C219.087 44.4848 220.682 45.1739 222.347 45.7039C224.011 46.2392 225.75 46.6049 227.552 46.8063C229.36 47.0077 231.231 47.0183 233.176 46.8487C236.219 46.5784 238.339 45.9212 239.547 44.877C240.751 43.8329 241.291 42.5927 241.164 41.1563C241.047 39.8471 240.523 38.8825 239.595 38.2624C238.667 37.6423 237.04 37.1811 234.713 36.879L227.102 36.0257C222.93 35.5487 219.739 34.3826 217.529 32.5382C215.318 30.6937 214.067 28.0807 213.765 24.6992C213.511 21.8264 214.046 19.2665 215.377 17.0192C216.707 14.7719 218.705 12.9327 221.366 11.5069C224.027 10.0759 227.218 9.19606 230.934 8.86745C234.104 8.58654 237.098 8.76674 239.924 9.40807C242.749 10.0494 245.124 11.1147 247.042 12.6041L244.774 20.088C242.918 18.8477 240.894 17.9785 238.699 17.4697C236.505 16.9609 234.098 16.8284 231.48 17.0616C228.734 17.3054 226.677 17.9785 225.305 19.0809C223.937 20.1834 223.322 21.5773 223.476 23.2681C223.587 24.5349 224.123 25.5207 225.082 26.2203C226.036 26.9252 227.658 27.4076 229.937 27.6726L237.416 28.4729C241.673 28.9446 244.901 30.0842 247.106 31.8862C249.311 33.6936 250.557 36.2377 250.853 39.5344C251.103 42.3223 250.567 44.8187 249.253 47.0183C247.938 49.2232 245.972 51.0253 243.348 52.4298C240.729 53.8344 237.56 54.7036 233.844 55.0322V55.0269ZM259.107 52.1595L256.027 7.42579L276.906 5.98944C281.942 5.64492 285.843 6.59896 288.61 8.85155C291.377 11.1041 292.909 14.3479 293.2 18.5774C293.486 22.7646 292.416 26.1832 289.983 28.8386C287.55 31.494 283.818 32.994 278.782 33.3385L267.805 34.0911L269.003 51.4758L259.101 52.1542L259.107 52.1595ZM267.28 26.4164L276.991 25.7486C279.36 25.5843 281.088 24.9377 282.18 23.7981C283.272 22.6586 283.749 21.1374 283.622 19.2346C283.489 17.3319 282.805 15.9008 281.576 14.9468C280.341 13.9927 278.539 13.5952 276.169 13.7542L266.459 14.4221L267.285 26.4164H267.28ZM301.734 49.3133L299.534 4.52658L319.862 3.53014C324.903 3.28103 328.857 4.28807 331.73 6.54596C334.603 8.80385 336.14 12.0688 336.352 16.346C336.49 19.1392 335.981 21.5773 334.831 23.6497C333.681 25.7221 331.979 27.3546 329.721 28.5471C327.463 29.7397 324.728 30.4181 321.511 30.5718L322.205 29.1354L324.808 29.0082C326.631 28.9181 328.274 29.3262 329.737 30.2326C331.205 31.1389 332.451 32.4958 333.474 34.3137L340.805 47.3893L329.875 47.9247L322.242 33.8473C321.675 32.6442 320.837 31.8703 319.74 31.5205C318.638 31.1707 317.392 31.0329 315.993 31.1018L310.782 31.3562L311.641 48.8257L301.729 49.3133H301.734ZM310.438 24.238L319.141 23.8087C321.723 23.6815 323.668 23.0561 324.972 21.9325C326.276 20.8088 326.875 19.2081 326.774 17.1305C326.673 15.0581 325.915 13.5316 324.511 12.5617C323.106 11.5918 321.108 11.1677 318.526 11.2949L309.823 11.7243L310.438 24.238ZM346.577 47.2568L344.987 2.4436L354.904 2.09378L356.495 46.907L346.577 47.2568ZM365.442 46.5519L364.472 1.72277L371.85 1.56376L396.875 32.0028L395.157 32.0399L394.484 1.07085L403.707 0.869437L404.677 45.6986L397.299 45.8576L372.338 15.4185L373.992 15.3814L374.66 46.3505L365.437 46.5519H365.442ZM435.77 46.2445C430.639 46.2657 426.319 45.3382 422.816 43.4619C419.312 41.5909 416.662 38.9249 414.865 35.4745C413.073 32.024 412.167 27.9906 412.151 23.3688C412.135 18.6198 413.084 14.5016 415.003 11.0193C416.922 7.5371 419.699 4.83399 423.335 2.91002C426.977 0.991342 431.339 0.0214047 436.428 0.000203854C439.693 -0.0103966 442.566 0.392419 445.052 1.20865C447.538 2.02488 449.711 3.19623 451.582 4.71739L448.428 12.4239C447.066 11.4539 445.794 10.6854 444.601 10.1183C443.409 9.55117 442.179 9.15366 440.907 8.92575C439.635 8.69784 438.172 8.58654 436.518 8.59184C431.853 8.60774 428.35 9.88509 426.007 12.4133C423.664 14.9468 422.498 18.6092 422.519 23.3953C422.535 28.1443 423.653 31.7431 425.864 34.1971C428.079 36.6511 431.54 37.8649 436.242 37.849C437.811 37.8437 439.423 37.69 441.076 37.3879C442.73 37.0857 444.357 36.6352 445.969 36.0363L444.204 39.8577L444.161 27.7733L434.302 27.8104L434.276 20.7505L452.34 20.6869L452.42 42.6934C450.177 43.8064 447.58 44.6703 444.638 45.2958C441.691 45.9212 438.739 46.2392 435.77 46.2498V46.2445ZM478.605 45.7728L479.681 0.94364L489.598 1.18215L489.169 19.1763L509.709 19.6693L510.138 1.67507L520.119 1.91358L519.043 46.7427L509.062 46.5042L509.507 27.874L488.967 27.3811L488.522 46.0113L478.605 45.7728ZM522.631 46.8169L545.207 2.93652L553.401 3.30223L572.256 49.0218L562.216 48.5766L557.366 35.8826L561.119 38.7871L534.494 37.6052L538.554 35.0452L532.602 47.2568L522.626 46.8169H522.631ZM548.811 13.5369L539.752 32.6177L538.146 30.1266L558.161 31.017L556.592 33.365L549.066 13.5475L548.811 13.5369ZM575.918 49.2921L578.802 4.54778L599.686 5.89403C604.722 6.21734 608.464 7.6802 610.908 10.2826C613.351 12.885 614.438 16.2983 614.168 20.5332C613.897 24.7204 612.381 27.9694 609.62 30.2803C606.858 32.5912 602.957 33.577 597.921 33.2537L586.938 32.5435L585.815 49.9334L575.913 49.2974L575.918 49.2921ZM587.437 24.8582L597.147 25.4836C599.517 25.6373 601.319 25.2239 602.549 24.238C603.778 23.2575 604.457 21.8105 604.579 19.9078C604.701 18.005 604.213 16.4944 603.116 15.3814C602.019 14.2684 600.285 13.6376 597.916 13.4839L588.205 12.8585L587.431 24.8529L587.437 24.8582ZM618.541 52.1224L622.325 7.44169L643.178 9.20666C648.203 9.63068 651.919 11.173 654.309 13.8178C656.7 16.4679 657.717 19.9078 657.362 24.132C657.007 28.3139 655.427 31.5311 652.618 33.7837C649.809 36.0363 645.892 36.9479 640.861 36.5239L629.895 35.5964L628.421 52.9599L618.535 52.1224H618.541ZM630.552 27.927L640.247 28.7485C642.611 28.9499 644.423 28.5683 645.674 27.6143C646.925 26.6549 647.63 25.2292 647.795 23.3264C647.954 21.4236 647.498 19.9078 646.427 18.7735C645.351 17.6393 643.634 16.9715 641.264 16.7701L631.569 15.9485L630.552 27.927ZM661.147 55.8962L665.631 11.279L675.506 12.2702L671.022 56.8873L661.147 55.8962ZM679.879 57.7247L685.185 13.203L692.511 14.0775L713.035 47.718L711.328 47.5165L714.996 16.7595L724.155 17.8513L718.849 62.3783L711.524 61.5038L691.063 27.8687L692.707 28.0648L689.039 58.8219L679.879 57.73V57.7247ZM727.563 63.5815L734.051 19.2134L764.89 23.7186L763.777 31.335L742.315 28.1973L740.799 38.5804L760.751 41.4955L759.627 49.1755L739.675 46.2604L738.059 57.3378L759.521 60.4755L758.408 68.0919L727.569 63.5868L727.563 63.5815ZM780.193 72.5176C776.642 71.8975 773.398 70.8745 770.461 69.4594C767.525 68.0389 765.102 66.3694 763.205 64.4454L767.424 57.306C768.675 58.5145 770.037 59.5957 771.505 60.5391C772.974 61.4879 774.559 62.2882 776.25 62.9507C777.94 63.6133 779.748 64.1115 781.672 64.4507C784.678 64.9754 786.898 64.8906 788.335 64.1963C789.771 63.502 790.609 62.4419 790.858 61.0215C791.086 59.7282 790.832 58.6576 790.095 57.8201C789.358 56.9827 787.906 56.1135 785.738 55.2177L778.608 52.4192C774.702 50.8769 771.924 48.9264 770.271 46.5678C768.617 44.2145 768.081 41.363 768.664 38.0239C769.163 35.183 770.345 32.8509 772.216 31.0276C774.087 29.2043 776.488 27.9429 779.43 27.2539C782.372 26.5648 785.679 26.5383 789.353 27.185C792.485 27.7309 795.332 28.6849 797.892 30.0365C800.452 31.388 802.466 33.0311 803.94 34.971L799.805 41.6068C798.332 39.9266 796.604 38.5592 794.616 37.5045C792.628 36.4444 790.339 35.6918 787.747 35.236C785.033 34.759 782.87 34.8756 781.259 35.5858C779.647 36.296 778.698 37.4833 778.407 39.1528C778.19 40.4037 778.449 41.4955 779.191 42.423C779.933 43.3506 781.37 44.2357 783.506 45.0837L790.524 47.7975C794.515 49.3557 797.341 51.2956 799 53.6065C800.659 55.9227 801.205 58.7053 800.638 61.9649C800.155 64.721 798.994 66.9948 797.15 68.781C795.311 70.5671 792.941 71.8021 790.047 72.4752C787.153 73.1483 783.867 73.1695 780.193 72.5282V72.5176ZM820.865 80.3619C817.34 79.6146 814.133 78.475 811.249 76.9539C808.366 75.4274 806.007 73.6731 804.178 71.6802L808.657 64.6998C809.866 65.956 811.186 67.0796 812.622 68.0813C814.059 69.0778 815.607 69.9417 817.276 70.6625C818.941 71.3887 820.732 71.9505 822.64 72.3533C825.625 72.9893 827.851 72.984 829.309 72.3427C830.766 71.7014 831.646 70.6731 831.948 69.2633C832.224 67.9806 832.007 66.8994 831.302 66.0355C830.597 65.1715 829.176 64.2493 827.045 63.2741L820.022 60.2211C816.174 58.5357 813.47 56.4845 811.901 54.0729C810.332 51.656 809.903 48.7939 810.608 45.476C811.207 42.6563 812.474 40.3666 814.409 38.6122C816.343 36.8578 818.792 35.6865 821.755 35.1035C824.718 34.5204 828.026 34.6158 831.678 35.395C834.789 36.0575 837.599 37.1069 840.111 38.5539C842.624 40.0009 844.574 41.7128 845.974 43.7004L841.601 50.1825C840.191 48.4547 838.51 47.0236 836.565 45.8947C834.614 44.7657 832.357 43.9283 829.786 43.3771C827.088 42.8047 824.925 42.8418 823.292 43.4937C821.66 44.1456 820.663 45.2958 820.313 46.9547C820.048 48.2003 820.271 49.2974 820.976 50.2514C821.686 51.2055 823.086 52.1436 825.19 53.0659L832.102 56.034C836.03 57.7353 838.786 59.7759 840.36 62.1451C841.935 64.5196 842.38 67.3234 841.691 70.5565C841.108 73.2914 839.862 75.5228 837.959 77.2401C836.056 78.9574 833.644 80.1022 830.724 80.6746C827.803 81.2471 824.522 81.141 820.87 80.3672L820.865 80.3619ZM853.548 60.8943L850.644 57.0781C852.456 55.9598 853.824 54.8414 854.741 53.7178C855.658 52.5941 856.299 51.3115 856.665 49.8751L858.261 52.6418L851.29 50.8822L853.781 41.0185L863.832 43.5573L862.225 49.9069C861.632 52.2496 860.683 54.2849 859.374 56.0075C858.064 57.73 856.119 59.3625 853.543 60.8996L853.548 60.8943ZM866.932 64.2758L864.028 60.4596C865.84 59.3413 867.208 58.223 868.125 57.0993C869.042 55.9757 869.683 54.693 870.049 53.2567L871.645 56.0234L864.674 54.2637L867.165 44.3947L877.216 46.9335L875.609 53.2832C875.016 55.6259 874.067 57.6611 872.758 59.3837C871.448 61.1063 869.503 62.7387 866.927 64.2758H866.932ZM227.441 129.977C223.852 130.311 220.455 130.179 217.248 129.58C214.041 128.981 211.269 128.005 208.926 126.643L211.125 118.645C212.652 119.483 214.248 120.166 215.912 120.691C217.576 121.221 219.315 121.582 221.122 121.772C222.93 121.969 224.801 121.974 226.746 121.794C229.789 121.513 231.909 120.85 233.107 119.801C234.31 118.751 234.846 117.511 234.713 116.075C234.591 114.766 234.066 113.801 233.139 113.186C232.211 112.571 230.579 112.115 228.252 111.819L220.635 110.992C216.463 110.525 213.267 109.375 211.051 107.536C208.836 105.697 207.574 103.089 207.261 99.713C206.996 96.8403 207.526 94.2803 208.851 92.0277C210.177 89.7751 212.164 87.9306 214.825 86.4943C217.481 85.0579 220.667 84.1675 224.382 83.8229C227.547 83.5314 230.547 83.701 233.372 84.3318C236.197 84.9625 238.577 86.0225 240.501 87.5066L238.254 94.9958C236.393 93.7608 234.363 92.8969 232.169 92.3987C229.974 91.9005 227.563 91.768 224.949 92.0118C222.204 92.2662 220.147 92.9446 218.785 94.0523C217.417 95.1601 216.813 96.554 216.967 98.2448C217.083 99.5116 217.624 100.497 218.578 101.192C219.538 101.891 221.154 102.368 223.439 102.628L230.923 103.407C235.18 103.868 238.418 104.992 240.629 106.789C242.839 108.586 244.095 111.13 244.403 114.426C244.662 117.214 244.138 119.711 242.828 121.916C241.519 124.126 239.558 125.933 236.945 127.348C234.331 128.763 231.162 129.638 227.446 129.982L227.441 129.977ZM274.372 126.177C269.591 126.521 265.42 125.864 261.858 124.205C258.296 122.546 255.47 120.06 253.382 116.748C251.293 113.435 250.085 109.428 249.746 104.732C249.406 100.036 250.037 95.9127 251.633 92.3563C253.228 88.7998 255.666 85.943 258.958 83.7965C262.25 81.6499 266.284 80.4043 271.059 80.0598C274.144 79.8372 276.991 80.0704 279.588 80.7541C282.191 81.4379 284.433 82.5456 286.33 84.0668L283.781 92.0913C281.724 90.7079 279.8 89.7645 277.998 89.2557C276.196 88.7468 274.197 88.5719 271.998 88.7309C267.81 89.0331 264.693 90.4959 262.653 93.1301C260.612 95.7643 259.753 99.3844 260.082 103.996C260.411 108.607 261.778 112.078 264.174 114.416C266.575 116.753 269.867 117.771 274.054 117.469C276.254 117.31 278.21 116.854 279.917 116.091C281.623 115.333 283.399 114.119 285.239 112.46L288.907 120.039C287.247 121.772 285.175 123.177 282.705 124.248C280.229 125.318 277.447 125.965 274.362 126.182L274.372 126.177ZM295.93 123.999L293.661 79.2171L303.573 78.7135L304.485 96.6918L325.004 95.653L324.092 77.6747L334.068 77.1712L336.336 121.953L326.361 122.456L325.417 103.842L304.898 104.881L305.842 123.495L295.93 123.999ZM343.185 99.1935C343.047 94.5294 343.805 90.4482 345.464 86.9395C347.118 83.436 349.572 80.6799 352.827 78.6711C356.076 76.6677 359.966 75.597 364.504 75.4645C369.041 75.332 372.99 76.1695 376.351 77.9768C379.711 79.7842 382.346 82.3919 384.249 85.7946C386.151 89.1974 387.169 93.2043 387.307 97.8261C387.445 102.533 386.666 106.635 384.964 110.144C383.263 113.653 380.787 116.419 377.543 118.444C374.294 120.469 370.403 121.55 365.866 121.682C361.329 121.815 357.39 120.967 354.051 119.138C350.706 117.31 348.098 114.681 346.211 111.257C344.33 107.833 343.317 103.815 343.185 99.1935ZM353.547 98.8861C353.685 103.508 354.756 107.091 356.76 109.64C358.763 112.19 361.716 113.409 365.617 113.292C369.433 113.181 372.296 111.792 374.209 109.126C376.123 106.46 377.013 102.819 376.875 98.1971C376.738 93.5329 375.646 89.95 373.6 87.443C371.554 84.936 368.601 83.7435 364.742 83.8548C360.841 83.9714 357.968 85.3388 356.113 87.9571C354.258 90.5807 353.404 94.222 353.542 98.8808L353.547 98.8861ZM395.544 120.251L395.009 75.4168L404.932 75.3002L405.366 111.808L425.593 111.564L425.694 119.896L395.544 120.257V120.251ZM425.508 119.827L446.319 75.0776L454.524 75.1147L475.186 120.05L465.136 120.007L459.788 107.515L463.657 110.266L437.006 110.144L440.96 107.425L435.495 119.864L425.508 119.822V119.827ZM450.342 85.5296L442.052 104.955L440.345 102.533L460.381 102.623L458.908 105.034L450.596 85.5349H450.342V85.5296ZM478.864 120.161L479.903 75.332L500.252 75.8037C505.298 75.9203 509.168 77.2083 511.871 79.6676C514.569 82.1269 515.873 85.4978 515.772 89.7804C515.709 92.5789 515.025 94.9693 513.726 96.9516C512.428 98.9338 510.615 100.444 508.277 101.467C505.94 102.496 503.162 102.973 499.94 102.898L500.735 101.515L503.343 101.573C505.166 101.616 506.777 102.14 508.171 103.147C509.571 104.155 510.71 105.601 511.601 107.488L517.967 121.057L507.032 120.802L500.433 106.206C499.95 104.965 499.176 104.128 498.105 103.704C497.035 103.275 495.8 103.047 494.4 103.015L489.185 102.893L488.782 120.378L478.864 120.151V120.161ZM489.359 95.7855L498.074 95.9869C500.66 96.0452 502.643 95.5629 504.026 94.5347C505.405 93.5064 506.12 91.9535 506.168 89.8758C506.216 87.7981 505.574 86.2239 504.244 85.1533C502.908 84.0827 500.952 83.5208 498.365 83.4572L489.651 83.2558L489.359 95.7802V95.7855ZM539.684 122.652C536.084 122.504 532.729 121.921 529.634 120.903C526.533 119.886 523.914 118.545 521.778 116.886L525.022 109.253C526.421 110.287 527.911 111.177 529.496 111.919C531.075 112.661 532.75 113.255 534.515 113.684C536.281 114.119 538.136 114.373 540.086 114.453C543.134 114.58 545.329 114.204 546.659 113.324C547.99 112.444 548.684 111.283 548.742 109.847C548.795 108.533 548.403 107.51 547.565 106.773C546.728 106.036 545.175 105.368 542.906 104.769L535.47 102.935C531.393 101.918 528.383 100.354 526.432 98.2342C524.481 96.1194 523.575 93.3633 523.718 89.9765C523.835 87.0985 524.704 84.6286 526.315 82.5721C527.927 80.5156 530.148 78.9521 532.968 77.8814C535.793 76.8108 539.069 76.3497 542.795 76.5034C545.975 76.6359 548.917 77.203 551.636 78.2047C554.356 79.2065 556.566 80.5739 558.278 82.2965L555.055 89.42C553.375 87.9518 551.477 86.8229 549.368 86.0331C547.258 85.2487 544.889 84.7982 542.26 84.6922C539.503 84.5809 537.378 84.9784 535.878 85.8953C534.378 86.8123 533.588 88.1161 533.519 89.8069C533.466 91.0789 533.869 92.1231 534.727 92.9446C535.586 93.7661 537.129 94.4552 539.355 95.0117L546.664 96.7766C550.825 97.7996 553.879 99.342 555.829 101.42C557.78 103.497 558.691 106.185 558.554 109.487C558.437 112.285 557.584 114.686 555.999 116.7C554.409 118.714 552.225 120.246 549.442 121.301C546.659 122.355 543.405 122.801 539.678 122.652H539.684ZM565.111 123.044L567.846 78.2895L577.747 78.8938L576.65 96.8615L597.158 98.1123L598.255 80.1446L608.22 80.7541L605.491 125.509L595.52 124.9L596.654 106.301L576.146 105.05L575.012 123.649L565.105 123.044H565.111ZM614.374 126.24L617.814 81.5333L627.711 82.2965L624.271 127.004L614.374 126.24ZM633.176 127.661L637.289 83.012L658.126 84.9307C663.151 85.3918 666.85 86.9607 669.225 89.6267C671.6 92.2927 672.591 95.7378 672.199 99.9621C671.812 104.144 670.211 107.345 667.386 109.577C664.56 111.808 660.638 112.693 655.613 112.227L644.657 111.22L643.056 128.573L633.176 127.661ZM645.362 103.556L655.051 104.451C657.415 104.669 659.228 104.303 660.484 103.354C661.741 102.405 662.461 100.98 662.636 99.0822C662.811 97.1848 662.366 95.6636 661.301 94.5188C660.235 93.3792 658.518 92.6955 656.154 92.4782L646.464 91.5878L645.362 103.556ZM222.373 187.14L222.792 184.453L232.916 175.236C234.125 174.144 235.047 173.153 235.673 172.267C236.303 171.382 236.706 170.418 236.897 169.368C237.109 168.017 236.849 166.999 236.128 166.315C235.407 165.632 234.289 165.287 232.778 165.287C231.522 165.287 230.314 165.489 229.148 165.897C227.981 166.305 226.831 166.951 225.691 167.837L224.504 165.112C225.623 164.206 226.964 163.496 228.538 162.982C230.107 162.467 231.665 162.213 233.197 162.213C234.968 162.213 236.436 162.499 237.613 163.066C238.789 163.639 239.627 164.45 240.125 165.51C240.623 166.57 240.761 167.842 240.528 169.331C240.295 170.821 239.733 172.188 238.832 173.434C237.936 174.679 236.706 175.978 235.148 177.324L226.418 185.073L226.381 184.098H239.123L238.667 187.135H222.363L222.373 187.14ZM251.564 187.453C250.493 187.453 249.454 187.336 248.442 187.103C247.429 186.87 246.502 186.541 245.664 186.106C244.827 185.677 244.127 185.158 243.57 184.553L244.896 181.797C245.871 182.656 246.926 183.303 248.055 183.737C249.184 184.166 250.387 184.384 251.67 184.384C253.276 184.384 254.612 183.981 255.688 183.181C256.758 182.38 257.421 181.209 257.675 179.672C257.909 178.161 257.638 176.942 256.875 176.025C256.106 175.108 254.94 174.647 253.382 174.647C252.263 174.647 251.235 174.87 250.292 175.31C249.348 175.75 248.468 176.428 247.657 177.334H245.145L247.482 162.531H262.393L261.868 165.568H250.451L249.057 174.472H248.081C248.85 173.54 249.788 172.84 250.891 172.358C251.993 171.881 253.191 171.642 254.469 171.642C256.006 171.642 257.32 171.976 258.412 172.638C259.504 173.301 260.304 174.25 260.803 175.485C261.301 176.72 261.412 178.198 261.137 179.916C260.903 181.474 260.363 182.82 259.515 183.949C258.667 185.078 257.564 185.947 256.218 186.552C254.866 187.156 253.318 187.458 251.574 187.458L251.564 187.453ZM271.081 177.26C269.104 177.26 267.63 176.566 266.665 175.183C265.7 173.799 265.404 171.859 265.775 169.368C266.146 167.11 266.957 165.356 268.202 164.095C269.448 162.838 270.99 162.208 272.83 162.208C274.833 162.208 276.302 162.897 277.245 164.269C278.189 165.642 278.459 167.577 278.067 170.063C277.717 172.299 276.932 174.054 275.708 175.336C274.489 176.619 272.946 177.255 271.081 177.255V177.26ZM271.181 174.886C272.204 174.886 273.052 174.467 273.731 173.63C274.404 172.792 274.881 171.525 275.162 169.824C275.417 168.033 275.321 166.713 274.865 165.86C274.409 165.011 273.673 164.587 272.65 164.587C271.627 164.587 270.821 164.996 270.169 165.812C269.517 166.628 269.05 167.884 268.775 169.58C268.494 171.372 268.579 172.707 269.019 173.577C269.459 174.451 270.185 174.886 271.181 174.886ZM272.268 187.14H269.019L287.311 162.526H290.592L272.263 187.14H272.268ZM286.792 187.453C284.788 187.453 283.309 186.758 282.355 185.375C281.401 183.992 281.12 182.052 281.517 179.561C281.889 177.303 282.689 175.548 283.908 174.287C285.127 173.025 286.659 172.4 288.498 172.4C290.502 172.4 291.986 173.094 292.951 174.478C293.916 175.861 294.202 177.79 293.804 180.255C293.433 182.492 292.633 184.246 291.414 185.529C290.195 186.811 288.652 187.447 286.786 187.447L286.792 187.453ZM286.929 185.078C287.952 185.078 288.795 184.659 289.463 183.822C290.126 182.985 290.587 181.718 290.841 180.016C291.143 178.246 291.064 176.932 290.597 176.073C290.131 175.214 289.389 174.78 288.361 174.78C287.332 174.78 286.527 175.188 285.864 176.004C285.201 176.82 284.73 178.077 284.449 179.773C284.194 181.585 284.29 182.926 284.746 183.785C285.201 184.643 285.928 185.078 286.929 185.078ZM307.702 174.329C308.121 171.748 308.911 169.554 310.077 167.746C311.243 165.944 312.738 164.572 314.562 163.628C316.39 162.685 318.452 162.213 320.758 162.213C323.297 162.213 325.359 162.764 326.954 163.872C328.55 164.98 329.658 166.522 330.288 168.499C330.919 170.476 331.02 172.745 330.601 175.305C330.204 177.886 329.419 180.08 328.242 181.887C327.066 183.689 325.571 185.073 323.758 186.027C321.945 186.981 319.873 187.458 317.546 187.458C315.033 187.458 312.971 186.907 311.365 185.799C309.759 184.696 308.646 183.154 308.031 181.172C307.416 179.195 307.305 176.91 307.697 174.329H307.702ZM311.439 174.679C311.137 176.704 311.18 178.432 311.561 179.863C311.943 181.294 312.664 182.396 313.724 183.159C314.784 183.928 316.152 184.31 317.827 184.31C320.339 184.31 322.364 183.477 323.901 181.813C325.438 180.149 326.424 177.864 326.87 174.955C327.193 172.951 327.156 171.239 326.748 169.803C326.339 168.367 325.613 167.269 324.564 166.506C323.514 165.738 322.157 165.356 320.477 165.356C317.964 165.356 315.95 166.178 314.439 167.815C312.924 169.458 311.927 171.743 311.434 174.674L311.439 174.679ZM333.713 187.14L337.624 162.526H353.404L352.917 165.425H340.768L339.543 173.317H350.892L350.436 176.216H339.087L337.344 187.145H333.713V187.14ZM368.734 187.14L372.158 165.563H363.746L364.233 162.526H384.694L384.206 165.563H375.789L372.37 187.14H368.739H368.734ZM384.164 187.14L388.076 162.526H391.706L390.031 173.137H403.856L405.53 162.526H409.161L405.25 187.14H401.619L403.362 176.179H389.539L387.795 187.14H384.164ZM411.048 187.14L414.96 162.526H431.09L430.634 165.425H417.997L416.778 173.174H428.615L428.159 176.105H416.323L415.029 184.204H427.634L427.178 187.135H411.048V187.14ZM441.002 187.14L444.914 162.526H447.707L459.544 182.529L458.812 182.354L461.955 162.526H465.343L461.431 187.14H458.674L446.806 167.137L447.538 167.312L444.395 187.14H441.007H441.002ZM467.187 187.14L471.099 162.526H487.229L486.773 165.425H474.136L472.917 173.174H484.753L484.298 176.105H472.461L471.168 184.204H483.773L483.317 187.135H467.187V187.14ZM493.409 187.14L496.833 165.563H488.421L488.909 162.526H509.369L508.882 165.563H500.47L497.045 187.14H493.415H493.409ZM524.063 187.14L527.487 165.563H519.075L519.562 162.526H540.023L539.535 165.563H531.123L527.699 187.14H524.068H524.063ZM549.755 187.453C547.592 187.453 545.785 187.076 544.343 186.318C542.901 185.56 541.883 184.416 541.29 182.879C540.696 181.341 540.574 179.433 540.924 177.154L543.261 162.526H546.892L544.555 177.186C544.184 179.561 544.422 181.341 545.27 182.529C546.118 183.716 547.73 184.31 550.104 184.31C552.198 184.31 553.863 183.753 555.098 182.635C556.333 181.516 557.144 179.693 557.541 177.154L559.879 162.526H563.441L561.066 177.361C560.716 179.667 560.064 181.564 559.11 183.053C558.156 184.543 556.9 185.651 555.342 186.371C553.783 187.092 551.917 187.453 549.755 187.453ZM565.153 187.14L569.065 162.526H572.696L568.784 187.14H565.153ZM580.482 187.14L583.906 165.563H575.494L575.982 162.526H596.442L595.955 165.563H587.543L584.124 187.14H580.493H580.482ZM595.912 187.14L599.824 162.526H603.455L599.543 187.14H595.912ZM606.524 174.329C606.943 171.748 607.733 169.554 608.899 167.746C610.065 165.944 611.56 164.572 613.383 163.628C615.207 162.685 617.274 162.213 619.58 162.213C622.119 162.213 624.18 162.764 625.776 163.872C627.371 164.98 628.479 166.522 629.11 168.499C629.741 170.476 629.842 172.745 629.423 175.305C629.025 177.886 628.241 180.08 627.064 181.887C625.887 183.689 624.392 185.073 622.58 186.027C620.767 186.981 618.694 187.458 616.367 187.458C613.855 187.458 611.793 186.907 610.187 185.799C608.581 184.696 607.468 183.154 606.853 181.172C606.238 179.195 606.127 176.91 606.524 174.329ZM610.261 174.679C609.959 176.704 610.001 178.432 610.383 179.863C610.765 181.294 611.486 182.396 612.546 183.159C613.606 183.923 614.973 184.31 616.648 184.31C619.161 184.31 621.186 183.477 622.723 181.813C624.26 180.149 625.246 177.864 625.691 174.955C626.015 172.951 625.977 171.239 625.569 169.803C625.161 168.372 624.435 167.269 623.385 166.506C622.336 165.738 620.979 165.356 619.299 165.356C616.786 165.356 614.772 166.178 613.256 167.815C611.74 169.453 610.743 171.743 610.256 174.674L610.261 174.679ZM632.534 187.14L636.446 162.526H639.239L651.076 182.529L650.344 182.354L653.488 162.526H656.875L652.963 187.14H650.206L638.338 167.137L639.07 167.312L635.927 187.14H632.54H632.534Z" fill="url(#paint0_linear_508_558)"/>
<defs>
<linearGradient id="paint0_linear_508_558" x1="0.198469" y1="93.729" x2="877.216" y2="93.729" gradientUnits="userSpaceOnUse">
<stop stop-color="#F9D16F"/>
<stop offset="0.07" stop-color="#EEBE5C"/>
<stop offset="0.18" stop-color="#E0A341"/>
<stop offset="0.25" stop-color="#DB9A38"/>
<stop offset="0.3" stop-color="#DDA044"/>
<stop offset="0.4" stop-color="#E5B365"/>
<stop offset="0.52" stop-color="#F1D19B"/>
<stop offset="0.64" stop-color="#FFF1D5"/>
<stop offset="0.66" stop-color="#FEEBC4"/>
<stop offset="0.68" stop-color="#FCE3AA"/>
<stop offset="0.71" stop-color="#FBDC94"/>
<stop offset="0.74" stop-color="#FAD783"/>
<stop offset="0.78" stop-color="#F9D377"/>
<stop offset="0.84" stop-color="#F9D170"/>
<stop offset="1" stop-color="#F9D16F"/>
</linearGradient>
</defs>
</svg>
