<svg width="751" height="188" viewBox="0 0 751 188" fill="none" xmlns="http://www.w3.org/2000/svg">
<path d="M2.20456 51.4023L0.990723 44.9625C0.540171 42.588 0.545471 40.3302 1.00662 38.1942C1.46778 36.0582 2.5438 33.7526 4.23469 31.2774L8.49108 33.583C7.30904 35.3162 6.52456 36.8903 6.14291 38.3002C5.76127 39.71 5.71356 41.1623 5.9945 42.6623L3.37069 40.7648L10.4364 39.4344L12.334 49.4995L2.20986 51.4076L2.20456 51.4023ZM15.7688 48.8476L14.555 42.4078C14.1097 40.0333 14.115 37.7755 14.5709 35.6395C15.032 33.5035 16.108 31.1979 17.7989 28.7227L22.05 31.0283C20.868 32.7615 20.0835 34.3356 19.7019 35.7455C19.3202 37.1554 19.2725 38.6076 19.5534 40.1076L16.9296 38.2101L23.9954 36.8797L25.893 46.9395L15.7688 48.8476ZM50.9277 68.999L28.5963 26.9896L38.7257 25.4843L55.0834 58.0276L52.3801 58.4304L59.5518 22.3837L66.7235 21.3183L83.0812 53.8616L80.5634 54.2379L87.4224 18.2336L96.9211 16.8185L87.6715 63.5292L79.6835 64.7164L64.105 34.818L65.5521 34.6006L58.9846 67.7958L50.933 68.9937L50.9277 68.999ZM109.028 60.8102L103.913 16.2619L134.879 12.7055L135.759 20.3537L114.212 22.8289L115.41 33.2544L135.441 30.9541L136.326 38.6606L116.295 40.9609L117.572 52.0807L139.119 49.6055L139.999 57.2537L109.033 60.8102H109.028ZM146.673 56.5912L142.443 11.9529L152.323 11.0147L155.768 47.3582L175.905 45.4502L176.69 53.745L146.673 56.5912ZM182.521 53.2786L179.086 8.57134L188.982 7.81341L191.781 44.2152L211.95 42.6676L212.586 50.973L182.526 53.2839L182.521 53.2786ZM233.83 50.3741C230.231 50.5861 226.839 50.3422 223.653 49.6373C220.468 48.9324 217.727 47.8671 215.437 46.4307L217.897 38.5122C219.392 39.4026 220.966 40.134 222.614 40.7171C224.263 41.3001 225.986 41.7188 227.788 41.9732C229.585 42.2277 231.461 42.2965 233.406 42.1799C236.454 41.9997 238.596 41.4061 239.831 40.3991C241.066 39.392 241.644 38.1677 241.559 36.7313C241.479 35.4222 240.986 34.4416 240.08 33.795C239.168 33.1484 237.557 32.6396 235.24 32.2633L227.661 31.182C223.505 30.5778 220.351 29.3216 218.199 27.4083C216.047 25.4949 214.87 22.8501 214.669 19.4633C214.499 16.5852 215.114 14.0411 216.513 11.8363C217.913 9.63137 219.964 7.8505 222.667 6.50425C225.371 5.15799 228.583 4.36826 232.309 4.15095C235.484 3.96545 238.474 4.23047 241.278 4.9566C244.082 5.68272 246.419 6.81696 248.296 8.36462L245.804 15.7743C243.986 14.4811 241.988 13.5482 239.81 12.9758C237.631 12.4034 235.23 12.1967 232.606 12.3504C229.855 12.5147 227.777 13.1242 226.372 14.1842C224.968 15.2443 224.316 16.6224 224.417 18.3131C224.491 19.5852 225 20.5816 225.933 21.313C226.871 22.0445 228.472 22.5745 230.74 22.9084L238.193 23.9313C242.433 24.5302 245.63 25.7652 247.776 27.6309C249.928 29.5019 251.1 32.083 251.296 35.3851C251.46 38.1783 250.856 40.6588 249.473 42.8213C248.094 44.9837 246.07 46.7275 243.409 48.0526C240.748 49.3776 237.551 50.1514 233.83 50.3741ZM259.178 48.254L257.349 3.45132L278.26 2.598C283.301 2.39129 287.176 3.45664 289.879 5.78343C292.582 8.11552 294.024 11.3964 294.194 15.6312C294.363 19.8237 293.197 23.2158 290.695 25.8023C288.188 28.3888 284.419 29.7827 279.373 29.9895L268.38 30.44L269.09 47.8512L259.178 48.254ZM268.072 22.7494L277.794 22.3519C280.168 22.2565 281.912 21.6522 283.036 20.5445C284.16 19.4367 284.679 17.9315 284.605 16.0234C284.525 14.1154 283.884 12.6684 282.676 11.6773C281.467 10.6861 279.675 10.2409 277.306 10.3363L267.585 10.7338L268.072 22.7441V22.7494ZM301.89 46.5844L300.878 1.75528L321.227 1.29417C326.273 1.18286 330.201 2.29059 333.01 4.62268C335.819 6.95477 337.272 10.2621 337.367 14.5447C337.431 17.3432 336.858 19.7654 335.655 21.8059C334.452 23.8465 332.703 25.4366 330.418 26.5708C328.134 27.7051 325.377 28.3093 322.154 28.3782L322.886 26.9631L325.494 26.9047C327.317 26.8623 328.95 27.3129 330.392 28.2563C331.833 29.1997 333.042 30.5937 334.017 32.4381L340.998 45.7046L330.063 45.9537L322.806 31.6749C322.271 30.4559 321.455 29.6609 320.368 29.2792C319.276 28.9029 318.036 28.728 316.636 28.7598L311.421 28.8764L311.818 46.3618L301.896 46.5844H301.89ZM311.256 21.7529L319.971 21.5568C322.557 21.4985 324.513 20.9261 325.849 19.8343C327.179 18.7424 327.826 17.163 327.778 15.0853C327.731 13.0076 327.015 11.4653 325.637 10.4582C324.259 9.45117 322.271 8.97415 319.69 9.03246L310.975 9.22856L311.256 21.7529ZM346.776 45.7152L346.341 0.875432L356.264 0.780032L356.698 45.6198L346.776 45.7152ZM365.641 45.4926L365.805 0.652832L373.183 0.679327L397.434 31.7438H395.716L395.828 0.764148L405.051 0.795948L404.886 45.6357L397.508 45.6092L373.321 14.5447H374.975L374.864 45.5244L365.641 45.4926ZM435.964 46.9607C430.833 46.8441 426.539 45.8053 423.089 43.8389C419.633 41.8725 417.056 39.1429 415.355 35.6448C413.654 32.152 412.853 28.092 412.959 23.4702C413.065 18.7212 414.125 14.6348 416.134 11.2003C418.143 7.77102 420.99 5.14212 424.679 3.31355C428.368 1.49027 432.757 0.636928 437.845 0.748232C441.111 0.822435 443.973 1.29946 446.432 2.1846C448.892 3.06973 451.039 4.29408 452.867 5.86294L449.512 13.4846C448.176 12.4776 446.925 11.6773 445.749 11.0783C444.577 10.4794 443.353 10.0501 442.086 9.78508C440.819 9.52537 439.361 9.37167 437.708 9.33457C433.043 9.22857 429.508 10.4105 427.096 12.8804C424.684 15.3503 423.428 18.9809 423.316 23.767C423.21 28.516 424.228 32.1414 426.375 34.6537C428.522 37.1607 431.951 38.4698 436.658 38.5758C438.227 38.6129 439.838 38.5016 441.503 38.2419C443.162 37.9822 444.805 37.5741 446.427 37.0175L444.561 40.7913L444.837 28.7121L434.978 28.4895L435.137 21.4296L453.196 21.843L452.692 43.8442C450.418 44.8936 447.805 45.694 444.842 46.2399C441.879 46.7858 438.916 47.0296 435.948 46.9607H435.964ZM478.771 47.5808L481.04 2.79941L490.952 3.30293L490.041 21.2812L510.559 22.3201L511.471 4.34179L521.447 4.84528L519.178 49.6267L509.202 49.1232L510.146 30.5142L489.627 29.4754L488.684 48.0897L478.771 47.5861V47.5808ZM528.332 27.6733C528.671 23.0197 529.848 19.0392 531.857 15.716C533.866 12.3981 536.585 9.907 540.025 8.24804C543.465 6.58907 547.446 5.92124 551.973 6.25515C556.5 6.58377 560.342 7.82402 563.502 9.9706C566.661 12.1172 569.014 14.9793 570.557 18.5569C572.099 22.1345 572.703 26.2316 572.37 30.8375C572.025 35.5335 570.827 39.5351 568.781 42.8531C566.73 46.171 563.984 48.6674 560.549 50.3476C557.109 52.033 553.128 52.7062 548.602 52.3722C544.075 52.0383 540.243 50.7928 537.11 48.6303C533.972 46.4678 531.645 43.5845 530.124 39.9857C528.602 36.3868 528.009 32.2844 528.348 27.6733H528.332ZM538.668 28.4312C538.329 33.0424 539.029 36.7154 540.762 39.4556C542.495 42.1959 545.31 43.7117 549.201 43.9979C553.006 44.2788 555.996 43.187 558.174 40.733C560.353 38.279 561.609 34.7438 561.949 30.1379C562.288 25.4843 561.572 21.8113 559.791 19.1082C558.01 16.405 555.196 14.9157 551.347 14.6295C547.457 14.3433 544.457 15.4139 542.342 17.8308C540.227 20.2477 539.002 23.7829 538.663 28.4365L538.668 28.4312ZM578.179 53.9464L582.536 9.31865L589.877 10.0342L611.112 43.2294L609.4 43.0651L612.41 12.2391L621.591 13.1348L617.234 57.7625L609.893 57.047L588.722 23.8571L590.37 24.0161L587.36 54.8421L578.179 53.9464ZM627.464 36.2649C628.042 31.6378 629.42 27.721 631.598 24.5091C633.772 21.2971 636.623 18.9544 640.143 17.4704C643.663 15.9863 647.67 15.5305 652.175 16.0923C656.676 16.6542 660.45 18.0905 663.498 20.3961C666.545 22.7017 668.745 25.6804 670.102 29.3322C671.459 32.9841 671.851 37.1076 671.279 41.6923C670.696 46.3618 669.291 50.2998 667.075 53.5065C664.855 56.7131 661.987 59.0664 658.467 60.5663C654.948 62.0716 650.935 62.538 646.43 61.9762C641.929 61.4144 638.166 59.9674 635.145 57.6459C632.123 55.3244 629.945 52.3245 628.609 48.6568C627.273 44.9838 626.892 40.8549 627.469 36.2702L627.464 36.2649ZM637.752 37.5529C637.18 42.1375 637.684 45.8477 639.279 48.6727C640.869 51.4977 643.599 53.1567 647.469 53.639C651.253 54.116 654.301 53.1779 656.601 50.8405C658.902 48.4978 660.338 45.0367 660.916 40.4521C661.494 35.825 660.969 32.1148 659.331 29.3269C657.693 26.539 654.958 24.9013 651.131 24.4242C647.262 23.9419 644.209 24.8483 641.977 27.1539C639.746 29.4594 638.336 32.9258 637.758 37.5529H637.752ZM675.827 65.1086L682.76 20.8095L702.87 23.9578C707.858 24.7369 711.526 26.5231 713.88 29.3164C716.233 32.1096 717.076 35.6236 716.413 39.8532C715.979 42.6199 714.988 44.8989 713.445 46.6957C711.897 48.4925 709.899 49.7433 707.45 50.4588C705.001 51.1691 702.181 51.2751 698.996 50.7769L699.966 49.5101L702.542 49.9129C704.344 50.1939 705.871 50.9253 707.122 52.1125C708.372 53.2945 709.316 54.8792 709.952 56.8668L714.473 71.1562L703.666 69.4654L699.049 54.1319C698.736 52.8387 698.079 51.9111 697.072 51.344C696.064 50.7769 694.872 50.39 693.488 50.1726L688.336 49.367L685.633 66.6457L675.827 65.1139V65.1086ZM689.439 42.323L698.047 43.6693C700.602 44.0668 702.632 43.8495 704.137 43.0121C705.643 42.1746 706.554 40.7277 706.878 38.6765C707.201 36.6253 706.766 34.9823 705.59 33.742C704.408 32.5071 702.542 31.6855 699.987 31.288L691.379 29.9418L689.439 42.323ZM727.64 47.7186L724.497 44.0933C726.236 42.8637 727.524 41.6605 728.372 40.4786C729.214 39.2966 729.776 37.9822 730.047 36.5193L731.817 39.1747L724.751 37.8603L726.612 27.8535L736.805 29.7457L735.607 36.1854C735.167 38.5599 734.345 40.6535 733.147 42.4555C731.95 44.2629 730.116 46.012 727.64 47.708V47.7186ZM741.21 50.2416L738.066 46.6162C739.805 45.3865 741.093 44.1834 741.941 43.0015C742.784 41.8195 743.346 40.5051 743.616 39.0422L745.387 41.7029L738.321 40.3885L740.181 30.3817L750.374 32.2738L749.177 38.7136C748.737 41.0881 747.915 43.1817 746.717 44.9838C745.519 46.7911 743.685 48.5402 741.21 50.2362V50.2416ZM164.52 129.978C160.931 130.312 157.534 130.179 154.327 129.58C151.12 128.981 148.348 128.006 146.005 126.644L148.204 118.646C149.731 119.483 151.327 120.167 152.991 120.692C154.655 121.222 156.394 121.582 158.201 121.773C160.009 121.969 161.88 121.975 163.825 121.794C166.868 121.513 168.988 120.851 170.186 119.801C171.389 118.752 171.925 117.512 171.792 116.075C171.67 114.766 171.145 113.802 170.218 113.187C169.29 112.572 167.658 112.116 165.331 111.819L157.714 110.993C153.537 110.526 150.346 109.376 148.13 107.537C145.915 105.698 144.653 103.09 144.34 99.7137C144.075 96.841 144.605 94.281 145.93 92.0284C147.256 89.7758 149.243 87.9313 151.904 86.495C154.56 85.0586 157.746 84.1682 161.461 83.8236C164.626 83.5321 167.626 83.7018 170.451 84.3325C173.276 84.9632 175.651 86.0232 177.58 87.5073L175.333 94.9965C173.472 93.7615 171.442 92.8976 169.248 92.3994C167.053 91.9012 164.642 91.7687 162.028 92.0125C159.283 92.2669 157.226 92.9453 155.864 94.053C154.496 95.1608 153.892 96.5548 154.046 98.2455C154.162 99.5123 154.703 100.498 155.657 101.192C156.617 101.892 158.233 102.369 160.518 102.629L167.997 103.408C172.253 103.869 175.492 104.993 177.702 106.789C179.913 108.586 181.169 111.13 181.476 114.427C181.736 117.215 181.211 119.711 179.902 121.916C178.593 124.126 176.632 125.934 174.018 127.349C171.405 128.764 168.235 129.639 164.52 129.983V129.978ZM211.446 126.178C206.665 126.522 202.499 125.865 198.931 124.206C195.364 122.547 192.544 120.061 190.456 116.749C188.367 113.436 187.159 109.429 186.819 104.733C186.48 100.037 187.111 95.9134 188.706 92.357C190.302 88.8006 192.745 85.949 196.032 83.7972C199.323 81.6506 203.357 80.405 208.133 80.0605C211.218 79.8379 214.064 80.0711 216.662 80.7548C219.264 81.4386 221.507 82.5463 223.404 84.0675L220.855 92.092C218.798 90.7086 216.874 89.7652 215.072 89.2564C213.269 88.7475 211.271 88.5726 209.071 88.7316C204.884 89.0338 201.767 90.4966 199.726 93.1308C197.686 95.765 196.827 99.385 197.156 103.996C197.484 108.607 198.852 112.079 201.248 114.416C203.649 116.754 206.94 117.771 211.128 117.469C213.328 117.31 215.284 116.855 216.99 116.091C218.697 115.333 220.473 114.12 222.312 112.455L225.98 120.035C224.321 121.768 222.249 123.172 219.779 124.243C217.303 125.314 214.52 125.96 211.435 126.178H211.446ZM233.009 123.999L230.74 79.2178L240.652 78.7142L241.564 96.6926L262.083 95.6537L261.171 77.6754L271.147 77.1719L273.415 121.953L263.44 122.457L262.496 103.843L241.977 104.881L242.921 123.496L233.009 123.999ZM280.264 99.1942C280.126 94.5301 280.884 90.4489 282.543 86.9402C284.197 83.4367 286.651 80.6806 289.906 78.6719C293.16 76.6631 297.045 75.5977 301.583 75.4652C306.12 75.3327 310.069 76.1702 313.43 77.9775C316.79 79.7849 319.425 82.3926 321.328 85.7953C323.23 89.1981 324.248 93.205 324.386 97.8268C324.524 102.533 323.745 106.636 322.043 110.144C320.342 113.653 317.872 116.42 314.622 118.445C311.373 120.469 307.482 121.551 302.945 121.683C298.408 121.816 294.469 120.967 291.13 119.139C287.785 117.31 285.177 114.681 283.29 111.258C281.409 107.834 280.396 103.816 280.264 99.1942ZM290.626 98.8921C290.764 103.514 291.835 107.097 293.839 109.646C295.842 112.196 298.795 113.415 302.696 113.298C306.512 113.187 309.375 111.798 311.288 109.132C313.202 106.466 314.092 102.825 313.954 98.2031C313.817 93.5442 312.725 89.956 310.679 87.449C308.633 84.942 305.68 83.7494 301.821 83.8608C297.92 83.9774 295.047 85.3448 293.192 87.9631C291.337 90.5867 290.483 94.2279 290.621 98.8868L290.626 98.8921ZM332.623 120.257L332.088 75.4228L342.01 75.3062L342.445 111.814L362.672 111.57L362.773 119.902L332.623 120.263V120.257ZM362.587 119.833L383.398 75.0836L391.603 75.1207L412.265 120.056L402.215 120.013L396.866 107.521L400.736 110.272L374.084 110.15L378.039 107.431L372.574 119.87L362.587 119.828V119.833ZM387.421 85.5303L379.131 104.956L377.424 102.528L397.46 102.618L395.987 105.03L387.675 85.5303H387.421ZM415.943 120.167L416.982 75.338L437.331 75.8097C442.377 75.9263 446.247 77.2143 448.95 79.6736C451.648 82.1329 452.952 85.5038 452.851 89.7864C452.788 92.5849 452.104 94.9753 450.811 96.9576C449.512 98.9451 447.694 100.45 445.362 101.473C443.029 102.496 440.247 102.979 437.024 102.904L437.819 101.521L440.427 101.579C442.25 101.622 443.862 102.146 445.256 103.154C446.655 104.161 447.795 105.608 448.685 107.494L455.051 121.068L444.116 120.814L437.517 106.217C437.034 104.977 436.261 104.139 435.19 103.715C434.119 103.286 432.884 103.058 431.485 103.026L426.269 102.904L425.866 120.39L415.949 120.162L415.943 120.167ZM426.439 95.7862L435.153 95.9876C437.739 96.0459 439.722 95.5636 441.105 94.5354C442.483 93.5071 443.199 91.9542 443.247 89.8765C443.294 87.7988 442.653 86.2246 441.323 85.154C439.992 84.0834 438.031 83.5215 435.444 83.4579L426.73 83.2565L426.439 95.7809V95.7862ZM476.763 122.658C473.163 122.51 469.813 121.927 466.713 120.909C463.612 119.892 460.993 118.551 458.857 116.892L462.101 109.259C463.5 110.293 464.99 111.183 466.575 111.925C468.154 112.667 469.829 113.261 471.594 113.69C473.36 114.125 475.215 114.379 477.165 114.459C480.219 114.586 482.408 114.21 483.738 113.33C485.069 112.45 485.763 111.289 485.821 109.853C485.874 108.538 485.482 107.516 484.645 106.779C483.807 106.042 482.254 105.374 479.985 104.775L472.549 102.941C468.472 101.924 465.462 100.36 463.511 98.2402C461.56 96.1254 460.654 93.3693 460.797 89.9825C460.914 87.1045 461.783 84.6346 463.394 82.5781C465.006 80.5216 467.227 78.9581 470.047 77.8874C472.872 76.8168 476.148 76.3557 479.874 76.5094C483.054 76.6419 485.996 77.209 488.715 78.2107C491.435 79.2125 493.645 80.5799 495.357 82.3025L492.134 89.426C490.454 87.9578 488.556 86.8289 486.447 86.0391C484.337 85.2547 481.968 84.8042 479.339 84.6982C476.582 84.5869 474.457 84.9844 472.957 85.9013C471.457 86.8183 470.667 88.1221 470.598 89.8129C470.545 91.0849 470.948 92.1291 471.806 92.9506C472.665 93.7721 474.208 94.4612 476.434 95.0177L483.743 96.7827C487.904 97.8056 490.958 99.348 492.908 101.426C494.859 103.503 495.77 106.191 495.633 109.493C495.516 112.291 494.663 114.692 493.078 116.706C491.488 118.72 489.304 120.252 486.521 121.307C483.738 122.361 480.484 122.807 476.757 122.658H476.763ZM502.189 123.05L504.919 78.2955L514.826 78.8998L513.729 96.8674L534.237 98.1183L535.334 80.1506L545.299 80.7601L542.57 125.515L532.604 124.906L533.739 106.307L513.231 105.056L512.096 123.655L502.195 123.05H502.189ZM551.453 126.247L554.893 81.5393L564.79 82.3025L561.35 127.01L551.453 126.247ZM570.255 127.667L574.368 83.018L595.205 84.9367C600.229 85.3978 603.929 86.9667 606.304 89.6327C608.679 92.2987 609.67 95.7438 609.283 99.9681C608.896 104.15 607.295 107.351 604.47 109.583C601.645 111.814 597.722 112.699 592.697 112.233L581.741 111.226L580.14 128.579L570.26 127.667H570.255ZM582.441 103.556L592.13 104.447C594.494 104.664 596.307 104.298 597.563 103.35C598.82 102.401 599.54 100.975 599.715 99.0777C599.89 97.1802 599.445 95.659 598.38 94.5142C597.314 93.3746 595.597 92.6909 593.233 92.4736L583.543 91.5832L582.441 103.551V103.556ZM159.908 187.141L175.582 164.207L175.513 165.601H162.071L162.558 162.526H179.319L178.9 165.214L164.027 187.135H159.908V187.141ZM188.293 187.459C185.266 187.459 183.162 186.319 181.975 184.035C180.787 181.756 180.517 178.517 181.174 174.33C181.847 170.164 183.067 167.106 184.821 165.15C186.576 163.194 188.828 162.219 191.579 162.219C194.558 162.219 196.657 163.327 197.882 165.537C199.101 167.747 199.376 170.986 198.703 175.242C198.051 179.386 196.822 182.455 195.019 184.459C193.217 186.462 190.975 187.459 188.298 187.459H188.293ZM188.5 184.422C190.222 184.422 191.643 183.68 192.761 182.185C193.88 180.696 194.707 178.263 195.242 174.886C195.592 172.581 195.682 170.721 195.523 169.3C195.359 167.88 194.929 166.846 194.23 166.194C193.53 165.542 192.576 165.219 191.367 165.219C189.623 165.219 188.203 165.95 187.106 167.419C186.014 168.887 185.197 171.293 184.662 174.643C184.291 176.922 184.19 178.787 184.365 180.229C184.54 181.671 184.975 182.731 185.674 183.404C186.374 184.077 187.318 184.416 188.505 184.416L188.5 184.422ZM208.16 177.261C206.182 177.261 204.709 176.567 203.744 175.183C202.779 173.8 202.483 171.86 202.854 169.369C203.225 167.111 204.036 165.357 205.281 164.095C206.527 162.839 208.069 162.208 209.909 162.208C211.912 162.208 213.381 162.897 214.324 164.27C215.268 165.643 215.538 167.578 215.146 170.063C214.796 172.3 214.011 174.054 212.787 175.337C211.563 176.62 210.025 177.256 208.16 177.256V177.261ZM208.26 174.886C209.283 174.886 210.131 174.468 210.81 173.63C211.483 172.793 211.96 171.526 212.241 169.825C212.496 168.033 212.4 166.714 211.944 165.86C211.488 165.012 210.752 164.588 209.729 164.588C208.706 164.588 207.9 164.996 207.248 165.813C206.596 166.629 206.129 167.885 205.854 169.581C205.573 171.372 205.658 172.708 206.098 173.577C206.538 174.452 207.264 174.886 208.26 174.886ZM209.347 187.141H206.098L224.39 162.526H227.671L209.342 187.141H209.347ZM223.871 187.459C221.867 187.459 220.393 186.764 219.434 185.381C218.48 183.998 218.199 182.058 218.597 179.567C218.968 177.309 219.768 175.554 220.987 174.293C222.206 173.037 223.738 172.406 225.577 172.406C227.581 172.406 229.065 173.1 230.03 174.484C230.995 175.867 231.281 177.796 230.883 180.261C230.512 182.498 229.712 184.252 228.493 185.535C227.268 186.817 225.731 187.453 223.865 187.453L223.871 187.459ZM224.008 185.084C225.031 185.084 225.874 184.665 226.542 183.828C227.205 182.99 227.666 181.724 227.92 180.022C228.222 178.252 228.143 176.938 227.676 176.079C227.21 175.22 226.468 174.786 225.445 174.786C224.422 174.786 223.611 175.194 222.948 176.01C222.286 176.826 221.814 178.083 221.533 179.779C221.279 181.591 221.374 182.932 221.83 183.791C222.286 184.649 223.012 185.084 224.014 185.084H224.008ZM244.781 174.33C245.2 171.749 245.99 169.554 247.156 167.747C248.322 165.945 249.817 164.572 251.64 163.629C253.469 162.685 255.531 162.214 257.837 162.214C260.376 162.214 262.438 162.765 264.033 163.873C265.629 164.98 266.737 166.523 267.367 168.5C267.998 170.477 268.099 172.745 267.68 175.305C267.283 177.886 266.498 180.081 265.321 181.888C264.145 183.69 262.65 185.073 260.837 186.028C259.019 186.982 256.952 187.459 254.625 187.459C252.112 187.459 250.05 186.907 248.444 185.8C246.838 184.697 245.725 183.155 245.11 181.173C244.495 179.196 244.384 176.911 244.776 174.33H244.781ZM248.518 174.68C248.216 176.704 248.259 178.432 248.64 179.863C249.022 181.294 249.748 182.397 250.803 183.16C251.858 183.923 253.231 184.31 254.906 184.31C257.418 184.31 259.443 183.478 260.98 181.814C262.517 180.15 263.503 177.865 263.948 174.955C264.277 172.952 264.235 171.24 263.827 169.804C263.418 168.373 262.692 167.27 261.643 166.507C260.593 165.738 259.236 165.357 257.556 165.357C255.043 165.357 253.029 166.178 251.519 167.816C250.003 169.459 249.006 171.743 248.513 174.674L248.518 174.68ZM270.792 187.141L274.703 162.526H290.483L289.996 165.426H277.847L276.628 173.318H287.976L287.52 176.217H276.172L274.428 187.146H270.797L270.792 187.141ZM305.807 187.141L309.232 165.563H300.819L301.307 162.526H321.767L321.28 165.563H312.868L309.444 187.141H305.813H305.807ZM321.243 187.141L325.155 162.526H328.785L327.11 173.137H340.934L342.609 162.526H346.24L342.329 187.141H338.698L340.442 176.18H326.618L324.874 187.141H321.243ZM348.122 187.141L352.034 162.526H368.164L367.708 165.426H355.071L353.847 173.175H365.683L365.227 176.106H353.391L352.098 184.204H364.702L364.247 187.135H348.117L348.122 187.141ZM378.081 187.141L381.993 162.526H384.786L396.623 182.529L395.891 182.354L399.034 162.526H402.422L398.51 187.141H395.753L383.88 167.138L384.611 167.312L381.468 187.141H378.081ZM404.266 187.141L408.178 162.526H424.308L423.852 165.426H411.215L409.991 173.175H421.827L421.371 176.106H409.535L408.242 184.204H420.846L420.391 187.135H404.261L404.266 187.141ZM430.488 187.141L433.912 165.563H425.5L425.988 162.526H446.448L445.961 165.563H437.549L434.13 187.141H430.499H430.488ZM461.142 187.141L464.566 165.563H456.148L456.636 162.526H477.096L476.609 165.563H468.197L464.773 187.141H461.142ZM486.834 187.459C484.671 187.459 482.864 187.082 481.422 186.324C479.98 185.566 478.962 184.422 478.369 182.884C477.775 181.347 477.653 179.439 478.003 177.16L480.34 162.532H483.971L481.634 177.192C481.263 179.567 481.501 181.347 482.349 182.535C483.197 183.722 484.809 184.316 487.184 184.316C489.277 184.316 490.942 183.759 492.177 182.641C493.412 181.522 494.223 179.699 494.62 177.16L496.958 162.532H500.52L498.145 177.367C497.795 179.673 497.143 181.57 496.189 183.059C495.235 184.549 493.979 185.656 492.421 186.377C490.862 187.098 488.996 187.459 486.834 187.459ZM502.232 187.141L506.144 162.526H509.775L505.863 187.141H502.232ZM517.561 187.141L520.985 165.563H512.573L513.061 162.526H533.521L533.034 165.563H524.622L521.197 187.141H517.567H517.561ZM532.991 187.141L536.903 162.526H540.534L536.622 187.141H532.991ZM543.603 174.33C544.022 171.749 544.812 169.554 545.978 167.747C547.144 165.945 548.639 164.572 550.462 163.629C552.286 162.685 554.353 162.214 556.659 162.214C559.198 162.214 561.259 162.765 562.855 163.873C564.45 164.98 565.564 166.523 566.189 168.5C566.82 170.477 566.921 172.745 566.502 175.305C566.104 177.886 565.32 180.081 564.143 181.888C562.966 183.69 561.471 185.073 559.659 186.028C557.846 186.982 555.773 187.459 553.446 187.459C550.934 187.459 548.872 186.907 547.266 185.8C545.66 184.697 544.547 183.155 543.932 181.173C543.317 179.196 543.206 176.911 543.598 174.33H543.603ZM547.34 174.68C547.038 176.704 547.08 178.432 547.462 179.863C547.844 181.294 548.564 182.397 549.625 183.16C550.685 183.929 552.052 184.31 553.727 184.31C556.24 184.31 558.265 183.478 559.802 181.814C561.339 180.15 562.325 177.865 562.77 174.955C563.093 172.952 563.056 171.24 562.648 169.804C562.24 168.373 561.514 167.27 560.464 166.507C559.415 165.738 558.058 165.357 556.378 165.357C553.865 165.357 551.851 166.178 550.335 167.816C548.819 169.454 547.822 171.743 547.335 174.674L547.34 174.68ZM569.613 187.141L573.525 162.526H576.318L588.155 182.529L587.423 182.354L590.566 162.526H593.954L590.042 187.141H587.285L575.417 167.138L576.149 167.312L573.006 187.141H569.619H569.613Z" fill="url(#paint0_linear_508_560)"/>
<defs>
<linearGradient id="paint0_linear_508_560" x1="0.656785" y1="94.0583" x2="750.369" y2="94.0583" gradientUnits="userSpaceOnUse">
<stop stop-color="#F9D16F"/>
<stop offset="0.07" stop-color="#EEBE5C"/>
<stop offset="0.18" stop-color="#E0A341"/>
<stop offset="0.25" stop-color="#DB9A38"/>
<stop offset="0.3" stop-color="#DDA044"/>
<stop offset="0.4" stop-color="#E5B365"/>
<stop offset="0.52" stop-color="#F1D19B"/>
<stop offset="0.64" stop-color="#FFF1D5"/>
<stop offset="0.66" stop-color="#FEEBC4"/>
<stop offset="0.68" stop-color="#FCE3AA"/>
<stop offset="0.71" stop-color="#FBDC94"/>
<stop offset="0.74" stop-color="#FAD783"/>
<stop offset="0.78" stop-color="#F9D377"/>
<stop offset="0.84" stop-color="#F9D170"/>
<stop offset="1" stop-color="#F9D16F"/>
</linearGradient>
</defs>
</svg>
